<svg xmlns="http://www.w3.org/2000/svg" width="120" height="120" viewBox="0 0 120 120"><title>nav-illo_AWS-Tech-Talks_120</title><g id="Illustrations"><path d="M21.16,79.78,8.46,73.37V56.45M70.84,14.17,51.78,3.66,8.46,28V41.9m87.48,1.22V28L83.58,21.2M95.94,50V46.66m0,15V53.29M84,81.78l11.9-8.24V65.22M38.77,88.67,43,90.79l-8.8,25.55,37.9-26.27m-42.8-6.19,7.06,3.56M24.12,81.28l2.93,1.47M8.46,41.9a7.28,7.28,0,1,0,7.28,7.27A7.26,7.26,0,0,0,8.46,41.9ZM77.24,10.36a7.28,7.28,0,1,0,7.28,7.28A7.27,7.27,0,0,0,77.24,10.36Zm.91,68.42a7.28,7.28,0,1,0,7.28,7.28A7.28,7.28,0,0,0,78.15,78.78ZM30.06,45.2V42.38m0,10.25V47.78m0,8v3L60,79.62l-4.27-12.4,16.76-8.46v-22l-21-11.82L30.06,36.74v3m16.47-.93V60L59.34,49.17Z" style="fill:none;stroke:#aab7b8;stroke-linejoin:round;stroke-width:2px"/></g></svg>