<svg width="703" height="471" viewBox="0 0 703 471" fill="none" xmlns="http://www.w3.org/2000/svg">
<path d="M287.93 164.25C295.938 164.25 302.43 157.758 302.43 149.75C302.43 141.742 295.938 135.25 287.93 135.25C279.922 135.25 273.43 141.742 273.43 149.75C273.43 157.758 279.922 164.25 287.93 164.25Z" fill="#A3CD3A"/>
<path d="M289.11 154.99H287.99V146.52C287.9 146.61 287.78 146.71 287.61 146.82C287.44 146.93 287.26 147.04 287.05 147.15C286.84 147.26 286.62 147.36 286.39 147.46C286.16 147.56 285.93 147.63 285.72 147.69V146.56C285.97 146.49 286.23 146.4 286.5 146.28C286.78 146.16 287.05 146.03 287.31 145.89C287.58 145.75 287.83 145.6 288.07 145.44C288.31 145.28 288.51 145.13 288.69 144.98H289.11V154.99V154.99Z" fill="#010101"/>
<path d="M50.7998 164.25C58.8079 164.25 65.2998 157.758 65.2998 149.75C65.2998 141.742 58.8079 135.25 50.7998 135.25C42.7917 135.25 36.2998 141.742 36.2998 149.75C36.2998 157.758 42.7917 164.25 50.7998 164.25Z" fill="#A3CD3A"/>
<path d="M54.01 151.88C54.01 152.36 53.93 152.8 53.78 153.2C53.63 153.6 53.41 153.95 53.14 154.24C52.87 154.53 52.54 154.76 52.16 154.92C51.78 155.08 51.37 155.16 50.93 155.16C50.44 155.16 50 155.06 49.61 154.85C49.22 154.64 48.89 154.35 48.62 153.97C48.35 153.58 48.14 153.11 48 152.56C47.86 152.01 47.79 151.38 47.79 150.68C47.79 149.83 47.88 149.05 48.07 148.36C48.26 147.67 48.53 147.07 48.88 146.58C49.23 146.08 49.65 145.7 50.14 145.43C50.63 145.16 51.18 145.03 51.79 145.03C52.46 145.03 53.01 145.12 53.42 145.31V146.37C52.91 146.11 52.38 145.98 51.82 145.98C51.38 145.98 50.99 146.08 50.64 146.27C50.29 146.46 49.99 146.74 49.74 147.1C49.49 147.46 49.3 147.89 49.16 148.4C49.03 148.91 48.96 149.47 48.96 150.09H48.99C49.44 149.27 50.19 148.87 51.23 148.87C51.66 148.87 52.04 148.94 52.39 149.09C52.73 149.24 53.03 149.44 53.27 149.71C53.51 149.98 53.7 150.29 53.83 150.66C53.96 151.03 54.01 151.43 54.01 151.88ZM52.86 152.02C52.86 151.68 52.82 151.37 52.73 151.1C52.64 150.83 52.52 150.59 52.36 150.4C52.2 150.21 52 150.06 51.76 149.96C51.52 149.86 51.25 149.81 50.95 149.81C50.67 149.81 50.41 149.86 50.18 149.97C49.95 150.08 49.74 150.22 49.56 150.4C49.39 150.58 49.25 150.79 49.15 151.03C49.05 151.27 49 151.52 49 151.79C49 152.13 49.05 152.44 49.14 152.74C49.24 153.03 49.37 153.29 49.54 153.51C49.71 153.73 49.92 153.9 50.16 154.03C50.4 154.16 50.66 154.22 50.96 154.22C51.24 154.22 51.5 154.17 51.73 154.06C51.96 153.95 52.16 153.8 52.32 153.61C52.48 153.42 52.61 153.19 52.7 152.92C52.81 152.64 52.86 152.35 52.86 152.02Z" fill="#010101"/>
<path d="M653.84 55.3901H653.34" stroke="#9F9F9F" stroke-miterlimit="10"/>
<path d="M649.25 55.3901H548.93" stroke="#9F9F9F" stroke-miterlimit="10" stroke-dasharray="1.02 1.02"/>
<path d="M546.88 55.3901H546.38V55.8901" stroke="#9F9F9F" stroke-miterlimit="10"/>
<path d="M546.38 59.9102V429.64" stroke="#9F9F9F" stroke-miterlimit="10" stroke-dasharray="1 1"/>
<path d="M546.38 431.65V432.15H546.88" stroke="#9F9F9F" stroke-miterlimit="10"/>
<path d="M550.98 432.15H651.29" stroke="#9F9F9F" stroke-miterlimit="10" stroke-dasharray="1.02 1.02"/>
<path d="M653.34 432.15H653.84V431.65" stroke="#9F9F9F" stroke-miterlimit="10"/>
<path d="M653.84 427.66V95.3901" stroke="#9F9F9F" stroke-miterlimit="10" stroke-dasharray="1 1"/>
<path d="M653.84 93.3901V92.8901" stroke="#9F9F9F" stroke-miterlimit="10"/>
<path d="M342.03 431.65V432.15H342.53" stroke="#9F9F9F" stroke-miterlimit="10"/>
<path d="M346.54 432.15H484.78" stroke="#9F9F9F" stroke-miterlimit="10" stroke-dasharray="1 1"/>
<path d="M486.78 432.15H487.28V431.65" stroke="#9F9F9F" stroke-miterlimit="10"/>
<path d="M487.28 427.63V57.9001" stroke="#9F9F9F" stroke-miterlimit="10" stroke-dasharray="1 1"/>
<path d="M487.28 55.8901V55.3901H486.78" stroke="#9F9F9F" stroke-miterlimit="10"/>
<path d="M482.77 55.3901H344.53" stroke="#9F9F9F" stroke-miterlimit="10" stroke-dasharray="1 1"/>
<path d="M342.53 55.3901H342.03V55.8901" stroke="#9F9F9F" stroke-miterlimit="10"/>
<path d="M342.03 59.9102V429.64" stroke="#9F9F9F" stroke-miterlimit="10" stroke-dasharray="1 1"/>
<path d="M566.76 121.83L557.69 116.6V121.08H478.42V122.58H557.69V127.07L566.76 121.83Z" fill="#959595"/>
<path d="M566.76 284.13L557.69 278.9V283.38H478.42V284.88H557.69V289.37L566.76 284.13Z" fill="#959595"/>
<path d="M566.76 401.06L557.69 395.83V400.31H478.42V401.81H557.69V406.3L566.76 401.06Z" fill="#959595"/>
<path d="M355.76 284.13L346.69 278.9V283.38H204.14V284.88H346.69V289.37L355.76 284.13Z" fill="#959595"/>
<path d="M355.76 401.06L346.69 395.83V400.31H179.02V318.8H177.52V401.81H346.69V406.3L355.76 401.06Z" fill="#959595"/>
<path d="M406.6 431.87V448.13C326.39 448.32 177.13 448.56 166.05 448.18V326.02H170.54L165.3 316.95L160.06 326.02H164.55V449.41L165.05 449.58C165.68 449.8 195.06 449.87 233.45 449.87C296 449.87 382.46 449.68 407.35 449.62H408.1V431.86H406.6V431.87Z" fill="#959595"/>
<path d="M235.17 121.08H218.71V122.58H233.67V269.92L211.47 270.04L211.45 265.56L202.41 270.85L211.51 276.03L211.48 271.54L235.17 271.41V121.08Z" fill="#959595"/>
<path d="M100.95 270.05V122.72L118.81 122.6L118.84 127.08L127.87 121.78L118.77 116.61L118.8 121.09L99.4502 121.23V271.55H136.79V270.05H100.95Z" fill="#959595"/>
<path d="M547.77 49.45L547.63 29.04L169.07 28.04V59.01H170.57V29.54L546.14 30.54L546.27 49.46L541.78 49.49L547.08 58.52L552.25 49.42L547.77 49.45Z" fill="#959595"/>
<path d="M287.93 416.1C295.938 416.1 302.43 409.608 302.43 401.6C302.43 393.592 295.938 387.1 287.93 387.1C279.922 387.1 273.43 393.592 273.43 401.6C273.43 409.608 279.922 416.1 287.93 416.1Z" fill="#A3CD3A"/>
<path d="M289.54 397.03V403.5H290.8V404.53H289.54V406.83H288.43V404.53H283.82V403.56C284.25 403.08 284.68 402.56 285.12 402.01C285.56 401.46 285.98 400.9 286.37 400.34C286.77 399.77 287.14 399.21 287.48 398.65C287.82 398.09 288.11 397.55 288.34 397.03H289.54V397.03ZM285.09 403.51H288.43V398.71C288.09 399.31 287.76 399.84 287.46 400.31C287.16 400.78 286.86 401.21 286.59 401.59C286.31 401.97 286.05 402.32 285.8 402.63C285.55 402.94 285.32 403.23 285.09 403.51Z" fill="#010101"/>
<path d="M287.93 461.96C295.938 461.96 302.43 455.468 302.43 447.46C302.43 439.452 295.938 432.96 287.93 432.96C279.922 432.96 273.43 439.452 273.43 447.46C273.43 455.468 279.922 461.96 287.93 461.96Z" fill="#A3CD3A"/>
<path d="M290.78 449.7C290.78 450.18 290.7 450.61 290.53 451C290.36 451.39 290.13 451.72 289.83 452C289.53 452.28 289.16 452.49 288.73 452.64C288.3 452.79 287.83 452.87 287.3 452.87C286.39 452.87 285.71 452.73 285.27 452.46V451.27C285.94 451.7 286.62 451.91 287.31 451.91C287.67 451.91 287.99 451.86 288.27 451.75C288.56 451.65 288.8 451.5 289 451.31C289.2 451.12 289.35 450.9 289.46 450.63C289.57 450.37 289.62 450.08 289.62 449.76C289.62 449.12 289.41 448.62 288.98 448.26C288.55 447.9 287.93 447.72 287.11 447.72C286.98 447.72 286.84 447.72 286.69 447.73C286.54 447.74 286.4 447.74 286.25 447.75C286.1 447.76 285.96 447.76 285.82 447.77C285.68 447.78 285.55 447.79 285.44 447.8L285.77 442.88H290.3V443.89H286.74L286.54 446.77C286.69 446.76 286.84 446.75 287 446.75C287.16 446.74 287.31 446.74 287.44 446.74C287.96 446.74 288.42 446.81 288.83 446.95C289.24 447.09 289.59 447.28 289.87 447.53C290.16 447.78 290.37 448.09 290.52 448.46C290.71 448.83 290.78 449.24 290.78 449.7Z" fill="#010101"/>
<path d="M287.93 42C295.938 42 302.43 35.5081 302.43 27.5C302.43 19.4919 295.938 13 287.93 13C279.922 13 273.43 19.4919 273.43 27.5C273.43 35.5081 279.922 42 287.93 42Z" fill="#A3CD3A"/>
<path d="M289.44 25.51C289.44 25.21 289.39 24.95 289.3 24.72C289.21 24.5 289.08 24.31 288.92 24.16C288.76 24.01 288.57 23.9 288.35 23.83C288.13 23.76 287.89 23.72 287.64 23.72C287.42 23.72 287.21 23.75 287 23.81C286.79 23.87 286.59 23.95 286.39 24.06C286.19 24.16 286 24.29 285.82 24.44C285.63 24.59 285.46 24.75 285.3 24.93V23.73C285.61 23.42 285.97 23.19 286.36 23.03C286.75 22.87 287.23 22.79 287.79 22.79C288.19 22.79 288.56 22.85 288.9 22.96C289.24 23.08 289.54 23.25 289.79 23.47C290.04 23.69 290.24 23.97 290.38 24.3C290.52 24.63 290.6 25 290.6 25.43C290.6 25.82 290.56 26.17 290.47 26.48C290.38 26.79 290.25 27.09 290.07 27.37C289.89 27.65 289.66 27.91 289.39 28.17C289.12 28.43 288.8 28.68 288.43 28.95C287.97 29.28 287.59 29.56 287.29 29.79C286.99 30.02 286.75 30.24 286.58 30.44C286.41 30.64 286.28 30.85 286.21 31.05C286.14 31.25 286.1 31.49 286.1 31.75H290.98V32.75H284.93V32.26C284.93 31.84 284.98 31.47 285.07 31.15C285.16 30.83 285.31 30.53 285.52 30.24C285.73 29.95 286 29.67 286.34 29.38C286.68 29.09 287.1 28.77 287.59 28.41C287.95 28.16 288.24 27.91 288.48 27.68C288.72 27.45 288.91 27.22 289.06 26.98C289.21 26.74 289.31 26.51 289.37 26.27C289.41 26.03 289.44 25.77 289.44 25.51Z" fill="#010101"/>
<path d="M287.93 298.19C295.938 298.19 302.43 291.698 302.43 283.69C302.43 275.682 295.938 269.19 287.93 269.19C279.922 269.19 273.43 275.682 273.43 283.69C273.43 291.698 279.922 298.19 287.93 298.19Z" fill="#A3CD3A"/>
<path d="M290.68 286.15C290.68 286.59 290.6 286.99 290.43 287.36C290.26 287.72 290.03 288.03 289.72 288.29C289.42 288.55 289.05 288.75 288.63 288.89C288.21 289.03 287.74 289.1 287.23 289.1C286.3 289.1 285.55 288.92 285 288.57V287.37C285.66 287.89 286.42 288.15 287.27 288.15C287.61 288.15 287.92 288.11 288.2 288.02C288.48 287.93 288.71 287.81 288.91 287.64C289.11 287.48 289.26 287.28 289.37 287.05C289.48 286.82 289.53 286.56 289.53 286.26C289.53 284.98 288.62 284.34 286.8 284.34H285.99V283.39H286.76C288.37 283.39 289.18 282.79 289.18 281.59C289.18 280.48 288.56 279.92 287.33 279.92C286.64 279.92 285.99 280.15 285.38 280.62V279.53C286 279.16 286.75 278.97 287.61 278.97C288.02 278.97 288.39 279.03 288.72 279.14C289.05 279.25 289.34 279.41 289.57 279.62C289.8 279.83 289.99 280.07 290.12 280.36C290.25 280.65 290.31 280.96 290.31 281.31C290.31 282.6 289.66 283.43 288.35 283.8V283.83C288.68 283.87 288.99 283.95 289.27 284.07C289.55 284.2 289.8 284.36 290 284.56C290.2 284.76 290.37 285 290.48 285.27C290.62 285.52 290.68 285.82 290.68 286.15Z" fill="#010101"/>
<path d="M564.9 50.78H563.63L562.59 48.03H558.43L557.45 50.78H556.17L559.93 40.98H561.12L564.9 50.78ZM562.21 47L560.67 42.82C560.62 42.68 560.57 42.46 560.52 42.16H560.49C560.44 42.44 560.39 42.66 560.33 42.82L558.81 47H562.21Z" fill="#535353"/>
<path d="M573.16 50.7797H571.56L567.77 46.2997C567.63 46.1297 567.54 46.0197 567.51 45.9597H567.48V50.7897H566.33V40.9897H567.48V45.5997H567.51C567.57 45.4997 567.66 45.3897 567.77 45.2697L571.43 40.9997H572.86L568.65 45.6997L573.16 50.7797Z" fill="#535353"/>
<path d="M574 50.3798V49.0298C574.15 49.1698 574.34 49.2898 574.56 49.3998C574.78 49.5098 575 49.5998 575.24 49.6798C575.48 49.7598 575.72 49.8098 575.96 49.8498C576.2 49.8898 576.42 49.9098 576.63 49.9098C577.34 49.9098 577.86 49.7798 578.21 49.5198C578.56 49.2598 578.73 48.8798 578.73 48.3898C578.73 48.1298 578.67 47.8998 578.56 47.6998C578.44 47.4998 578.28 47.3198 578.08 47.1598C577.87 46.9998 577.63 46.8398 577.35 46.6998C577.07 46.5498 576.77 46.3998 576.44 46.2298C576.1 46.0598 575.78 45.8798 575.48 45.6998C575.18 45.5198 574.93 45.3298 574.71 45.1098C574.49 44.8998 574.32 44.6498 574.19 44.3798C574.06 44.1098 574 43.7898 574 43.4298C574 42.9798 574.1 42.5998 574.29 42.2598C574.49 41.9298 574.74 41.6598 575.06 41.4398C575.38 41.2298 575.74 41.0698 576.15 40.9598C576.56 40.8598 576.97 40.7998 577.4 40.7998C578.37 40.7998 579.07 40.9198 579.51 41.1498V42.4398C578.93 42.0398 578.19 41.8398 577.28 41.8398C577.03 41.8398 576.78 41.8698 576.53 41.9198C576.28 41.9698 576.06 42.0598 575.86 42.1798C575.66 42.2998 575.5 42.4498 575.38 42.6398C575.26 42.8298 575.2 43.0598 575.2 43.3198C575.2 43.5698 575.25 43.7898 575.34 43.9698C575.43 44.1498 575.57 44.3198 575.75 44.4698C575.93 44.6198 576.15 44.7698 576.42 44.9098C576.68 45.0498 576.98 45.2098 577.33 45.3698C577.68 45.5398 578.01 45.7298 578.33 45.9198C578.65 46.1098 578.92 46.3198 579.16 46.5598C579.4 46.7898 579.58 47.0498 579.72 47.3298C579.86 47.6098 579.93 47.9398 579.93 48.2998C579.93 48.7798 579.84 49.1898 579.65 49.5298C579.46 49.8698 579.21 50.1398 578.88 50.3498C578.56 50.5598 578.19 50.7098 577.77 50.8098C577.35 50.8998 576.91 50.9498 576.44 50.9498C576.29 50.9498 576.09 50.9398 575.87 50.9098C575.64 50.8798 575.41 50.8498 575.17 50.7998C574.93 50.7498 574.71 50.6898 574.5 50.6198C574.3 50.5498 574.13 50.4698 574 50.3798Z" fill="#535353"/>
<path d="M592.41 50.3701C591.69 50.7501 590.78 50.9401 589.7 50.9401C588.31 50.9401 587.19 50.4901 586.35 49.5901C585.51 48.6901 585.09 47.5101 585.09 46.0601C585.09 44.4901 585.56 43.2301 586.5 42.2601C587.44 41.2901 588.64 40.8101 590.09 40.8101C591.02 40.8101 591.79 40.9401 592.4 41.2101V42.4301C591.7 42.0401 590.92 41.8401 590.08 41.8401C588.95 41.8401 588.04 42.2201 587.34 42.9701C586.64 43.7201 586.29 44.7301 586.29 45.9801C586.29 47.1701 586.62 48.1301 587.27 48.8301C587.92 49.5401 588.78 49.8901 589.84 49.8901C590.82 49.8901 591.68 49.6701 592.4 49.2301V50.3701H592.41Z" fill="#535353"/>
<path d="M597.18 50.9401C596.14 50.9401 595.32 50.6101 594.7 49.9601C594.08 49.3101 593.77 48.4401 593.77 47.3601C593.77 46.1801 594.09 45.2701 594.73 44.6101C595.37 43.9501 596.24 43.6201 597.34 43.6201C598.38 43.6201 599.2 43.9401 599.78 44.5801C600.37 45.2201 600.66 46.1101 600.66 47.2501C600.66 48.3701 600.34 49.2601 599.71 49.9301C599.09 50.6101 598.24 50.9401 597.18 50.9401ZM597.26 44.5601C596.54 44.5601 595.97 44.8101 595.55 45.3001C595.13 45.7901 594.92 46.4701 594.92 47.3301C594.92 48.1601 595.13 48.8101 595.55 49.2901C595.97 49.7701 596.54 50.0101 597.25 50.0101C597.97 50.0101 598.53 49.7801 598.92 49.3101C599.31 48.8401 599.5 48.1701 599.5 47.3101C599.5 46.4301 599.3 45.7601 598.92 45.2901C598.54 44.8001 597.98 44.5601 597.26 44.5601Z" fill="#535353"/>
<path d="M612.39 50.7801H611.27V46.7601C611.27 45.9901 611.15 45.4301 610.91 45.0801C610.67 44.7301 610.27 44.5601 609.7 44.5601C609.22 44.5601 608.82 44.7801 608.48 45.2201C608.15 45.6601 607.98 46.1801 607.98 46.7901V50.7801H606.86V46.6201C606.86 45.2401 606.33 44.5601 605.27 44.5601C604.78 44.5601 604.37 44.7701 604.05 45.1801C603.73 45.5901 603.57 46.1301 603.57 46.7901V50.7801H602.45V43.7801H603.57V44.8901H603.6C604.1 44.0401 604.82 43.6201 605.77 43.6201C606.25 43.6201 606.66 43.7501 607.02 44.0201C607.38 44.2901 607.62 44.6401 607.75 45.0701C608.27 44.1001 609.04 43.6201 610.07 43.6201C611.61 43.6201 612.38 44.5701 612.38 46.4701V50.7801H612.39Z" fill="#535353"/>
<path d="M615.66 49.7701H615.63V54.0001H614.51V43.7801H615.63V45.0101H615.66C616.21 44.0801 617.02 43.6201 618.08 43.6201C618.98 43.6201 619.69 43.9301 620.19 44.5601C620.7 45.1901 620.95 46.0301 620.95 47.0801C620.95 48.2501 620.66 49.1901 620.09 49.8901C619.52 50.5901 618.74 50.9501 617.75 50.9501C616.85 50.9401 616.15 50.5501 615.66 49.7701ZM615.63 46.9501V47.9301C615.63 48.5101 615.82 49.0001 616.19 49.4001C616.56 49.8001 617.04 50.0001 617.62 50.0001C618.3 50.0001 618.83 49.7401 619.22 49.2201C619.61 48.7001 619.8 47.9801 619.8 47.0501C619.8 46.2701 619.62 45.6601 619.26 45.2201C618.9 44.7801 618.41 44.5601 617.8 44.5601C617.15 44.5601 616.62 44.7901 616.23 45.2401C615.83 45.6901 615.63 46.2601 615.63 46.9501Z" fill="#535353"/>
<path d="M628.4 50.7798H627.28V49.6698H627.25C626.79 50.5198 626.06 50.9398 625.09 50.9398C623.42 50.9398 622.59 49.9498 622.59 47.9598V43.7798H623.7V47.7898C623.7 49.2698 624.27 49.9998 625.4 49.9998C625.95 49.9998 626.4 49.7998 626.75 49.3998C627.1 48.9998 627.28 48.4698 627.28 47.8198V43.7898H628.4V50.7798V50.7798Z" fill="#535353"/>
<path d="M633.91 50.71C633.65 50.86 633.3 50.93 632.86 50.93C631.63 50.93 631.02 50.25 631.02 48.88V44.74H629.82V43.78H631.02V42.07L632.14 41.71V43.78H633.9V44.74H632.14V48.68C632.14 49.15 632.22 49.48 632.38 49.68C632.54 49.88 632.8 49.98 633.17 49.98C633.45 49.98 633.7 49.9 633.9 49.75V50.71H633.91Z" fill="#535353"/>
<path d="M641.04 47.5601H636.1C636.12 48.3401 636.33 48.9401 636.73 49.3601C637.13 49.7801 637.68 50.0001 638.38 50.0001C639.17 50.0001 639.89 49.7401 640.55 49.2201V50.2701C639.93 50.7201 639.12 50.9401 638.11 50.9401C637.12 50.9401 636.34 50.6201 635.78 49.9901C635.22 49.3501 634.93 48.4601 634.93 47.3101C634.93 46.2201 635.24 45.3301 635.86 44.6501C636.48 43.9601 637.24 43.6201 638.16 43.6201C639.08 43.6201 639.79 43.9201 640.29 44.5101C640.79 45.1001 641.04 45.9301 641.04 46.9801V47.5601V47.5601ZM639.89 46.6101C639.89 45.9601 639.73 45.4601 639.42 45.1001C639.11 44.7401 638.69 44.5601 638.14 44.5601C637.61 44.5601 637.16 44.7501 636.79 45.1301C636.42 45.5101 636.19 46.0001 636.11 46.6101H639.89Z" fill="#535353"/>
<path d="M646.38 44.9199C646.18 44.7699 645.9 44.6899 645.53 44.6899C645.05 44.6899 644.65 44.9199 644.33 45.3699C644.01 45.8199 643.85 46.4399 643.85 47.2199V50.7899H642.73V43.7899H643.85V45.2299H643.88C644.04 44.7399 644.28 44.3499 644.61 44.0799C644.94 43.7999 645.31 43.6699 645.71 43.6699C646 43.6699 646.22 43.6999 646.38 43.7699V44.9199V44.9199Z" fill="#535353"/>
<path d="M652.73 47.0797V50.7897H651.58V40.9897H654.27C655.32 40.9897 656.13 41.2497 656.71 41.7597C657.29 42.2697 657.58 42.9897 657.58 43.9197C657.58 44.8497 657.26 45.6097 656.62 46.1997C655.98 46.7897 655.12 47.0897 654.03 47.0897H652.73V47.0797ZM652.73 42.0197V46.0397H653.93C654.72 46.0397 655.33 45.8597 655.75 45.4997C656.17 45.1397 656.38 44.6297 656.38 43.9597C656.38 42.6697 655.61 42.0197 654.08 42.0197H652.73Z" fill="#535353"/>
<path d="M661.68 50.9401C660.64 50.9401 659.82 50.6101 659.2 49.9601C658.58 49.3101 658.27 48.4401 658.27 47.3601C658.27 46.1801 658.59 45.2701 659.23 44.6101C659.87 43.9501 660.74 43.6201 661.84 43.6201C662.88 43.6201 663.7 43.9401 664.28 44.5801C664.87 45.2201 665.16 46.1101 665.16 47.2501C665.16 48.3701 664.84 49.2601 664.21 49.9301C663.59 50.6101 662.74 50.9401 661.68 50.9401ZM661.76 44.5601C661.04 44.5601 660.47 44.8101 660.05 45.3001C659.63 45.7901 659.42 46.4701 659.42 47.3301C659.42 48.1601 659.63 48.8101 660.05 49.2901C660.47 49.7701 661.04 50.0101 661.75 50.0101C662.47 50.0101 663.03 49.7801 663.42 49.3101C663.81 48.8401 664 48.1701 664 47.3101C664 46.4301 663.8 45.7601 663.42 45.2901C663.05 44.8001 662.49 44.5601 661.76 44.5601Z" fill="#535353"/>
<path d="M669.88 50.9401C668.84 50.9401 668.02 50.6101 667.4 49.9601C666.78 49.3101 666.47 48.4401 666.47 47.3601C666.47 46.1801 666.79 45.2701 667.43 44.6101C668.07 43.9501 668.94 43.6201 670.04 43.6201C671.08 43.6201 671.9 43.9401 672.48 44.5801C673.07 45.2201 673.36 46.1101 673.36 47.2501C673.36 48.3701 673.04 49.2601 672.41 49.9301C671.79 50.6101 670.95 50.9401 669.88 50.9401ZM669.97 44.5601C669.25 44.5601 668.68 44.8101 668.26 45.3001C667.84 45.7901 667.63 46.4701 667.63 47.3301C667.63 48.1601 667.84 48.8101 668.26 49.2901C668.68 49.7701 669.25 50.0101 669.96 50.0101C670.68 50.0101 671.24 49.7801 671.63 49.3101C672.02 48.8401 672.21 48.1701 672.21 47.3101C672.21 46.4301 672.01 45.7601 671.63 45.2901C671.25 44.8001 670.69 44.5601 669.97 44.5601Z" fill="#535353"/>
<path d="M676.28 50.7799H675.16V40.4199H676.28V50.7799Z" fill="#535353"/>
<path d="M344.18 47.27C344.18 48.43 343.93 49.34 343.44 49.98C342.95 50.62 342.29 50.95 341.46 50.95C341.08 50.95 340.76 50.9 340.52 50.79V49.66C340.77 49.84 341.09 49.93 341.48 49.93C342.51 49.93 343.03 49.05 343.03 47.3V41H344.18V47.27V47.27Z" fill="#535353"/>
<path d="M349.44 50.9401C348.4 50.9401 347.58 50.6101 346.96 49.9601C346.34 49.3101 346.03 48.4401 346.03 47.3601C346.03 46.1801 346.35 45.2701 346.99 44.6101C347.63 43.9501 348.5 43.6201 349.59 43.6201C350.63 43.6201 351.45 43.9401 352.03 44.5801C352.62 45.2201 352.91 46.1101 352.91 47.2501C352.91 48.3701 352.59 49.2601 351.96 49.9301C351.35 50.6101 350.5 50.9401 349.44 50.9401ZM349.52 44.5601C348.8 44.5601 348.23 44.8101 347.81 45.3001C347.39 45.7901 347.18 46.4701 347.18 47.3301C347.18 48.1601 347.39 48.8101 347.82 49.2901C348.25 49.7701 348.81 50.0101 349.52 50.0101C350.24 50.0101 350.8 49.7801 351.19 49.3101C351.58 48.8401 351.77 48.1701 351.77 47.3101C351.77 46.4301 351.57 45.7601 351.19 45.2901C350.8 44.8001 350.25 44.5601 349.52 44.5601Z" fill="#535353"/>
<path d="M355.87 49.7699H355.84V50.7799H354.72V40.4199H355.84V45.0099H355.87C356.42 44.0799 357.23 43.6199 358.29 43.6199C359.19 43.6199 359.89 43.9299 360.4 44.5599C360.91 45.1899 361.16 46.0299 361.16 47.0799C361.16 48.2499 360.87 49.1899 360.31 49.8899C359.75 50.5899 358.96 50.9499 357.97 50.9499C357.04 50.9399 356.34 50.5499 355.87 49.7699ZM355.84 46.9499V47.9299C355.84 48.5099 356.03 48.9999 356.4 49.3999C356.78 49.7999 357.25 49.9999 357.83 49.9999C358.51 49.9999 359.04 49.7399 359.43 49.2199C359.82 48.6999 360.01 47.9799 360.01 47.0499C360.01 46.2699 359.83 45.6599 359.47 45.2199C359.11 44.7799 358.62 44.5599 358.01 44.5599C357.36 44.5599 356.83 44.7899 356.44 45.2399C356.04 45.6899 355.84 46.2599 355.84 46.9499Z" fill="#535353"/>
<path d="M366.15 127.39C365.43 127.77 364.52 127.96 363.44 127.96C362.05 127.96 360.93 127.51 360.09 126.61C359.25 125.71 358.83 124.53 358.83 123.08C358.83 121.51 359.3 120.25 360.25 119.28C361.19 118.31 362.39 117.83 363.84 117.83C364.77 117.83 365.54 117.96 366.15 118.23V119.45C365.45 119.06 364.67 118.86 363.83 118.86C362.7 118.86 361.79 119.24 361.09 119.99C360.39 120.74 360.04 121.75 360.04 123.01C360.04 124.2 360.37 125.15 361.02 125.86C361.67 126.57 362.53 126.92 363.59 126.92C364.57 126.92 365.43 126.7 366.15 126.26V127.39Z" fill="#535353"/>
<path d="M370.93 127.97C369.9 127.97 369.07 127.64 368.45 126.99C367.83 126.34 367.52 125.47 367.52 124.39C367.52 123.21 367.84 122.3 368.48 121.63C369.12 120.97 369.99 120.64 371.08 120.64C372.12 120.64 372.94 120.96 373.52 121.6C374.1 122.24 374.4 123.13 374.4 124.27C374.4 125.39 374.08 126.28 373.45 126.95C372.83 127.63 371.99 127.97 370.93 127.97ZM371.01 121.58C370.29 121.58 369.72 121.82 369.3 122.31C368.88 122.8 368.67 123.48 368.67 124.34C368.67 125.17 368.88 125.82 369.31 126.3C369.74 126.78 370.3 127.02 371.01 127.02C371.73 127.02 372.29 126.78 372.68 126.31C373.07 125.84 373.26 125.17 373.26 124.31C373.26 123.43 373.07 122.76 372.68 122.29C372.29 121.82 371.73 121.58 371.01 121.58Z" fill="#535353"/>
<path d="M382.01 127.8H380.89V123.81C380.89 122.32 380.35 121.58 379.26 121.58C378.7 121.58 378.24 121.79 377.87 122.21C377.5 122.63 377.32 123.16 377.32 123.81V127.8H376.2V120.8H377.32V121.96H377.35C377.88 121.08 378.64 120.63 379.65 120.63C380.42 120.63 381 120.88 381.41 121.37C381.82 121.87 382.02 122.58 382.02 123.51V127.8H382.01Z" fill="#535353"/>
<path d="M387.37 127.74C387.11 127.89 386.76 127.96 386.33 127.96C385.1 127.96 384.49 127.28 384.49 125.91V121.77H383.29V120.81H384.49V119.1L385.61 118.74V120.81H387.37V121.77H385.61V125.71C385.61 126.18 385.69 126.51 385.85 126.72C386.01 126.92 386.27 127.02 386.64 127.02C386.92 127.02 387.17 126.94 387.37 126.79V127.74V127.74Z" fill="#535353"/>
<path d="M393.88 127.8H392.76V126.71H392.73C392.24 127.55 391.52 127.97 390.58 127.97C389.88 127.97 389.34 127.78 388.94 127.42C388.55 127.05 388.35 126.56 388.35 125.95C388.35 124.64 389.12 123.88 390.66 123.67L392.76 123.38C392.76 122.19 392.28 121.6 391.32 121.6C390.48 121.6 389.72 121.89 389.04 122.46V121.31C389.73 120.87 390.52 120.65 391.42 120.65C393.06 120.65 393.89 121.52 393.89 123.26V127.8H393.88ZM392.76 124.26L391.07 124.49C390.55 124.56 390.16 124.69 389.89 124.88C389.63 125.06 389.49 125.39 389.49 125.86C389.49 126.2 389.61 126.48 389.86 126.7C390.11 126.92 390.43 127.03 390.83 127.03C391.39 127.03 391.84 126.83 392.21 126.45C392.58 126.07 392.75 125.57 392.75 124.97V124.26H392.76Z" fill="#535353"/>
<path d="M396.57 119.03C396.37 119.03 396.2 118.96 396.06 118.82C395.92 118.68 395.85 118.51 395.85 118.3C395.85 118.09 395.92 117.92 396.06 117.78C396.2 117.64 396.37 117.57 396.57 117.57C396.78 117.57 396.95 117.64 397.09 117.78C397.23 117.92 397.31 118.09 397.31 118.3C397.31 118.5 397.24 118.67 397.09 118.81C396.95 118.96 396.77 119.03 396.57 119.03ZM397.12 127.8H396V120.8H397.12V127.8Z" fill="#535353"/>
<path d="M405.2 127.8H404.08V123.81C404.08 122.32 403.54 121.58 402.45 121.58C401.89 121.58 401.42 121.79 401.06 122.21C400.69 122.63 400.51 123.16 400.51 123.81V127.8H399.39V120.8H400.51V121.96H400.54C401.07 121.08 401.83 120.63 402.84 120.63C403.61 120.63 404.19 120.88 404.6 121.37C405.01 121.87 405.21 122.58 405.21 123.51V127.8H405.2Z" fill="#535353"/>
<path d="M412.93 124.58H407.99C408.01 125.36 408.22 125.96 408.62 126.38C409.02 126.8 409.57 127.02 410.27 127.02C411.06 127.02 411.78 126.76 412.44 126.24V127.29C411.82 127.74 411.01 127.96 410 127.96C409.01 127.96 408.23 127.64 407.67 127.01C407.11 126.37 406.82 125.48 406.82 124.33C406.82 123.24 407.13 122.35 407.75 121.67C408.37 120.98 409.13 120.64 410.05 120.64C410.97 120.64 411.68 120.94 412.18 121.53C412.68 122.12 412.93 122.94 412.93 124V124.58ZM411.79 123.64C411.79 122.99 411.63 122.49 411.32 122.13C411.01 121.77 410.59 121.59 410.04 121.59C409.51 121.59 409.06 121.78 408.69 122.16C408.32 122.54 408.09 123.03 408.01 123.64H411.79V123.64Z" fill="#535353"/>
<path d="M418.28 121.94C418.08 121.79 417.8 121.71 417.43 121.71C416.95 121.71 416.55 121.94 416.23 122.39C415.91 122.84 415.75 123.46 415.75 124.24V127.81H414.63V120.81H415.75V122.25H415.78C415.94 121.76 416.18 121.37 416.51 121.1C416.84 120.83 417.21 120.69 417.61 120.69C417.9 120.69 418.12 120.72 418.28 120.79V121.94Z" fill="#535353"/>
<path d="M420.07 119.03C419.87 119.03 419.7 118.96 419.56 118.82C419.42 118.68 419.35 118.51 419.35 118.3C419.35 118.09 419.42 117.92 419.56 117.78C419.7 117.64 419.87 117.57 420.07 117.57C420.28 117.57 420.45 117.64 420.59 117.78C420.73 117.92 420.81 118.09 420.81 118.3C420.81 118.5 420.74 118.67 420.59 118.81C420.45 118.96 420.28 119.03 420.07 119.03ZM420.62 127.8H419.5V120.8H420.62V127.8Z" fill="#535353"/>
<path d="M427.77 121.13L423.63 126.85H427.73V127.81H421.98V127.46L426.12 121.77H422.37V120.81H427.77V121.13Z" fill="#535353"/>
<path d="M434.84 124.58H429.9C429.92 125.36 430.13 125.96 430.53 126.38C430.93 126.8 431.48 127.02 432.18 127.02C432.97 127.02 433.69 126.76 434.35 126.24V127.29C433.73 127.74 432.92 127.96 431.91 127.96C430.92 127.96 430.14 127.64 429.58 127.01C429.01 126.37 428.73 125.48 428.73 124.33C428.73 123.24 429.04 122.35 429.66 121.67C430.28 120.99 431.04 120.64 431.96 120.64C432.88 120.64 433.58 120.94 434.09 121.53C434.59 122.12 434.84 122.94 434.84 124V124.58ZM433.69 123.64C433.69 122.99 433.53 122.49 433.22 122.13C432.91 121.77 432.48 121.59 431.94 121.59C431.41 121.59 430.96 121.78 430.59 122.16C430.22 122.54 429.99 123.03 429.91 123.64H433.69V123.64Z" fill="#535353"/>
<path d="M442.51 127.8H441.39V126.61H441.36C440.84 127.51 440.04 127.96 438.95 127.96C438.07 127.96 437.37 127.65 436.84 127.02C436.31 126.39 436.05 125.54 436.05 124.46C436.05 123.3 436.34 122.37 436.93 121.68C437.51 120.98 438.29 120.64 439.26 120.64C440.22 120.64 440.92 121.02 441.36 121.77H441.39V117.44H442.51V127.8V127.8ZM441.39 124.64V123.61C441.39 123.04 441.2 122.57 440.83 122.17C440.46 121.78 439.98 121.58 439.41 121.58C438.73 121.58 438.19 121.83 437.8 122.33C437.41 122.83 437.21 123.52 437.21 124.41C437.21 125.22 437.4 125.85 437.77 126.32C438.14 126.79 438.65 127.02 439.28 127.02C439.91 127.02 440.41 126.79 440.8 126.34C441.19 125.89 441.39 125.33 441.39 124.64Z" fill="#535353"/>
<path d="M451.86 127.74C451.6 127.89 451.25 127.96 450.82 127.96C449.59 127.96 448.98 127.28 448.98 125.91V121.77H447.78V120.81H448.98V119.1L450.1 118.74V120.81H451.86V121.77H450.1V125.71C450.1 126.18 450.18 126.51 450.34 126.72C450.5 126.92 450.76 127.02 451.13 127.02C451.41 127.02 451.66 126.94 451.86 126.79V127.74V127.74Z" fill="#535353"/>
<path d="M458.37 127.8H457.25V126.71H457.22C456.73 127.55 456.01 127.97 455.07 127.97C454.37 127.97 453.83 127.78 453.43 127.42C453.04 127.05 452.84 126.56 452.84 125.95C452.84 124.64 453.61 123.88 455.15 123.67L457.25 123.38C457.25 122.19 456.77 121.6 455.81 121.6C454.97 121.6 454.21 121.89 453.53 122.46V121.31C454.22 120.87 455.01 120.65 455.91 120.65C457.55 120.65 458.38 121.52 458.38 123.26V127.8H458.37ZM457.25 124.26L455.56 124.49C455.04 124.56 454.65 124.69 454.38 124.88C454.12 125.06 453.98 125.39 453.98 125.86C453.98 126.2 454.1 126.48 454.35 126.7C454.6 126.92 454.92 127.03 455.32 127.03C455.88 127.03 456.33 126.83 456.7 126.45C457.07 126.07 457.24 125.57 457.24 124.97V124.26H457.25Z" fill="#535353"/>
<path d="M460.06 127.55V126.35C460.67 126.8 461.34 127.03 462.08 127.03C463.06 127.03 463.56 126.7 463.56 126.05C463.56 125.86 463.52 125.7 463.43 125.57C463.35 125.44 463.23 125.32 463.09 125.23C462.95 125.13 462.78 125.04 462.58 124.96C462.39 124.88 462.18 124.8 461.95 124.71C461.64 124.59 461.37 124.46 461.13 124.34C460.89 124.22 460.7 124.07 460.54 123.92C460.38 123.77 460.26 123.58 460.18 123.38C460.1 123.18 460.06 122.95 460.06 122.68C460.06 122.35 460.13 122.06 460.28 121.81C460.43 121.56 460.63 121.35 460.88 121.17C461.13 121 461.42 120.87 461.74 120.78C462.06 120.69 462.39 120.65 462.74 120.65C463.35 120.65 463.89 120.75 464.37 120.96V122.09C463.85 121.75 463.26 121.58 462.59 121.58C462.38 121.58 462.19 121.6 462.02 121.65C461.85 121.7 461.71 121.77 461.59 121.85C461.47 121.94 461.38 122.04 461.31 122.16C461.24 122.28 461.21 122.41 461.21 122.56C461.21 122.74 461.24 122.89 461.31 123.02C461.38 123.14 461.47 123.25 461.6 123.35C461.73 123.45 461.88 123.53 462.06 123.61C462.24 123.69 462.45 123.77 462.68 123.86C462.99 123.98 463.27 124.1 463.51 124.23C463.75 124.36 463.97 124.5 464.14 124.65C464.31 124.81 464.45 124.99 464.54 125.19C464.63 125.4 464.68 125.64 464.68 125.92C464.68 126.27 464.6 126.57 464.45 126.82C464.3 127.07 464.09 127.29 463.84 127.45C463.58 127.62 463.29 127.74 462.96 127.83C462.63 127.91 462.28 127.95 461.92 127.95C461.21 127.97 460.59 127.83 460.06 127.55Z" fill="#535353"/>
<path d="M472.23 127.8H470.66L467.57 124.44H467.54V127.8H466.42V117.44H467.54V124.01H467.57L470.51 120.8H471.98L468.73 124.18L472.23 127.8Z" fill="#535353"/>
<path d="M259.96 235.64H258.81V225.84H259.96V235.64Z" fill="#535353"/>
<path d="M268.2 235.64H267.08V231.65C267.08 230.16 266.54 229.42 265.45 229.42C264.89 229.42 264.43 229.63 264.06 230.05C263.69 230.47 263.51 231 263.51 231.65V235.64H262.39V228.64H263.51V229.8H263.54C264.07 228.92 264.83 228.47 265.84 228.47C266.61 228.47 267.19 228.72 267.6 229.21C268.01 229.71 268.21 230.42 268.21 231.35V235.64H268.2Z" fill="#535353"/>
<path d="M271.46 234.63H271.43V238.86H270.31V228.64H271.43V229.87H271.46C272.01 228.94 272.82 228.48 273.88 228.48C274.78 228.48 275.49 228.79 275.99 229.42C276.5 230.05 276.75 230.89 276.75 231.94C276.75 233.11 276.46 234.05 275.89 234.75C275.32 235.45 274.54 235.81 273.55 235.81C272.65 235.8 271.96 235.41 271.46 234.63ZM271.44 231.8V232.78C271.44 233.36 271.63 233.85 272 234.25C272.37 234.65 272.85 234.86 273.43 234.86C274.11 234.86 274.64 234.6 275.03 234.08C275.42 233.56 275.61 232.84 275.61 231.91C275.61 231.13 275.43 230.52 275.07 230.08C274.71 229.64 274.22 229.42 273.61 229.42C272.96 229.42 272.43 229.65 272.04 230.1C271.63 230.55 271.44 231.12 271.44 231.8Z" fill="#535353"/>
<path d="M284.21 235.64H283.09V234.53H283.06C282.6 235.38 281.87 235.8 280.9 235.8C279.23 235.8 278.4 234.81 278.4 232.82V228.64H279.51V232.65C279.51 234.13 280.08 234.86 281.21 234.86C281.76 234.86 282.21 234.66 282.56 234.25C282.91 233.85 283.09 233.32 283.09 232.67V228.64H284.21V235.64Z" fill="#535353"/>
<path d="M289.71 235.57C289.45 235.72 289.1 235.79 288.66 235.79C287.43 235.79 286.82 235.11 286.82 233.74V229.6H285.62V228.64H286.82V226.93L287.94 226.57V228.64H289.7V229.6H287.94V233.54C287.94 234.01 288.02 234.34 288.18 234.54C288.34 234.74 288.6 234.84 288.97 234.84C289.25 234.84 289.5 234.76 289.7 234.61V235.57H289.71Z" fill="#535353"/>
<path d="M298.51 226.26C298.29 226.14 298.04 226.08 297.76 226.08C296.98 226.08 296.58 226.57 296.58 227.56V228.64H298.22V229.6H296.58V235.64H295.47V229.6H294.27V228.64H295.47V227.51C295.47 226.78 295.68 226.2 296.1 225.77C296.52 225.34 297.05 225.13 297.69 225.13C298.03 225.13 298.3 225.17 298.5 225.25V226.26H298.51Z" fill="#535353"/>
<path d="M300 226.86C299.8 226.86 299.63 226.79 299.49 226.65C299.35 226.51 299.28 226.34 299.28 226.13C299.28 225.92 299.35 225.75 299.49 225.61C299.63 225.47 299.8 225.4 300 225.4C300.21 225.4 300.38 225.47 300.52 225.61C300.66 225.75 300.73 225.92 300.73 226.13C300.73 226.33 300.66 226.5 300.52 226.64C300.38 226.79 300.21 226.86 300 226.86ZM300.55 235.64H299.43V228.64H300.55V235.64Z" fill="#535353"/>
<path d="M303.94 235.64H302.82V225.28H303.94V235.64Z" fill="#535353"/>
<path d="M311.84 232.42H306.9C306.92 233.2 307.13 233.8 307.53 234.22C307.93 234.64 308.48 234.86 309.18 234.86C309.97 234.86 310.69 234.6 311.35 234.08V235.13C310.73 235.58 309.92 235.8 308.91 235.8C307.92 235.8 307.14 235.48 306.58 234.85C306.02 234.21 305.73 233.32 305.73 232.17C305.73 231.08 306.04 230.19 306.66 229.51C307.28 228.82 308.04 228.48 308.96 228.48C309.88 228.48 310.59 228.78 311.09 229.37C311.59 229.96 311.84 230.79 311.84 231.84V232.42ZM310.69 231.47C310.69 230.82 310.53 230.32 310.22 229.96C309.91 229.6 309.49 229.42 308.94 229.42C308.41 229.42 307.96 229.61 307.59 229.99C307.22 230.37 306.99 230.86 306.91 231.47H310.69Z" fill="#535353"/>
<path d="M313.11 235.39V234.19C313.72 234.64 314.39 234.87 315.13 234.87C316.11 234.87 316.61 234.54 316.61 233.89C316.61 233.7 316.57 233.54 316.48 233.41C316.4 233.28 316.28 233.16 316.14 233.07C316 232.97 315.83 232.88 315.63 232.8C315.44 232.72 315.23 232.64 315 232.55C314.69 232.43 314.42 232.3 314.18 232.18C313.95 232.05 313.75 231.91 313.59 231.76C313.43 231.61 313.31 231.42 313.23 231.22C313.15 231.02 313.11 230.78 313.11 230.52C313.11 230.19 313.18 229.9 313.33 229.65C313.48 229.4 313.68 229.19 313.93 229.01C314.18 228.84 314.47 228.71 314.79 228.62C315.11 228.53 315.44 228.49 315.79 228.49C316.4 228.49 316.94 228.59 317.42 228.8V229.93C316.9 229.59 316.31 229.42 315.64 229.42C315.43 229.42 315.24 229.44 315.07 229.49C314.9 229.54 314.76 229.61 314.64 229.69C314.52 229.78 314.43 229.88 314.36 230C314.29 230.12 314.26 230.25 314.26 230.4C314.26 230.58 314.29 230.73 314.36 230.86C314.43 230.98 314.52 231.09 314.65 231.19C314.78 231.29 314.93 231.37 315.11 231.45C315.29 231.53 315.5 231.61 315.73 231.7C316.04 231.82 316.32 231.94 316.56 232.07C316.81 232.2 317.02 232.34 317.19 232.49C317.36 232.65 317.5 232.83 317.59 233.03C317.68 233.24 317.73 233.48 317.73 233.76C317.73 234.11 317.65 234.41 317.5 234.66C317.35 234.91 317.14 235.13 316.89 235.3C316.63 235.47 316.34 235.59 316.01 235.68C315.68 235.76 315.33 235.8 314.97 235.8C314.26 235.8 313.64 235.66 313.11 235.39Z" fill="#535353"/>
<path d="M366.15 287.27C365.43 287.65 364.52 287.84 363.44 287.84C362.05 287.84 360.93 287.39 360.09 286.49C359.25 285.59 358.83 284.41 358.83 282.95C358.83 281.38 359.3 280.12 360.25 279.15C361.19 278.18 362.39 277.7 363.84 277.7C364.77 277.7 365.54 277.83 366.15 278.1V279.32C365.45 278.93 364.67 278.73 363.83 278.73C362.7 278.73 361.79 279.11 361.09 279.86C360.39 280.61 360.04 281.62 360.04 282.87C360.04 284.06 360.37 285.02 361.02 285.72C361.67 286.43 362.53 286.78 363.59 286.78C364.57 286.78 365.43 286.56 366.15 286.12V287.27Z" fill="#535353"/>
<path d="M370.93 287.84C369.9 287.84 369.07 287.51 368.45 286.86C367.83 286.21 367.52 285.34 367.52 284.26C367.52 283.08 367.84 282.17 368.48 281.51C369.12 280.85 369.99 280.52 371.08 280.52C372.12 280.52 372.94 280.84 373.52 281.48C374.1 282.12 374.4 283.01 374.4 284.15C374.4 285.27 374.08 286.16 373.45 286.83C372.83 287.51 371.99 287.84 370.93 287.84ZM371.01 281.46C370.29 281.46 369.72 281.71 369.3 282.2C368.88 282.69 368.67 283.37 368.67 284.23C368.67 285.06 368.88 285.71 369.31 286.19C369.74 286.67 370.3 286.91 371.01 286.91C371.73 286.91 372.29 286.68 372.68 286.21C373.07 285.74 373.26 285.07 373.26 284.21C373.26 283.33 373.07 282.66 372.68 282.19C372.29 281.69 371.73 281.46 371.01 281.46Z" fill="#535353"/>
<path d="M382.01 287.68H380.89V283.69C380.89 282.2 380.35 281.46 379.26 281.46C378.7 281.46 378.24 281.67 377.87 282.09C377.5 282.51 377.32 283.04 377.32 283.69V287.68H376.2V280.68H377.32V281.84H377.35C377.88 280.96 378.64 280.51 379.65 280.51C380.42 280.51 381 280.76 381.41 281.25C381.82 281.74 382.02 282.46 382.02 283.39V287.68H382.01Z" fill="#535353"/>
<path d="M387.37 287.61C387.11 287.76 386.76 287.83 386.33 287.83C385.1 287.83 384.49 287.15 384.49 285.78V281.64H383.29V280.68H384.49V278.97L385.61 278.61V280.68H387.37V281.64H385.61V285.59C385.61 286.06 385.69 286.39 385.85 286.59C386.01 286.79 386.27 286.89 386.64 286.89C386.92 286.89 387.17 286.81 387.37 286.66V287.61V287.61Z" fill="#535353"/>
<path d="M393.88 287.68H392.76V286.59H392.73C392.24 287.43 391.52 287.85 390.58 287.85C389.88 287.85 389.34 287.67 388.94 287.3C388.55 286.93 388.35 286.44 388.35 285.83C388.35 284.52 389.12 283.76 390.66 283.55L392.76 283.26C392.76 282.07 392.28 281.47 391.32 281.47C390.48 281.47 389.72 281.76 389.04 282.33V281.18C389.73 280.74 390.52 280.52 391.42 280.52C393.06 280.52 393.89 281.39 393.89 283.13V287.68H393.88ZM392.76 284.14L391.07 284.37C390.55 284.44 390.16 284.57 389.89 284.76C389.63 284.94 389.49 285.27 389.49 285.74C389.49 286.08 389.61 286.36 389.86 286.58C390.11 286.8 390.43 286.9 390.83 286.9C391.39 286.9 391.84 286.71 392.21 286.32C392.58 285.93 392.75 285.44 392.75 284.84V284.14H392.76Z" fill="#535353"/>
<path d="M396.57 278.9C396.37 278.9 396.2 278.83 396.06 278.69C395.92 278.55 395.85 278.38 395.85 278.17C395.85 277.96 395.92 277.79 396.06 277.65C396.2 277.51 396.37 277.44 396.57 277.44C396.78 277.44 396.95 277.51 397.09 277.65C397.23 277.79 397.31 277.96 397.31 278.17C397.31 278.37 397.24 278.54 397.09 278.68C396.95 278.83 396.77 278.9 396.57 278.9ZM397.12 287.68H396V280.68H397.12V287.68Z" fill="#535353"/>
<path d="M405.2 287.68H404.08V283.69C404.08 282.2 403.54 281.46 402.45 281.46C401.89 281.46 401.42 281.67 401.06 282.09C400.69 282.51 400.51 283.04 400.51 283.69V287.68H399.39V280.68H400.51V281.84H400.54C401.07 280.96 401.83 280.51 402.84 280.51C403.61 280.51 404.19 280.76 404.6 281.25C405.01 281.74 405.21 282.46 405.21 283.39V287.68H405.2Z" fill="#535353"/>
<path d="M412.93 284.46H407.99C408.01 285.24 408.22 285.84 408.62 286.26C409.02 286.68 409.57 286.89 410.27 286.89C411.06 286.89 411.78 286.63 412.44 286.11V287.16C411.82 287.61 411.01 287.83 410 287.83C409.01 287.83 408.23 287.51 407.67 286.88C407.11 286.24 406.82 285.35 406.82 284.2C406.82 283.11 407.13 282.22 407.75 281.54C408.37 280.85 409.13 280.51 410.05 280.51C410.97 280.51 411.68 280.81 412.18 281.4C412.68 281.99 412.93 282.82 412.93 283.87V284.46ZM411.79 283.51C411.79 282.86 411.63 282.36 411.32 282C411.01 281.64 410.59 281.46 410.04 281.46C409.51 281.46 409.06 281.65 408.69 282.03C408.32 282.41 408.09 282.9 408.01 283.51H411.79Z" fill="#535353"/>
<path d="M418.28 281.81C418.08 281.66 417.8 281.59 417.43 281.59C416.95 281.59 416.55 281.81 416.23 282.27C415.91 282.73 415.75 283.34 415.75 284.12V287.69H414.63V280.69H415.75V282.13H415.78C415.94 281.64 416.18 281.25 416.51 280.98C416.84 280.71 417.21 280.57 417.61 280.57C417.9 280.57 418.12 280.6 418.28 280.67V281.81Z" fill="#535353"/>
<path d="M420.07 278.9C419.87 278.9 419.7 278.83 419.56 278.69C419.42 278.55 419.35 278.38 419.35 278.17C419.35 277.96 419.42 277.79 419.56 277.65C419.7 277.51 419.87 277.44 420.07 277.44C420.28 277.44 420.45 277.51 420.59 277.65C420.73 277.79 420.81 277.96 420.81 278.17C420.81 278.37 420.74 278.54 420.59 278.68C420.45 278.83 420.28 278.9 420.07 278.9ZM420.62 287.68H419.5V280.68H420.62V287.68Z" fill="#535353"/>
<path d="M427.77 281L423.63 286.72H427.73V287.68H421.98V287.33L426.12 281.63H422.37V280.67H427.77V281Z" fill="#535353"/>
<path d="M434.84 284.46H429.9C429.92 285.24 430.13 285.84 430.53 286.26C430.93 286.68 431.48 286.89 432.18 286.89C432.97 286.89 433.69 286.63 434.35 286.11V287.16C433.73 287.61 432.92 287.83 431.91 287.83C430.92 287.83 430.14 287.51 429.58 286.88C429.01 286.24 428.73 285.35 428.73 284.2C428.73 283.11 429.04 282.22 429.66 281.54C430.28 280.86 431.04 280.51 431.96 280.51C432.88 280.51 433.58 280.81 434.09 281.4C434.59 281.99 434.84 282.82 434.84 283.87V284.46ZM433.69 283.51C433.69 282.86 433.53 282.36 433.22 282C432.91 281.64 432.48 281.46 431.94 281.46C431.41 281.46 430.96 281.65 430.59 282.03C430.22 282.41 429.99 282.9 429.91 283.51H433.69Z" fill="#535353"/>
<path d="M442.51 287.68H441.39V286.49H441.36C440.84 287.39 440.04 287.84 438.95 287.84C438.07 287.84 437.37 287.53 436.84 286.9C436.31 286.27 436.05 285.42 436.05 284.34C436.05 283.18 436.34 282.26 436.93 281.56C437.51 280.86 438.29 280.51 439.26 280.51C440.22 280.51 440.92 280.89 441.36 281.64H441.39V277.31H442.51V287.68V287.68ZM441.39 284.51V283.48C441.39 282.92 441.2 282.44 440.83 282.04C440.46 281.65 439.98 281.45 439.41 281.45C438.73 281.45 438.19 281.7 437.8 282.2C437.41 282.7 437.21 283.39 437.21 284.28C437.21 285.09 437.4 285.72 437.77 286.19C438.14 286.66 438.65 286.89 439.28 286.89C439.91 286.89 440.41 286.67 440.8 286.21C441.19 285.75 441.39 285.2 441.39 284.51Z" fill="#535353"/>
<path d="M451.86 287.61C451.6 287.76 451.25 287.83 450.82 287.83C449.59 287.83 448.98 287.15 448.98 285.78V281.64H447.78V280.68H448.98V278.97L450.1 278.61V280.68H451.86V281.64H450.1V285.59C450.1 286.06 450.18 286.39 450.34 286.59C450.5 286.79 450.76 286.89 451.13 286.89C451.41 286.89 451.66 286.81 451.86 286.66V287.61V287.61Z" fill="#535353"/>
<path d="M458.37 287.68H457.25V286.59H457.22C456.73 287.43 456.01 287.85 455.07 287.85C454.37 287.85 453.83 287.67 453.43 287.3C453.04 286.93 452.84 286.44 452.84 285.83C452.84 284.52 453.61 283.76 455.15 283.55L457.25 283.26C457.25 282.07 456.77 281.47 455.81 281.47C454.97 281.47 454.21 281.76 453.53 282.33V281.18C454.22 280.74 455.01 280.52 455.91 280.52C457.55 280.52 458.38 281.39 458.38 283.13V287.68H458.37ZM457.25 284.14L455.56 284.37C455.04 284.44 454.65 284.57 454.38 284.76C454.12 284.94 453.98 285.27 453.98 285.74C453.98 286.08 454.1 286.36 454.35 286.58C454.6 286.8 454.92 286.9 455.32 286.9C455.88 286.9 456.33 286.71 456.7 286.32C457.07 285.93 457.24 285.44 457.24 284.84V284.14H457.25Z" fill="#535353"/>
<path d="M460.06 287.43V286.23C460.67 286.68 461.34 286.91 462.08 286.91C463.06 286.91 463.56 286.58 463.56 285.93C463.56 285.74 463.52 285.59 463.43 285.46C463.35 285.33 463.23 285.21 463.09 285.11C462.95 285.01 462.78 284.92 462.58 284.84C462.39 284.76 462.18 284.68 461.95 284.59C461.64 284.47 461.37 284.34 461.13 284.22C460.89 284.1 460.7 283.95 460.54 283.8C460.38 283.65 460.26 283.46 460.18 283.26C460.1 283.06 460.06 282.82 460.06 282.55C460.06 282.22 460.13 281.93 460.28 281.68C460.43 281.43 460.63 281.22 460.88 281.04C461.13 280.87 461.42 280.74 461.74 280.65C462.06 280.56 462.39 280.52 462.74 280.52C463.35 280.52 463.89 280.63 464.37 280.83V281.96C463.85 281.62 463.26 281.45 462.59 281.45C462.38 281.45 462.19 281.47 462.02 281.52C461.85 281.57 461.71 281.64 461.59 281.72C461.47 281.81 461.38 281.91 461.31 282.03C461.24 282.15 461.21 282.28 461.21 282.43C461.21 282.61 461.24 282.77 461.31 282.89C461.38 283.01 461.47 283.12 461.6 283.22C461.73 283.32 461.88 283.4 462.06 283.48C462.24 283.56 462.45 283.64 462.68 283.73C462.99 283.85 463.27 283.97 463.51 284.1C463.75 284.23 463.97 284.37 464.14 284.52C464.31 284.68 464.45 284.86 464.54 285.06C464.63 285.27 464.68 285.51 464.68 285.79C464.68 286.14 464.6 286.44 464.45 286.69C464.3 286.95 464.09 287.16 463.84 287.33C463.58 287.5 463.29 287.62 462.96 287.71C462.63 287.79 462.28 287.83 461.92 287.83C461.21 287.84 460.59 287.7 460.06 287.43Z" fill="#535353"/>
<path d="M472.23 287.68H470.66L467.57 284.32H467.54V287.68H466.42V277.32H467.54V283.89H467.57L470.51 280.68H471.98L468.73 284.06L472.23 287.68Z" fill="#535353"/>
<path d="M366.15 420.5C365.43 420.88 364.52 421.07 363.44 421.07C362.05 421.07 360.93 420.62 360.09 419.72C359.25 418.82 358.83 417.64 358.83 416.19C358.83 414.62 359.3 413.36 360.25 412.39C361.19 411.42 362.39 410.94 363.84 410.94C364.77 410.94 365.54 411.07 366.15 411.34V412.56C365.45 412.17 364.67 411.97 363.83 411.97C362.7 411.97 361.79 412.35 361.09 413.1C360.39 413.85 360.04 414.86 360.04 416.11C360.04 417.3 360.37 418.26 361.02 418.96C361.67 419.67 362.53 420.02 363.59 420.02C364.57 420.02 365.43 419.8 366.15 419.36V420.5Z" fill="#535353"/>
<path d="M370.93 421.07C369.9 421.07 369.07 420.74 368.45 420.09C367.83 419.44 367.52 418.57 367.52 417.49C367.52 416.31 367.84 415.4 368.48 414.74C369.12 414.08 369.99 413.75 371.08 413.75C372.12 413.75 372.94 414.07 373.52 414.71C374.1 415.35 374.4 416.24 374.4 417.38C374.4 418.5 374.08 419.39 373.45 420.06C372.83 420.73 371.99 421.07 370.93 421.07ZM371.01 414.69C370.29 414.69 369.72 414.94 369.3 415.43C368.88 415.92 368.67 416.6 368.67 417.46C368.67 418.29 368.88 418.94 369.31 419.42C369.74 419.9 370.3 420.14 371.01 420.14C371.73 420.14 372.29 419.91 372.68 419.44C373.07 418.97 373.26 418.3 373.26 417.44C373.26 416.56 373.07 415.89 372.68 415.42C372.29 414.92 371.73 414.69 371.01 414.69Z" fill="#535353"/>
<path d="M382.01 420.91H380.89V416.92C380.89 415.43 380.35 414.69 379.26 414.69C378.7 414.69 378.24 414.9 377.87 415.32C377.5 415.74 377.32 416.27 377.32 416.92V420.91H376.2V413.91H377.32V415.07H377.35C377.88 414.19 378.64 413.74 379.65 413.74C380.42 413.74 381 413.99 381.41 414.48C381.82 414.97 382.02 415.69 382.02 416.62V420.91H382.01Z" fill="#535353"/>
<path d="M387.37 420.84C387.11 420.99 386.76 421.06 386.33 421.06C385.1 421.06 384.49 420.38 384.49 419.01V414.87H383.29V413.91H384.49V412.2L385.61 411.84V413.91H387.37V414.87H385.61V418.81C385.61 419.28 385.69 419.61 385.85 419.81C386.01 420.01 386.27 420.11 386.64 420.11C386.92 420.11 387.17 420.03 387.37 419.88V420.84V420.84Z" fill="#535353"/>
<path d="M393.88 420.91H392.76V419.82H392.73C392.24 420.66 391.52 421.08 390.58 421.08C389.88 421.08 389.34 420.9 388.94 420.53C388.55 420.16 388.35 419.67 388.35 419.06C388.35 417.75 389.12 416.99 390.66 416.78L392.76 416.49C392.76 415.3 392.28 414.71 391.32 414.71C390.48 414.71 389.72 415 389.04 415.57V414.42C389.73 413.98 390.52 413.76 391.42 413.76C393.06 413.76 393.89 414.63 393.89 416.37V420.91H393.88ZM392.76 417.37L391.07 417.6C390.55 417.67 390.16 417.8 389.89 417.99C389.63 418.17 389.49 418.5 389.49 418.97C389.49 419.31 389.61 419.59 389.86 419.81C390.1 420.03 390.43 420.13 390.83 420.13C391.39 420.13 391.84 419.94 392.21 419.55C392.58 419.16 392.75 418.67 392.75 418.07V417.37H392.76Z" fill="#535353"/>
<path d="M396.57 412.13C396.37 412.13 396.2 412.06 396.06 411.92C395.92 411.78 395.85 411.61 395.85 411.4C395.85 411.19 395.92 411.02 396.06 410.88C396.2 410.74 396.37 410.67 396.57 410.67C396.78 410.67 396.95 410.74 397.09 410.88C397.23 411.02 397.31 411.19 397.31 411.4C397.31 411.6 397.24 411.77 397.09 411.91C396.95 412.06 396.77 412.13 396.57 412.13ZM397.12 420.91H396V413.91H397.12V420.91Z" fill="#535353"/>
<path d="M405.2 420.91H404.08V416.92C404.08 415.43 403.54 414.69 402.45 414.69C401.89 414.69 401.42 414.9 401.06 415.32C400.69 415.74 400.51 416.27 400.51 416.92V420.91H399.39V413.91H400.51V415.07H400.54C401.07 414.19 401.83 413.74 402.84 413.74C403.61 413.74 404.19 413.99 404.6 414.48C405.01 414.97 405.21 415.69 405.21 416.62V420.91H405.2Z" fill="#535353"/>
<path d="M412.93 417.69H407.99C408.01 418.47 408.22 419.07 408.62 419.49C409.02 419.91 409.57 420.13 410.27 420.13C411.06 420.13 411.78 419.87 412.44 419.35V420.4C411.82 420.85 411.01 421.07 410 421.07C409.01 421.07 408.23 420.75 407.67 420.12C407.11 419.48 406.82 418.59 406.82 417.44C406.82 416.35 407.13 415.46 407.75 414.78C408.37 414.09 409.13 413.75 410.05 413.75C410.97 413.75 411.68 414.05 412.18 414.64C412.68 415.23 412.93 416.06 412.93 417.11V417.69ZM411.79 416.74C411.79 416.09 411.63 415.59 411.32 415.23C411.01 414.87 410.59 414.69 410.04 414.69C409.51 414.69 409.06 414.88 408.69 415.26C408.32 415.64 408.09 416.13 408.01 416.74H411.79Z" fill="#535353"/>
<path d="M418.28 415.04C418.08 414.89 417.8 414.81 417.43 414.81C416.95 414.81 416.55 415.04 416.23 415.49C415.91 415.94 415.75 416.56 415.75 417.34V420.91H414.63V413.91H415.75V415.35H415.78C415.94 414.86 416.18 414.47 416.51 414.2C416.84 413.92 417.21 413.79 417.61 413.79C417.9 413.79 418.12 413.82 418.28 413.89V415.04Z" fill="#535353"/>
<path d="M420.07 412.13C419.87 412.13 419.7 412.06 419.56 411.92C419.42 411.78 419.35 411.61 419.35 411.4C419.35 411.19 419.42 411.02 419.56 410.88C419.7 410.74 419.87 410.67 420.07 410.67C420.28 410.67 420.45 410.74 420.59 410.88C420.73 411.02 420.81 411.19 420.81 411.4C420.81 411.6 420.74 411.77 420.59 411.91C420.45 412.06 420.28 412.13 420.07 412.13ZM420.62 420.91H419.5V413.91H420.62V420.91Z" fill="#535353"/>
<path d="M427.77 414.23L423.63 419.95H427.73V420.91H421.98V420.56L426.12 414.87H422.37V413.91H427.77V414.23Z" fill="#535353"/>
<path d="M434.84 417.69H429.9C429.92 418.47 430.13 419.07 430.53 419.49C430.93 419.91 431.48 420.13 432.18 420.13C432.97 420.13 433.69 419.87 434.35 419.35V420.4C433.73 420.85 432.92 421.07 431.91 421.07C430.92 421.07 430.14 420.75 429.58 420.12C429.01 419.48 428.73 418.59 428.73 417.44C428.73 416.35 429.04 415.46 429.66 414.78C430.28 414.09 431.04 413.75 431.96 413.75C432.88 413.75 433.58 414.05 434.09 414.64C434.59 415.23 434.84 416.06 434.84 417.11V417.69ZM433.69 416.74C433.69 416.09 433.53 415.59 433.22 415.23C432.91 414.87 432.48 414.69 431.94 414.69C431.41 414.69 430.96 414.88 430.59 415.26C430.22 415.64 429.99 416.13 429.91 416.74H433.69Z" fill="#535353"/>
<path d="M442.51 420.91H441.39V419.72H441.36C440.84 420.62 440.04 421.07 438.95 421.07C438.07 421.07 437.37 420.76 436.84 420.13C436.31 419.5 436.05 418.65 436.05 417.57C436.05 416.41 436.34 415.49 436.93 414.79C437.51 414.09 438.29 413.74 439.26 413.74C440.22 413.74 440.92 414.12 441.36 414.87H441.39V410.54H442.51V420.91V420.91ZM441.39 417.74V416.71C441.39 416.15 441.2 415.67 440.83 415.27C440.46 414.88 439.98 414.68 439.41 414.68C438.73 414.68 438.19 414.93 437.8 415.43C437.41 415.93 437.21 416.62 437.21 417.51C437.21 418.32 437.4 418.95 437.77 419.42C438.15 419.89 438.65 420.12 439.28 420.12C439.91 420.12 440.41 419.89 440.8 419.44C441.19 418.99 441.39 418.43 441.39 417.74Z" fill="#535353"/>
<path d="M451.86 420.84C451.6 420.99 451.25 421.06 450.82 421.06C449.59 421.06 448.98 420.38 448.98 419.01V414.87H447.78V413.91H448.98V412.2L450.1 411.84V413.91H451.86V414.87H450.1V418.81C450.1 419.28 450.18 419.61 450.34 419.81C450.5 420.01 450.76 420.11 451.13 420.11C451.41 420.11 451.66 420.03 451.86 419.88V420.84V420.84Z" fill="#535353"/>
<path d="M458.37 420.91H457.25V419.82H457.22C456.73 420.66 456.01 421.08 455.07 421.08C454.37 421.08 453.83 420.9 453.43 420.53C453.04 420.16 452.84 419.67 452.84 419.06C452.84 417.75 453.61 416.99 455.15 416.78L457.25 416.49C457.25 415.3 456.77 414.71 455.81 414.71C454.97 414.71 454.21 415 453.53 415.57V414.42C454.22 413.98 455.01 413.76 455.91 413.76C457.55 413.76 458.38 414.63 458.38 416.37V420.91H458.37ZM457.25 417.37L455.56 417.6C455.04 417.67 454.65 417.8 454.38 417.99C454.12 418.17 453.98 418.5 453.98 418.97C453.98 419.31 454.1 419.59 454.35 419.81C454.59 420.03 454.92 420.13 455.32 420.13C455.88 420.13 456.33 419.94 456.7 419.55C457.07 419.16 457.24 418.67 457.24 418.07V417.37H457.25Z" fill="#535353"/>
<path d="M460.06 420.65V419.45C460.67 419.9 461.34 420.13 462.08 420.13C463.06 420.13 463.56 419.8 463.56 419.15C463.56 418.96 463.52 418.81 463.43 418.68C463.35 418.55 463.23 418.43 463.09 418.33C462.95 418.23 462.78 418.14 462.58 418.06C462.39 417.98 462.18 417.9 461.95 417.81C461.64 417.69 461.37 417.56 461.13 417.44C460.9 417.31 460.7 417.17 460.54 417.02C460.38 416.87 460.26 416.68 460.18 416.48C460.1 416.28 460.06 416.05 460.06 415.78C460.06 415.45 460.13 415.16 460.28 414.91C460.43 414.66 460.63 414.45 460.88 414.27C461.13 414.1 461.42 413.97 461.74 413.88C462.06 413.79 462.39 413.75 462.74 413.75C463.35 413.75 463.89 413.86 464.37 414.06V415.19C463.85 414.85 463.26 414.68 462.59 414.68C462.38 414.68 462.19 414.7 462.02 414.75C461.85 414.8 461.71 414.87 461.59 414.95C461.47 415.04 461.38 415.14 461.31 415.26C461.24 415.38 461.21 415.51 461.21 415.66C461.21 415.84 461.24 415.99 461.31 416.12C461.38 416.24 461.47 416.35 461.6 416.45C461.73 416.55 461.88 416.63 462.06 416.71C462.24 416.79 462.45 416.87 462.68 416.96C462.99 417.08 463.27 417.2 463.51 417.33C463.76 417.46 463.97 417.6 464.14 417.75C464.31 417.91 464.45 418.09 464.54 418.29C464.63 418.5 464.68 418.74 464.68 419.02C464.68 419.37 464.6 419.67 464.45 419.92C464.3 420.18 464.09 420.39 463.84 420.56C463.58 420.73 463.29 420.85 462.96 420.94C462.63 421.02 462.28 421.06 461.92 421.06C461.21 421.07 460.59 420.93 460.06 420.65Z" fill="#535353"/>
<path d="M472.23 420.91H470.66L467.57 417.55H467.54V420.91H466.42V410.55H467.54V417.12H467.57L470.51 413.91H471.98L468.73 417.29L472.23 420.91Z" fill="#535353"/>
<path d="M141.14 123.46C141.14 126.21 139.9 127.59 137.41 127.59C135.03 127.59 133.84 126.27 133.84 123.62V117.62H135V123.54C135 125.55 135.85 126.55 137.54 126.55C139.18 126.55 139.99 125.58 139.99 123.64V117.62H141.14V123.46V123.46Z" fill="#535353"/>
<path d="M143.01 127.17V125.97C143.62 126.42 144.29 126.65 145.03 126.65C146.01 126.65 146.51 126.32 146.51 125.67C146.51 125.48 146.47 125.32 146.38 125.19C146.29 125.06 146.18 124.94 146.04 124.85C145.9 124.75 145.73 124.66 145.53 124.58C145.34 124.5 145.13 124.42 144.9 124.33C144.59 124.21 144.32 124.08 144.08 123.96C143.85 123.83 143.65 123.69 143.49 123.54C143.33 123.39 143.21 123.2 143.13 123C143.05 122.8 143.01 122.56 143.01 122.3C143.01 121.97 143.09 121.68 143.24 121.43C143.39 121.18 143.59 120.97 143.84 120.79C144.09 120.62 144.38 120.49 144.7 120.4C145.02 120.31 145.35 120.27 145.69 120.27C146.3 120.27 146.84 120.37 147.32 120.58V121.71C146.8 121.37 146.21 121.2 145.54 121.2C145.33 121.2 145.14 121.22 144.97 121.27C144.8 121.32 144.66 121.39 144.54 121.47C144.42 121.56 144.33 121.66 144.26 121.78C144.19 121.9 144.16 122.03 144.16 122.18C144.16 122.36 144.19 122.51 144.26 122.64C144.33 122.77 144.42 122.87 144.55 122.97C144.68 123.07 144.83 123.15 145.01 123.23C145.19 123.31 145.4 123.39 145.63 123.48C145.94 123.6 146.22 123.72 146.46 123.85C146.71 123.98 146.92 124.12 147.09 124.27C147.26 124.43 147.4 124.61 147.49 124.81C147.58 125.01 147.63 125.26 147.63 125.54C147.63 125.89 147.55 126.19 147.4 126.44C147.25 126.69 147.04 126.91 146.79 127.08C146.53 127.25 146.24 127.37 145.91 127.46C145.58 127.54 145.23 127.58 144.86 127.58C144.17 127.59 143.54 127.45 143.01 127.17Z" fill="#535353"/>
<path d="M155 124.21H150.06C150.08 124.99 150.29 125.59 150.69 126.01C151.09 126.43 151.64 126.65 152.34 126.65C153.13 126.65 153.85 126.39 154.51 125.87V126.92C153.89 127.37 153.08 127.59 152.07 127.59C151.08 127.59 150.3 127.27 149.74 126.64C149.17 126 148.89 125.11 148.89 123.96C148.89 122.87 149.2 121.98 149.82 121.3C150.44 120.61 151.2 120.27 152.12 120.27C153.04 120.27 153.74 120.57 154.25 121.16C154.75 121.75 155 122.58 155 123.63V124.21V124.21ZM153.86 123.26C153.86 122.61 153.7 122.11 153.39 121.75C153.08 121.39 152.66 121.21 152.11 121.21C151.58 121.21 151.13 121.4 150.76 121.78C150.39 122.16 150.16 122.65 150.08 123.26H153.86V123.26Z" fill="#535353"/>
<path d="M160.35 121.56C160.15 121.41 159.87 121.33 159.5 121.33C159.02 121.33 158.62 121.56 158.3 122.01C157.98 122.46 157.82 123.08 157.82 123.86V127.43H156.7V120.43H157.82V121.87H157.85C158.01 121.38 158.25 120.99 158.58 120.72C158.91 120.44 159.27 120.31 159.68 120.31C159.97 120.31 160.19 120.34 160.35 120.41V121.56Z" fill="#535353"/>
<path d="M165.99 117.62L161.29 129.05H160.24L164.93 117.62H165.99Z" fill="#535353"/>
<path d="M166.6 127.17V125.97C167.21 126.42 167.88 126.65 168.62 126.65C169.6 126.65 170.1 126.32 170.1 125.67C170.1 125.48 170.06 125.32 169.97 125.19C169.88 125.06 169.77 124.94 169.63 124.85C169.49 124.75 169.32 124.66 169.12 124.58C168.93 124.5 168.72 124.42 168.49 124.33C168.18 124.21 167.91 124.08 167.67 123.96C167.44 123.83 167.24 123.69 167.08 123.54C166.92 123.39 166.8 123.2 166.72 123C166.64 122.8 166.6 122.56 166.6 122.3C166.6 121.97 166.68 121.68 166.83 121.43C166.98 121.18 167.18 120.97 167.43 120.79C167.68 120.62 167.97 120.49 168.29 120.4C168.61 120.31 168.94 120.27 169.28 120.27C169.89 120.27 170.43 120.37 170.91 120.58V121.71C170.39 121.37 169.8 121.2 169.13 121.2C168.92 121.2 168.73 121.22 168.56 121.27C168.39 121.32 168.25 121.39 168.13 121.47C168.01 121.56 167.92 121.66 167.85 121.78C167.78 121.9 167.75 122.03 167.75 122.18C167.75 122.36 167.78 122.51 167.85 122.64C167.92 122.77 168.01 122.87 168.14 122.97C168.27 123.07 168.42 123.15 168.6 123.23C168.78 123.31 168.99 123.39 169.22 123.48C169.53 123.6 169.81 123.72 170.05 123.85C170.3 123.98 170.51 124.12 170.68 124.27C170.85 124.43 170.99 124.61 171.08 124.81C171.17 125.01 171.22 125.26 171.22 125.54C171.22 125.89 171.14 126.19 170.99 126.44C170.84 126.69 170.63 126.91 170.38 127.08C170.12 127.25 169.83 127.37 169.5 127.46C169.17 127.54 168.82 127.58 168.45 127.58C167.75 127.59 167.13 127.45 166.6 127.17Z" fill="#535353"/>
<path d="M178.53 120.43L175.31 128.55C174.74 130 173.93 130.72 172.89 130.72C172.6 130.72 172.35 130.69 172.16 130.63V129.63C172.4 129.71 172.62 129.75 172.82 129.75C173.38 129.75 173.81 129.41 174.09 128.74L174.65 127.41L171.92 120.42H173.16L175.05 125.81C175.07 125.88 175.12 126.06 175.19 126.34H175.23C175.25 126.23 175.3 126.06 175.37 125.82L177.36 120.42H178.53V120.43Z" fill="#535353"/>
<path d="M179.31 127.17V125.97C179.92 126.42 180.59 126.65 181.33 126.65C182.31 126.65 182.81 126.32 182.81 125.67C182.81 125.48 182.77 125.32 182.68 125.19C182.59 125.06 182.48 124.94 182.34 124.85C182.2 124.75 182.03 124.66 181.83 124.58C181.64 124.5 181.43 124.42 181.2 124.33C180.89 124.21 180.62 124.08 180.38 123.96C180.15 123.83 179.95 123.69 179.79 123.54C179.63 123.39 179.51 123.2 179.43 123C179.35 122.8 179.31 122.56 179.31 122.3C179.31 121.97 179.39 121.68 179.54 121.43C179.69 121.18 179.89 120.97 180.14 120.79C180.39 120.62 180.68 120.49 181 120.4C181.32 120.31 181.65 120.27 181.99 120.27C182.6 120.27 183.14 120.37 183.62 120.58V121.71C183.1 121.37 182.51 121.2 181.84 121.2C181.63 121.2 181.44 121.22 181.27 121.27C181.1 121.32 180.96 121.39 180.84 121.47C180.72 121.56 180.63 121.66 180.56 121.78C180.49 121.9 180.46 122.03 180.46 122.18C180.46 122.36 180.49 122.51 180.56 122.64C180.63 122.77 180.72 122.87 180.85 122.97C180.98 123.07 181.13 123.15 181.31 123.23C181.49 123.31 181.7 123.39 181.93 123.48C182.24 123.6 182.52 123.72 182.76 123.85C183.01 123.98 183.22 124.12 183.39 124.27C183.56 124.43 183.7 124.61 183.79 124.81C183.88 125.01 183.93 125.26 183.93 125.54C183.93 125.89 183.85 126.19 183.7 126.44C183.55 126.69 183.34 126.91 183.09 127.08C182.83 127.25 182.54 127.37 182.21 127.46C181.88 127.54 181.53 127.58 181.16 127.58C180.47 127.59 179.84 127.45 179.31 127.17Z" fill="#535353"/>
<path d="M188.92 127.36C188.66 127.51 188.31 127.58 187.87 127.58C186.64 127.58 186.03 126.9 186.03 125.53V121.39H184.83V120.43H186.03V118.72L187.15 118.36V120.43H188.91V121.39H187.15V125.33C187.15 125.8 187.23 126.13 187.39 126.33C187.55 126.53 187.81 126.63 188.18 126.63C188.46 126.63 188.71 126.55 188.91 126.4V127.36H188.92Z" fill="#535353"/>
<path d="M196.05 124.21H191.11C191.13 124.99 191.34 125.59 191.74 126.01C192.14 126.43 192.69 126.65 193.39 126.65C194.18 126.65 194.9 126.39 195.56 125.87V126.92C194.94 127.37 194.13 127.59 193.12 127.59C192.13 127.59 191.35 127.27 190.79 126.64C190.22 126 189.94 125.11 189.94 123.96C189.94 122.87 190.25 121.98 190.87 121.3C191.49 120.61 192.25 120.27 193.17 120.27C194.09 120.27 194.79 120.57 195.3 121.16C195.8 121.75 196.05 122.58 196.05 123.63V124.21ZM194.9 123.26C194.9 122.61 194.74 122.11 194.43 121.75C194.12 121.39 193.7 121.21 193.15 121.21C192.62 121.21 192.17 121.4 191.8 121.78C191.43 122.16 191.2 122.65 191.12 123.26H194.9V123.26Z" fill="#535353"/>
<path d="M207.68 127.43H206.56V123.41C206.56 122.63 206.44 122.07 206.2 121.73C205.96 121.38 205.56 121.21 204.99 121.21C204.51 121.21 204.1 121.43 203.77 121.87C203.44 122.31 203.27 122.83 203.27 123.44V127.43H202.15V123.27C202.15 121.89 201.62 121.21 200.56 121.21C200.07 121.21 199.66 121.42 199.34 121.83C199.02 122.24 198.86 122.78 198.86 123.44V127.43H197.74V120.43H198.86V121.54H198.89C199.39 120.69 200.11 120.27 201.06 120.27C201.54 120.27 201.96 120.4 202.31 120.67C202.66 120.94 202.91 121.29 203.04 121.72C203.56 120.75 204.33 120.27 205.36 120.27C206.9 120.27 207.67 121.22 207.67 123.12V127.43H207.68Z" fill="#535353"/>
<path d="M37.5499 229.77C37.3499 229.62 37.0699 229.54 36.6999 229.54C36.2199 229.54 35.8199 229.77 35.4999 230.22C35.1799 230.67 35.0199 231.29 35.0199 232.07V235.64H33.8999V228.64H35.0199V230.08H35.0499C35.2099 229.59 35.4499 229.2 35.7799 228.93C36.1099 228.66 36.4699 228.52 36.8799 228.52C37.1699 228.52 37.3999 228.55 37.5499 228.62V229.77Z" fill="#535353"/>
<path d="M44.3998 232.42H39.4498C39.4698 233.2 39.6798 233.8 40.0798 234.22C40.4798 234.64 41.0298 234.86 41.7298 234.86C42.5198 234.86 43.2398 234.6 43.8998 234.08V235.13C43.2798 235.58 42.4698 235.8 41.4598 235.8C40.4698 235.8 39.6898 235.48 39.1298 234.85C38.5698 234.22 38.2798 233.32 38.2798 232.17C38.2798 231.08 38.5898 230.19 39.2098 229.51C39.8298 228.82 40.5898 228.48 41.5098 228.48C42.4298 228.48 43.1298 228.78 43.6398 229.37C44.1398 229.96 44.3898 230.78 44.3898 231.84V232.42H44.3998ZM43.2498 231.47C43.2498 230.82 43.0898 230.32 42.7798 229.96C42.4698 229.6 42.0498 229.42 41.4998 229.42C40.9698 229.42 40.5198 229.61 40.1498 229.99C39.7798 230.37 39.5498 230.86 39.4698 231.47H43.2498Z" fill="#535353"/>
<path d="M45.6699 235.39V234.19C46.2799 234.64 46.9499 234.87 47.6899 234.87C48.6699 234.87 49.1699 234.54 49.1699 233.89C49.1699 233.7 49.1299 233.54 49.0399 233.41C48.9599 233.28 48.8399 233.16 48.6999 233.07C48.5599 232.97 48.3899 232.88 48.1899 232.8C47.9999 232.72 47.7899 232.64 47.5599 232.55C47.2499 232.43 46.9799 232.3 46.7399 232.18C46.5099 232.05 46.3099 231.91 46.1499 231.76C45.9899 231.61 45.8699 231.42 45.7899 231.22C45.7099 231.02 45.6699 230.79 45.6699 230.52C45.6699 230.19 45.7499 229.9 45.8999 229.65C46.0499 229.4 46.2499 229.19 46.4999 229.01C46.7499 228.83 47.0399 228.71 47.3599 228.62C47.6799 228.53 48.0099 228.49 48.3499 228.49C48.9599 228.49 49.4999 228.59 49.9799 228.8V229.93C49.4599 229.59 48.8699 229.42 48.1999 229.42C47.9899 229.42 47.7999 229.44 47.6299 229.49C47.4599 229.54 47.3199 229.61 47.1999 229.69C47.0799 229.78 46.9899 229.88 46.9199 230C46.8499 230.12 46.8199 230.25 46.8199 230.4C46.8199 230.58 46.8499 230.73 46.9199 230.86C46.9899 230.98 47.0799 231.09 47.2099 231.19C47.3399 231.29 47.4899 231.37 47.6699 231.45C47.8499 231.53 48.0599 231.61 48.2899 231.7C48.5999 231.82 48.8799 231.94 49.1199 232.07C49.3599 232.2 49.5799 232.34 49.7499 232.49C49.9199 232.64 50.0599 232.83 50.1499 233.03C50.2399 233.24 50.2899 233.48 50.2899 233.76C50.2899 234.11 50.2099 234.41 50.0599 234.66C49.9099 234.91 49.6999 235.13 49.4499 235.29C49.1899 235.46 48.8999 235.58 48.5699 235.67C48.2399 235.76 47.8899 235.79 47.5199 235.79C46.8199 235.8 46.1999 235.66 45.6699 235.39Z" fill="#535353"/>
<path d="M57.6899 235.64H56.5699V234.53H56.5399C56.0799 235.38 55.3499 235.8 54.3799 235.8C52.7099 235.8 51.8799 234.81 51.8799 232.82V228.64H52.9999V232.65C52.9999 234.13 53.5599 234.86 54.6999 234.86C55.2499 234.86 55.6999 234.66 56.0499 234.25C56.3999 233.85 56.5799 233.32 56.5799 232.67V228.64H57.6999V235.64H57.6899Z" fill="#535353"/>
<path d="M61.08 235.64H59.96V225.28H61.08V235.64Z" fill="#535353"/>
<path d="M66.59 235.57C66.33 235.72 65.98 235.79 65.54 235.79C64.31 235.79 63.7 235.11 63.7 233.74V229.6H62.5V228.64H63.7V226.93L64.82 226.57V228.64H66.58V229.6H64.82V233.54C64.82 234.01 64.9 234.34 65.06 234.55C65.22 234.75 65.48 234.85 65.85 234.85C66.13 234.85 66.38 234.77 66.58 234.62V235.57H66.59Z" fill="#535353"/>
<path d="M67.6699 235.39V234.19C68.2799 234.64 68.9499 234.87 69.6899 234.87C70.6699 234.87 71.1699 234.54 71.1699 233.89C71.1699 233.7 71.1299 233.54 71.0399 233.41C70.9599 233.28 70.8399 233.16 70.6999 233.07C70.5599 232.97 70.3899 232.88 70.1899 232.8C69.9999 232.72 69.7899 232.64 69.5599 232.55C69.2499 232.43 68.9799 232.3 68.7399 232.18C68.5099 232.05 68.3099 231.91 68.1499 231.76C67.9899 231.61 67.8699 231.42 67.7899 231.22C67.7099 231.02 67.6699 230.79 67.6699 230.52C67.6699 230.19 67.7499 229.9 67.8999 229.65C68.0499 229.4 68.2499 229.19 68.4999 229.01C68.7499 228.83 69.0399 228.71 69.3599 228.62C69.6799 228.53 70.0099 228.49 70.3499 228.49C70.9599 228.49 71.4999 228.59 71.9799 228.8V229.93C71.4599 229.59 70.8699 229.42 70.1999 229.42C69.9899 229.42 69.7999 229.44 69.6299 229.49C69.4599 229.54 69.3199 229.61 69.1999 229.69C69.0799 229.78 68.9899 229.88 68.9199 230C68.8499 230.12 68.8199 230.25 68.8199 230.4C68.8199 230.58 68.8499 230.73 68.9199 230.86C68.9899 230.98 69.0799 231.09 69.2099 231.19C69.3399 231.29 69.4899 231.37 69.6699 231.45C69.8499 231.53 70.0599 231.61 70.2899 231.7C70.5999 231.82 70.8799 231.94 71.1199 232.07C71.3599 232.2 71.5799 232.34 71.7499 232.49C71.9199 232.64 72.0599 232.83 72.1499 233.03C72.2399 233.24 72.2899 233.48 72.2899 233.76C72.2899 234.11 72.2099 234.41 72.0599 234.66C71.9099 234.91 71.6999 235.13 71.4499 235.29C71.1899 235.46 70.8999 235.58 70.5699 235.67C70.2399 235.76 69.8899 235.79 69.5199 235.79C68.8199 235.8 68.1899 235.66 67.6699 235.39Z" fill="#535353"/>
<path d="M153.82 287.2V277.4H156.61C157.46 277.4 158.13 277.61 158.63 278.02C159.13 278.43 159.38 278.98 159.38 279.64C159.38 280.2 159.23 280.68 158.93 281.09C158.63 281.5 158.21 281.79 157.69 281.97V282C158.35 282.08 158.88 282.33 159.28 282.75C159.68 283.17 159.87 283.72 159.87 284.39C159.87 285.23 159.57 285.91 158.97 286.43C158.37 286.95 157.61 287.21 156.69 287.21H153.82V287.2ZM154.97 278.44V281.61H156.15C156.78 281.61 157.27 281.46 157.63 281.16C157.99 280.86 158.17 280.43 158.17 279.88C158.17 278.93 157.54 278.45 156.29 278.45H154.97V278.44ZM154.97 282.64V286.17H156.53C157.2 286.17 157.73 286.01 158.1 285.69C158.47 285.37 158.66 284.93 158.66 284.38C158.66 283.22 157.87 282.64 156.29 282.64H154.97V282.64Z" fill="#535353"/>
<path d="M166.71 287.2H165.59V286.11H165.56C165.07 286.95 164.35 287.37 163.41 287.37C162.71 287.37 162.17 287.19 161.77 286.82C161.37 286.45 161.18 285.96 161.18 285.35C161.18 284.04 161.95 283.28 163.49 283.07L165.59 282.78C165.59 281.59 165.11 281 164.15 281C163.31 281 162.55 281.29 161.87 281.86V280.71C162.56 280.27 163.35 280.05 164.25 280.05C165.9 280.05 166.72 280.92 166.72 282.66V287.2H166.71ZM165.58 283.66L163.89 283.89C163.37 283.96 162.98 284.09 162.71 284.28C162.45 284.46 162.31 284.79 162.31 285.26C162.31 285.6 162.43 285.88 162.68 286.1C162.92 286.32 163.25 286.42 163.65 286.42C164.21 286.42 164.67 286.22 165.03 285.84C165.39 285.45 165.57 284.96 165.57 284.36V283.66H165.58Z" fill="#535353"/>
<path d="M172.06 287.14C171.8 287.29 171.45 287.36 171.01 287.36C169.78 287.36 169.17 286.68 169.17 285.31V281.17H167.97V280.21H169.17V278.5L170.29 278.14V280.21H172.05V281.17H170.29V285.11C170.29 285.58 170.37 285.91 170.53 286.11C170.69 286.31 170.95 286.41 171.32 286.41C171.6 286.41 171.85 286.33 172.05 286.18V287.14H172.06Z" fill="#535353"/>
<path d="M178.33 286.88C177.79 287.2 177.15 287.37 176.42 287.37C175.42 287.37 174.62 287.05 174 286.4C173.39 285.75 173.08 284.91 173.08 283.87C173.08 282.72 173.41 281.79 174.07 281.09C174.73 280.39 175.61 280.04 176.72 280.04C177.34 280.04 177.88 280.15 178.35 280.38V281.53C177.83 281.17 177.27 280.98 176.68 280.98C175.96 280.98 175.38 281.24 174.92 281.75C174.46 282.26 174.23 282.94 174.23 283.77C174.23 284.59 174.45 285.24 174.88 285.71C175.31 286.18 175.89 286.42 176.61 286.42C177.22 286.42 177.8 286.22 178.33 285.81V286.88V286.88Z" fill="#535353"/>
<path d="M185.84 287.2H184.72V283.17C184.72 281.71 184.18 280.98 183.09 280.98C182.54 280.98 182.08 281.19 181.71 281.61C181.34 282.03 181.15 282.57 181.15 283.23V287.19H180.03V276.83H181.15V281.36H181.18C181.72 280.48 182.48 280.03 183.48 280.03C185.06 280.03 185.85 280.98 185.85 282.88V287.2H185.84Z" fill="#535353"/>
<path d="M115.72 302.99H115.69V307.22H114.57V297H115.69V298.23H115.72C116.27 297.3 117.08 296.84 118.14 296.84C119.04 296.84 119.75 297.15 120.25 297.78C120.76 298.41 121.01 299.25 121.01 300.3C121.01 301.47 120.73 302.41 120.16 303.11C119.59 303.82 118.81 304.17 117.82 304.17C116.91 304.17 116.21 303.78 115.72 302.99ZM115.69 300.17V301.15C115.69 301.73 115.88 302.22 116.25 302.62C116.63 303.02 117.1 303.23 117.68 303.23C118.36 303.23 118.89 302.97 119.28 302.45C119.67 301.93 119.86 301.21 119.86 300.28C119.86 299.5 119.68 298.89 119.32 298.45C118.96 298.01 118.47 297.79 117.86 297.79C117.21 297.79 116.68 298.02 116.29 298.47C115.89 298.92 115.69 299.49 115.69 300.17Z" fill="#535353"/>
<path d="M126.45 298.14C126.25 297.99 125.97 297.91 125.6 297.91C125.12 297.91 124.72 298.14 124.4 298.59C124.08 299.04 123.92 299.66 123.92 300.44V304H122.8V297H123.92V298.44H123.95C124.11 297.95 124.35 297.56 124.68 297.29C125.01 297.01 125.37 296.88 125.78 296.88C126.07 296.88 126.3 296.91 126.45 296.98V298.14Z" fill="#535353"/>
<path d="M130.59 304.17C129.56 304.17 128.73 303.84 128.11 303.19C127.49 302.54 127.18 301.67 127.18 300.59C127.18 299.41 127.5 298.5 128.14 297.84C128.78 297.18 129.65 296.85 130.74 296.85C131.78 296.85 132.6 297.17 133.18 297.81C133.76 298.45 134.06 299.34 134.06 300.48C134.06 301.6 133.74 302.49 133.11 303.16C132.5 303.83 131.65 304.17 130.59 304.17ZM130.67 297.78C129.95 297.78 129.38 298.03 128.96 298.51C128.54 299 128.33 299.68 128.33 300.54C128.33 301.37 128.54 302.02 128.97 302.5C129.4 302.98 129.96 303.22 130.67 303.22C131.39 303.22 131.95 302.99 132.34 302.52C132.73 302.05 132.92 301.38 132.92 300.52C132.92 299.64 132.73 298.97 132.34 298.5C131.95 298.03 131.4 297.78 130.67 297.78Z" fill="#535353"/>
<path d="M140.64 303.68C140.1 304 139.46 304.17 138.73 304.17C137.73 304.17 136.93 303.85 136.31 303.2C135.7 302.55 135.39 301.71 135.39 300.67C135.39 299.52 135.72 298.59 136.38 297.89C137.04 297.19 137.92 296.84 139.03 296.84C139.65 296.84 140.19 296.95 140.66 297.18V298.33C140.14 297.97 139.58 297.78 138.99 297.78C138.27 297.78 137.69 298.04 137.23 298.55C136.77 299.06 136.54 299.74 136.54 300.57C136.54 301.39 136.76 302.04 137.19 302.51C137.62 302.98 138.2 303.22 138.92 303.22C139.53 303.22 140.11 303.02 140.64 302.61V303.68Z" fill="#535353"/>
<path d="M147.96 300.78H143.02C143.04 301.56 143.25 302.16 143.65 302.58C144.05 303 144.6 303.22 145.3 303.22C146.09 303.22 146.81 302.96 147.47 302.44V303.49C146.85 303.94 146.04 304.16 145.03 304.16C144.04 304.16 143.26 303.84 142.7 303.21C142.14 302.57 141.85 301.68 141.85 300.53C141.85 299.44 142.16 298.55 142.78 297.87C143.4 297.18 144.16 296.84 145.08 296.84C146 296.84 146.7 297.14 147.21 297.73C147.72 298.32 147.96 299.15 147.96 300.2V300.78V300.78ZM146.81 299.83C146.81 299.18 146.65 298.68 146.34 298.32C146.03 297.96 145.61 297.78 145.06 297.78C144.53 297.78 144.08 297.97 143.71 298.35C143.34 298.73 143.11 299.22 143.03 299.83H146.81Z" fill="#535353"/>
<path d="M149.23 303.75V302.55C149.84 303 150.51 303.23 151.25 303.23C152.23 303.23 152.73 302.9 152.73 302.25C152.73 302.06 152.69 301.9 152.6 301.78C152.52 301.65 152.4 301.53 152.26 301.43C152.12 301.33 151.95 301.24 151.75 301.16C151.56 301.08 151.35 301 151.12 300.91C150.81 300.79 150.54 300.66 150.3 300.54C150.07 300.41 149.87 300.27 149.71 300.12C149.55 299.96 149.43 299.78 149.35 299.58C149.27 299.38 149.23 299.14 149.23 298.88C149.23 298.55 149.31 298.26 149.46 298.01C149.61 297.76 149.81 297.55 150.06 297.37C150.31 297.2 150.6 297.07 150.92 296.98C151.24 296.89 151.57 296.85 151.91 296.85C152.52 296.85 153.06 296.95 153.54 297.16V298.29C153.02 297.95 152.43 297.78 151.76 297.78C151.55 297.78 151.36 297.8 151.19 297.85C151.02 297.9 150.88 297.96 150.76 298.05C150.64 298.14 150.55 298.24 150.48 298.36C150.41 298.48 150.38 298.61 150.38 298.76C150.38 298.94 150.41 299.09 150.48 299.22C150.55 299.35 150.64 299.45 150.77 299.55C150.9 299.65 151.05 299.73 151.23 299.81C151.41 299.89 151.62 299.97 151.85 300.06C152.16 300.18 152.44 300.3 152.68 300.43C152.93 300.56 153.14 300.7 153.31 300.85C153.48 301.01 153.62 301.19 153.71 301.39C153.8 301.59 153.85 301.84 153.85 302.12C153.85 302.47 153.77 302.77 153.62 303.02C153.47 303.27 153.26 303.49 153.01 303.66C152.76 303.83 152.46 303.95 152.13 304.04C151.8 304.13 151.45 304.16 151.08 304.16C150.39 304.17 149.76 304.03 149.23 303.75Z" fill="#535353"/>
<path d="M155.17 303.75V302.55C155.78 303 156.45 303.23 157.19 303.23C158.17 303.23 158.67 302.9 158.67 302.25C158.67 302.06 158.63 301.9 158.54 301.78C158.46 301.65 158.34 301.53 158.2 301.43C158.06 301.33 157.89 301.24 157.69 301.16C157.5 301.08 157.29 301 157.06 300.91C156.75 300.79 156.48 300.66 156.24 300.54C156.01 300.41 155.81 300.27 155.65 300.12C155.49 299.96 155.37 299.78 155.29 299.58C155.21 299.38 155.17 299.14 155.17 298.88C155.17 298.55 155.25 298.26 155.4 298.01C155.55 297.76 155.75 297.55 156 297.37C156.25 297.2 156.54 297.07 156.86 296.98C157.18 296.89 157.51 296.85 157.85 296.85C158.46 296.85 159 296.95 159.48 297.16V298.29C158.96 297.95 158.37 297.78 157.7 297.78C157.49 297.78 157.3 297.8 157.13 297.85C156.96 297.9 156.82 297.96 156.7 298.05C156.58 298.14 156.49 298.24 156.42 298.36C156.35 298.48 156.32 298.61 156.32 298.76C156.32 298.94 156.35 299.09 156.42 299.22C156.49 299.35 156.58 299.45 156.71 299.55C156.84 299.65 156.99 299.73 157.17 299.81C157.35 299.89 157.56 299.97 157.79 300.06C158.1 300.18 158.38 300.3 158.62 300.43C158.87 300.56 159.08 300.7 159.25 300.85C159.42 301.01 159.56 301.19 159.65 301.39C159.74 301.59 159.79 301.84 159.79 302.12C159.79 302.47 159.71 302.77 159.56 303.02C159.41 303.27 159.2 303.49 158.95 303.66C158.7 303.83 158.4 303.95 158.07 304.04C157.74 304.13 157.39 304.16 157.02 304.16C156.33 304.17 155.7 304.03 155.17 303.75Z" fill="#535353"/>
<path d="M162.11 295.23C161.91 295.23 161.74 295.16 161.6 295.02C161.46 294.88 161.39 294.71 161.39 294.5C161.39 294.29 161.46 294.12 161.6 293.98C161.74 293.84 161.91 293.77 162.11 293.77C162.32 293.77 162.49 293.84 162.63 293.98C162.77 294.12 162.85 294.29 162.85 294.5C162.85 294.7 162.78 294.87 162.63 295.01C162.48 295.15 162.32 295.23 162.11 295.23ZM162.66 304H161.54V297H162.66V304Z" fill="#535353"/>
<path d="M170.74 304H169.62V300.01C169.62 298.52 169.08 297.78 167.99 297.78C167.43 297.78 166.97 297.99 166.6 298.41C166.23 298.83 166.05 299.36 166.05 300.01V304H164.93V297H166.05V298.16H166.08C166.61 297.28 167.37 296.83 168.38 296.83C169.15 296.83 169.73 297.08 170.14 297.57C170.55 298.06 170.75 298.78 170.75 299.71V304H170.74Z" fill="#535353"/>
<path d="M178.83 303.44C178.83 306.01 177.6 307.3 175.14 307.3C174.27 307.3 173.52 307.14 172.87 306.81V305.69C173.66 306.13 174.41 306.35 175.13 306.35C176.85 306.35 177.71 305.43 177.71 303.6V302.83H177.68C177.15 303.72 176.34 304.17 175.27 304.17C174.4 304.17 173.7 303.86 173.17 303.24C172.64 302.62 172.37 301.78 172.37 300.74C172.37 299.55 172.66 298.61 173.23 297.9C173.8 297.19 174.58 296.85 175.58 296.85C176.52 296.85 177.22 297.23 177.68 297.98H177.71V297H178.83V303.44ZM177.7 300.84V299.81C177.7 299.25 177.51 298.78 177.14 298.38C176.77 297.98 176.3 297.79 175.74 297.79C175.05 297.79 174.51 298.04 174.11 298.55C173.72 299.05 173.52 299.76 173.52 300.67C173.52 301.45 173.71 302.07 174.08 302.54C174.46 303.01 174.95 303.24 175.57 303.24C176.2 303.24 176.71 303.02 177.1 302.57C177.49 302.12 177.7 301.54 177.7 300.84Z" fill="#535353"/>
<path d="M190.56 300.78H185.62C185.64 301.56 185.85 302.16 186.25 302.58C186.65 303 187.2 303.22 187.9 303.22C188.69 303.22 189.41 302.96 190.07 302.44V303.49C189.45 303.94 188.64 304.16 187.63 304.16C186.64 304.16 185.86 303.84 185.3 303.21C184.74 302.57 184.45 301.68 184.45 300.53C184.45 299.44 184.76 298.55 185.38 297.87C186 297.18 186.76 296.84 187.68 296.84C188.6 296.84 189.3 297.14 189.81 297.73C190.32 298.32 190.56 299.15 190.56 300.2V300.78ZM189.41 299.83C189.41 299.18 189.25 298.68 188.94 298.32C188.63 297.96 188.21 297.78 187.66 297.78C187.13 297.78 186.68 297.97 186.31 298.35C185.94 298.73 185.71 299.22 185.63 299.83H189.41Z" fill="#535353"/>
<path d="M198.06 304H196.94V300.01C196.94 298.52 196.4 297.78 195.31 297.78C194.75 297.78 194.29 297.99 193.92 298.41C193.55 298.83 193.37 299.36 193.37 300.01V304H192.25V297H193.37V298.16H193.4C193.93 297.28 194.69 296.83 195.7 296.83C196.47 296.83 197.05 297.08 197.46 297.57C197.87 298.06 198.07 298.78 198.07 299.71V304H198.06Z" fill="#535353"/>
<path d="M206.15 303.44C206.15 306.01 204.92 307.3 202.46 307.3C201.59 307.3 200.84 307.14 200.19 306.81V305.69C200.98 306.13 201.73 306.35 202.45 306.35C204.17 306.35 205.03 305.43 205.03 303.6V302.83H205C204.47 303.72 203.66 304.17 202.59 304.17C201.72 304.17 201.02 303.86 200.49 303.24C199.96 302.62 199.69 301.78 199.69 300.74C199.69 299.55 199.98 298.61 200.55 297.9C201.12 297.19 201.9 296.85 202.9 296.85C203.84 296.85 204.54 297.23 205 297.98H205.03V297H206.15V303.44ZM205.03 300.84V299.81C205.03 299.25 204.84 298.78 204.47 298.38C204.1 297.98 203.63 297.79 203.07 297.79C202.38 297.79 201.84 298.04 201.44 298.55C201.05 299.05 200.85 299.76 200.85 300.67C200.85 301.45 201.04 302.07 201.41 302.54C201.79 303.01 202.28 303.24 202.9 303.24C203.53 303.24 204.04 303.02 204.43 302.57C204.82 302.12 205.03 301.54 205.03 300.84Z" fill="#535353"/>
<path d="M208.99 295.23C208.79 295.23 208.62 295.16 208.48 295.02C208.34 294.88 208.27 294.71 208.27 294.5C208.27 294.29 208.34 294.12 208.48 293.98C208.62 293.84 208.79 293.77 208.99 293.77C209.2 293.77 209.37 293.84 209.51 293.98C209.65 294.12 209.73 294.29 209.73 294.5C209.73 294.7 209.66 294.87 209.51 295.01C209.36 295.15 209.2 295.23 208.99 295.23ZM209.54 304H208.42V297H209.54V304Z" fill="#535353"/>
<path d="M217.62 304H216.5V300.01C216.5 298.52 215.96 297.78 214.87 297.78C214.31 297.78 213.85 297.99 213.48 298.41C213.11 298.83 212.93 299.36 212.93 300.01V304H211.81V297H212.93V298.16H212.96C213.49 297.28 214.25 296.83 215.26 296.83C216.03 296.83 216.61 297.08 217.02 297.57C217.43 298.06 217.63 298.78 217.63 299.71V304H217.62Z" fill="#535353"/>
<path d="M225.36 300.78H220.42C220.44 301.56 220.65 302.16 221.05 302.58C221.45 303 222 303.22 222.7 303.22C223.49 303.22 224.21 302.96 224.87 302.44V303.49C224.25 303.94 223.44 304.16 222.43 304.16C221.44 304.16 220.66 303.84 220.1 303.21C219.54 302.57 219.25 301.68 219.25 300.53C219.25 299.44 219.56 298.55 220.18 297.87C220.8 297.18 221.56 296.84 222.48 296.84C223.4 296.84 224.1 297.14 224.61 297.73C225.12 298.32 225.36 299.15 225.36 300.2V300.78ZM224.21 299.83C224.21 299.18 224.05 298.68 223.74 298.32C223.43 297.96 223.01 297.78 222.46 297.78C221.93 297.78 221.48 297.97 221.11 298.35C220.74 298.73 220.51 299.22 220.43 299.83H224.21Z" fill="#535353"/>
<path d="M622.74 84.8799H579.81C578.96 84.8799 578.28 85.5599 578.28 86.4099V113.88C578.28 114.72 578.97 115.41 579.81 115.41H622.74C623.59 115.41 624.27 114.73 624.27 113.88V86.3999C624.27 85.5599 623.59 84.8799 622.74 84.8799Z" fill="url(#paint0_linear)"/>
<path d="M608.94 95.6899V104.57L601.271 109.05V100.15L608.94 95.6899Z" fill="#75D0EB"/>
<path d="M608.94 95.68L601.27 100.16L593.6 95.68L601.27 91.23L608.94 95.68Z" fill="#C6EAF7"/>
<path d="M601.27 100.16V109.04L593.6 104.56V95.6797L601.27 100.16Z" fill="#A5DEF3"/>
<path d="M593.61 104.56L601.28 100.13V109.03L593.61 104.56Z" fill="#C6EAF7"/>
<path d="M608.94 104.56L601.271 100.13V109.03L608.94 104.56Z" fill="#A5DEF3"/>
<path d="M610.5 124.63C605.95 123.92 605.771 120.66 605.771 115.4H596.75C596.75 120.66 596.6 123.92 592.05 124.63C591.42 124.7 590.84 125 590.42 125.47C590 125.94 589.771 126.55 589.771 127.18H612.771C612.771 126.55 612.54 125.94 612.12 125.47C611.71 125 611.13 124.7 610.5 124.63Z" fill="url(#paint1_linear)"/>
<path d="M622.74 244.18H579.81C578.96 244.18 578.28 244.86 578.28 245.71V273.18C578.28 274.02 578.97 274.71 579.81 274.71H622.74C623.59 274.71 624.27 274.03 624.27 273.18V245.71C624.27 244.87 623.59 244.18 622.74 244.18Z" fill="url(#paint2_linear)"/>
<path d="M608.94 254.99V263.87L601.271 268.35V259.45L608.94 254.99Z" fill="#75D0EB"/>
<path d="M608.94 254.99L601.27 259.47L593.6 254.99L601.27 250.54L608.94 254.99Z" fill="#C6EAF7"/>
<path d="M601.27 259.47V268.35L593.6 263.87V254.99L601.27 259.47Z" fill="#A5DEF3"/>
<path d="M593.61 263.87L601.28 259.44V268.34L593.61 263.87Z" fill="#C6EAF7"/>
<path d="M608.94 263.87L601.271 259.44V268.34L608.94 263.87Z" fill="#A5DEF3"/>
<path d="M610.5 283.94C605.95 283.23 605.771 279.97 605.771 274.71H596.75C596.75 279.97 596.6 283.23 592.05 283.94C591.42 284.01 590.84 284.31 590.42 284.78C590 285.25 589.771 285.86 589.771 286.49H612.771C612.771 285.86 612.54 285.25 612.12 284.78C611.71 284.3 611.13 284 610.5 283.94Z" fill="url(#paint3_linear)"/>
<path d="M622.74 372.02H579.81C578.96 372.02 578.28 372.7 578.28 373.55V401.02C578.28 401.86 578.97 402.55 579.81 402.55H622.74C623.59 402.55 624.27 401.87 624.27 401.02V373.55C624.27 372.71 623.59 372.02 622.74 372.02Z" fill="url(#paint4_linear)"/>
<path d="M608.94 382.84V391.72L601.271 396.2V387.3L608.94 382.84Z" fill="#75D0EB"/>
<path d="M608.94 382.83L601.27 387.31L593.6 382.83L601.27 378.38L608.94 382.83Z" fill="#C6EAF7"/>
<path d="M601.27 387.31V396.19L593.6 391.71V382.83L601.27 387.31Z" fill="#A5DEF3"/>
<path d="M593.61 391.71L601.28 387.28V396.18L593.61 391.71Z" fill="#C6EAF7"/>
<path d="M608.94 391.71L601.271 387.28V396.18L608.94 391.71Z" fill="#A5DEF3"/>
<path d="M610.5 411.78C605.95 411.07 605.771 407.81 605.771 402.55H596.75C596.75 407.81 596.6 411.07 592.05 411.78C591.42 411.85 590.84 412.15 590.42 412.62C590 413.09 589.771 413.7 589.771 414.33H612.771C612.771 413.7 612.54 413.09 612.12 412.62C611.71 412.14 611.13 411.85 610.5 411.78Z" fill="url(#paint5_linear)"/>
<path d="M647.75 61.6602L642.17 62.6902V70.2702L647.75 71.4602L653.35 69.2302V63.5802L647.75 61.6602Z" fill="url(#paint6_linear)"/>
<path d="M642.17 62.7003V70.2803L647.81 71.4703V61.7603L642.17 62.7003ZM644.55 69.6903L642.97 69.3803V63.5503L644.55 63.3003V69.6903ZM647.01 70.1403L645.19 69.8503V63.1903L647.01 62.8803V70.1403Z" fill="#36296D"/>
<path d="M659.84 61.7603L654.26 62.7903V70.3703L659.84 71.5603L665.42 69.3103V63.6803L659.84 61.7603Z" fill="url(#paint7_linear)"/>
<path d="M654.25 62.7901V70.3701L659.85 71.5601V61.8501L654.25 62.7901ZM656.62 69.7801L655.04 69.4701V63.6401L656.62 63.3901V69.7801ZM659.07 70.2301L657.25 69.9401V63.2801L659.07 62.9501V70.2301Z" fill="#36296D"/>
<path d="M642.03 72.1201L636.45 73.1501V80.7301L642.03 81.9201L647.63 79.6901V74.0401L642.03 72.1201Z" fill="url(#paint8_linear)"/>
<path d="M636.43 73.1504V80.6704L642.07 81.8604V72.1504L636.43 73.1504ZM638.79 80.1604L637.21 79.8304V74.0004L638.79 73.7304V80.1604ZM641.27 80.6604L639.45 80.3704V73.6304L641.27 73.3204V80.6604Z" fill="#36296D"/>
<path d="M654.08 72.04L648.5 73.07V80.65L654.08 81.85L659.66 79.6V73.95L654.08 72.04Z" fill="url(#paint9_linear)"/>
<path d="M648.49 73.0704V80.6704L654.11 81.8604V72.1504L648.49 73.0704ZM650.86 80.0804L649.28 79.7504V73.9204L650.86 73.6504V80.0804ZM653.32 80.5104L651.5 80.2204V73.5604L653.32 73.2504V80.5104Z" fill="#36296D"/>
<path d="M666.12 72.1401L660.54 73.1701V80.7501L666.12 81.9401L671.72 79.7101V74.0601L666.12 72.1401Z" fill="url(#paint10_linear)"/>
<path d="M660.54 73.1704V80.6704L666.18 81.8604V72.1504L660.54 73.1704ZM662.92 80.1804L661.34 79.8504V74.0204L662.92 73.7504V80.1804ZM665.38 80.6104L663.56 80.3204V73.6604L665.38 73.3504V80.6104Z" fill="#36296D"/>
<path d="M647.62 82.6899L642.04 83.6999V91.2799L647.62 92.4799L653.22 90.2299V84.5999L647.62 82.6899Z" fill="url(#paint11_linear)"/>
<path d="M642.03 83.7003V91.2803L647.67 92.4804V82.6104L642.03 83.7003ZM644.41 90.7104L642.83 90.3803V84.5504L644.41 84.2803V90.7104ZM646.87 91.1604L645.05 90.8704V84.1904L646.87 83.8803V91.1604Z" fill="#36296D"/>
<path d="M659.68 82.7603L654.1 83.7903V91.3703L659.68 92.5602L665.28 90.3303V84.6803L659.68 82.7603Z" fill="url(#paint12_linear)"/>
<path d="M654.1 83.8004V91.3803L659.74 92.5704V82.8604L654.1 83.8004ZM656.48 90.8103L654.9 90.4804V84.6504L656.48 84.3803V90.8103ZM658.94 91.2403L657.12 90.9503V84.2904L658.94 83.9804V91.2403Z" fill="#36296D"/>
<path d="M401.65 245.73L415.31 237.78L428.8 245.56L415.14 253.51L401.65 245.73Z" fill="#75D0EB"/>
<path d="M415.14 253.43L414.97 269.08L428.63 261.13L428.8 245.48L415.14 253.43Z" fill="#2F76BC"/>
<path d="M401.65 245.73V261.38L415.06 269.16L415.23 253.51L401.65 245.73Z" fill="#2B9ED9"/>
<path d="M419.14 262.7V261.21L425.49 257.54V259.03L419.14 262.7Z" fill="white"/>
<path d="M419.14 256.85V255.4L425.49 251.73V253.18L419.14 256.85Z" fill="white"/>
<path d="M419.14 259.75V258.3L425.49 254.63V256.12L419.14 259.75Z" fill="white"/>
<path d="M401.65 379.1L415.31 371.15L428.8 378.93L415.14 386.88L401.65 379.1Z" fill="#75D0EB"/>
<path d="M415.14 386.8L414.97 402.45L428.63 394.5L428.8 378.85L415.14 386.8Z" fill="#2F76BC"/>
<path d="M401.65 379.1V394.75L415.06 402.53L415.23 386.88L401.65 379.1Z" fill="#2B9ED9"/>
<path d="M419.14 396.07V394.58L425.49 390.91V392.4L419.14 396.07Z" fill="white"/>
<path d="M419.14 390.22V388.77L425.49 385.1V386.55L419.14 390.22Z" fill="white"/>
<path d="M419.14 393.12V391.67L425.49 388V389.49L419.14 393.12Z" fill="white"/>
<path d="M401.65 84.8699L415.31 76.9199L428.8 84.6999L415.14 92.6499L401.65 84.8699Z" fill="#75D0EB"/>
<path d="M415.14 92.5699L414.97 108.22L428.63 100.27L428.8 84.6199L415.14 92.5699Z" fill="#2F76BC"/>
<path d="M401.65 84.8699V100.52L415.06 108.3L415.23 92.6499L401.65 84.8699Z" fill="#2B9ED9"/>
<path d="M419.14 101.83V100.34L425.49 96.6699V98.1599L419.14 101.83Z" fill="white"/>
<path d="M419.14 95.9799V94.5299L425.49 90.8599V92.3099L419.14 95.9799Z" fill="white"/>
<path d="M419.14 98.8798V97.4298L425.49 93.7598V95.2498L419.14 98.8798Z" fill="white"/>
<path d="M184.79 100.27C183.95 92.7601 177.51 86.8501 169.71 86.8501C161.97 86.8501 155.59 92.6301 154.63 100.08C154.5 100.59 154.5 101.17 154.5 101.69C154.69 103.81 156.18 105.86 158.95 107.47C164.88 110.87 174.55 110.87 180.42 107.47C183.19 105.86 184.61 103.81 184.8 101.69C184.92 101.24 184.85 100.72 184.79 100.27Z" fill="url(#paint13_radial)"/>
<path d="M169.71 85.3099C174.75 85.3099 178.84 81.2399 178.84 76.2299C178.84 71.2099 174.75 67.1499 169.71 67.1499C164.67 67.1499 160.58 71.2199 160.58 76.2299C160.58 81.2399 164.67 85.3099 169.71 85.3099Z" fill="url(#paint14_radial)"/>
<path opacity="0.2" d="M66.9901 206.86L50.8401 197.39L48.5801 198.95L64.5701 208.21L66.9901 206.86Z" fill="#201D21"/>
<path opacity="0.2" d="M58.7498 210.95L42.5998 201.48L40.3398 203.04L56.3298 212.35L58.7498 210.95Z" fill="#201D21"/>
<path opacity="0.2" d="M50.41 215.64L34.26 206.17L32 207.72L47.99 217.03L50.41 215.64Z" fill="#201D21"/>
<path d="M59.99 185.98L64.57 188.62L64.52 207.03L48.48 197.77L48.53 174.41L60 181.08V185.98H59.99Z" fill="#243B5F"/>
<path d="M48.5298 174.46L50.6298 173.22L62.0998 179.84L59.9998 181.08L48.5298 174.46Z" fill="#195A98"/>
<path d="M64.57 188.61L66.67 187.37L66.62 205.83L64.52 207.01L64.57 188.61Z" fill="#1D4B7A"/>
<path d="M51.8601 190.28L56.4401 192.92L56.3901 211.33L40.3501 202.12L40.4001 178.76L51.8701 185.38V190.28H51.8601Z" fill="#2F76BC"/>
<path d="M40.3999 178.76L42.4999 177.52L53.9699 184.14L51.8699 185.38L40.3999 178.76Z" fill="#37AFE4"/>
<path d="M56.4401 192.92L58.5401 191.74L58.4901 210.15L56.3901 211.39L56.4401 192.92Z" fill="#37AFE4"/>
<path d="M43.52 194.91L48.1 197.55L48.05 215.96L32 206.75L32.05 183.39L43.52 190.01V194.91V194.91Z" fill="#4CC8EF"/>
<path d="M32.0498 183.39L34.1498 182.15L45.6198 188.77L43.5198 190.01L32.0498 183.39Z" fill="#75CFE8"/>
<path d="M48.0998 197.55L50.1998 196.37L50.1498 214.78L48.0498 216.02L48.0998 197.55Z" fill="#37AFE4"/>
<path d="M39.81 200.08C40.08 200.24 40.35 200.67 40.35 201C40.35 201.22 40.24 201.38 40.08 201.38V201.97C40.08 202.13 39.97 202.19 39.81 202.13C39.65 202.02 39.54 201.86 39.54 201.65V201.06C39.38 200.84 39.27 200.63 39.27 200.36C39.27 200.03 39.48 199.92 39.81 200.08Z" fill="#4CC8EF"/>
<path d="M59.9902 181.08L62.0902 179.84L66.6702 187.38L64.5702 188.62L59.9902 181.08Z" fill="#2F76BC"/>
<path d="M59.9902 181.08L64.5702 188.62L59.9902 185.98V181.08V181.08Z" fill="#176BB4"/>
<path d="M51.8599 185.38L53.9599 184.14L58.5399 191.73L56.4399 192.91L51.8599 185.38Z" fill="#4CC8EF"/>
<path d="M51.8599 185.38L56.4399 192.92L51.8599 190.28V185.38Z" fill="#37AFE4"/>
<path d="M43.52 190.01L45.62 188.77L50.2 196.36L48.1 197.54L43.52 190.01Z" fill="#75D0EB"/>
<path d="M43.52 190.01L48.1 197.55L43.52 194.91V190.01V190.01Z" fill="#AEE0EE"/>
<path d="M295.23 193.46L297.11 192.37L297.06 212.15L295.18 213.24L295.23 193.46Z" fill="#195A98"/>
<path d="M290.18 184.67L292.06 183.58L297.12 192.37L295.24 193.46L292.88 189.82L290.18 184.67Z" fill="#96D8EC"/>
<path d="M278.83 178.12L280.71 177.03L292.06 183.58L290.18 184.67L278.83 178.12Z" fill="#3194D1"/>
<path d="M290.18 184.67L292.73 189.96L295.24 193.46L295.19 213.24L278.76 203.76L278.83 178.12L290.18 184.67Z" fill="#2F76BC"/>
<path d="M290.83 193.54V195.09L282.68 190.39V188.84L290.83 193.54Z" fill="white"/>
<path d="M290.8 203.01V204.56L282.65 199.85V198.3L290.8 203.01Z" fill="white"/>
<path d="M290.82 198.33V199.88L282.67 195.17V193.62L290.82 198.33Z" fill="white"/>
<path d="M290.18 184.69L295.24 193.46L290.16 190.52L290.18 184.69Z" fill="#75D0EB"/>
<path d="M187.16 249.92L192.22 244.81C192.63 244.38 192.49 244.03 191.87 244.03H189.35C189.27 244.03 189.18 244.01 189.11 243.98C189.03 243.95 188.96 243.9 188.9 243.84C188.84 243.78 188.8 243.71 188.77 243.63C188.74 243.55 188.73 243.47 188.73 243.38C188.73 240.19 187.92 231.28 175.74 230.99C175.66 230.99 175.57 231 175.49 231.03C175.41 231.06 175.34 231.1 175.28 231.16C175.22 231.22 175.17 231.29 175.14 231.37C175.11 231.45 175.09 231.53 175.09 231.61V234.69C175.09 234.78 175.11 234.86 175.14 234.94C175.17 235.02 175.23 235.09 175.29 235.15C175.35 235.21 175.43 235.25 175.51 235.28C175.59 235.31 175.68 235.32 175.76 235.31C176.92 235.05 178.12 235.07 179.27 235.38C180.42 235.68 181.48 236.25 182.36 237.05C183.24 237.84 183.92 238.84 184.34 239.95C184.76 241.06 184.91 242.26 184.77 243.43C184.77 243.51 184.76 243.6 184.73 243.68C184.7 243.76 184.66 243.83 184.6 243.89C184.54 243.95 184.47 244 184.39 244.03C184.31 244.06 184.23 244.08 184.15 244.08H181.8C181.18 244.08 181.04 244.43 181.45 244.89L186.16 250.03C186.23 250.1 186.31 250.15 186.4 250.18C186.49 250.21 186.59 250.22 186.68 250.21C186.78 250.2 186.87 250.17 186.95 250.12C187.03 250.06 187.1 250 187.16 249.92Z" fill="#B4B4B4"/>
<path d="M178.85 226.78H148.22C147.37 226.78 146.68 227.47 146.68 228.32V248.61C146.68 249.46 147.37 250.15 148.22 250.15H178.85C179.7 250.15 180.39 249.46 180.39 248.61V228.32C180.39 227.47 179.7 226.78 178.85 226.78Z" fill="url(#paint15_linear)"/>
<path d="M148.19 226.78H179.28C179.43 226.78 179.57 226.81 179.7 226.86C179.83 226.92 179.96 227 180.06 227.1C180.16 227.2 180.24 227.33 180.3 227.46C180.36 227.59 180.38 227.74 180.38 227.88V232.34H146.66V228.31C146.66 227.91 146.82 227.52 147.1 227.23C147.38 226.94 147.79 226.78 148.19 226.78Z" fill="#8BB6E1"/>
<path d="M180.39 232.35H146.67V236.08H180.39V232.35Z" fill="url(#paint16_linear)"/>
<path d="M191.7 255.48H172.22C171.68 255.48 171.25 255.92 171.25 256.45V269.36C171.25 269.9 171.69 270.33 172.22 270.33H191.7C192.24 270.33 192.67 269.89 192.67 269.36V256.45C192.68 255.92 192.24 255.48 191.7 255.48Z" fill="#015CA2"/>
<path d="M151.52 234.49H175.52C175.65 234.49 175.78 234.54 175.87 234.63C175.97 234.72 176.02 234.84 176.03 234.98V237.5C176.02 237.63 175.96 237.74 175.86 237.83C175.76 237.92 175.64 237.96 175.51 237.96H151.51C151.45 237.96 151.38 237.95 151.32 237.93C151.26 237.91 151.2 237.88 151.16 237.83C151.11 237.79 151.07 237.74 151.05 237.68C151.02 237.62 151.01 237.56 151 237.5V234.98C151 234.91 151.01 234.85 151.04 234.79C151.07 234.73 151.1 234.67 151.15 234.63C151.2 234.58 151.26 234.55 151.32 234.53C151.39 234.5 151.45 234.49 151.52 234.49Z" fill="white"/>
<path d="M151.52 239.39H175.55C175.61 239.39 175.68 239.4 175.73 239.42C175.79 239.44 175.84 239.47 175.89 239.52C175.94 239.56 175.97 239.62 176 239.67C176.02 239.73 176.04 239.79 176.04 239.85V242.37C176.04 242.5 175.99 242.62 175.9 242.71C175.81 242.8 175.68 242.85 175.56 242.85H151.53C151.4 242.85 151.28 242.8 151.19 242.71C151.1 242.62 151.05 242.49 151.05 242.37V239.96C151.03 239.89 151.03 239.81 151.05 239.74C151.07 239.67 151.1 239.6 151.15 239.55C151.2 239.5 151.26 239.45 151.33 239.42C151.37 239.39 151.45 239.38 151.52 239.39Z" fill="white"/>
<path d="M151.52 244.5H175.55C175.68 244.5 175.8 244.55 175.89 244.64C175.98 244.73 176.03 244.86 176.03 244.98V247.5C176.02 247.62 175.97 247.74 175.88 247.83C175.79 247.92 175.67 247.96 175.54 247.96H151.51C151.39 247.96 151.27 247.91 151.17 247.83C151.08 247.74 151.03 247.63 151.02 247.5V244.98C151.02 244.92 151.03 244.85 151.06 244.79C151.08 244.73 151.12 244.68 151.17 244.63C151.22 244.58 151.27 244.55 151.33 244.52C151.39 244.52 151.46 244.5 151.52 244.5Z" fill="white"/>
<path d="M188.16 252.29H168.68C168.14 252.29 167.71 252.73 167.71 253.26V266.17C167.71 266.71 168.15 267.14 168.68 267.14H188.16C188.7 267.14 189.13 266.7 189.13 266.17V253.26C189.13 252.73 188.69 252.29 188.16 252.29Z" fill="#2F76BC"/>
<path d="M168.81 252.29H188.56C188.65 252.29 188.74 252.31 188.83 252.34C188.92 252.38 188.99 252.43 189.06 252.49C189.13 252.56 189.18 252.63 189.21 252.72C189.25 252.81 189.26 252.9 189.26 252.99V255.7H167.7V253.13C167.72 253 167.76 252.88 167.82 252.77C167.89 252.66 167.97 252.56 168.08 252.48C168.18 252.4 168.3 252.35 168.43 252.31C168.55 252.28 168.68 252.27 168.81 252.29Z" fill="#8BB6E1"/>
<path d="M170.79 257.22H186.05C186.13 257.22 186.21 257.25 186.27 257.31C186.33 257.37 186.37 257.44 186.37 257.52V259.12C186.36 259.2 186.33 259.28 186.27 259.33C186.21 259.39 186.13 259.42 186.05 259.42H170.79C170.75 259.42 170.71 259.42 170.67 259.41C170.63 259.4 170.59 259.38 170.56 259.35C170.53 259.32 170.5 259.29 170.49 259.25C170.47 259.21 170.46 259.17 170.47 259.13V257.53C170.47 257.49 170.48 257.45 170.49 257.41C170.5 257.37 170.53 257.34 170.56 257.31C170.59 257.28 170.63 257.26 170.67 257.25C170.7 257.22 170.75 257.22 170.79 257.22Z" fill="white"/>
<path d="M170.79 260.38H186.05C186.09 260.38 186.13 260.38 186.17 260.39C186.21 260.4 186.25 260.42 186.28 260.45C186.31 260.48 186.33 260.51 186.35 260.55C186.37 260.59 186.38 260.63 186.37 260.67V262.27C186.37 262.31 186.36 262.35 186.35 262.39C186.33 262.43 186.31 262.46 186.28 262.49C186.25 262.52 186.21 262.54 186.17 262.55C186.13 262.56 186.09 262.57 186.05 262.56H170.79C170.71 262.56 170.63 262.53 170.57 262.47C170.51 262.41 170.47 262.34 170.47 262.26V260.66C170.48 260.58 170.51 260.5 170.57 260.45C170.63 260.41 170.71 260.38 170.79 260.38Z" fill="white"/>
<path d="M170.79 263.58H186.05C186.09 263.58 186.13 263.58 186.17 263.59C186.21 263.6 186.25 263.62 186.28 263.65C186.31 263.68 186.33 263.71 186.35 263.75C186.37 263.79 186.38 263.83 186.37 263.87V265.47C186.37 265.51 186.36 265.55 186.35 265.59C186.33 265.63 186.31 265.66 186.28 265.69C186.25 265.72 186.21 265.74 186.17 265.75C186.13 265.76 186.09 265.77 186.05 265.76H170.79C170.71 265.76 170.63 265.73 170.57 265.67C170.51 265.61 170.47 265.54 170.47 265.46V263.86C170.48 263.78 170.51 263.7 170.57 263.65C170.63 263.61 170.71 263.58 170.79 263.58Z" fill="white"/>
<path d="M43.7501 197.09V198.64L35.6001 193.94V192.39L43.7501 197.09Z" fill="#AEE0EE"/>
<path d="M43.7301 206.56V208.11L35.5801 203.4V201.85L43.7301 206.56Z" fill="#AEE0EE"/>
<path d="M43.7398 201.89V203.44L35.5898 198.73V197.18L43.7398 201.89Z" fill="#AEE0EE"/>
<defs>
<linearGradient id="paint0_linear" x1="601.274" y1="115.394" x2="601.274" y2="84.8753" gradientUnits="userSpaceOnUse">
<stop stop-color="#2F76BC"/>
<stop offset="0.82" stop-color="#6A9DD3"/>
</linearGradient>
<linearGradient id="paint1_linear" x1="601.274" y1="127.171" x2="601.274" y2="115.396" gradientUnits="userSpaceOnUse">
<stop offset="0.15" stop-color="#CCCCCC"/>
<stop offset="1" stop-color="#717171"/>
</linearGradient>
<linearGradient id="paint2_linear" x1="601.274" y1="274.702" x2="601.274" y2="244.183" gradientUnits="userSpaceOnUse">
<stop stop-color="#2F76BC"/>
<stop offset="0.82" stop-color="#6A9DD3"/>
</linearGradient>
<linearGradient id="paint3_linear" x1="601.274" y1="286.478" x2="601.274" y2="274.703" gradientUnits="userSpaceOnUse">
<stop offset="0.15" stop-color="#CCCCCC"/>
<stop offset="1" stop-color="#717171"/>
</linearGradient>
<linearGradient id="paint4_linear" x1="601.274" y1="402.544" x2="601.274" y2="372.025" gradientUnits="userSpaceOnUse">
<stop stop-color="#2F76BC"/>
<stop offset="0.82" stop-color="#6A9DD3"/>
</linearGradient>
<linearGradient id="paint5_linear" x1="601.274" y1="414.321" x2="601.274" y2="402.545" gradientUnits="userSpaceOnUse">
<stop offset="0.15" stop-color="#CCCCCC"/>
<stop offset="1" stop-color="#717171"/>
</linearGradient>
<linearGradient id="paint6_linear" x1="642.17" y1="66.5575" x2="653.357" y2="66.5575" gradientUnits="userSpaceOnUse">
<stop stop-color="#9F7DB9"/>
<stop offset="1" stop-color="#6D54A3"/>
</linearGradient>
<linearGradient id="paint7_linear" x1="756.211" y1="66.6562" x2="820.088" y2="66.6562" gradientUnits="userSpaceOnUse">
<stop stop-color="#9F7DB9"/>
<stop offset="1" stop-color="#6D54A3"/>
</linearGradient>
<linearGradient id="paint8_linear" x1="636.559" y1="77.0161" x2="700.548" y2="77.0161" gradientUnits="userSpaceOnUse">
<stop stop-color="#9F7DB9"/>
<stop offset="1" stop-color="#6D54A3"/>
</linearGradient>
<linearGradient id="paint9_linear" x1="717.508" y1="76.9425" x2="781.384" y2="76.9425" gradientUnits="userSpaceOnUse">
<stop stop-color="#9F7DB9"/>
<stop offset="1" stop-color="#6D54A3"/>
</linearGradient>
<linearGradient id="paint10_linear" x1="798.696" y1="77.0317" x2="862.797" y2="77.0317" gradientUnits="userSpaceOnUse">
<stop stop-color="#9F7DB9"/>
<stop offset="1" stop-color="#6D54A3"/>
</linearGradient>
<linearGradient id="paint11_linear" x1="674.139" y1="87.5816" x2="738.239" y2="87.5816" gradientUnits="userSpaceOnUse">
<stop stop-color="#9F7DB9"/>
<stop offset="1" stop-color="#6D54A3"/>
</linearGradient>
<linearGradient id="paint12_linear" x1="755.337" y1="87.6577" x2="819.439" y2="87.6577" gradientUnits="userSpaceOnUse">
<stop stop-color="#9F7DB9"/>
<stop offset="1" stop-color="#6D54A3"/>
</linearGradient>
<radialGradient id="paint13_radial" cx="0" cy="0" r="1" gradientUnits="userSpaceOnUse" gradientTransform="translate(164.122 78.2949) scale(43.1467 42.9914)">
<stop stop-color="#50C2EB"/>
<stop offset="0.585" stop-color="#2F76BC"/>
</radialGradient>
<radialGradient id="paint14_radial" cx="0" cy="0" r="1" gradientUnits="userSpaceOnUse" gradientTransform="translate(165.198 71.6169) scale(20.2366 20.1236)">
<stop stop-color="#50C2EB"/>
<stop offset="0.585" stop-color="#2F76BC"/>
</radialGradient>
<linearGradient id="paint15_linear" x1="163.534" y1="250.156" x2="163.534" y2="226.777" gradientUnits="userSpaceOnUse">
<stop stop-color="#2F76BC"/>
<stop offset="1" stop-color="#6A9DD3"/>
</linearGradient>
<linearGradient id="paint16_linear" x1="163.534" y1="236.082" x2="163.534" y2="232.348" gradientUnits="userSpaceOnUse">
<stop stop-color="#1A519C" stop-opacity="0"/>
<stop offset="0.26" stop-color="#1A519D" stop-opacity="0.01"/>
<stop offset="0.41" stop-color="#1A539F" stop-opacity="0.05"/>
<stop offset="0.52" stop-color="#1955A2" stop-opacity="0.11"/>
<stop offset="0.62" stop-color="#1959A6" stop-opacity="0.21"/>
<stop offset="0.71" stop-color="#1B5EAC" stop-opacity="0.33"/>
<stop offset="0.8" stop-color="#1C64B0" stop-opacity="0.47"/>
<stop offset="0.88" stop-color="#246BB5" stop-opacity="0.65"/>
<stop offset="0.95" stop-color="#2972B9" stop-opacity="0.85"/>
<stop offset="1" stop-color="#2F76BC"/>
</linearGradient>
</defs>
</svg>
