<svg width="297" height="238" viewBox="0 0 297 238" fill="none" xmlns="http://www.w3.org/2000/svg">
<path opacity="0.03" d="M57.4593 120.624L72.1599 112.617L84.6292 119.705L70.1911 128.368L57.4593 120.624Z" fill="url(#paint0_linear)"/>
<path d="M18.8748 55.2958V77.501L38.2538 66.2975L38.1529 44.0923L18.8748 55.2958Z" fill="#2195DC"/>
<path d="M18.8744 55.2958L0 44.0923L0.100933 66.2975L18.8744 77.501V55.2958Z" fill="#0078D4"/>
<path d="M38.1525 44.0922L19.3791 32.8887L0 44.0922L18.8744 55.2957L38.1525 44.0922Z" fill="#45CAF2"/>
<path d="M51.9467 119.049L52.078 143.725L73.4726 131.256V106.58L51.9467 119.049Z" fill="#50E6FF"/>
<path d="M51.9466 119.049L31.077 106.58V131.256L52.0779 143.725L51.9466 119.049Z" fill="#45CAF2"/>
<path d="M73.4725 106.579L52.4717 94.2412L31.077 106.579L51.9466 119.048L73.4725 106.579Z" fill="#84ECFD"/>
<path d="M67.8285 59.9841V74.816L80.6915 67.3344L80.5603 52.6338L67.8285 59.9841Z" fill="#243A5E"/>
<path d="M67.8289 59.9841L55.3596 52.6338V67.3344L67.8289 74.816V59.9841Z" fill="#1D4A79"/>
<path d="M80.5607 52.6335L68.0914 45.2832L55.3596 52.6335L67.8289 59.9838L80.5607 52.6335Z" fill="#156AB3"/>
<path d="M215.753 71.7968L215.621 98.4417L192.652 85.0536V58.54L215.753 71.7968Z" fill="#243A5E"/>
<path d="M215.753 71.7968L238.197 58.54V85.0536L215.621 98.4417L215.753 71.7968Z" fill="#1D4A79"/>
<path d="M192.652 58.5399L215.228 45.1519L238.198 58.5399L215.753 71.7967L192.652 58.5399Z" fill="#156AB3"/>
<path d="M241 21V41L224 31V11L241 21Z" fill="#0078D4"/>
<path d="M241 21L259 11L258.895 31L241 41V21Z" fill="#2195DC"/>
<path d="M224 10.5517L241.299 0L259 10.5517L241.701 21L224 10.5517Z" fill="#45CAF2"/>
<path d="M283.481 34.6511V50.4018L269.7 42.5264V26.6445L283.481 34.6511Z" fill="#45CAF2"/>
<path d="M283.481 34.6511L297.001 26.6445L296.869 42.5264L283.481 50.4018V34.6511Z" fill="#50E6FF"/>
<path d="M269.699 26.6448L283.219 18.6382L297.001 26.6448L283.481 34.6513L269.699 26.6448Z" fill="#50E6FF"/>
<path opacity="0.15" d="M6.92566 168.41L107.992 112.889L210.372 181.798C212.209 182.979 212.078 185.735 210.24 186.917L127.812 236.269C124.005 238.5 119.149 238.5 115.343 236.138L6.92566 168.41Z" fill="url(#paint1_linear)"/>
<path d="M215.229 63.003L205.91 169.582L88.83 105.267L94.4739 5.11938C94.7365 2.88804 97.2303 1.70674 99.0679 2.75678L215.229 63.003Z" fill="#0078D4"/>
<path opacity="0.5" d="M215.229 63.0028L205.91 169.582L88.83 105.267L94.6052 4.33167C94.8677 2.49409 96.8365 1.44405 98.4116 2.36284L215.229 63.0028Z" fill="#50E6FF"/>
<path d="M86.5986 102.642L7.84534 147.006L15.4582 151.863L125.056 214.34L127.419 215.784L205.253 172.207L208.01 170.895L206.304 168.401L90.405 102.773C89.2237 101.986 87.7799 101.854 86.5986 102.642Z" fill="#0078D4"/>
<path d="M107.075 174.307L88.8306 184.676C88.3056 184.939 87.6493 184.939 87.1243 184.676L59.9544 169.057C59.4294 168.794 59.4294 168.007 59.9544 167.744L77.9364 157.375C78.4614 157.113 79.1177 157.113 79.6427 157.375L107.075 172.995C107.6 173.257 107.6 174.045 107.075 174.307Z" fill="#50E6FF"/>
<path d="M7.97668 146.219C8.23919 146.875 8.76421 147.662 9.55175 148.187C23.2023 158.163 119.544 212.371 122.694 214.078C126.107 215.915 125.975 216.571 130.701 213.946C134.901 211.584 193.441 179.032 205.779 171.551C207.354 170.632 207.354 168.795 207.354 168.795C208.141 168.269 208.535 173.126 208.141 175.357C208.01 176.145 207.222 177.326 206.566 177.72C197.903 182.97 134.376 218.672 131.226 220.903C125.844 224.709 124.532 223.659 120.988 220.903C116.131 217.097 17.2958 160.657 8.23919 154.356C7.71417 153.963 7.45166 153.438 7.45166 152.913L7.58292 146.481C7.58292 146.481 7.71417 145.694 7.97668 146.219Z" fill="#0078D4"/>
<g opacity="0.5">
<path opacity="0.5" d="M7.97668 146.219C8.23919 146.875 8.76421 147.662 9.55175 148.187C23.2023 158.163 119.544 212.371 122.694 214.078C126.107 215.915 125.975 216.571 130.701 213.946C134.901 211.584 193.441 179.032 205.779 171.551C207.354 170.632 207.354 168.795 207.354 168.795C208.141 168.269 208.404 173.126 208.141 175.357C208.01 176.145 207.222 177.326 206.566 177.72C197.903 182.97 134.376 218.672 131.226 220.903C125.844 224.709 124.269 223.528 120.988 220.903C116.131 216.965 17.2958 160.657 8.23919 154.356C7.71417 153.963 7.45166 153.438 7.45166 152.913L7.58292 146.481C7.58292 146.481 7.71417 145.694 7.97668 146.219Z" fill="#50E6FF"/>
</g>
<path d="M123.612 216.047L8.37015 149.369C7.58262 148.713 7.58262 147.794 7.71387 147.4C7.71387 146.875 7.97638 146.219 8.50141 145.825L85.6796 101.986C86.5984 101.33 87.9109 101.461 88.8297 101.986L206.96 168.007C207.747 168.401 208.01 169.845 208.01 170.632C208.01 171.42 207.616 172.208 206.828 172.733L128.863 216.047C128.075 216.572 127.156 216.703 126.238 216.703C125.319 216.834 124.4 216.572 123.612 216.047ZM10.864 147.138C10.7327 147.269 10.4702 147.4 10.4702 147.531C10.4702 147.794 10.6015 148.057 10.864 148.188L124.4 213.684C125.713 214.472 127.288 214.472 128.469 213.684L205.122 170.895C205.516 170.632 205.778 170.239 205.778 169.845C205.778 169.32 205.516 168.926 205.122 168.664L87.3859 103.43L10.864 147.138Z" fill="#0078D4"/>
<path d="M90.2739 102.773C90.2739 102.773 90.6677 104.086 91.849 105.398C92.6365 106.186 89.2239 103.954 89.2239 103.954L90.2739 102.773Z" fill="#0078D4"/>
<path d="M95.3927 99.7544L199.872 156.719L208.01 67.9906L100.512 13.1258C100.38 12.9945 100.118 12.9945 99.9867 13.1258C99.8554 13.257 99.7242 13.3883 99.7242 13.5196C99.5929 13.5196 95.1302 99.6231 95.3927 99.7544Z" fill="#9B9BA0"/>
<path d="M95.3927 99.7544L199.872 156.719L208.01 67.9906L100.512 13.1258C100.38 12.9945 100.118 12.9945 99.9867 13.1258C99.8554 13.257 99.7242 13.3883 99.7242 13.5196C99.5929 13.5196 95.1302 99.6231 95.3927 99.7544Z" fill="#E1E1E1"/>
<path d="M88.8297 101.198C89.6172 93.979 93.4236 8.7942 93.5549 5.77532C93.6862 2.62519 96.5738 -0.787447 99.9864 0.918873C101.561 1.70641 211.422 58.8025 212.997 59.8526C217.198 62.4777 216.541 63.5277 216.541 69.0404C216.41 73.2406 208.403 163.676 207.747 166.432C206.828 170.632 208.666 169.451 205.91 169.188V169.057H205.778C205.122 168.926 204.728 168.401 204.86 167.745C204.86 167.482 213.391 71.403 213.391 71.403C213.916 65.234 213.129 64.4465 211.16 63.0027C209.453 61.8214 99.3301 4.069 99.3301 4.069C99.3301 4.069 97.3613 3.28147 96.3113 4.59403C95.7862 5.2503 95.5237 6.30035 95.2612 7.87541C94.8675 10.8943 91.3236 95.9478 90.536 103.167C90.4048 104.479 90.536 103.954 90.6673 104.611C90.9298 105.136 90.1423 104.086 89.6172 104.217C89.0922 104.479 89.8798 105.136 89.6172 104.479C89.2235 103.298 88.6984 102.642 88.8297 101.198Z" fill="#0078D4"/>
<path d="M88.6989 124.43L83.5799 127.449L90.6677 131.518L95.7867 128.499L88.6989 124.43Z" fill="#50E6FF"/>
<path d="M97.6238 129.549L92.5048 132.568L98.4113 135.98L103.53 132.961L97.6238 129.549Z" fill="#50E6FF"/>
<path d="M105.369 134.012L100.25 137.031L106.156 140.443L111.275 137.424L105.369 134.012Z" fill="#50E6FF"/>
<path d="M82.9239 129.024L70.4547 121.937L65.2045 124.955L77.6737 132.174L82.9239 129.024Z" fill="#50E6FF"/>
<path d="M137.526 174.57L142.514 171.682L136.213 168.007L131.357 170.894L137.526 174.57Z" fill="#50E6FF"/>
<path d="M144.614 178.638L149.602 175.751L144.483 172.732L139.495 175.62L144.614 178.638Z" fill="#50E6FF"/>
<path d="M129.52 148.056L124.532 150.944L130.701 154.619L135.82 151.6L129.52 148.056Z" fill="#50E6FF"/>
<path d="M132.539 157.638L127.157 160.788L133.326 164.2L138.577 161.182L132.539 157.638Z" fill="#50E6FF"/>
<path d="M140.413 162.231L135.163 165.382L141.463 169.057L146.845 165.907L140.413 162.231Z" fill="#50E6FF"/>
<path d="M138.97 159.344L143.957 156.325L137.657 152.781L132.669 155.669L138.97 159.344Z" fill="#50E6FF"/>
<path d="M124.926 153.306L119.675 156.325L125.319 159.606L130.57 156.588L124.926 153.306Z" fill="#50E6FF"/>
<path d="M146.845 163.938L151.964 160.919L145.927 157.375L140.808 160.394L146.845 163.938Z" fill="#50E6FF"/>
<path d="M121.119 143.2L116 146.087L122.563 149.894L127.682 146.875L121.119 143.2Z" fill="#50E6FF"/>
<path d="M113.113 138.475L107.994 141.493L114.163 145.037L119.282 142.019L113.113 138.475Z" fill="#50E6FF"/>
<path d="M107.206 156.981L112.194 154.094L106.287 150.681L101.299 153.7L107.206 156.981Z" fill="#50E6FF"/>
<path d="M114.425 161.181L119.413 158.294L114.163 155.144L109.175 158.162L114.425 161.181Z" fill="#50E6FF"/>
<path d="M84.8925 130.074L79.511 133.224L86.0738 137.031L91.4552 133.881L84.8925 130.074Z" fill="#50E6FF"/>
<path d="M99.462 152.519L104.45 149.631L98.6744 146.35L93.818 149.237L99.462 152.519Z" fill="#50E6FF"/>
<path d="M149.864 173.914L155.245 170.763L148.683 166.957L143.301 170.107L149.864 173.914Z" fill="#50E6FF"/>
<path d="M162.727 172.995L167.715 170.107L161.677 166.563L156.69 169.582L162.727 172.995Z" fill="#50E6FF"/>
<path d="M129.388 169.844L134.376 166.957L128.994 163.807L124.007 166.694L129.388 169.844Z" fill="#50E6FF"/>
<path d="M117.444 148.975L112.194 152.125L117.706 155.275L123.088 152.125L117.444 148.975Z" fill="#50E6FF"/>
<path d="M109.437 144.25L104.056 147.4L110.356 150.944L115.606 147.925L109.437 144.25Z" fill="#50E6FF"/>
<path d="M101.562 139.787L96.312 142.937L102.219 146.35L107.469 143.2L101.562 139.787Z" fill="#50E6FF"/>
<path d="M122.038 165.644L127.026 162.625L121.382 159.344L116.394 162.231L122.038 165.644Z" fill="#50E6FF"/>
<path d="M93.293 135.062L88.0428 138.081L94.343 141.756L99.7245 138.737L93.293 135.062Z" fill="#50E6FF"/>
<path d="M161.02 158.557L156.164 161.313L162.07 164.726L166.927 161.969L161.02 158.557Z" fill="#50E6FF"/>
<path d="M91.8491 148.188L96.8368 145.3L91.3241 142.019L86.3364 145.037L91.8491 148.188Z" fill="#50E6FF"/>
<path d="M154.064 154.488L149.208 157.375L154.327 160.263L159.183 157.507L154.064 154.488Z" fill="#50E6FF"/>
<path d="M168.765 163.019L163.909 165.907L170.734 169.713L175.459 166.825L168.765 163.019Z" fill="#50E6FF"/>
<path d="M153.802 161.969L148.683 164.988L154.721 168.532L159.84 165.513L153.802 161.969Z" fill="#50E6FF"/>
<path d="M185.565 170.632L190.159 168.007L181.102 162.757L176.508 165.513L185.565 170.632Z" fill="#50E6FF"/>
<path d="M146.582 150.156L141.726 153.044L147.37 156.325L152.226 153.438L146.582 150.156Z" fill="#50E6FF"/>
<path d="M115.344 132.174L110.487 135.062L116.656 138.606L121.513 135.718L115.344 132.174Z" fill="#50E6FF"/>
<path d="M174.672 164.332L179.266 161.707L173.49 158.425L169.028 161.05L174.672 164.332Z" fill="#50E6FF"/>
<path d="M106.944 127.318L102.087 130.074L108.65 134.012L113.506 131.124L106.944 127.318Z" fill="#50E6FF"/>
<path d="M99.4622 122.986L94.6058 125.874L100.119 129.024L104.975 126.136L99.4622 122.986Z" fill="#50E6FF"/>
<path d="M139.101 145.825L134.245 148.712L139.889 151.994L144.745 149.106L139.101 145.825Z" fill="#50E6FF"/>
<path d="M131.357 141.362L126.501 144.249L132.276 147.662L137.132 144.774L131.357 141.362Z" fill="#50E6FF"/>
<path d="M86.8613 123.38L77.2796 117.867L72.2919 120.886L81.7423 126.399L86.8613 123.38Z" fill="#50E6FF"/>
<path d="M123.351 136.768L118.494 139.656L124.532 143.068L129.388 140.312L123.351 136.768Z" fill="#50E6FF"/>
<path d="M105.106 124.299L109.7 121.674L104.712 118.786L100.118 121.411L105.106 124.299Z" fill="#50E6FF"/>
<path d="M167.059 160L171.653 157.375L165.221 153.569L160.627 156.325L167.059 160Z" fill="#50E6FF"/>
<path d="M112.456 128.499L116.919 125.874L111.537 122.724L107.075 125.349L112.456 128.499Z" fill="#50E6FF"/>
<path d="M120.2 132.962L124.794 130.336L118.888 126.924L114.294 129.549L120.2 132.962Z" fill="#50E6FF"/>
<path d="M95.3934 113.405L90.1432 110.386L85.6805 113.011L90.7994 116.03L95.3934 113.405Z" fill="#50E6FF"/>
<path d="M89.8804 117.474L83.8427 114.061L78.9862 116.817L85.024 120.361L89.8804 117.474Z" fill="#50E6FF"/>
<path d="M98.2808 120.361L102.875 117.736L97.2308 114.455L92.6368 117.08L98.2808 120.361Z" fill="#50E6FF"/>
<path d="M158.658 155.144L163.252 152.519L158.133 149.631L153.67 152.256L158.658 155.144Z" fill="#50E6FF"/>
<path d="M128.338 137.687L132.932 135.062L126.632 131.387L122.169 134.012L128.338 137.687Z" fill="#50E6FF"/>
<path d="M151.702 151.206L156.296 148.45L150.652 145.168L146.058 147.925L151.702 151.206Z" fill="#50E6FF"/>
<path d="M144.22 146.743L148.683 144.118L142.908 140.706L138.314 143.462L144.22 146.743Z" fill="#50E6FF"/>
<path d="M136.476 142.281L140.939 139.656L134.77 136.112L130.176 138.737L136.476 142.281Z" fill="#50E6FF"/>
<path d="M91.8492 118.523L86.8615 121.411L92.7679 124.692L97.6244 121.936L91.8492 118.523Z" fill="#50E6FF"/>
<path d="M117.313 164.857L111.931 168.007L118.1 171.551L123.482 168.401L117.313 164.857Z" fill="#50E6FF"/>
<path d="M108.65 159.869L109.7 160.525L104.45 163.676L110.094 166.957L115.475 163.807L108.65 159.869Z" fill="#50E6FF"/>
<path d="M73.0795 131.518L63.4979 126.005L58.5102 128.893L68.0918 134.406L73.0795 131.518Z" fill="#50E6FF"/>
<path d="M56.804 129.943L51.4225 133.093L57.1977 136.506L62.7104 133.356L56.804 129.943Z" fill="#50E6FF"/>
<path d="M64.5481 134.406L59.1666 137.556L64.6794 140.837L70.0608 137.556L64.5481 134.406Z" fill="#50E6FF"/>
<path d="M86.8611 147.269L81.4797 150.419L86.8611 153.569L92.2426 150.419L86.8611 147.269Z" fill="#50E6FF"/>
<path d="M79.2489 142.937L73.8674 146.087L79.5114 149.369L85.0241 146.218L79.2489 142.937Z" fill="#50E6FF"/>
<path d="M72.0295 138.737L66.5167 141.887L71.8982 145.037L77.4109 141.756L72.0295 138.737Z" fill="#50E6FF"/>
<path d="M177.427 168.007L172.571 170.763L179.002 174.57L183.859 171.682L177.427 168.007Z" fill="#50E6FF"/>
<path d="M94.2118 151.469L88.699 154.619L94.9993 158.294L100.381 155.144L94.2118 151.469Z" fill="#50E6FF"/>
<path d="M102.35 156.194L96.8372 159.344L102.481 162.625L107.994 159.475L102.35 156.194Z" fill="#50E6FF"/>
<path d="M164.565 174.176L172.178 178.508L177.297 175.489L169.684 171.157L164.565 174.176Z" fill="#50E6FF"/>
<path d="M146.583 179.688L158.396 186.645L163.383 183.626L151.439 176.801L146.583 179.688Z" fill="#50E6FF"/>
<path d="M140.414 178.245L135.033 181.395L140.283 184.414L145.664 181.264L140.414 178.245Z" fill="#50E6FF"/>
<path d="M142.12 185.464L151.308 190.714L156.69 187.564L147.502 182.314L142.12 185.464Z" fill="#50E6FF"/>
<path d="M84.4987 143.856L89.4864 140.969L83.0548 137.293L78.0671 140.181L84.4987 143.856Z" fill="#50E6FF"/>
<path d="M125.451 169.451L119.938 172.732L125.582 175.882L130.963 172.732L125.451 169.451Z" fill="#50E6FF"/>
<path d="M132.932 173.782L127.419 177.064L133.194 180.345L138.576 177.064L132.932 173.782Z" fill="#50E6FF"/>
<path d="M76.2301 139.131L81.2178 136.243L74.9175 132.568L69.9298 135.455L76.2301 139.131Z" fill="#50E6FF"/>
<path d="M151.833 174.964L165.09 182.708L170.471 179.558L157.083 171.813L151.833 174.964Z" fill="#50E6FF"/>
<path d="M262.48 142.544L262.349 180.608L219.429 155.8V117.736L262.48 142.544Z" fill="#0078D4"/>
<path d="M262.481 142.675L268.781 139.131L268.65 177.195L262.35 180.608L262.481 142.675Z" fill="#156AB3"/>
<path d="M219.561 117.736L225.861 114.324L268.782 139.131L262.481 142.544L219.561 117.736Z" fill="#0078D4"/>
<path d="M262.48 137.949L262.349 143.068L219.429 118.261V113.142L262.48 137.949Z" fill="#45CAF2"/>
<path d="M262.481 137.95L268.65 134.537V139.656L262.35 143.069L262.481 137.95Z" fill="#32B0E7"/>
<path d="M219.429 113.142L225.729 109.729L268.649 134.537L262.48 137.949L219.429 113.142Z" fill="#50E6FF"/>
<path d="M231.767 133.75L233.21 136.506L226.254 140.444L233.736 153.175L231.504 154.357L222.579 139L231.767 133.75Z" fill="#45CAF2"/>
<path d="M242.923 147.4V154.225L237.017 150.812V143.856L242.923 147.4Z" fill="#E6E6E6"/>
<path d="M249.223 143.594L258.148 159.082L249.092 164.201L247.648 161.576L254.605 157.638L247.123 144.775L249.223 143.594Z" fill="#45CAF2"/>
<path d="M222.054 116.03C222.71 116.424 223.104 117.211 223.104 117.867C223.104 118.524 222.579 118.786 222.054 118.524C221.397 118.13 221.004 117.342 221.004 116.686C220.872 116.03 221.397 115.767 222.054 116.03Z" fill="#0078D4"/>
<path d="M225.335 117.736C225.991 118.13 226.385 118.918 226.385 119.574C226.385 120.23 225.86 120.493 225.335 120.23C224.678 119.836 224.284 119.049 224.284 118.392C224.284 117.736 224.81 117.342 225.335 117.736Z" fill="#0078D4"/>
<path d="M228.616 119.968C229.273 120.362 229.666 121.149 229.666 121.805C229.666 122.462 229.141 122.724 228.616 122.462C227.96 122.068 227.566 121.28 227.566 120.624C227.566 119.968 227.96 119.705 228.616 119.968Z" fill="#0078D4"/>
<path opacity="0.2" d="M218.903 177.982L222.053 176.276C223.366 175.62 224.941 175.62 226.122 176.276L261.561 196.227C263.136 197.146 263.136 199.377 261.561 200.164L260.117 201.083C258.805 201.871 257.098 201.871 255.786 201.083L218.772 179.82C218.115 179.426 218.115 178.376 218.903 177.982Z" fill="url(#paint2_linear)"/>
<path opacity="0.2" d="M123 107.525L150.579 91.5161L177.841 107.525L150.579 123.375L123 107.525Z" fill="#1F1D21"/>
<path d="M150.579 84.8588V53L178 69.0086L177.842 100.867L150.579 84.8588Z" fill="#243A5E"/>
<path d="M150.579 84.8588L123 100.867L123.159 69.0086L150.579 53V84.8588Z" fill="#1D4A79"/>
<path d="M177.841 100.868L150.579 116.876L123 100.868L150.579 84.8589L177.841 100.868Z" fill="#156AB3"/>
<path d="M150.579 85.017V110.377L128.548 97.6971V72.3369L150.579 85.017Z" fill="#EBEBEB"/>
<path d="M150.579 85.0173L172.452 72.1787L172.294 97.5389L150.579 110.378V85.0173Z" fill="#EBEBEB"/>
<path d="M128.548 72.3371L150.421 59.4985L172.294 72.3371L150.421 85.1757L128.548 72.3371Z" fill="#CDCDD0"/>
<path opacity="0.4" d="M166.112 96.2708L150.579 87.5532L135.68 96.2708L150.421 104.83L166.112 96.2708Z" fill="#1F1D21"/>
<path d="M165.003 76.6166L150.579 85.1756L135.997 76.9336L150.579 68.3745L165.003 76.6166Z" fill="#1BA5EA"/>
<path d="M165.003 76.6167L165.161 93.7348L150.579 102.294V85.1758L165.003 76.6167Z" fill="#0078D4"/>
<path d="M150.579 85.1761V102.294L136.156 94.0522L135.997 76.9341L150.579 85.1761Z" fill="#32B0E7"/>
<defs>
<linearGradient id="paint0_linear" x1="77.3642" y1="113.034" x2="63.6467" y2="128.576" gradientUnits="userSpaceOnUse">
<stop/>
<stop offset="0.8221" stop-opacity="0"/>
</linearGradient>
<linearGradient id="paint1_linear" x1="152.64" y1="128.054" x2="-109.499" y2="222.185" gradientUnits="userSpaceOnUse">
<stop/>
<stop offset="0.8221" stop-opacity="0"/>
</linearGradient>
<linearGradient id="paint2_linear" x1="241.001" y1="188.888" x2="290.501" y2="255.888" gradientUnits="userSpaceOnUse">
<stop/>
<stop offset="0.8221" stop-opacity="0"/>
</linearGradient>
</defs>
</svg>
