<svg width="834" height="346" viewBox="0 0 834 346" fill="none" xmlns="http://www.w3.org/2000/svg">
<path d="M823.846 44.1216H526.801V336.549H823.846V44.1216Z" fill="#F3F3F3"/>
<path d="M186.21 255.751H105.89" stroke="#959494" stroke-width="1.43786" stroke-miterlimit="10"/>
<path d="M184.709 250.629L193.583 255.751L184.709 260.878V250.629Z" fill="#959494"/>
<path d="M357.617 255.751H277.296" stroke="#959494" stroke-width="1.43786" stroke-miterlimit="10"/>
<path d="M356.119 250.629L364.993 255.751L356.119 260.878V250.629Z" fill="#959494"/>
<path d="M534.055 255.751H453.734" stroke="#959494" stroke-width="1.43786" stroke-miterlimit="10"/>
<path d="M532.558 250.629L541.431 255.751L532.558 260.878V250.629Z" fill="#959494"/>
<path d="M716.321 255.751H636" stroke="#959494" stroke-width="1.43786" stroke-miterlimit="10"/>
<path d="M714.82 250.629L723.693 255.751L714.82 260.878V250.629Z" fill="#959494"/>
<path d="M196.475 298.599H195.23L194.213 295.908H190.147L189.189 298.599H187.94L191.62 289.004H192.783L196.475 298.599ZM193.847 294.903L192.342 290.817C192.294 290.683 192.243 290.47 192.196 290.175H192.168C192.125 290.447 192.074 290.659 192.015 290.817L190.521 294.903H193.847Z" fill="#535353"/>
<path d="M202.516 292.066L198.461 297.665H202.476V298.603H196.849V298.26L200.904 292.689H197.232V291.751H202.516V292.066Z" fill="#535353"/>
<path d="M209.474 298.599H208.379V297.516H208.351C207.898 298.347 207.193 298.761 206.235 298.761C204.604 298.761 203.788 297.788 203.788 295.845V291.751H204.88V295.672C204.88 297.118 205.432 297.839 206.539 297.839C207.075 297.839 207.516 297.642 207.859 297.248C208.206 296.854 208.379 296.338 208.379 295.699V291.751H209.474V298.599Z" fill="#535353"/>
<path d="M215.259 292.862C215.066 292.716 214.79 292.642 214.427 292.642C213.958 292.642 213.568 292.862 213.253 293.304C212.938 293.745 212.78 294.348 212.78 295.108V298.599H211.685V291.747H212.78V293.158H212.808C212.966 292.677 213.202 292.299 213.525 292.031C213.844 291.763 214.207 291.625 214.601 291.625C214.884 291.625 215.105 291.657 215.255 291.72V292.862H215.259Z" fill="#535353"/>
<path d="M221.957 295.451H217.119C217.134 296.215 217.343 296.802 217.733 297.216C218.127 297.63 218.667 297.839 219.353 297.839C220.125 297.839 220.834 297.583 221.481 297.074V298.103C220.878 298.54 220.082 298.757 219.093 298.757C218.123 298.757 217.363 298.446 216.811 297.823C216.26 297.2 215.98 296.326 215.98 295.199C215.98 294.131 216.283 293.264 216.886 292.594C217.489 291.924 218.242 291.589 219.136 291.589C220.035 291.589 220.724 291.877 221.217 292.46C221.709 293.039 221.954 293.843 221.954 294.876V295.451H221.957ZM220.834 294.521C220.831 293.887 220.677 293.394 220.377 293.043C220.078 292.689 219.656 292.515 219.124 292.515C218.608 292.515 218.167 292.701 217.808 293.071C217.446 293.441 217.225 293.926 217.138 294.521H220.834Z" fill="#535353"/>
<path d="M234.047 298.201C233.337 298.576 232.455 298.765 231.399 298.765C230.035 298.765 228.94 298.323 228.12 297.449C227.301 296.57 226.891 295.416 226.891 293.989C226.891 292.452 227.352 291.215 228.274 290.269C229.196 289.324 230.366 288.851 231.785 288.851C232.695 288.851 233.448 288.981 234.047 289.245V290.443C233.361 290.057 232.6 289.867 231.773 289.867C230.67 289.867 229.779 290.234 229.093 290.971C228.408 291.708 228.065 292.689 228.065 293.922C228.065 295.088 228.384 296.022 229.026 296.716C229.665 297.409 230.504 297.756 231.544 297.756C232.506 297.756 233.341 297.543 234.047 297.114V298.201Z" fill="#535353"/>
<path d="M238.716 298.761C237.703 298.761 236.895 298.442 236.289 297.799C235.686 297.161 235.382 296.31 235.382 295.254C235.382 294.103 235.698 293.205 236.324 292.559C236.951 291.912 237.802 291.589 238.873 291.589C239.894 291.589 240.69 291.905 241.265 292.531C241.841 293.162 242.124 294.032 242.124 295.148C242.124 296.239 241.813 297.114 241.198 297.772C240.584 298.434 239.756 298.761 238.716 298.761ZM238.799 292.511C238.093 292.511 237.534 292.752 237.128 293.229C236.718 293.709 236.513 294.371 236.513 295.215C236.513 296.026 236.718 296.665 237.136 297.133C237.55 297.602 238.105 297.835 238.803 297.835C239.512 297.835 240.056 297.606 240.438 297.145C240.82 296.684 241.009 296.03 241.009 295.187C241.009 294.332 240.816 293.67 240.438 293.205C240.052 292.744 239.508 292.511 238.799 292.511Z" fill="#535353"/>
<path d="M249.568 298.599H248.472V294.691C248.472 293.237 247.94 292.512 246.88 292.512C246.333 292.512 245.88 292.716 245.521 293.13C245.162 293.544 244.981 294.064 244.981 294.695V298.603H243.886V291.751H244.981V292.89H245.009C245.525 292.023 246.274 291.594 247.255 291.594C248.003 291.594 248.579 291.834 248.973 292.319C249.371 292.803 249.568 293.501 249.568 294.415V298.599Z" fill="#535353"/>
<path d="M254.812 298.532C254.552 298.674 254.213 298.745 253.788 298.745C252.59 298.745 251.987 298.075 251.987 296.739V292.689H250.809V291.751H251.987V290.08L253.083 289.726V291.751H254.808V292.689H253.083V296.55C253.083 297.007 253.161 297.338 253.315 297.535C253.473 297.732 253.729 297.831 254.091 297.831C254.367 297.831 254.607 297.756 254.808 297.602V298.532H254.812Z" fill="#535353"/>
<path d="M261.18 298.599H260.085V297.527H260.057C259.58 298.347 258.879 298.757 257.949 298.757C257.267 298.757 256.731 298.575 256.349 298.213C255.963 297.85 255.77 297.374 255.77 296.775C255.77 295.494 256.522 294.749 258.032 294.54L260.085 294.253C260.085 293.09 259.616 292.507 258.674 292.507C257.85 292.507 257.102 292.787 256.44 293.351V292.227C257.114 291.798 257.89 291.585 258.768 291.585C260.38 291.585 261.184 292.436 261.184 294.143V298.599H261.18ZM260.085 295.135L258.434 295.364C257.925 295.435 257.543 295.561 257.283 295.742C257.023 295.924 256.897 296.243 256.897 296.704C256.897 297.039 257.015 297.311 257.255 297.523C257.496 297.736 257.811 297.843 258.209 297.843C258.753 297.843 259.202 297.649 259.557 297.271C259.911 296.889 260.088 296.408 260.088 295.825V295.135H260.085Z" fill="#535353"/>
<path d="M263.808 290.009C263.611 290.009 263.446 289.942 263.308 289.808C263.17 289.674 263.099 289.505 263.099 289.3C263.099 289.095 263.166 288.925 263.308 288.787C263.446 288.653 263.615 288.583 263.808 288.583C264.009 288.583 264.179 288.65 264.32 288.787C264.458 288.925 264.529 289.095 264.529 289.3C264.529 289.497 264.458 289.662 264.32 289.8C264.183 289.942 264.009 290.009 263.808 290.009ZM264.344 298.599H263.249V291.747H264.344V298.599Z" fill="#535353"/>
<path d="M272.252 298.599H271.157V294.691C271.157 293.237 270.625 292.512 269.565 292.512C269.017 292.512 268.564 292.716 268.206 293.13C267.847 293.544 267.666 294.064 267.666 294.695V298.603H266.57V291.751H267.666V292.89H267.693C268.21 292.023 268.958 291.594 269.939 291.594C270.688 291.594 271.263 291.834 271.657 292.319C272.055 292.803 272.252 293.501 272.252 294.415V298.599Z" fill="#535353"/>
<path d="M279.826 295.451H274.987C275.007 296.215 275.212 296.802 275.602 297.216C275.996 297.63 276.532 297.839 277.221 297.839C277.994 297.839 278.703 297.583 279.349 297.074V298.103C278.746 298.54 277.95 298.757 276.961 298.757C275.992 298.757 275.231 298.446 274.68 297.823C274.128 297.2 273.848 296.326 273.848 295.199C273.848 294.131 274.152 293.264 274.755 292.594C275.361 291.924 276.11 291.589 277.005 291.589C277.899 291.589 278.596 291.877 279.085 292.46C279.574 293.039 279.822 293.843 279.822 294.876V295.451H279.826ZM278.703 294.521C278.699 293.887 278.545 293.394 278.246 293.043C277.942 292.689 277.525 292.515 276.993 292.515C276.477 292.515 276.035 292.701 275.677 293.071C275.314 293.441 275.093 293.926 275.007 294.521H278.703Z" fill="#535353"/>
<path d="M285.059 292.862C284.866 292.716 284.59 292.642 284.227 292.642C283.758 292.642 283.368 292.862 283.053 293.304C282.738 293.745 282.58 294.348 282.58 295.108V298.599H281.485V291.747H282.58V293.158H282.608C282.765 292.677 283.002 292.299 283.325 292.031C283.644 291.763 284.007 291.625 284.401 291.625C284.688 291.625 284.905 291.657 285.055 291.72V292.862H285.059Z" fill="#535353"/>
<path d="M220.503 315.042H219.164L217.56 312.351C217.414 312.103 217.268 311.89 217.13 311.713C216.993 311.535 216.851 311.394 216.705 311.279C216.559 311.169 216.405 311.086 216.236 311.035C216.071 310.984 215.881 310.96 215.673 310.96H214.751V315.042H213.628V305.448H216.492C216.91 305.448 217.3 305.499 217.655 305.605C218.009 305.712 218.317 305.869 218.577 306.086C218.837 306.299 219.042 306.567 219.187 306.886C219.333 307.205 219.408 307.579 219.408 308.005C219.408 308.34 219.357 308.647 219.258 308.923C219.16 309.203 219.014 309.451 218.829 309.668C218.644 309.888 218.419 310.074 218.159 310.227C217.899 310.381 217.603 310.499 217.28 310.586V310.613C217.442 310.684 217.58 310.767 217.698 310.858C217.816 310.948 217.93 311.055 218.037 311.181C218.143 311.307 218.25 311.449 218.356 311.606C218.462 311.764 218.577 311.949 218.707 312.158L220.503 315.042ZM214.751 306.464V309.943H216.275C216.555 309.943 216.815 309.9 217.056 309.817C217.296 309.735 217.501 309.613 217.674 309.455C217.848 309.297 217.986 309.104 218.084 308.872C218.183 308.643 218.23 308.387 218.23 308.099C218.23 307.587 218.064 307.185 217.733 306.898C217.402 306.61 216.922 306.464 216.291 306.464H214.751Z" fill="#535353"/>
<path d="M226.777 311.89H221.938C221.953 312.655 222.162 313.242 222.552 313.656C222.946 314.069 223.486 314.278 224.172 314.278C224.944 314.278 225.654 314.022 226.3 313.514V314.542C225.697 314.98 224.901 315.196 223.912 315.196C222.943 315.196 222.182 314.885 221.63 314.263C221.079 313.64 220.799 312.765 220.799 311.634C220.799 310.57 221.102 309.7 221.705 309.03C222.308 308.356 223.061 308.021 223.955 308.021C224.85 308.021 225.543 308.309 226.036 308.892C226.528 309.475 226.773 310.275 226.773 311.307V311.89H226.777ZM225.653 310.961C225.65 310.326 225.496 309.834 225.196 309.483C224.897 309.132 224.475 308.955 223.943 308.955C223.427 308.955 222.986 309.14 222.627 309.51C222.265 309.881 222.044 310.366 221.957 310.961H225.653Z" fill="#535353"/>
<path d="M234.283 314.495C234.283 317.009 233.077 318.27 230.67 318.27C229.823 318.27 229.082 318.108 228.447 317.789V316.694C229.22 317.123 229.956 317.336 230.654 317.336C232.34 317.336 233.184 316.438 233.184 314.645V313.896H233.156C232.636 314.771 231.848 315.208 230.8 315.208C229.949 315.208 229.263 314.905 228.743 314.294C228.223 313.687 227.963 312.868 227.963 311.843C227.963 310.681 228.242 309.755 228.802 309.065C229.361 308.38 230.126 308.037 231.099 308.037C232.021 308.037 232.707 308.407 233.152 309.148H233.18V308.198H234.275V314.495H234.283ZM233.188 311.946V310.937C233.188 310.393 233.002 309.928 232.636 309.538C232.269 309.152 231.808 308.955 231.261 308.955C230.583 308.955 230.051 309.203 229.669 309.696C229.287 310.188 229.094 310.878 229.094 311.764C229.094 312.529 229.279 313.136 229.645 313.593C230.012 314.05 230.5 314.278 231.107 314.278C231.722 314.278 232.222 314.058 232.608 313.624C232.994 313.187 233.188 312.627 233.188 311.946Z" fill="#535353"/>
<path d="M237.069 306.452C236.872 306.452 236.706 306.385 236.568 306.251C236.43 306.117 236.36 305.948 236.36 305.743C236.36 305.538 236.43 305.369 236.568 305.231C236.706 305.097 236.872 305.026 237.069 305.026C237.27 305.026 237.439 305.093 237.581 305.231C237.719 305.369 237.79 305.538 237.79 305.743C237.79 305.94 237.719 306.106 237.581 306.243C237.439 306.385 237.266 306.452 237.069 306.452ZM237.601 315.042H236.505V308.19H237.601V315.042Z" fill="#535353"/>
<path d="M239.409 314.794V313.616C240.008 314.057 240.666 314.278 241.384 314.278C242.345 314.278 242.83 313.959 242.83 313.317C242.83 313.135 242.79 312.978 242.707 312.852C242.625 312.722 242.514 312.611 242.373 312.513C242.231 312.414 242.065 312.327 241.876 312.249C241.687 312.17 241.482 312.087 241.265 312.004C240.962 311.882 240.694 311.764 240.465 311.638C240.237 311.516 240.044 311.378 239.89 311.224C239.736 311.071 239.622 310.897 239.543 310.7C239.465 310.503 239.425 310.275 239.425 310.011C239.425 309.691 239.5 309.404 239.646 309.159C239.792 308.911 239.989 308.706 240.233 308.537C240.477 308.371 240.757 308.245 241.072 308.159C241.387 308.072 241.711 308.032 242.046 308.032C242.641 308.032 243.169 308.135 243.637 308.34V309.451C243.133 309.12 242.554 308.955 241.9 308.955C241.695 308.955 241.51 308.978 241.344 309.025C241.179 309.073 241.037 309.136 240.919 309.222C240.8 309.309 240.71 309.408 240.647 309.526C240.584 309.644 240.548 309.774 240.548 309.916C240.548 310.093 240.58 310.243 240.647 310.365C240.71 310.487 240.804 310.594 240.93 310.684C241.056 310.779 241.206 310.862 241.384 310.94C241.561 311.019 241.766 311.098 241.994 311.189C242.298 311.303 242.57 311.425 242.81 311.547C243.05 311.669 243.255 311.807 243.425 311.961C243.594 312.115 243.724 312.292 243.815 312.493C243.905 312.694 243.953 312.934 243.953 313.21C243.953 313.549 243.878 313.845 243.728 314.093C243.578 314.341 243.377 314.55 243.129 314.715C242.881 314.881 242.593 315.003 242.266 315.082C241.939 315.161 241.6 315.204 241.242 315.204C240.536 315.204 239.926 315.066 239.409 314.794Z" fill="#535353"/>
<path d="M248.815 314.976C248.555 315.118 248.216 315.189 247.791 315.189C246.593 315.189 245.99 314.519 245.99 313.183V309.128H244.812V308.19H245.99V306.52L247.085 306.165V308.19H248.811V309.128H247.085V312.99C247.085 313.451 247.164 313.778 247.318 313.975C247.475 314.172 247.731 314.27 248.094 314.27C248.37 314.27 248.61 314.196 248.811 314.042V314.976H248.815Z" fill="#535353"/>
<path d="M253.851 309.301C253.658 309.155 253.382 309.081 253.019 309.081C252.551 309.081 252.16 309.301 251.845 309.743C251.53 310.184 251.372 310.787 251.372 311.547V315.038H250.277V308.186H251.372V309.597H251.4C251.558 309.116 251.794 308.738 252.117 308.47C252.436 308.198 252.799 308.064 253.193 308.064C253.48 308.064 253.697 308.095 253.847 308.159V309.301H253.851Z" fill="#535353"/>
<path d="M260.494 308.19L257.342 316.138C256.779 317.557 255.991 318.266 254.974 318.266C254.686 318.266 254.45 318.238 254.257 318.179V317.194C254.493 317.273 254.71 317.316 254.907 317.316C255.459 317.316 255.876 316.985 256.152 316.327L256.7 315.031L254.024 308.194H255.242L257.094 313.467C257.117 313.534 257.161 313.707 257.236 313.987H257.275C257.299 313.88 257.342 313.711 257.409 313.478L259.356 308.194H260.494V308.19Z" fill="#535353"/>
<path d="M381.834 294.974V298.599H380.711V289.004H383.347C384.372 289.004 385.168 289.253 385.731 289.753C386.295 290.254 386.579 290.959 386.579 291.869C386.579 292.779 386.263 293.524 385.637 294.103C385.01 294.682 384.163 294.974 383.099 294.974H381.834ZM381.834 290.025V293.957H383.012C383.789 293.957 384.38 293.78 384.79 293.425C385.199 293.071 385.4 292.57 385.4 291.924C385.4 290.655 384.652 290.025 383.154 290.025H381.834Z" fill="#535353"/>
<path d="M388.801 290.009C388.604 290.009 388.438 289.942 388.3 289.808C388.163 289.674 388.092 289.505 388.092 289.3C388.092 289.095 388.159 288.925 388.3 288.787C388.438 288.653 388.604 288.583 388.801 288.583C389.002 288.583 389.171 288.65 389.313 288.787C389.455 288.925 389.526 289.095 389.526 289.3C389.526 289.497 389.455 289.662 389.313 289.8C389.171 289.942 389.002 290.009 388.801 290.009ZM389.337 298.599H388.241V291.747H389.337V298.599Z" fill="#535353"/>
<path d="M392.682 297.61H392.655V301.752H391.559V291.751H392.655V292.957H392.682C393.222 292.046 394.01 291.593 395.05 291.593C395.933 291.593 396.623 291.901 397.119 292.511C397.615 293.126 397.86 293.946 397.86 294.978C397.86 296.125 397.58 297.043 397.024 297.732C396.465 298.422 395.704 298.765 394.735 298.765C393.849 298.761 393.163 298.379 392.682 297.61ZM392.655 294.848V295.806C392.655 296.373 392.84 296.854 393.206 297.248C393.573 297.642 394.042 297.839 394.609 297.839C395.275 297.839 395.795 297.583 396.169 297.074C396.548 296.566 396.737 295.857 396.737 294.954C396.737 294.19 396.559 293.595 396.209 293.162C395.854 292.728 395.377 292.511 394.778 292.511C394.14 292.511 393.628 292.732 393.238 293.177C392.848 293.623 392.655 294.178 392.655 294.848Z" fill="#535353"/>
<path d="M405.118 295.451H400.279C400.295 296.215 400.504 296.802 400.894 297.216C401.284 297.63 401.824 297.839 402.513 297.839C403.286 297.839 403.995 297.583 404.641 297.074V298.103C404.038 298.54 403.242 298.757 402.253 298.757C401.284 298.757 400.524 298.446 399.972 297.823C399.42 297.2 399.14 296.326 399.14 295.199C399.14 294.131 399.444 293.264 400.047 292.594C400.654 291.924 401.402 291.589 402.297 291.589C403.191 291.589 403.885 291.877 404.377 292.46C404.866 293.039 405.114 293.843 405.114 294.876V295.451H405.118ZM403.995 294.521C403.991 293.887 403.837 293.394 403.538 293.043C403.238 292.689 402.821 292.515 402.285 292.515C401.769 292.515 401.327 292.701 400.969 293.071C400.606 293.441 400.386 293.926 400.299 294.521H403.995Z" fill="#535353"/>
<path d="M407.872 298.599H406.777V288.457H407.872V298.599Z" fill="#535353"/>
<path d="M410.654 290.009C410.457 290.009 410.292 289.942 410.154 289.808C410.016 289.674 409.945 289.505 409.945 289.3C409.945 289.095 410.012 288.925 410.154 288.787C410.292 288.653 410.461 288.583 410.654 288.583C410.855 288.583 411.025 288.65 411.166 288.787C411.304 288.925 411.375 289.095 411.375 289.3C411.375 289.497 411.304 289.662 411.166 289.8C411.029 289.942 410.855 290.009 410.654 290.009ZM411.19 298.599H410.095V291.747H411.19V298.599Z" fill="#535353"/>
<path d="M419.098 298.599H418.003V294.69C418.003 293.236 417.471 292.511 416.411 292.511C415.863 292.511 415.41 292.716 415.052 293.13C414.693 293.544 414.512 294.064 414.512 294.694V298.603H413.417V291.751H414.512V292.89H414.54C415.056 292.023 415.804 291.593 416.785 291.593C417.534 291.593 418.109 291.834 418.503 292.318C418.901 292.803 419.098 293.5 419.098 294.415V298.599Z" fill="#535353"/>
<path d="M426.672 295.451H421.833C421.853 296.215 422.058 296.802 422.448 297.216C422.842 297.63 423.378 297.839 424.067 297.839C424.84 297.839 425.549 297.583 426.195 297.074V298.103C425.592 298.54 424.796 298.757 423.807 298.757C422.838 298.757 422.077 298.446 421.526 297.823C420.974 297.2 420.694 296.326 420.694 295.199C420.694 294.131 420.998 293.264 421.601 292.594C422.207 291.924 422.956 291.589 423.851 291.589C424.749 291.589 425.442 291.877 425.931 292.46C426.42 293.039 426.668 293.843 426.668 294.876V295.451H426.672ZM425.549 294.521C425.545 293.887 425.391 293.394 425.092 293.043C424.788 292.689 424.371 292.515 423.839 292.515C423.323 292.515 422.881 292.701 422.523 293.071C422.16 293.441 421.939 293.926 421.853 294.521H425.549Z" fill="#535353"/>
<path d="M427.917 298.355V297.177C428.516 297.618 429.174 297.839 429.891 297.839C430.853 297.839 431.337 297.516 431.337 296.877C431.337 296.692 431.298 296.538 431.215 296.412C431.132 296.286 431.022 296.172 430.88 296.074C430.738 295.975 430.573 295.888 430.384 295.81C430.195 295.731 429.99 295.648 429.773 295.565C429.469 295.443 429.202 295.325 428.973 295.199C428.744 295.077 428.551 294.939 428.398 294.785C428.244 294.631 428.13 294.458 428.051 294.261C427.972 294.064 427.933 293.835 427.933 293.571C427.933 293.248 428.008 292.965 428.153 292.716C428.299 292.468 428.496 292.263 428.741 292.094C428.985 291.928 429.265 291.802 429.58 291.715C429.895 291.629 430.218 291.589 430.553 291.589C431.148 291.589 431.676 291.692 432.145 291.897V293.008C431.641 292.677 431.061 292.511 430.407 292.511C430.202 292.511 430.017 292.535 429.852 292.582C429.686 292.63 429.544 292.697 429.426 292.779C429.308 292.862 429.217 292.965 429.154 293.083C429.091 293.201 429.056 293.331 429.056 293.473C429.056 293.65 429.087 293.8 429.154 293.922C429.217 294.044 429.312 294.151 429.438 294.241C429.564 294.336 429.714 294.419 429.891 294.497C430.068 294.572 430.273 294.655 430.502 294.746C430.805 294.86 431.077 294.982 431.318 295.104C431.558 295.226 431.763 295.364 431.932 295.518C432.102 295.672 432.232 295.849 432.322 296.05C432.413 296.251 432.46 296.487 432.46 296.767C432.46 297.106 432.385 297.401 432.236 297.65C432.086 297.898 431.885 298.107 431.637 298.272C431.388 298.438 431.101 298.56 430.774 298.639C430.447 298.718 430.108 298.761 429.749 298.761C429.044 298.761 428.433 298.627 427.917 298.355Z" fill="#535353"/>
<path d="M5.08309 297.622H0V288.027H4.87031V289.044H1.12301V292.235H4.5866V293.244H1.12301V296.601H5.08309V297.622Z" fill="#535353"/>
<path d="M11.7896 290.769L9.48842 294.233L11.7502 297.618H10.4735L9.12985 295.395C9.0471 295.257 8.94465 295.084 8.83038 294.875H8.8028C8.77916 294.915 8.67671 295.088 8.48757 295.395L7.11632 297.618H5.85146L8.1881 294.26L5.95391 290.769H7.23059L8.55455 293.11C8.65306 293.283 8.74763 293.461 8.8422 293.646H8.86978L10.5838 290.769H11.7896Z" fill="#535353"/>
<path d="M13.6337 289.032C13.4367 289.032 13.2712 288.965 13.1333 288.831C12.9954 288.697 12.9244 288.527 12.9244 288.322C12.9244 288.117 12.9954 287.948 13.1333 287.81C13.2712 287.676 13.4367 287.605 13.6337 287.605C13.8347 287.605 14.0041 287.672 14.1459 287.81C14.2878 287.948 14.3548 288.117 14.3548 288.322C14.3548 288.519 14.2839 288.685 14.1459 288.823C14.0041 288.961 13.8347 289.032 13.6337 289.032ZM14.1696 297.622H13.0742V290.769H14.1696V297.622Z" fill="#535353"/>
<path d="M15.9743 297.374V296.195C16.5732 296.637 17.2313 296.857 17.9484 296.857C18.9099 296.857 19.3945 296.534 19.3945 295.896C19.3945 295.711 19.3551 295.557 19.2724 295.431C19.1896 295.305 19.0793 295.191 18.9375 295.092C18.7956 294.994 18.634 294.907 18.441 294.828C18.2518 294.749 18.0469 294.666 17.8302 294.584C17.5268 294.462 17.2589 294.343 17.0303 294.217C16.8018 294.095 16.6087 293.957 16.455 293.804C16.3013 293.65 16.1831 293.476 16.1083 293.279C16.0295 293.082 15.9901 292.854 15.9901 292.59C15.9901 292.267 16.0649 291.983 16.2107 291.735C16.3565 291.487 16.5535 291.282 16.7978 291.112C17.0421 290.947 17.3219 290.821 17.6371 290.734C17.9524 290.647 18.2755 290.608 18.6104 290.608C19.2054 290.608 19.7334 290.71 20.2023 290.915V292.026C19.6979 291.695 19.1187 291.53 18.4646 291.53C18.2597 291.53 18.0745 291.554 17.909 291.601C17.7435 291.648 17.6017 291.715 17.4835 291.798C17.3652 291.881 17.2746 291.983 17.2076 292.101C17.1446 292.22 17.1091 292.35 17.1091 292.491C17.1091 292.669 17.1406 292.818 17.2076 292.941C17.2746 293.063 17.3692 293.169 17.4913 293.26C17.6174 293.354 17.7672 293.437 17.9445 293.516C18.1218 293.591 18.3267 293.674 18.5552 293.764C18.8586 293.878 19.1305 294.001 19.3709 294.123C19.6113 294.245 19.8162 294.383 19.9856 294.536C20.155 294.69 20.2851 294.867 20.3757 295.068C20.4663 295.269 20.5136 295.506 20.5136 295.786C20.5136 296.124 20.4387 296.42 20.289 296.668C20.1393 296.916 19.9383 297.125 19.6901 297.291C19.4418 297.456 19.1542 297.578 18.8271 297.657C18.5001 297.736 18.1612 297.779 17.8026 297.779C17.1052 297.783 16.4944 297.645 15.9743 297.374Z" fill="#535353"/>
<path d="M25.3839 297.555C25.1239 297.697 24.785 297.768 24.3594 297.768C23.1576 297.768 22.5587 297.098 22.5587 295.762V291.708H21.3805V290.77H22.5587V289.099L23.6541 288.745V290.77H25.38V291.708H23.6541V295.569C23.6541 296.026 23.7329 296.357 23.8866 296.554C24.0442 296.751 24.3003 296.85 24.6628 296.85C24.9387 296.85 25.179 296.775 25.38 296.621V297.555H25.3839Z" fill="#535353"/>
<path d="M27.4092 289.032C27.2122 289.032 27.0467 288.965 26.9088 288.831C26.7709 288.697 26.7 288.527 26.7 288.322C26.7 288.117 26.7709 287.948 26.9088 287.81C27.0467 287.676 27.2122 287.605 27.4092 287.605C27.6102 287.605 27.7796 287.672 27.9215 287.81C28.0634 287.948 28.1303 288.117 28.1303 288.322C28.1303 288.519 28.0594 288.685 27.9215 288.823C27.7796 288.961 27.6102 289.032 27.4092 289.032ZM27.9451 297.622H26.8497V290.769H27.9451V297.622Z" fill="#535353"/>
<path d="M35.8535 297.622H34.7541V293.713C34.7541 292.259 34.2222 291.534 33.1622 291.534C32.6145 291.534 32.1613 291.739 31.7988 292.153C31.4403 292.567 31.259 293.087 31.259 293.717V297.626H30.1636V290.774H31.259V291.913H31.2866C31.8028 291.046 32.5514 290.616 33.5326 290.616C34.2813 290.616 34.8566 290.857 35.2506 291.341C35.6486 291.826 35.8456 292.523 35.8456 293.438V297.622H35.8535Z" fill="#535353"/>
<path d="M43.7658 297.074C43.7658 299.588 42.56 300.849 40.1524 300.849C39.3053 300.849 38.5645 300.688 37.9301 300.369V299.273C38.7024 299.703 39.4392 299.915 40.1367 299.915C41.8232 299.915 42.6664 299.017 42.6664 297.224V296.476H42.6388C42.1187 297.35 41.3306 297.788 40.2825 297.788C39.4314 297.788 38.7457 297.484 38.2256 296.874C37.7055 296.263 37.4454 295.447 37.4454 294.423C37.4454 293.26 37.7252 292.334 38.2847 291.645C38.8442 290.959 39.6087 290.616 40.5819 290.616C41.504 290.616 42.1896 290.987 42.6349 291.727H42.6625V290.778H43.7579V297.074H43.7658ZM42.6703 294.525V293.516C42.6703 292.973 42.4851 292.508 42.1187 292.117C41.7522 291.731 41.2912 291.534 40.7435 291.534C40.0658 291.534 39.5338 291.783 39.1516 292.271C38.7694 292.764 38.5763 293.453 38.5763 294.344C38.5763 295.108 38.7615 295.715 39.1279 296.172C39.4944 296.629 39.983 296.858 40.5898 296.858C41.2045 296.858 41.705 296.637 42.0911 296.204C42.4773 295.766 42.6703 295.207 42.6703 294.525Z" fill="#535353"/>
<path d="M57.3128 297.622H56.0676L55.051 294.931H50.9845L50.027 297.622H48.7779L52.4582 288.027H53.6206L57.3128 297.622ZM54.6845 293.922L53.1793 289.836C53.132 289.702 53.0808 289.489 53.0335 289.193H53.0059C52.9626 289.465 52.9114 289.678 52.8523 289.836L51.3589 293.922H54.6845Z" fill="#535353"/>
<path d="M59.7046 296.633H59.677V300.774H58.5816V290.774H59.677V291.98H59.7046C60.2444 291.069 61.0325 290.616 62.0727 290.616C62.9554 290.616 63.645 290.924 64.1375 291.534C64.634 292.149 64.8822 292.969 64.8822 294.001C64.8822 295.148 64.6025 296.066 64.0469 296.755C63.4913 297.445 62.7268 297.788 61.7575 297.788C60.8709 297.784 60.1853 297.398 59.7046 296.633ZM59.677 293.871V294.828C59.677 295.396 59.8622 295.877 60.2287 296.271C60.5951 296.665 61.064 296.862 61.6314 296.862C62.2934 296.862 62.8175 296.606 63.1918 296.097C63.5701 295.589 63.7592 294.88 63.7592 293.977C63.7592 293.213 63.5819 292.618 63.2312 292.184C62.8805 291.751 62.3998 291.534 61.8009 291.534C61.1625 291.534 60.6503 291.755 60.2602 292.2C59.8701 292.645 59.677 293.201 59.677 293.871Z" fill="#535353"/>
<path d="M67.7587 296.633H67.7311V300.774H66.6357V290.774H67.7311V291.98H67.7587C68.2986 291.069 69.0866 290.616 70.1269 290.616C71.0095 290.616 71.6991 290.924 72.1956 291.534C72.6921 292.149 72.9364 292.969 72.9364 294.001C72.9364 295.148 72.6566 296.066 72.101 296.755C71.5454 297.445 70.781 297.788 69.8117 297.788C68.9251 297.784 68.2394 297.398 67.7587 296.633ZM67.7311 293.871V294.828C67.7311 295.396 67.9163 295.877 68.2828 296.271C68.6492 296.665 69.1182 296.862 69.6856 296.862C70.3515 296.862 70.8716 296.606 71.246 296.097C71.6242 295.589 71.8134 294.88 71.8134 293.977C71.8134 293.213 71.6361 292.618 71.2854 292.184C70.9347 291.751 70.4539 291.534 69.855 291.534C69.2167 291.534 68.7044 291.755 68.3143 292.2C67.9242 292.645 67.7311 293.201 67.7311 293.871Z" fill="#535353"/>
<path d="M75.7852 297.622H74.6898V287.479H75.7852V297.622Z" fill="#535353"/>
<path d="M78.5711 289.032C78.3741 289.032 78.2086 288.965 78.0707 288.831C77.9328 288.697 77.8618 288.527 77.8618 288.322C77.8618 288.117 77.9288 287.948 78.0707 287.81C78.2086 287.676 78.378 287.605 78.5711 287.605C78.7721 287.605 78.9415 287.672 79.0834 287.81C79.2213 287.948 79.2922 288.117 79.2922 288.322C79.2922 288.519 79.2213 288.685 79.0834 288.823C78.9415 288.961 78.7681 289.032 78.5711 289.032ZM79.1031 297.622H78.0076V290.769H79.1031V297.622Z" fill="#535353"/>
<path d="M85.9948 297.307C85.4668 297.622 84.8442 297.784 84.1231 297.784C83.1459 297.784 82.3578 297.465 81.7589 296.83C81.1599 296.196 80.8605 295.372 80.8605 294.36C80.8605 293.233 81.1836 292.326 81.8298 291.641C82.476 290.955 83.339 290.616 84.4186 290.616C85.0215 290.616 85.5495 290.727 86.0105 290.951V292.074C85.5022 291.716 84.9585 291.538 84.3792 291.538C83.6778 291.538 83.1025 291.79 82.6573 292.291C82.2081 292.791 81.9835 293.453 81.9835 294.269C81.9835 295.073 82.1923 295.703 82.6179 296.168C83.0395 296.633 83.603 296.866 84.3122 296.866C84.9112 296.866 85.4707 296.669 85.9987 296.271V297.307H85.9948Z" fill="#535353"/>
<path d="M92.5594 297.622H91.464V296.55H91.4364C90.9597 297.37 90.2583 297.779 89.3283 297.779C88.6467 297.779 88.1108 297.598 87.7246 297.236C87.3384 296.873 87.1454 296.396 87.1454 295.797C87.1454 294.517 87.898 293.772 89.4071 293.563L91.4601 293.276C91.4601 292.113 90.9912 291.53 90.0494 291.53C89.2259 291.53 88.4772 291.81 87.8152 292.373V291.25C88.489 290.821 89.2653 290.608 90.144 290.608C91.7556 290.608 92.5594 291.459 92.5594 293.165V297.622ZM91.4601 294.158L89.8091 294.387C89.3008 294.458 88.9185 294.584 88.6585 294.765C88.3984 294.946 88.2723 295.265 88.2723 295.726C88.2723 296.061 88.3905 296.333 88.6309 296.546C88.8713 296.759 89.1865 296.865 89.5845 296.865C90.1282 296.865 90.5774 296.672 90.9321 296.294C91.2867 295.912 91.464 295.431 91.464 294.848V294.158H91.4601Z" fill="#535353"/>
<path d="M97.8041 297.555C97.544 297.697 97.2051 297.768 96.7796 297.768C95.5817 297.768 94.9788 297.098 94.9788 295.762V291.708H93.8007V290.77H94.9788V289.099L96.0743 288.745V290.77H97.8001V291.708H96.0743V295.569C96.0743 296.026 96.1531 296.357 96.3067 296.554C96.4644 296.751 96.7205 296.85 97.083 296.85C97.3588 296.85 97.5992 296.775 97.8001 296.621V297.555H97.8041Z" fill="#535353"/>
<path d="M99.8294 289.032C99.6324 289.032 99.4669 288.965 99.329 288.831C99.1911 288.697 99.1202 288.527 99.1202 288.322C99.1202 288.117 99.1872 287.948 99.329 287.81C99.4669 287.676 99.6364 287.605 99.8294 287.605C100.03 287.605 100.2 287.672 100.342 287.81C100.48 287.948 100.551 288.117 100.551 288.322C100.551 288.519 100.48 288.685 100.342 288.823C100.2 288.961 100.03 289.032 99.8294 289.032ZM100.365 297.622H99.2699V290.769H100.365V297.622Z" fill="#535353"/>
<path d="M105.448 297.784C104.436 297.784 103.628 297.464 103.021 296.822C102.418 296.184 102.115 295.333 102.115 294.277C102.115 293.126 102.43 292.228 103.057 291.581C103.687 290.935 104.534 290.612 105.606 290.612C106.627 290.612 107.426 290.927 107.998 291.554C108.573 292.184 108.857 293.055 108.857 294.17C108.857 295.262 108.55 296.136 107.931 296.795C107.316 297.453 106.489 297.784 105.448 297.784ZM105.531 291.534C104.826 291.534 104.27 291.774 103.86 292.251C103.451 292.732 103.246 293.394 103.246 294.237C103.246 295.049 103.455 295.687 103.868 296.156C104.282 296.625 104.838 296.858 105.535 296.858C106.244 296.858 106.788 296.629 107.17 296.168C107.553 295.707 107.742 295.053 107.742 294.21C107.742 293.355 107.549 292.693 107.17 292.228C106.784 291.767 106.24 291.534 105.531 291.534Z" fill="#535353"/>
<path d="M116.3 297.622H115.205V293.713C115.205 292.259 114.673 291.534 113.613 291.534C113.065 291.534 112.612 291.739 112.253 292.153C111.895 292.567 111.714 293.087 111.714 293.717V297.626H110.618V290.774H111.714V291.913H111.741C112.257 291.046 113.006 290.616 113.987 290.616C114.736 290.616 115.311 290.857 115.705 291.341C116.103 291.826 116.3 292.523 116.3 293.438V297.622Z" fill="#535353"/>
<path d="M746.146 298.599V289.004H748.794C752.175 289.004 753.865 290.565 753.865 293.682C753.865 295.163 753.396 296.353 752.454 297.252C751.516 298.15 750.26 298.599 748.683 298.599H746.146ZM747.269 290.025V297.587H748.699C749.956 297.587 750.937 297.248 751.635 296.578C752.336 295.904 752.687 294.95 752.687 293.713C752.687 291.254 751.379 290.025 748.766 290.025H747.269Z" fill="#545453"/>
<path d="M760.512 298.599H759.417V297.527H759.389C758.913 298.347 758.207 298.757 757.281 298.757C756.6 298.757 756.064 298.575 755.678 298.213C755.291 297.85 755.098 297.374 755.098 296.775C755.098 295.494 755.851 294.749 757.36 294.54L759.413 294.253C759.413 293.09 758.94 292.507 758.002 292.507C757.175 292.507 756.434 292.787 755.768 293.351V292.227C756.442 291.798 757.218 291.585 758.097 291.585C759.705 291.585 760.512 292.436 760.512 294.143V298.599ZM759.413 295.135L757.762 295.364C757.254 295.435 756.868 295.561 756.611 295.742C756.355 295.924 756.225 296.243 756.225 296.704C756.225 297.039 756.343 297.311 756.584 297.523C756.824 297.736 757.139 297.843 757.537 297.843C758.081 297.843 758.53 297.649 758.885 297.271C759.24 296.889 759.417 296.408 759.417 295.825V295.135H759.413Z" fill="#545453"/>
<path d="M765.757 298.532C765.497 298.674 765.158 298.745 764.732 298.745C763.531 298.745 762.932 298.075 762.932 296.739V292.689H761.754V291.751H762.932V290.08L764.027 289.726V291.751H765.753V292.689H764.027V296.55C764.027 297.007 764.106 297.338 764.26 297.535C764.417 297.732 764.673 297.831 765.036 297.831C765.312 297.831 765.552 297.756 765.753 297.602V298.532H765.757Z" fill="#545453"/>
<path d="M772.125 298.599H771.029V297.527H771.002C770.525 298.347 769.819 298.757 768.894 298.757C768.212 298.757 767.676 298.575 767.29 298.213C766.904 297.85 766.711 297.374 766.711 296.775C766.711 295.494 767.463 294.749 768.972 294.54L771.025 294.253C771.025 293.09 770.552 292.507 769.615 292.507C768.787 292.507 768.046 292.787 767.38 293.351V292.227C768.054 291.798 768.83 291.585 769.709 291.585C771.317 291.585 772.125 292.436 772.125 294.143V298.599ZM771.029 295.135L769.378 295.364C768.87 295.435 768.484 295.561 768.228 295.742C767.971 295.924 767.841 296.243 767.841 296.704C767.841 297.039 767.96 297.311 768.2 297.523C768.44 297.736 768.756 297.843 769.154 297.843C769.697 297.843 770.147 297.649 770.501 297.271C770.856 296.889 771.033 296.408 771.033 295.825V295.135H771.029Z" fill="#545453"/>
<path d="M775.316 297.61H775.289V298.599H774.193V288.457H775.289V292.953H775.316C775.856 292.043 776.644 291.589 777.685 291.589C778.563 291.589 779.253 291.897 779.749 292.508C780.246 293.122 780.494 293.942 780.494 294.974C780.494 296.121 780.214 297.039 779.659 297.729C779.103 298.418 778.339 298.761 777.369 298.761C776.463 298.761 775.777 298.379 775.316 297.61ZM775.289 294.848V295.806C775.289 296.373 775.474 296.854 775.84 297.248C776.207 297.642 776.676 297.839 777.243 297.839C777.909 297.839 778.429 297.583 778.804 297.074C779.182 296.566 779.371 295.857 779.371 294.954C779.371 294.19 779.194 293.595 778.843 293.162C778.488 292.728 778.012 292.511 777.413 292.511C776.774 292.511 776.262 292.732 775.872 293.177C775.482 293.623 775.289 294.178 775.289 294.848Z" fill="#545453"/>
<path d="M787.149 298.599H786.054V297.527H786.026C785.55 298.347 784.848 298.757 783.918 298.757C783.237 298.757 782.701 298.575 782.315 298.213C781.928 297.85 781.735 297.374 781.735 296.775C781.735 295.494 782.488 294.749 783.997 294.54L786.05 294.253C786.05 293.09 785.581 292.507 784.639 292.507C783.816 292.507 783.067 292.787 782.405 293.351V292.227C783.079 291.798 783.855 291.585 784.734 291.585C786.346 291.585 787.149 292.436 787.149 294.143V298.599ZM786.054 295.135L784.403 295.364C783.895 295.435 783.512 295.561 783.252 295.742C782.992 295.924 782.866 296.243 782.866 296.704C782.866 297.039 782.984 297.311 783.225 297.523C783.465 297.736 783.78 297.843 784.178 297.843C784.722 297.843 785.171 297.649 785.526 297.271C785.881 296.889 786.058 296.408 786.058 295.825V295.135H786.054Z" fill="#545453"/>
<path d="M788.804 298.355V297.177C789.403 297.618 790.061 297.839 790.778 297.839C791.74 297.839 792.225 297.516 792.225 296.877C792.225 296.692 792.185 296.538 792.102 296.412C792.02 296.286 791.909 296.172 791.767 296.074C791.626 295.975 791.46 295.888 791.271 295.81C791.082 295.731 790.877 295.648 790.66 295.565C790.357 295.443 790.089 295.325 789.86 295.199C789.632 295.077 789.439 294.939 789.285 294.785C789.131 294.631 789.017 294.458 788.938 294.261C788.859 294.064 788.82 293.835 788.82 293.571C788.82 293.248 788.895 292.965 789.041 292.716C789.186 292.468 789.383 292.263 789.628 292.094C789.872 291.928 790.152 291.802 790.467 291.715C790.782 291.629 791.105 291.589 791.44 291.589C792.035 291.589 792.563 291.692 793.032 291.897V293.008C792.528 292.677 791.949 292.511 791.295 292.511C791.09 292.511 790.904 292.535 790.739 292.582C790.574 292.63 790.432 292.697 790.313 292.779C790.195 292.862 790.105 292.965 790.042 293.083C789.978 293.201 789.943 293.331 789.943 293.473C789.943 293.65 789.975 293.8 790.042 293.922C790.105 294.044 790.199 294.151 790.325 294.241C790.451 294.336 790.601 294.419 790.778 294.497C790.956 294.572 791.161 294.655 791.389 294.746C791.693 294.86 791.964 294.982 792.205 295.104C792.445 295.226 792.65 295.364 792.82 295.518C792.989 295.672 793.119 295.849 793.21 296.05C793.3 296.251 793.348 296.487 793.348 296.767C793.348 297.106 793.273 297.401 793.123 297.65C792.973 297.898 792.772 298.107 792.524 298.272C792.276 298.438 791.988 298.56 791.661 298.639C791.334 298.718 790.995 298.761 790.637 298.761C789.931 298.761 789.32 298.627 788.804 298.355Z" fill="#545453"/>
<path d="M800.539 295.451H795.7C795.72 296.215 795.925 296.802 796.315 297.216C796.709 297.63 797.245 297.839 797.934 297.839C798.706 297.839 799.416 297.583 800.062 297.074V298.103C799.459 298.54 798.663 298.757 797.674 298.757C796.705 298.757 795.944 298.446 795.393 297.823C794.841 297.2 794.561 296.326 794.561 295.199C794.561 294.131 794.865 293.264 795.467 292.594C796.074 291.924 796.823 291.589 797.717 291.589C798.616 291.589 799.309 291.877 799.798 292.46C800.287 293.039 800.535 293.843 800.535 294.876V295.451H800.539ZM799.412 294.521C799.408 293.887 799.254 293.394 798.955 293.043C798.651 292.689 798.234 292.515 797.702 292.515C797.185 292.515 796.744 292.701 796.386 293.071C796.023 293.441 795.802 293.926 795.716 294.521H799.412Z" fill="#545453"/>
<path d="M745.57 305.865C745.358 305.743 745.113 305.684 744.842 305.684C744.073 305.684 743.691 306.169 743.691 307.134V308.19H745.295V309.128H743.691V315.042H742.599V309.128H741.429V308.19H742.599V307.079C742.599 306.362 742.808 305.794 743.222 305.377C743.636 304.959 744.152 304.75 744.775 304.75C745.109 304.75 745.373 304.789 745.57 304.872V305.865Z" fill="#545453"/>
<path d="M749.337 315.204C748.325 315.204 747.517 314.885 746.914 314.243C746.307 313.6 746.008 312.753 746.008 311.697C746.008 310.546 746.323 309.648 746.95 309.002C747.58 308.356 748.427 308.032 749.499 308.032C750.52 308.032 751.32 308.348 751.891 308.974C752.462 309.605 752.75 310.476 752.75 311.591C752.75 312.682 752.443 313.557 751.824 314.219C751.205 314.873 750.378 315.204 749.337 315.204ZM749.416 308.955C748.711 308.955 748.155 309.195 747.746 309.672C747.336 310.152 747.131 310.814 747.131 311.658C747.131 312.469 747.34 313.108 747.753 313.577C748.167 314.045 748.723 314.278 749.42 314.278C750.13 314.278 750.673 314.049 751.056 313.588C751.438 313.127 751.627 312.477 751.627 311.63C751.627 310.775 751.438 310.113 751.056 309.648C750.673 309.187 750.126 308.955 749.416 308.955Z" fill="#545453"/>
<path d="M758.073 309.301C757.88 309.155 757.604 309.081 757.242 309.081C756.773 309.081 756.383 309.301 756.068 309.743C755.752 310.184 755.595 310.787 755.595 311.547V315.038H754.499V308.186H755.595V309.597H755.622C755.78 309.116 756.016 308.738 756.34 308.47C756.659 308.198 757.021 308.064 757.415 308.064C757.703 308.064 757.92 308.095 758.069 308.159V309.301H758.073Z" fill="#545453"/>
<path d="M772.948 315.042H771.829V308.608C771.829 308.099 771.861 307.477 771.924 306.74H771.896C771.79 307.173 771.691 307.481 771.608 307.67L768.33 315.042H767.782L764.512 307.725C764.417 307.512 764.323 307.181 764.224 306.74H764.197C764.232 307.122 764.252 307.749 764.252 308.62V315.042H763.168V305.448H764.654L767.597 312.138C767.826 312.651 767.972 313.037 768.039 313.289H768.078C768.271 312.761 768.425 312.371 768.539 312.111L771.542 305.448H772.948V315.042Z" fill="#545453"/>
<path d="M780.774 308.19L777.621 316.138C777.058 317.557 776.27 318.266 775.253 318.266C774.966 318.266 774.729 318.238 774.536 318.179V317.194C774.773 317.273 774.989 317.316 775.186 317.316C775.738 317.316 776.156 316.985 776.431 316.327L776.979 315.031L774.304 308.194H775.521L777.373 313.467C777.397 313.534 777.44 313.707 777.515 313.987H777.555C777.578 313.88 777.621 313.711 777.688 313.478L779.635 308.194H780.774V308.19Z" fill="#545453"/>
<path d="M781.652 314.656V313.332C781.806 313.466 781.987 313.588 782.2 313.695C782.413 313.801 782.634 313.892 782.87 313.967C783.102 314.038 783.339 314.097 783.575 314.136C783.812 314.176 784.028 314.195 784.229 314.195C784.919 314.195 785.439 314.065 785.778 313.809C786.121 313.553 786.29 313.183 786.29 312.702C786.29 312.442 786.231 312.217 786.121 312.028C786.007 311.835 785.849 311.662 785.648 311.504C785.447 311.346 785.211 311.193 784.935 311.051C784.663 310.905 784.363 310.751 784.048 310.594C783.713 310.424 783.402 310.251 783.11 310.078C782.823 309.904 782.567 309.711 782.354 309.502C782.141 309.293 781.972 309.053 781.849 308.789C781.727 308.525 781.664 308.21 781.664 307.855C781.664 307.418 781.759 307.04 781.952 306.716C782.145 306.393 782.397 306.125 782.708 305.917C783.02 305.708 783.378 305.55 783.776 305.448C784.174 305.345 784.58 305.294 784.998 305.294C785.943 305.294 786.633 305.408 787.066 305.637V306.902C786.499 306.508 785.774 306.314 784.884 306.314C784.639 306.314 784.395 306.342 784.147 306.389C783.902 306.441 783.682 306.523 783.493 306.642C783.299 306.756 783.146 306.906 783.024 307.091C782.902 307.272 782.842 307.497 782.842 307.761C782.842 308.005 782.89 308.218 782.98 308.395C783.071 308.572 783.205 308.738 783.386 308.884C783.563 309.029 783.78 309.171 784.036 309.313C784.292 309.451 784.588 309.601 784.923 309.766C785.266 309.936 785.593 310.113 785.9 310.302C786.207 310.491 786.475 310.696 786.708 310.925C786.94 311.153 787.126 311.405 787.26 311.681C787.398 311.957 787.464 312.276 787.464 312.631C787.464 313.104 787.37 313.506 787.189 313.833C787.003 314.16 786.751 314.428 786.44 314.633C786.125 314.838 785.762 314.987 785.352 315.078C784.943 315.169 784.509 315.216 784.056 315.216C783.902 315.216 783.717 315.204 783.493 315.18C783.268 315.157 783.043 315.117 782.811 315.074C782.578 315.027 782.362 314.968 782.153 314.901C781.944 314.818 781.775 314.739 781.652 314.656Z" fill="#545453"/>
<path d="M793.245 315.204C791.89 315.204 790.798 314.755 789.975 313.861C789.159 312.962 788.749 311.8 788.749 310.362C788.749 308.813 789.167 307.584 789.998 306.669C790.838 305.751 791.972 305.29 793.403 305.29C794.723 305.29 795.791 305.736 796.602 306.63C797.414 307.521 797.82 308.687 797.82 310.129C797.82 311.693 797.406 312.931 796.575 313.841C796.378 314.062 796.169 314.247 795.944 314.404L798.639 316.339H796.598L794.794 314.988C794.325 315.129 793.809 315.204 793.245 315.204ZM793.324 306.307C792.315 306.307 791.496 306.669 790.869 307.398C790.239 308.127 789.927 309.081 789.927 310.263C789.927 311.441 790.235 312.391 790.845 313.12C791.46 313.837 792.26 314.196 793.249 314.196C794.301 314.196 795.132 313.853 795.739 313.167C796.346 312.481 796.65 311.52 796.65 310.283C796.65 309.01 796.354 308.033 795.767 307.347C795.172 306.65 794.36 306.307 793.324 306.307Z" fill="#545453"/>
<path d="M804.684 315.042H799.707V305.448H800.83V314.026H804.684V315.042Z" fill="#545453"/>
<path d="M560.412 139.731H559.167L558.15 137.04H554.084L553.126 139.731H551.877L555.558 130.136H556.72L560.412 139.731ZM557.784 136.031L556.279 131.945C556.228 131.811 556.18 131.598 556.133 131.303H556.105C556.062 131.574 556.011 131.787 555.952 131.945L554.458 136.031H557.784Z" fill="#545453"/>
<path d="M566.453 133.194L562.398 138.793H566.413V139.731H560.786V139.388L564.841 133.816H561.169V132.879H566.453V133.194Z" fill="#545453"/>
<path d="M573.411 139.731H572.316V138.648H572.288C571.835 139.479 571.13 139.893 570.172 139.893C568.541 139.893 567.726 138.919 567.726 136.977V132.883H568.817V136.803C568.817 138.25 569.369 138.971 570.476 138.971C571.012 138.971 571.453 138.774 571.796 138.38C572.143 137.986 572.316 137.469 572.316 136.831V132.883H573.411V139.731Z" fill="#545453"/>
<path d="M579.2 133.99C579.007 133.844 578.731 133.769 578.368 133.769C577.9 133.769 577.509 133.99 577.194 134.431C576.879 134.873 576.721 135.475 576.721 136.236V139.727H575.626V132.875H576.721V134.285H576.749C576.907 133.805 577.143 133.426 577.466 133.159C577.789 132.887 578.144 132.753 578.542 132.753C578.826 132.753 579.046 132.784 579.196 132.847V133.99H579.2Z" fill="#545453"/>
<path d="M585.895 136.579H581.056C581.072 137.343 581.28 137.93 581.67 138.344C582.061 138.758 582.6 138.967 583.29 138.967C584.062 138.967 584.772 138.71 585.418 138.202V139.231C584.815 139.668 584.019 139.885 583.03 139.885C582.061 139.885 581.3 139.573 580.748 138.951C580.197 138.328 579.917 137.453 579.917 136.323C579.917 135.259 580.22 134.388 580.823 133.718C581.43 133.044 582.179 132.709 583.073 132.709C583.972 132.709 584.661 133.001 585.154 133.58C585.642 134.159 585.891 134.963 585.891 135.996V136.579H585.895ZM584.772 135.649C584.768 135.014 584.614 134.522 584.314 134.171C584.015 133.82 583.597 133.643 583.061 133.643C582.545 133.643 582.104 133.828 581.745 134.199C581.383 134.569 581.162 135.054 581.075 135.649H584.772Z" fill="#545453"/>
<path d="M598.882 139.731H597.637L596.62 137.04H592.554L591.596 139.731H590.347L594.028 130.136H595.19L598.882 139.731ZM596.25 136.031L594.745 131.945C594.697 131.811 594.646 131.598 594.599 131.303H594.571C594.528 131.574 594.477 131.787 594.418 131.945L592.924 136.031H596.25Z" fill="#545453"/>
<path d="M604.812 139.416C604.284 139.731 603.662 139.893 602.941 139.893C601.963 139.893 601.175 139.574 600.576 138.939C599.977 138.305 599.678 137.481 599.678 136.469C599.678 135.342 600.001 134.435 600.647 133.75C601.294 133.064 602.156 132.721 603.236 132.721C603.839 132.721 604.367 132.832 604.828 133.056V134.179C604.32 133.825 603.776 133.643 603.197 133.643C602.495 133.643 601.92 133.896 601.475 134.396C601.026 134.897 600.801 135.555 600.801 136.374C600.801 137.178 601.01 137.812 601.435 138.273C601.857 138.738 602.42 138.971 603.13 138.971C603.729 138.971 604.288 138.774 604.816 138.376V139.416H604.812Z" fill="#545453"/>
<path d="M609.651 139.664C609.391 139.806 609.052 139.877 608.627 139.877C607.429 139.877 606.826 139.207 606.826 137.871V133.816H605.648V132.879H606.826V131.208L607.921 130.853V132.879H609.647V133.816H607.921V137.678C607.921 138.139 608 138.466 608.154 138.663C608.311 138.86 608.567 138.959 608.93 138.959C609.206 138.959 609.446 138.884 609.647 138.73V139.664H609.651Z" fill="#545453"/>
<path d="M611.676 131.141C611.479 131.141 611.314 131.074 611.176 130.94C611.038 130.806 610.967 130.637 610.967 130.432C610.967 130.227 611.034 130.057 611.176 129.919C611.314 129.782 611.483 129.715 611.676 129.715C611.877 129.715 612.047 129.782 612.189 129.919C612.327 130.053 612.398 130.227 612.398 130.432C612.398 130.629 612.327 130.794 612.189 130.932C612.051 131.07 611.877 131.141 611.676 131.141ZM612.212 139.731H611.117V132.879H612.212V139.731Z" fill="#545453"/>
<path d="M619.821 132.879L617.091 139.731H616.015L613.418 132.879H614.624L616.362 137.855C616.492 138.222 616.57 138.541 616.602 138.813H616.63C616.673 138.47 616.744 138.159 616.842 137.883L618.663 132.879H619.821Z" fill="#545453"/>
<path d="M626.504 136.579H621.665C621.685 137.343 621.89 137.93 622.28 138.344C622.674 138.758 623.21 138.967 623.9 138.967C624.672 138.967 625.381 138.71 626.027 138.202V139.231C625.424 139.668 624.629 139.885 623.639 139.885C622.67 139.885 621.91 139.573 621.358 138.951C620.806 138.328 620.527 137.453 620.527 136.323C620.527 135.259 620.83 134.388 621.433 133.718C622.04 133.044 622.788 132.709 623.683 132.709C624.581 132.709 625.275 133.001 625.763 133.58C626.252 134.159 626.5 134.963 626.5 135.996V136.579H626.504ZM625.381 135.649C625.377 135.014 625.224 134.522 624.924 134.171C624.621 133.82 624.203 133.643 623.671 133.643C623.155 133.643 622.714 133.828 622.355 134.199C621.992 134.569 621.772 135.054 621.685 135.649H625.381Z" fill="#545453"/>
<path d="M563.025 156.171V146.576H565.673C569.053 146.576 570.744 148.136 570.744 151.253C570.744 152.734 570.275 153.924 569.337 154.823C568.399 155.721 567.142 156.171 565.566 156.171H563.025ZM564.148 147.596V155.158H565.578C566.835 155.158 567.816 154.823 568.514 154.149C569.215 153.475 569.566 152.522 569.566 151.284C569.566 148.826 568.257 147.596 565.645 147.596H564.148Z" fill="#545453"/>
<path d="M573.045 147.58C572.848 147.58 572.683 147.513 572.545 147.38C572.407 147.246 572.336 147.076 572.336 146.871C572.336 146.666 572.407 146.497 572.545 146.359C572.683 146.225 572.852 146.154 573.045 146.154C573.246 146.154 573.415 146.221 573.557 146.359C573.699 146.497 573.766 146.666 573.766 146.871C573.766 147.068 573.695 147.234 573.557 147.372C573.419 147.513 573.246 147.58 573.045 147.58ZM573.581 156.17H572.485V149.318H573.581V156.17Z" fill="#545453"/>
<path d="M579.377 150.429C579.184 150.284 578.908 150.209 578.546 150.209C578.077 150.209 577.687 150.429 577.371 150.871C577.056 151.312 576.899 151.915 576.899 152.675V156.167H575.803V149.314H576.899V150.725H576.926C577.084 150.244 577.32 149.866 577.643 149.598C577.966 149.326 578.325 149.192 578.719 149.192C579.007 149.192 579.223 149.224 579.373 149.287V150.429H579.377Z" fill="#545453"/>
<path d="M586.072 153.018H581.233C581.253 153.783 581.458 154.37 581.848 154.783C582.242 155.197 582.782 155.406 583.467 155.406C584.24 155.406 584.949 155.15 585.595 154.642V155.67C584.992 156.107 584.196 156.324 583.207 156.324C582.242 156.324 581.477 156.013 580.926 155.39C580.374 154.768 580.094 153.893 580.094 152.762C580.094 151.698 580.398 150.827 581.001 150.157C581.603 149.484 582.356 149.149 583.251 149.149C584.149 149.149 584.842 149.436 585.331 150.02C585.824 150.599 586.068 151.403 586.068 152.435V153.018H586.072ZM584.949 152.088C584.945 151.454 584.791 150.961 584.492 150.611C584.192 150.26 583.771 150.083 583.239 150.083C582.723 150.083 582.281 150.268 581.923 150.638C581.56 151.009 581.339 151.493 581.253 152.088H584.949Z" fill="#545453"/>
<path d="M592.4 155.855C591.872 156.171 591.25 156.332 590.529 156.332C589.551 156.332 588.763 156.013 588.164 155.379C587.565 154.744 587.266 153.921 587.266 152.908C587.266 151.781 587.589 150.875 588.235 150.189C588.881 149.503 589.744 149.165 590.824 149.165C591.427 149.165 591.955 149.275 592.416 149.499V150.622C591.908 150.268 591.364 150.087 590.785 150.087C590.083 150.087 589.508 150.339 589.063 150.839C588.613 151.34 588.389 151.998 588.389 152.817C588.389 153.621 588.602 154.256 589.023 154.717C589.445 155.182 590.008 155.414 590.718 155.414C591.317 155.414 591.876 155.217 592.404 154.819V155.855H592.4Z" fill="#545453"/>
<path d="M597.239 156.103C596.979 156.245 596.64 156.316 596.214 156.316C595.017 156.316 594.414 155.646 594.414 154.311V150.256H593.236V149.318H594.414V147.647L595.509 147.293V149.318H597.235V150.256H595.509V154.117C595.509 154.578 595.588 154.906 595.742 155.103C595.899 155.3 596.155 155.398 596.518 155.398C596.794 155.398 597.034 155.323 597.235 155.17V156.103H597.239Z" fill="#545453"/>
<path d="M601.565 156.332C600.553 156.332 599.745 156.013 599.138 155.37C598.535 154.728 598.232 153.881 598.232 152.825C598.232 151.674 598.547 150.776 599.174 150.13C599.8 149.484 600.651 149.16 601.723 149.16C602.744 149.16 603.544 149.476 604.115 150.102C604.69 150.733 604.974 151.603 604.974 152.719C604.974 153.81 604.667 154.685 604.048 155.347C603.433 156.001 602.606 156.332 601.565 156.332ZM601.648 150.082C600.943 150.082 600.387 150.323 599.977 150.8C599.568 151.28 599.363 151.942 599.363 152.786C599.363 153.597 599.572 154.236 599.985 154.705C600.399 155.173 600.955 155.406 601.652 155.406C602.361 155.406 602.905 155.177 603.287 154.716C603.67 154.255 603.859 153.605 603.859 152.758C603.859 151.903 603.666 151.241 603.287 150.776C602.901 150.315 602.357 150.082 601.648 150.082Z" fill="#545453"/>
<path d="M610.305 150.429C610.112 150.284 609.836 150.209 609.474 150.209C609.005 150.209 608.615 150.429 608.3 150.871C607.984 151.312 607.827 151.915 607.827 152.675V156.167H606.731V149.314H607.827V150.725H607.854C608.012 150.244 608.248 149.866 608.571 149.598C608.895 149.326 609.253 149.192 609.647 149.192C609.935 149.192 610.152 149.224 610.301 149.287V150.429H610.305Z" fill="#545453"/>
<path d="M616.949 149.322L613.796 157.27C613.233 158.688 612.445 159.397 611.428 159.397C611.141 159.397 610.904 159.37 610.711 159.311V158.326C610.947 158.404 611.164 158.448 611.361 158.448C611.913 158.448 612.331 158.117 612.606 157.459L613.154 156.162L610.479 149.326H611.696L613.548 154.598C613.572 154.665 613.615 154.838 613.69 155.118H613.729C613.753 155.012 613.796 154.842 613.863 154.61L615.81 149.326H616.949V149.322Z" fill="#545453"/>
<path d="M564.018 297.622H562.899V291.187C562.899 290.679 562.93 290.056 562.993 289.32H562.966C562.859 289.753 562.761 290.06 562.678 290.249L559.399 297.622H558.852L555.581 290.305C555.487 290.092 555.392 289.761 555.294 289.32H555.266C555.302 289.702 555.321 290.328 555.321 291.199V297.622H554.238V288.027H555.723L558.667 294.718C558.895 295.23 559.041 295.616 559.108 295.868H559.147C559.34 295.34 559.494 294.95 559.608 294.69L562.611 288.027H564.018V297.622Z" fill="#545453"/>
<path d="M569.254 297.784C568.242 297.784 567.434 297.464 566.827 296.822C566.224 296.184 565.921 295.333 565.921 294.277C565.921 293.126 566.236 292.228 566.863 291.581C567.493 290.935 568.34 290.612 569.412 290.612C570.433 290.612 571.232 290.927 571.804 291.554C572.379 292.184 572.663 293.055 572.663 294.17C572.663 295.262 572.355 296.136 571.737 296.795C571.122 297.453 570.295 297.784 569.254 297.784ZM569.333 291.534C568.628 291.534 568.072 291.774 567.662 292.251C567.253 292.732 567.048 293.394 567.048 294.237C567.048 295.049 567.257 295.687 567.67 296.156C568.084 296.625 568.64 296.858 569.337 296.858C570.046 296.858 570.59 296.629 570.972 296.168C571.355 295.707 571.544 295.053 571.544 294.21C571.544 293.355 571.351 292.693 570.972 292.228C570.59 291.767 570.042 291.534 569.333 291.534Z" fill="#545453"/>
<path d="M580.268 297.622H579.172V296.46H579.145C578.636 297.342 577.852 297.784 576.788 297.784C575.925 297.784 575.24 297.476 574.724 296.862C574.207 296.251 573.951 295.415 573.951 294.355C573.951 293.221 574.235 292.314 574.806 291.633C575.378 290.951 576.138 290.608 577.088 290.608C578.03 290.608 578.715 290.979 579.141 291.719H579.168V287.479H580.264V297.622H580.268ZM579.168 294.525V293.516C579.168 292.964 578.983 292.496 578.621 292.109C578.254 291.723 577.789 291.534 577.23 291.534C576.56 291.534 576.036 291.778 575.65 292.271C575.267 292.76 575.074 293.437 575.074 294.304C575.074 295.092 575.259 295.715 575.626 296.172C575.992 296.629 576.489 296.858 577.108 296.858C577.718 296.858 578.215 296.637 578.597 296.196C578.979 295.754 579.168 295.199 579.168 294.525Z" fill="#545453"/>
<path d="M587.995 294.469H583.156C583.172 295.234 583.381 295.821 583.771 296.235C584.161 296.648 584.701 296.857 585.39 296.857C586.163 296.857 586.872 296.601 587.518 296.093V297.121C586.915 297.559 586.119 297.775 585.13 297.775C584.161 297.775 583.4 297.464 582.849 296.842C582.297 296.219 582.017 295.344 582.017 294.217C582.017 293.149 582.321 292.283 582.924 291.613C583.53 290.943 584.279 290.608 585.173 290.608C586.068 290.608 586.761 290.896 587.254 291.479C587.743 292.058 587.991 292.862 587.991 293.894V294.469H587.995ZM586.868 293.54C586.864 292.905 586.71 292.413 586.411 292.062C586.111 291.707 585.694 291.534 585.158 291.534C584.642 291.534 584.2 291.719 583.842 292.089C583.479 292.46 583.258 292.945 583.172 293.54H586.868Z" fill="#545453"/>
<path d="M593.224 291.881C593.031 291.735 592.755 291.66 592.392 291.66C591.923 291.66 591.533 291.881 591.218 292.322C590.903 292.763 590.745 293.366 590.745 294.127V297.618H589.65V290.766H590.745V292.176H590.773C590.93 291.696 591.167 291.317 591.49 291.049C591.809 290.781 592.172 290.644 592.566 290.644C592.853 290.644 593.07 290.675 593.22 290.738V291.881H593.224Z" fill="#545453"/>
<path d="M600.104 297.622H599.008V293.713C599.008 292.259 598.476 291.534 597.416 291.534C596.869 291.534 596.415 291.739 596.057 292.153C595.698 292.567 595.517 293.087 595.517 293.717V297.626H594.422V290.774H595.517V291.913H595.545C596.061 291.046 596.809 290.616 597.791 290.616C598.539 290.616 599.115 290.857 599.509 291.341C599.907 291.826 600.104 292.523 600.104 293.438V297.622Z" fill="#545453"/>
<path d="M602.732 289.032C602.535 289.032 602.369 288.965 602.231 288.831C602.093 288.697 602.023 288.527 602.023 288.322C602.023 288.117 602.09 287.948 602.231 287.81C602.369 287.676 602.539 287.605 602.732 287.605C602.933 287.605 603.102 287.672 603.244 287.81C603.382 287.948 603.453 288.117 603.453 288.322C603.453 288.519 603.382 288.685 603.244 288.823C603.102 288.961 602.933 289.032 602.732 289.032ZM603.268 297.622H602.172V290.769H603.268V297.622Z" fill="#545453"/>
<path d="M610.266 291.085L606.211 296.684H610.226V297.622H604.6V297.279L608.654 291.707H604.982V290.769H610.266V291.085Z" fill="#545453"/>
<path d="M617.189 294.469H612.35C612.37 295.234 612.575 295.821 612.965 296.235C613.359 296.648 613.895 296.857 614.584 296.857C615.357 296.857 616.066 296.601 616.712 296.093V297.121C616.109 297.559 615.313 297.775 614.324 297.775C613.355 297.775 612.595 297.464 612.043 296.842C611.491 296.219 611.211 295.344 611.211 294.217C611.211 293.149 611.515 292.283 612.118 291.613C612.725 290.943 613.473 290.608 614.368 290.608C615.266 290.608 615.96 290.896 616.448 291.479C616.937 292.058 617.185 292.862 617.185 293.894V294.469H617.189ZM616.066 293.54C616.062 292.905 615.908 292.413 615.609 292.062C615.306 291.707 614.888 291.534 614.356 291.534C613.84 291.534 613.398 291.719 613.04 292.089C612.677 292.46 612.457 292.945 612.37 293.54H616.066Z" fill="#545453"/>
<path d="M624.695 297.622H623.6V296.46H623.572C623.064 297.342 622.28 297.784 621.216 297.784C620.353 297.784 619.668 297.476 619.151 296.862C618.639 296.251 618.379 295.415 618.379 294.355C618.379 293.221 618.667 292.314 619.234 291.633C619.802 290.951 620.566 290.608 621.516 290.608C622.457 290.608 623.143 290.979 623.569 291.719H623.596V287.479H624.692V297.622H624.695ZM623.596 294.525V293.516C623.596 292.964 623.415 292.496 623.048 292.109C622.682 291.723 622.217 291.534 621.657 291.534C620.988 291.534 620.464 291.778 620.077 292.271C619.695 292.76 619.502 293.437 619.502 294.304C619.502 295.092 619.687 295.715 620.054 296.172C620.42 296.629 620.917 296.858 621.535 296.858C622.146 296.858 622.643 296.637 623.025 296.196C623.407 295.754 623.596 295.199 623.596 294.525Z" fill="#545453"/>
<path d="M563.761 314.065H562.516L561.5 311.374H557.433L556.476 314.065H555.227L558.907 304.47H560.069L563.761 314.065ZM561.133 310.365L559.628 306.279C559.577 306.145 559.53 305.932 559.482 305.637H559.455C559.411 305.908 559.36 306.121 559.301 306.279L557.808 310.365H561.133Z" fill="#545453"/>
<path d="M566.149 313.072H566.122V317.213H565.026V307.213H566.122V308.419H566.149C566.689 307.508 567.477 307.055 568.518 307.055C569.4 307.055 570.09 307.363 570.586 307.973C571.083 308.588 571.327 309.408 571.327 310.44C571.327 311.587 571.047 312.505 570.492 313.194C569.932 313.884 569.172 314.227 568.202 314.227C567.316 314.223 566.63 313.841 566.149 313.072ZM566.122 310.31V311.267C566.122 311.835 566.307 312.316 566.673 312.71C567.04 313.104 567.509 313.301 568.076 313.301C568.742 313.301 569.262 313.045 569.637 312.536C570.015 312.028 570.204 311.319 570.204 310.416C570.204 309.652 570.027 309.057 569.676 308.623C569.321 308.19 568.845 307.973 568.246 307.973C567.607 307.973 567.095 308.194 566.705 308.639C566.319 309.084 566.122 309.64 566.122 310.31Z" fill="#545453"/>
<path d="M574.203 313.072H574.176V317.213H573.08V307.213H574.176V308.419H574.203C574.743 307.508 575.531 307.055 576.572 307.055C577.454 307.055 578.144 307.363 578.64 307.973C579.137 308.588 579.381 309.408 579.381 310.44C579.381 311.587 579.101 312.505 578.546 313.194C577.986 313.884 577.226 314.227 576.256 314.227C575.37 314.223 574.688 313.841 574.203 313.072ZM574.18 310.31V311.267C574.18 311.835 574.365 312.316 574.731 312.71C575.098 313.104 575.567 313.301 576.134 313.301C576.8 313.301 577.32 313.045 577.695 312.536C578.073 312.028 578.262 311.319 578.262 310.416C578.262 309.652 578.085 309.057 577.734 308.623C577.379 308.19 576.903 307.973 576.304 307.973C575.665 307.973 575.153 308.194 574.763 308.639C574.373 309.084 574.18 309.64 574.18 310.31Z" fill="#545453"/>
<path d="M582.234 314.065H581.139V303.923H582.234V314.065Z" fill="#545453"/>
<path d="M585.016 305.475C584.819 305.475 584.653 305.408 584.515 305.274C584.378 305.14 584.307 304.971 584.307 304.766C584.307 304.561 584.374 304.391 584.515 304.253C584.653 304.12 584.819 304.049 585.016 304.049C585.217 304.049 585.386 304.116 585.528 304.253C585.67 304.391 585.741 304.561 585.741 304.766C585.741 304.963 585.67 305.128 585.528 305.266C585.386 305.404 585.217 305.475 585.016 305.475ZM585.552 314.065H584.456V307.213H585.552V314.065Z" fill="#545453"/>
<path d="M592.443 313.75C591.915 314.065 591.293 314.227 590.572 314.227C589.595 314.227 588.806 313.907 588.208 313.273C587.609 312.639 587.309 311.815 587.309 310.802C587.309 309.675 587.632 308.769 588.278 308.084C588.925 307.398 589.788 307.059 590.867 307.059C591.47 307.059 591.998 307.169 592.459 307.394V308.517C591.951 308.162 591.407 307.981 590.828 307.981C590.127 307.981 589.551 308.233 589.106 308.734C588.657 309.234 588.432 309.892 588.432 310.712C588.432 311.516 588.641 312.15 589.063 312.611C589.484 313.076 590.052 313.309 590.761 313.309C591.36 313.309 591.919 313.111 592.447 312.714V313.75H592.443Z" fill="#545453"/>
<path d="M599.004 314.065H597.909V312.993H597.881C597.404 313.813 596.703 314.223 595.773 314.223C595.091 314.223 594.556 314.041 594.169 313.679C593.783 313.316 593.59 312.839 593.59 312.24C593.59 310.96 594.343 310.215 595.852 310.006L597.905 309.719C597.905 308.556 597.436 307.973 596.494 307.973C595.671 307.973 594.926 308.253 594.26 308.816V307.693C594.934 307.264 595.71 307.051 596.589 307.051C598.2 307.051 599.004 307.902 599.004 309.608V314.065ZM597.909 310.597L596.258 310.826C595.749 310.897 595.367 311.023 595.107 311.204C594.847 311.385 594.721 311.705 594.721 312.166C594.721 312.501 594.839 312.772 595.08 312.985C595.32 313.198 595.635 313.304 596.033 313.304C596.577 313.304 597.026 313.111 597.381 312.733C597.735 312.351 597.913 311.866 597.913 311.283V310.597H597.909Z" fill="#545453"/>
<path d="M604.249 313.998C603.989 314.14 603.65 314.211 603.224 314.211C602.026 314.211 601.424 313.541 601.424 312.206V308.151H600.245V307.213H601.424V305.542L602.519 305.188V307.213H604.245V308.151H602.519V312.012C602.519 312.474 602.598 312.801 602.752 312.998C602.909 313.195 603.165 313.293 603.528 313.293C603.804 313.293 604.044 313.218 604.245 313.065V313.998H604.249Z" fill="#545453"/>
<path d="M606.278 305.475C606.081 305.475 605.916 305.408 605.778 305.274C605.64 305.14 605.569 304.971 605.569 304.766C605.569 304.561 605.636 304.391 605.778 304.253C605.916 304.12 606.085 304.049 606.278 304.049C606.479 304.049 606.649 304.116 606.79 304.253C606.928 304.391 606.999 304.561 606.999 304.766C606.999 304.963 606.928 305.128 606.79 305.266C606.649 305.404 606.479 305.475 606.278 305.475ZM606.814 314.065H605.719V307.213H606.814V314.065Z" fill="#545453"/>
<path d="M611.897 314.223C610.884 314.223 610.077 313.903 609.47 313.261C608.867 312.619 608.564 311.772 608.564 310.716C608.564 309.565 608.879 308.667 609.505 308.02C610.136 307.374 610.983 307.051 612.055 307.051C613.075 307.051 613.875 307.366 614.447 307.993C615.022 308.623 615.306 309.494 615.306 310.609C615.306 311.701 614.998 312.575 614.38 313.237C613.765 313.895 612.937 314.223 611.897 314.223ZM611.976 307.977C611.271 307.977 610.715 308.217 610.305 308.694C609.895 309.175 609.691 309.837 609.691 310.68C609.691 311.492 609.899 312.13 610.313 312.599C610.727 313.068 611.282 313.3 611.98 313.3C612.689 313.3 613.233 313.072 613.615 312.611C613.997 312.15 614.186 311.5 614.186 310.653C614.186 309.797 613.993 309.135 613.615 308.671C613.233 308.209 612.685 307.977 611.976 307.977Z" fill="#545453"/>
<path d="M622.749 314.065H621.653V310.156C621.653 308.702 621.122 307.977 620.062 307.977C619.514 307.977 619.061 308.182 618.702 308.596C618.344 309.01 618.162 309.53 618.162 310.156V314.065H617.063V307.213H618.158V308.352H618.186C618.702 307.485 619.451 307.055 620.432 307.055C621.181 307.055 621.756 307.296 622.15 307.78C622.548 308.265 622.745 308.962 622.745 309.876V314.065H622.749Z" fill="#545453"/>
<path d="M581.801 10.3645L578.246 19.9593H577.009L573.53 10.3645H574.783L577.438 17.9694C577.525 18.2137 577.588 18.4974 577.632 18.8205H577.659C577.695 18.5526 577.77 18.265 577.88 17.9576L580.591 10.3645H581.801Z" fill="#545453"/>
<path d="M583.593 11.3651C583.396 11.3651 583.231 11.2982 583.093 11.1642C582.955 11.0302 582.884 10.8608 582.884 10.6559C582.884 10.451 582.955 10.2815 583.093 10.1436C583.231 10.0057 583.4 9.93872 583.593 9.93872C583.794 9.93872 583.964 10.0057 584.106 10.1436C584.247 10.2776 584.314 10.451 584.314 10.6559C584.314 10.8529 584.244 11.0184 584.106 11.1563C583.964 11.2942 583.794 11.3651 583.593 11.3651ZM584.129 19.9552H583.034V13.1068H584.129V19.9552Z" fill="#545453"/>
<path d="M589.922 14.214C589.729 14.0682 589.453 13.9934 589.09 13.9934C588.621 13.9934 588.231 14.214 587.916 14.6553C587.601 15.0967 587.443 15.6995 587.443 16.46V19.9512H586.348V13.1068H587.443V14.5174H587.471C587.628 14.0367 587.865 13.6584 588.188 13.3905C588.507 13.1225 588.87 12.9846 589.264 12.9846C589.551 12.9846 589.768 13.0161 589.918 13.0792V14.214H589.922Z" fill="#545453"/>
<path d="M594.292 19.8886C594.035 20.0304 593.693 20.1013 593.267 20.1013C592.069 20.1013 591.466 19.4315 591.466 18.0957V14.041H590.288V13.1032H591.466V11.4325L592.562 11.0779V13.1032H594.288V14.041H592.562V17.9026C592.562 18.3597 592.641 18.6907 592.794 18.8877C592.952 19.0847 593.208 19.1832 593.57 19.1832C593.846 19.1832 594.087 19.1084 594.288 18.9547V19.8886H594.292Z" fill="#545453"/>
<path d="M601.294 19.9553H600.198V18.8717H600.171C599.717 19.7031 599.012 20.1169 598.055 20.1169C596.423 20.1169 595.608 19.1436 595.608 17.201V13.1069H596.699V17.0276C596.699 18.4737 597.251 19.1948 598.358 19.1948C598.894 19.1948 599.335 18.9978 599.678 18.6038C600.025 18.2097 600.194 17.6935 600.194 17.0552V13.1069H601.29V19.9553H601.294Z" fill="#545453"/>
<path d="M608.414 19.955H607.318V18.8832H607.291C606.814 19.7028 606.113 20.1126 605.183 20.1126C604.501 20.1126 603.965 19.9314 603.579 19.5689C603.193 19.2064 603 18.7296 603 18.1306C603 16.85 603.752 16.1053 605.262 15.8964L607.315 15.6088C607.315 14.4464 606.846 13.8632 605.904 13.8632C605.08 13.8632 604.336 14.143 603.67 14.7065V13.5834C604.343 13.1539 605.12 12.9412 605.998 12.9412C607.61 12.9412 608.414 13.7923 608.414 15.4985V19.955ZM607.315 16.4914L605.663 16.72C605.155 16.7909 604.773 16.917 604.513 17.0983C604.257 17.2795 604.127 17.5987 604.127 18.0597C604.127 18.3946 604.245 18.6665 604.485 18.8793C604.722 19.0921 605.041 19.1985 605.439 19.1985C605.983 19.1985 606.432 19.0093 606.787 18.6271C607.141 18.2449 607.318 17.7642 607.318 17.181V16.4914H607.315Z" fill="#545453"/>
<path d="M611.578 19.9555H610.483V9.81299H611.578V19.9555Z" fill="#545453"/>
<path d="M625.432 19.9554H624.053L619.116 12.3071C618.99 12.114 618.887 11.917 618.809 11.7042H618.769C618.805 11.9091 618.824 12.3465 618.824 13.0203V19.9514H617.701V10.3645H619.159L623.963 17.8906C624.164 18.2019 624.29 18.4147 624.349 18.5329H624.376C624.329 18.2571 624.309 17.7842 624.309 17.1222V10.3645H625.432V19.9554Z" fill="#545453"/>
<path d="M633.309 16.8071H628.47C628.49 17.5716 628.695 18.1587 629.085 18.5724C629.479 18.9862 630.015 19.195 630.705 19.195C631.477 19.195 632.186 18.9389 632.832 18.4306V19.459C632.229 19.8964 631.433 20.1131 630.444 20.1131C629.475 20.1131 628.715 19.8018 628.163 19.1792C627.611 18.5567 627.332 17.6819 627.332 16.5549C627.332 15.491 627.635 14.6202 628.238 13.9504C628.845 13.2805 629.593 12.9456 630.488 12.9456C631.386 12.9456 632.08 13.2332 632.568 13.8164C633.057 14.3956 633.305 15.1995 633.305 16.2318V16.8071H633.309ZM632.186 15.8772C632.182 15.2428 632.028 14.7502 631.729 14.3996C631.426 14.0489 631.008 13.8715 630.476 13.8715C629.96 13.8715 629.518 14.0567 629.16 14.4271C628.797 14.7975 628.577 15.2822 628.49 15.8772H632.186Z" fill="#545453"/>
<path d="M638.144 19.8886C637.884 20.0304 637.545 20.1013 637.12 20.1013C635.922 20.1013 635.319 19.4315 635.319 18.0957V14.041H634.141V13.1032H635.319V11.4325L636.414 11.0779V13.1032H638.14V14.041H636.414V17.9026C636.414 18.3597 636.493 18.6907 636.647 18.8877C636.804 19.0847 637.06 19.1832 637.423 19.1832C637.699 19.1832 637.939 19.1084 638.14 18.9547V19.8886H638.144Z" fill="#545453"/>
<path d="M648.239 13.107L646.186 19.9593H645.047L643.637 15.0535C643.582 14.8644 643.546 14.6555 643.53 14.4191H643.503C643.491 14.5807 643.444 14.7856 643.361 15.0417L641.828 19.9593H640.733L638.66 13.107H639.811L641.229 18.257C641.273 18.4147 641.304 18.6196 641.324 18.8717H641.379C641.391 18.6747 641.434 18.4659 641.501 18.2413L643.081 13.103H644.086L645.505 18.2689C645.548 18.4344 645.583 18.6393 645.603 18.8836H645.658C645.666 18.7102 645.706 18.5053 645.773 18.2689L647.163 13.103H648.239V13.107Z" fill="#545453"/>
<path d="M652.373 20.117C651.36 20.117 650.552 19.7979 649.945 19.1556C649.343 18.5172 649.039 17.6661 649.039 16.6101C649.039 15.4595 649.354 14.5611 649.981 13.9149C650.611 13.2687 651.459 12.9456 652.53 12.9456C653.551 12.9456 654.351 13.2608 654.922 13.8873C655.497 14.5178 655.781 15.3886 655.781 16.5037C655.781 17.5952 655.474 18.47 654.855 19.128C654.24 19.79 653.413 20.117 652.373 20.117ZM652.455 13.8676C651.75 13.8676 651.194 14.108 650.785 14.5887C650.375 15.0694 650.17 15.7275 650.17 16.5707C650.17 17.3824 650.379 18.0208 650.793 18.4897C651.206 18.9586 651.762 19.1911 652.459 19.1911C653.169 19.1911 653.712 18.9625 654.095 18.5015C654.477 18.0444 654.666 17.3903 654.666 16.5431C654.666 15.6881 654.473 15.0261 654.095 14.5611C653.708 14.1001 653.165 13.8676 652.455 13.8676Z" fill="#545453"/>
<path d="M661.112 14.214C660.919 14.0682 660.644 13.9934 660.281 13.9934C659.812 13.9934 659.422 14.214 659.107 14.6553C658.791 15.0967 658.634 15.6995 658.634 16.46V19.9512H657.538V13.1068H658.634V14.5174H658.661C658.819 14.0367 659.056 13.6584 659.379 13.3905C659.702 13.1225 660.06 12.9846 660.454 12.9846C660.742 12.9846 660.959 13.0161 661.108 13.0792V14.214H661.112Z" fill="#545453"/>
<path d="M667.988 19.9555H666.448L663.425 16.6653H663.398V19.9555H662.302V9.81299H663.398V16.2437H663.425L666.302 13.1071H667.74L664.564 16.4131L667.988 19.9555Z" fill="#545453"/>
<path d="M589.39 212.474V168.673" stroke="#959494" stroke-width="1.43786" stroke-miterlimit="10"/>
<path d="M594.516 210.977L589.39 219.851L584.267 210.977H594.516Z" fill="#959494"/>
<path d="M752.907 237.401V267.64C752.907 270.855 759.941 273.365 768.582 273.365V237.397H752.907V237.401Z" fill="#2173B8"/>
<path d="M768.381 273.267H768.681C777.421 273.267 784.352 270.757 784.352 267.541V237.303H768.377V273.267H768.381Z" fill="#3C92CE"/>
<path d="M784.253 237.401C784.253 240.518 777.22 243.127 768.582 243.127C759.941 243.127 752.809 240.514 752.809 237.401C752.809 234.288 759.842 231.676 768.48 231.676C777.22 231.676 784.253 234.288 784.253 237.401Z" fill="white"/>
<path d="M781.14 237.102C781.14 239.214 775.513 240.92 768.685 240.92C761.852 240.92 756.127 239.214 756.127 237.102C756.127 234.994 761.754 233.283 768.582 233.283C775.411 233.283 781.14 234.994 781.14 237.102Z" fill="#81BA41"/>
<path d="M778.425 239.312C780.132 238.61 781.038 237.905 781.038 237.003C781.038 234.895 775.411 233.185 768.582 233.185C761.75 233.185 756.127 234.891 756.127 237.003C756.127 237.807 757.132 238.709 758.739 239.312C761.048 238.41 764.567 237.905 768.586 237.905C772.598 237.905 776.215 238.508 778.425 239.312Z" fill="#B8D134"/>
<path d="M780.565 253.214V247.796H777.346V251.169C777.346 251.386 777.393 251.563 777.196 251.563C776.999 251.563 775.001 251.563 774.584 251.563C774.17 251.563 774.213 251.067 774.213 251.067V247.792H770.304L770.998 248.253V251.733C770.998 251.733 770.824 254.077 772.925 254.077C775.021 254.077 776.841 254.077 777.019 254.077C777.334 254.077 777.752 253.841 777.771 253.723C777.791 253.604 777.811 254.672 776.743 254.743H771.415V257.249C771.415 257.249 777.074 257.249 777.704 257.249C778.335 257.249 779.221 257.143 779.84 256.26C780.388 255.476 780.557 254.849 780.557 254.373C780.557 254.038 780.565 253.214 780.565 253.214Z" fill="white"/>
<path d="M758.842 252.418V257.442H756.056V249.399C756.056 249.399 756.3 247.658 757.908 247.658C759.515 247.658 759.858 247.973 760.611 249.411C761.363 250.85 762.825 253.525 762.825 253.525C762.825 253.525 764.803 249.069 765.079 248.395C765.355 247.721 766.202 247.536 767.124 247.603C768.035 247.67 768.968 248.158 769.008 249.435V257.438H766.222V252.418C766.222 252.418 764.516 256.323 764.197 256.784C763.877 257.245 763.353 257.458 762.758 257.458C762.163 257.458 761.36 257.391 760.977 256.693C760.599 255.992 758.842 252.418 758.842 252.418Z" fill="white"/>
<path d="M518.384 344.607V344.806H518.583" stroke="#9F9F9F" stroke-width="0.958573" stroke-miterlimit="10"/>
<path d="M520.157 344.804H832.018" stroke="#9F9F9F" stroke-width="0.958573" stroke-miterlimit="10" stroke-dasharray="0.96 0.96"/>
<path d="M832.802 344.806H833.001V344.607" stroke="#9F9F9F" stroke-width="0.958573" stroke-miterlimit="10"/>
<path d="M833 343.031V36.2959" stroke="#9F9F9F" stroke-width="0.958573" stroke-miterlimit="10" stroke-dasharray="0.96 0.96"/>
<path d="M833.001 35.5095V35.311H832.802" stroke="#9F9F9F" stroke-width="0.958573" stroke-miterlimit="10"/>
<path d="M831.23 35.311H519.369" stroke="#9F9F9F" stroke-width="0.958573" stroke-miterlimit="10" stroke-dasharray="0.96 0.96"/>
<path d="M518.583 35.311H518.384V35.5095" stroke="#9F9F9F" stroke-width="0.958573" stroke-miterlimit="10"/>
<path d="M518.384 37.084V343.819" stroke="#9F9F9F" stroke-width="0.958573" stroke-miterlimit="10" stroke-dasharray="0.96 0.96"/>
<path d="M549.982 16.7754C551.542 16.7754 552.803 15.5106 552.803 13.9541C552.803 12.3937 551.538 11.1328 549.982 11.1328C548.422 11.1328 547.161 12.3977 547.161 13.9541C547.161 15.5145 548.422 16.7754 549.982 16.7754Z" fill="url(#paint0_linear)"/>
<path d="M540.978 16.8072C542.539 16.8072 543.8 15.5423 543.8 13.9859C543.8 12.4294 542.535 11.1646 540.978 11.1646C539.418 11.1646 538.157 12.4294 538.157 13.9859C538.157 15.5423 539.422 16.8072 540.978 16.8072Z" fill="url(#paint1_linear)"/>
<path d="M531.974 16.8072C533.535 16.8072 534.796 15.5423 534.796 13.9859C534.796 12.4294 533.531 11.1646 531.974 11.1646C530.414 11.1646 529.153 12.4294 529.153 13.9859C529.153 15.5423 530.418 16.8072 531.974 16.8072Z" fill="url(#paint2_linear)"/>
<path d="M534.023 25.2669L532.408 26.8864C532.27 27.0243 532.085 27.0992 531.892 27.0992C531.699 27.0992 531.513 27.0243 531.376 26.8864L519.42 14.9628C519.145 14.6909 518.991 14.3166 518.991 13.9304C518.991 13.5443 519.145 13.1699 519.416 12.8981L521.032 11.2786L534.023 24.2306C534.161 24.3685 534.236 24.5537 534.236 24.7468C534.236 24.9438 534.161 25.1329 534.023 25.2669Z" fill="#75D0EB"/>
<path d="M532.168 1.10865L533.787 2.7242C533.925 2.86211 534 3.04731 534 3.24039C534 3.43347 533.925 3.61867 533.787 3.75658L521.024 16.5589L519.405 14.9433C519.129 14.6714 518.975 14.2971 518.975 13.9109C518.975 13.5248 519.129 13.1504 519.401 12.8786L531.135 1.11259C531.273 0.974673 531.458 0.899806 531.651 0.899806C531.844 0.895866 532.03 0.970733 532.168 1.10865Z" fill="#2F8DCD"/>
<path d="M560.727 11.2551L562.343 12.8746C562.615 13.1504 562.769 13.5208 562.769 13.907C562.769 14.2932 562.615 14.6636 562.339 14.9394L550.384 26.863C550.246 27.0009 550.061 27.0757 549.868 27.0757C549.675 27.0757 549.49 26.9969 549.352 26.863L547.736 25.2435C547.598 25.1056 547.523 24.9204 547.523 24.7273C547.523 24.5342 547.602 24.349 547.736 24.2111L560.727 11.2551Z" fill="#75D0EB"/>
<path d="M562.335 14.9275L560.716 16.543L547.953 3.74073C547.815 3.60282 547.74 3.41762 547.74 3.22454C547.74 3.03146 547.819 2.84627 547.953 2.70835L549.588 1.07704C549.726 0.939125 549.911 0.864258 550.104 0.864258C550.297 0.864258 550.482 0.943065 550.62 1.07704L562.355 12.843C562.627 13.1188 562.78 13.4892 562.78 13.8754C562.78 14.2615 562.627 14.6319 562.351 14.9078L562.335 14.9275Z" fill="#2F8DCD"/>
<path d="M569.408 99.7675L589.216 112.499L609.375 99.7163L611.901 102.64L589.216 117.105L566.882 102.64L569.408 99.7675Z" fill="#A5DEF3"/>
<path d="M570.909 98.1246L589.216 76.5234L607.898 98.1482L589.216 109.839L570.909 98.1246Z" fill="white"/>
<path d="M589.216 76.5273V109.843L570.909 98.1285L589.216 76.5273Z" fill="#A5DEF3"/>
<path d="M589.216 76.5273V109.843L607.898 98.1521L589.216 76.5273Z" fill="url(#paint3_linear)"/>
<path d="M589.216 93.7466L607.898 98.1559L589.216 109.847V93.7466Z" fill="#53B1DF"/>
<path d="M589.216 109.847L570.909 98.1322L589.216 93.7466V109.847Z" fill="#C6EAF7"/>
<path d="M589.216 117.105L611.901 102.64L609.375 99.7163L589.216 112.499V117.105Z" fill="url(#paint4_linear)"/>
<path d="M254.139 248.123C252.614 246.653 250.675 245.684 248.583 245.333C248.445 242.098 247.026 239.048 244.634 236.854C242.243 234.659 239.071 233.5 235.82 233.626C233.199 233.579 230.626 234.34 228.455 235.809C226.288 237.275 224.629 239.376 223.707 241.822C220.949 242.157 218.403 243.47 216.539 245.519C214.676 247.568 213.612 250.215 213.549 252.982C213.671 256.095 215.03 259.03 217.324 261.146C219.617 263.266 222.659 264.393 225.788 264.287H226.863H246.683H247.207C249.745 264.239 252.172 263.231 253.997 261.469C255.817 259.708 256.897 257.324 257.019 254.798C257.011 253.573 256.751 252.359 256.262 251.236C255.774 250.109 255.061 249.096 254.166 248.249" fill="url(#paint5_linear)"/>
<path d="M238.747 245.077L238.771 255.736L258.564 259.92V252.501L238.747 245.077Z" fill="#777777"/>
<path d="M238.747 245.077L233.392 248.316V258.226L238.771 255.736" fill="#989898"/>
<path d="M247.783 255.89L249.583 256.386V250.582L247.783 249.959V255.89Z" fill="#A3A3A2"/>
<path d="M245.978 249.392L244.177 248.746V254.948L245.978 255.444V249.392Z" fill="#A3A3A2"/>
<path d="M251.384 256.862L253.138 257.335L253.189 251.807L251.388 251.208V256.862H251.384Z" fill="#A3A3A2"/>
<path d="M240.595 254.022L242.396 254.471V248.17L240.595 247.571V254.022Z" fill="#A3A3A2"/>
<path d="M256.763 253.025L254.962 252.403V257.805L256.763 258.301V253.025Z" fill="#A3A3A2"/>
<path d="M235.217 255.571L234.315 256.095V249.045L235.217 248.573V255.571ZM236.994 247.552L236.068 248.151V254.999L236.994 254.503V247.552Z" fill="#B4B4B4"/>
<path d="M258.564 259.925L253.157 261.769L233.388 258.234L238.767 255.744L258.564 259.925Z" fill="url(#paint6_linear)"/>
<path d="M258.568 267.517L238.673 271.276L238.771 257.355L258.564 261.016V267.517H258.568Z" fill="#777777"/>
<path d="M240.595 268.987V260.145L242.396 260.37V268.688L240.595 268.987Z" fill="#A3A3A2"/>
<path d="M245.978 268.089L244.177 268.412V260.591L245.978 260.867V268.089Z" fill="#A3A3A2"/>
<path d="M247.783 267.817V261.043L249.583 261.268V267.494L247.783 267.817Z" fill="#A3A3A2"/>
<path d="M253.161 266.867L251.384 267.19V261.489L253.161 261.764V266.867Z" fill="#A3A3A2"/>
<path d="M256.814 266.296L254.962 266.619V261.938L256.688 262.163L256.814 266.296Z" fill="#A3A3A2"/>
<path d="M233.388 268.093V259.975L238.795 257.485V271.43L233.388 268.093Z" fill="#989898"/>
<path d="M235.091 268.069L234.291 267.671V260.799L235.091 260.425V268.069ZM237.018 259.475L236.068 259.948V268.613L236.994 269.086V259.471H237.018V259.475Z" fill="#B4B4B4"/>
<path d="M581.328 232.818L574.207 234.13V243.796L581.328 245.309L588.475 242.46V235.249L581.328 232.818Z" fill="url(#paint7_linear)"/>
<path d="M574.203 234.139V243.805L581.399 245.318V232.929L574.203 234.139ZM577.241 243.06L575.224 242.662V235.226L577.241 234.903V243.06ZM580.382 243.631L578.065 243.261V234.761L580.382 234.364V243.631Z" fill="#36296D"/>
<path d="M596.739 232.945L589.618 234.257V243.922L596.739 245.436L603.859 242.563V235.376L596.739 232.945Z" fill="url(#paint8_linear)"/>
<path d="M589.614 234.257V243.923L596.762 245.436V233.047L589.614 234.257ZM592.629 243.178L590.611 242.78V235.344L592.629 235.021V243.178ZM595.765 243.749L593.448 243.379V234.879L595.765 234.458V243.749Z" fill="#36296D"/>
<path d="M574.026 246.161L566.906 247.473V257.139L574.026 258.652L581.174 255.803V248.592L574.026 246.161Z" fill="url(#paint9_linear)"/>
<path d="M566.882 247.469V257.06L574.077 258.573V246.184L566.882 247.469ZM569.893 256.414L567.875 255.992V248.556L569.893 248.21V256.414ZM573.057 257.056L570.74 256.685V248.088L573.057 247.69V257.056Z" fill="#36296D"/>
<path d="M589.39 246.054L582.269 247.366V257.032L589.39 258.569L596.51 255.696V248.485L589.39 246.054Z" fill="url(#paint10_linear)"/>
<path d="M582.269 247.37V257.06L589.441 258.573V246.184L582.269 247.37ZM585.284 256.315L583.266 255.893V248.458L585.284 248.111V256.315ZM588.42 256.859L586.103 256.488V247.989L588.42 247.591V256.859Z" fill="#36296D"/>
<path d="M604.753 246.181L597.633 247.493V257.159L604.753 258.672L611.901 255.823V248.612L604.753 246.181Z" fill="url(#paint11_linear)"/>
<path d="M597.633 247.493V257.056L604.828 258.569V246.181L597.633 247.493ZM600.671 256.437L598.654 256.016V248.58L600.671 248.234V256.437ZM603.808 256.985L601.491 256.615V248.115L603.808 247.717V256.985Z" fill="#36296D"/>
<path d="M581.15 259.633L574.03 260.922V270.587L581.15 272.124L588.298 269.252V262.064L581.15 259.633Z" fill="url(#paint12_linear)"/>
<path d="M574.03 260.926V270.591L581.225 272.128V259.539L574.03 260.926ZM577.068 269.87L575.051 269.449V262.013L577.068 261.666V269.87ZM580.205 270.438L577.888 270.067V261.544L580.205 261.146V270.438Z" fill="#36296D"/>
<path d="M596.538 259.731L589.417 261.044V270.709L596.538 272.222L603.685 269.374V262.163L596.538 259.731Z" fill="url(#paint13_linear)"/>
<path d="M589.413 261.051V270.717L596.608 272.23V259.842L589.413 261.051ZM592.451 269.996L590.434 269.575V262.139L592.451 261.792V269.996ZM595.592 270.54L593.275 270.17V261.67L595.592 261.272V270.54Z" fill="#36296D"/>
<path d="M400.524 266.43L405.717 271.623H414.145C415.174 271.623 415.997 270.788 415.997 269.771V250.302L400.52 265.787C400.342 265.961 400.342 266.248 400.524 266.43Z" fill="#3660AD"/>
<path d="M387.304 244.782V253.21L392.497 258.404C392.678 258.585 392.966 258.585 393.139 258.404L408.625 242.918H389.156C388.139 242.918 387.304 243.753 387.304 244.782Z" fill="#456EB5"/>
<path d="M406.789 235.344L394.29 254.467C393.868 255.121 393.955 255.976 394.503 256.52L402.509 264.527C403.057 265.075 403.92 265.161 404.562 264.74L423.685 252.229C424.903 251.433 425.636 250.07 425.636 248.619V235.285C425.636 234.237 424.781 233.386 423.736 233.386H410.41C408.952 233.386 407.597 234.123 406.789 235.344Z" fill="#668AC6"/>
<path d="M390.117 268.996V262.238H387.304V271.667H396.875V268.999H390.117V268.996Z" fill="#A3BAE1"/>
<path d="M416.045 247.556C418.673 247.556 420.805 245.424 420.805 242.792C420.805 240.163 418.673 238.032 416.045 238.032C413.416 238.032 411.285 240.163 411.285 242.792C411.285 245.424 413.416 247.556 416.045 247.556Z" fill="#B0C4E6"/>
<path d="M407.522 249.171L397.34 259.353L399.688 261.702L409.87 251.52L407.522 249.171Z" fill="#7497CE"/>
<path d="M397.659 263.731L399.68 261.71L397.332 259.361L395.31 261.382L397.659 263.731Z" fill="#8EABD9"/>
<path d="M82.0899 231.825H40.0697C39.2422 231.825 38.5684 232.495 38.5684 233.319V260.2C38.5684 261.024 39.2422 261.693 40.0697 261.693H82.0859C82.9134 261.693 83.5872 261.024 83.5872 260.2V233.319C83.5872 232.495 82.9173 231.825 82.0899 231.825Z" fill="url(#paint14_linear)"/>
<path d="M70.1072 270.733C65.6546 270.036 65.4812 266.852 65.4812 261.698H56.6508C56.6508 266.852 56.5011 270.036 52.0484 270.733C51.4337 270.8 50.8663 271.092 50.4565 271.553C50.0467 272.014 49.8182 272.609 49.8221 273.223H72.3335C72.3374 272.609 72.1128 272.014 71.6991 271.553C71.2893 271.092 70.7219 270.8 70.1072 270.733Z" fill="url(#paint15_linear)"/>
<path d="M51.8435 256.882H71.2814C71.7661 256.882 72.1246 256.52 72.1246 256.039V240.947H66.5727L58.7234 248.434L51.8435 256.882Z" fill="#75D0EB"/>
<path d="M72.1286 241.428V238.895C72.1286 238.41 71.7661 238.052 71.2854 238.052H69.3506L66.2101 241.432H72.1286V241.428Z" fill="#777A7C"/>
<path d="M50.8742 238.047C50.3895 238.047 50.031 238.41 50.031 238.891C50.031 238.41 50.3935 238.047 50.8742 238.047Z" fill="#7C7B7B"/>
<path d="M66.6909 240.947L50.031 241.188V256.039C50.031 256.524 50.3935 256.882 50.8742 256.882H51.8396L66.6909 240.947Z" fill="#A5DEF3"/>
<path d="M69.3467 238.047H50.8742C50.3895 238.047 50.031 238.41 50.031 238.891V241.424H66.2101L69.3467 238.047Z" fill="#7C7B7B"/>
<path d="M69.3467 238.047H50.8742C50.3895 238.047 50.031 238.41 50.031 238.891V241.424H66.2101L69.3467 238.047Z" fill="#848587"/>
<defs>
<linearGradient id="paint0_linear" x1="549.986" y1="16.7892" x2="549.978" y2="11.1447" gradientUnits="userSpaceOnUse">
<stop stop-color="#2F76BC"/>
<stop offset="0.82" stop-color="#6A9DD3"/>
</linearGradient>
<linearGradient id="paint1_linear" x1="540.716" y1="74.8988" x2="540.773" y2="61.8034" gradientUnits="userSpaceOnUse">
<stop stop-color="#2F76BC"/>
<stop offset="0.82" stop-color="#6A9DD3"/>
</linearGradient>
<linearGradient id="paint2_linear" x1="531.713" y1="74.9889" x2="531.769" y2="61.8934" gradientUnits="userSpaceOnUse">
<stop stop-color="#2F76BC"/>
<stop offset="0.82" stop-color="#6A9DD3"/>
</linearGradient>
<linearGradient id="paint3_linear" x1="600.009" y1="106.775" x2="588.604" y2="84.9604" gradientUnits="userSpaceOnUse">
<stop stop-color="#3285C7"/>
<stop offset="0.9" stop-color="#5FABDF"/>
</linearGradient>
<linearGradient id="paint4_linear" x1="595.126" y1="100.413" x2="603.014" y2="114.152" gradientUnits="userSpaceOnUse">
<stop offset="0.1" stop-color="#5FABDF"/>
<stop offset="0.29" stop-color="#5BA9DD"/>
<stop offset="0.51" stop-color="#4FA0D8"/>
<stop offset="0.74" stop-color="#3C91CE"/>
<stop offset="0.88" stop-color="#3285C7"/>
</linearGradient>
<linearGradient id="paint5_linear" x1="235.281" y1="273.275" x2="235.281" y2="226.631" gradientUnits="userSpaceOnUse">
<stop stop-color="#2F76BC"/>
<stop offset="0.16" stop-color="#357DC0"/>
<stop offset="0.53" stop-color="#4D8DCB"/>
<stop offset="0.82" stop-color="#6199D1"/>
<stop offset="1" stop-color="#6A9DD3"/>
</linearGradient>
<linearGradient id="paint6_linear" x1="245.977" y1="255.74" x2="245.977" y2="261.767" gradientUnits="userSpaceOnUse">
<stop stop-color="#333232"/>
<stop offset="1" stop-color="#5C5B5D"/>
</linearGradient>
<linearGradient id="paint7_linear" x1="574.205" y1="239.064" x2="588.473" y2="239.064" gradientUnits="userSpaceOnUse">
<stop stop-color="#9F7DB9"/>
<stop offset="1" stop-color="#6D54A3"/>
</linearGradient>
<linearGradient id="paint8_linear" x1="719.651" y1="239.191" x2="801.118" y2="239.191" gradientUnits="userSpaceOnUse">
<stop stop-color="#9F7DB9"/>
<stop offset="1" stop-color="#6D54A3"/>
</linearGradient>
<linearGradient id="paint9_linear" x1="567.049" y1="252.404" x2="648.66" y2="252.404" gradientUnits="userSpaceOnUse">
<stop stop-color="#9F7DB9"/>
<stop offset="1" stop-color="#6D54A3"/>
</linearGradient>
<linearGradient id="paint10_linear" x1="670.289" y1="252.31" x2="751.757" y2="252.31" gradientUnits="userSpaceOnUse">
<stop stop-color="#9F7DB9"/>
<stop offset="1" stop-color="#6D54A3"/>
</linearGradient>
<linearGradient id="paint11_linear" x1="773.836" y1="252.424" x2="855.589" y2="252.424" gradientUnits="userSpaceOnUse">
<stop stop-color="#9F7DB9"/>
<stop offset="1" stop-color="#6D54A3"/>
</linearGradient>
<linearGradient id="paint12_linear" x1="614.978" y1="265.879" x2="696.73" y2="265.879" gradientUnits="userSpaceOnUse">
<stop stop-color="#9F7DB9"/>
<stop offset="1" stop-color="#6D54A3"/>
</linearGradient>
<linearGradient id="paint13_linear" x1="718.536" y1="265.976" x2="800.289" y2="265.976" gradientUnits="userSpaceOnUse">
<stop stop-color="#9F7DB9"/>
<stop offset="1" stop-color="#6D54A3"/>
</linearGradient>
<linearGradient id="paint14_linear" x1="61.0792" y1="261.695" x2="61.0792" y2="231.827" gradientUnits="userSpaceOnUse">
<stop stop-color="#2F76BC"/>
<stop offset="0.82" stop-color="#6A9DD3"/>
</linearGradient>
<linearGradient id="paint15_linear" x1="61.0792" y1="273.22" x2="61.0792" y2="261.696" gradientUnits="userSpaceOnUse">
<stop offset="0.15" stop-color="#CCCCCC"/>
<stop offset="1" stop-color="#717171"/>
</linearGradient>
</defs>
</svg>
