<svg width="704" height="261" viewBox="0 0 704 261" fill="none" xmlns="http://www.w3.org/2000/svg">
<path d="M162.84 82.0302C162.12 82.4102 161.21 82.6002 160.13 82.6002C158.74 82.6002 157.62 82.1502 156.78 81.2502C155.94 80.3502 155.52 79.1702 155.52 77.7202C155.52 76.1502 155.99 74.8902 156.94 73.9202C157.88 72.9502 159.08 72.4702 160.53 72.4702C161.46 72.4702 162.23 72.6002 162.84 72.8702V74.0902C162.14 73.7002 161.36 73.5002 160.52 73.5002C159.39 73.5002 158.48 73.8802 157.78 74.6302C157.08 75.3802 156.73 76.3902 156.73 77.6402C156.73 78.8302 157.06 79.7902 157.71 80.4902C158.36 81.2002 159.22 81.5502 160.28 81.5502C161.26 81.5502 162.12 81.3302 162.84 80.8902V82.0302Z" fill="#535353"/>
<path d="M167.61 82.6003C166.58 82.6003 165.75 82.2703 165.13 81.6203C164.51 80.9703 164.2 80.1003 164.2 79.0203C164.2 77.8403 164.52 76.9303 165.16 76.2703C165.8 75.6103 166.67 75.2803 167.76 75.2803C168.8 75.2803 169.62 75.6003 170.2 76.2403C170.78 76.8803 171.08 77.7703 171.08 78.9103C171.08 80.0303 170.76 80.9203 170.13 81.5903C169.52 82.2703 168.67 82.6003 167.61 82.6003ZM167.69 76.2203C166.97 76.2203 166.4 76.4703 165.98 76.9503C165.56 77.4403 165.35 78.1203 165.35 78.9803C165.35 79.8103 165.56 80.4603 165.99 80.9403C166.42 81.4203 166.98 81.6603 167.69 81.6603C168.41 81.6603 168.97 81.4203 169.36 80.9603C169.75 80.4903 169.94 79.8203 169.94 78.9603C169.94 78.0803 169.75 77.4103 169.36 76.9403C168.97 76.4503 168.41 76.2203 167.69 76.2203Z" fill="#535353"/>
<path d="M178.69 82.4403H177.57V78.4503C177.57 76.9603 177.03 76.2203 175.94 76.2203C175.38 76.2203 174.92 76.4303 174.55 76.8503C174.18 77.2703 174 77.8003 174 78.4503V82.4403H172.88V75.4403H174V76.6003H174.03C174.56 75.7203 175.32 75.2703 176.33 75.2703C177.1 75.2703 177.68 75.5203 178.09 76.0103C178.5 76.5103 178.7 77.2203 178.7 78.1503V82.4403H178.69Z" fill="#535353"/>
<path d="M184.05 82.3701C183.79 82.5201 183.44 82.5901 183 82.5901C181.77 82.5901 181.16 81.9101 181.16 80.5401V76.4001H179.96V75.4401H181.16V73.7301L182.28 73.3701V75.4401H184.04V76.4001H182.28V80.3401C182.28 80.8101 182.36 81.1401 182.52 81.3401C182.68 81.5401 182.94 81.6401 183.31 81.6401C183.59 81.6401 183.84 81.5601 184.04 81.4101V82.3701H184.05Z" fill="#535353"/>
<path d="M190.56 82.4403H189.44V81.3503H189.41C188.92 82.1903 188.2 82.6103 187.26 82.6103C186.56 82.6103 186.02 82.4303 185.62 82.0603C185.22 81.6903 185.03 81.2003 185.03 80.5903C185.03 79.2803 185.8 78.5203 187.34 78.3103L189.44 78.0203C189.44 76.8303 188.96 76.2403 188 76.2403C187.16 76.2403 186.4 76.5303 185.72 77.1003V75.9503C186.41 75.5103 187.2 75.2903 188.1 75.2903C189.75 75.2903 190.57 76.1603 190.57 77.9003V82.4403H190.56ZM189.44 78.9003L187.75 79.1303C187.23 79.2003 186.84 79.3303 186.57 79.5203C186.31 79.7003 186.17 80.0303 186.17 80.5003C186.17 80.8403 186.29 81.1203 186.54 81.3403C186.78 81.5603 187.11 81.6703 187.51 81.6703C188.07 81.6703 188.53 81.4703 188.89 81.0903C189.25 80.7103 189.43 80.2103 189.43 79.6103V78.9003H189.44Z" fill="#535353"/>
<path d="M193.25 73.6602C193.05 73.6602 192.88 73.5902 192.74 73.4502C192.6 73.3102 192.53 73.1402 192.53 72.9302C192.53 72.7202 192.6 72.5502 192.74 72.4102C192.88 72.2702 193.05 72.2002 193.25 72.2002C193.46 72.2002 193.63 72.2702 193.77 72.4102C193.91 72.5502 193.99 72.7202 193.99 72.9302C193.99 73.1302 193.92 73.3002 193.77 73.4402C193.63 73.5902 193.45 73.6602 193.25 73.6602ZM193.8 82.4402H192.68V75.4402H193.8V82.4402Z" fill="#535353"/>
<path d="M201.88 82.4403H200.76V78.4503C200.76 76.9603 200.22 76.2203 199.13 76.2203C198.57 76.2203 198.11 76.4303 197.74 76.8503C197.37 77.2703 197.19 77.8003 197.19 78.4503V82.4403H196.07V75.4403H197.19V76.6003H197.22C197.75 75.7203 198.51 75.2703 199.52 75.2703C200.29 75.2703 200.87 75.5203 201.28 76.0103C201.69 76.5103 201.89 77.2203 201.89 78.1503V82.4403H201.88Z" fill="#535353"/>
<path d="M209.61 79.2203H204.67C204.69 80.0003 204.9 80.6003 205.3 81.0203C205.7 81.4403 206.25 81.6603 206.95 81.6603C207.74 81.6603 208.46 81.4003 209.12 80.8803V81.9303C208.5 82.3803 207.69 82.6003 206.68 82.6003C205.69 82.6003 204.91 82.2803 204.35 81.6503C203.78 81.0103 203.5 80.1203 203.5 78.9703C203.5 77.8803 203.81 76.9903 204.43 76.3103C205.05 75.6203 205.81 75.2803 206.73 75.2803C207.65 75.2803 208.35 75.5803 208.86 76.1703C209.36 76.7603 209.61 77.5903 209.61 78.6403V79.2203ZM208.47 78.2703C208.47 77.6203 208.31 77.1203 208 76.7603C207.69 76.4003 207.27 76.2203 206.72 76.2203C206.19 76.2203 205.74 76.4103 205.37 76.7903C205 77.1703 204.77 77.6603 204.69 78.2703H208.47Z" fill="#535353"/>
<path d="M214.96 76.5703C214.76 76.4203 214.48 76.3403 214.11 76.3403C213.63 76.3403 213.23 76.5703 212.91 77.0203C212.59 77.4703 212.43 78.0903 212.43 78.8703V82.4403H211.31V75.4403H212.43V76.8803H212.46C212.62 76.3903 212.86 76.0003 213.19 75.7303C213.52 75.4503 213.88 75.3203 214.29 75.3203C214.58 75.3203 214.8 75.3503 214.96 75.4203V76.5703Z" fill="#535353"/>
<path d="M227.19 82.4401H225.82L224.18 79.6901C224.03 79.4301 223.88 79.2201 223.74 79.0401C223.6 78.8601 223.45 78.7101 223.31 78.6001C223.16 78.4901 223 78.4001 222.83 78.3501C222.66 78.3001 222.47 78.2701 222.25 78.2701H221.31V82.4401H220.16V72.6401H223.09C223.52 72.6401 223.91 72.6901 224.28 72.8001C224.64 72.9101 224.96 73.0701 225.22 73.2901C225.48 73.5101 225.7 73.7801 225.85 74.1101C226 74.4401 226.08 74.8201 226.08 75.2601C226.08 75.6001 226.03 75.9201 225.93 76.2001C225.83 76.4901 225.68 76.7401 225.49 76.9601C225.3 77.1801 225.07 77.3701 224.81 77.5301C224.55 77.6901 224.24 77.8101 223.91 77.9001V77.9301C224.07 78.0001 224.22 78.0901 224.34 78.1801C224.46 78.2701 224.58 78.3801 224.69 78.5101C224.8 78.6401 224.91 78.7801 225.01 78.9401C225.12 79.1001 225.24 79.2901 225.37 79.5001L227.19 82.4401ZM221.31 73.6701V77.2201H222.87C223.16 77.2201 223.42 77.1801 223.67 77.0901C223.91 77.0001 224.12 76.8801 224.3 76.7201C224.48 76.5601 224.62 76.3601 224.72 76.1301C224.82 75.9001 224.87 75.6301 224.87 75.3401C224.87 74.8201 224.7 74.4101 224.36 74.1101C224.02 73.8101 223.53 73.6701 222.89 73.6701H221.31Z" fill="#535353"/>
<path d="M233.6 79.2203H228.66C228.68 80.0003 228.89 80.6003 229.29 81.0203C229.69 81.4403 230.24 81.6603 230.94 81.6603C231.73 81.6603 232.45 81.4003 233.11 80.8803V81.9303C232.49 82.3803 231.68 82.6003 230.67 82.6003C229.68 82.6003 228.9 82.2803 228.34 81.6503C227.77 81.0103 227.49 80.1203 227.49 78.9703C227.49 77.8803 227.8 76.9903 228.42 76.3103C229.04 75.6203 229.8 75.2803 230.72 75.2803C231.64 75.2803 232.34 75.5803 232.85 76.1703C233.35 76.7603 233.6 77.5903 233.6 78.6403V79.2203ZM232.45 78.2703C232.45 77.6203 232.29 77.1203 231.98 76.7603C231.67 76.4003 231.25 76.2203 230.7 76.2203C230.17 76.2203 229.72 76.4103 229.35 76.7903C228.98 77.1703 228.75 77.6603 228.67 78.2703H232.45Z" fill="#535353"/>
<path d="M241.27 81.8803C241.27 84.4503 240.04 85.7403 237.58 85.7403C236.71 85.7403 235.96 85.5803 235.31 85.2503V84.1303C236.1 84.5703 236.85 84.7903 237.57 84.7903C239.29 84.7903 240.15 83.8703 240.15 82.0403V81.2703H240.12C239.59 82.1603 238.78 82.6103 237.71 82.6103C236.84 82.6103 236.14 82.3003 235.61 81.6803C235.08 81.0603 234.81 80.2203 234.81 79.1803C234.81 77.9903 235.1 77.0403 235.67 76.3403C236.24 75.6403 237.02 75.2903 238.02 75.2903C238.96 75.2903 239.66 75.6703 240.12 76.4203H240.15V75.4503H241.27V81.8803ZM240.15 79.2703V78.2403C240.15 77.6803 239.96 77.2103 239.59 76.8103C239.22 76.4103 238.75 76.2203 238.19 76.2203C237.5 76.2203 236.95 76.4703 236.56 76.9703C236.17 77.4703 235.97 78.1803 235.97 79.0903C235.97 79.8703 236.16 80.4903 236.53 80.9603C236.91 81.4303 237.4 81.6603 238.02 81.6603C238.65 81.6603 239.16 81.4403 239.55 80.9903C239.95 80.5403 240.15 79.9703 240.15 79.2703Z" fill="#535353"/>
<path d="M244.11 73.6602C243.91 73.6602 243.74 73.5902 243.6 73.4502C243.46 73.3102 243.39 73.1402 243.39 72.9302C243.39 72.7202 243.46 72.5502 243.6 72.4102C243.74 72.2702 243.91 72.2002 244.11 72.2002C244.32 72.2002 244.49 72.2702 244.63 72.4102C244.77 72.5502 244.85 72.7202 244.85 72.9302C244.85 73.1302 244.78 73.3002 244.63 73.4402C244.49 73.5902 244.32 73.6602 244.11 73.6602ZM244.66 82.4402H243.54V75.4402H244.66V82.4402Z" fill="#535353"/>
<path d="M246.51 82.1903V80.9903C247.12 81.4403 247.79 81.6703 248.53 81.6703C249.51 81.6703 250.01 81.3403 250.01 80.6903C250.01 80.5003 249.97 80.3403 249.88 80.2103C249.79 80.0803 249.68 79.9603 249.54 79.8703C249.4 79.7703 249.23 79.6803 249.03 79.6003C248.84 79.5203 248.63 79.4403 248.4 79.3503C248.09 79.2303 247.82 79.1003 247.58 78.9803C247.35 78.8503 247.15 78.7103 246.99 78.5603C246.83 78.4103 246.71 78.2203 246.63 78.0203C246.55 77.8203 246.51 77.5803 246.51 77.3203C246.51 76.9903 246.59 76.7003 246.74 76.4503C246.89 76.2003 247.09 75.9903 247.34 75.8103C247.59 75.6403 247.88 75.5103 248.2 75.4203C248.52 75.3303 248.85 75.2903 249.19 75.2903C249.8 75.2903 250.34 75.3903 250.82 75.6003V76.7303C250.3 76.3903 249.71 76.2203 249.04 76.2203C248.83 76.2203 248.64 76.2403 248.47 76.2903C248.3 76.3403 248.16 76.4103 248.04 76.4903C247.92 76.5803 247.83 76.6803 247.76 76.8003C247.69 76.9203 247.66 77.0503 247.66 77.2003C247.66 77.3803 247.69 77.5303 247.76 77.6603C247.83 77.7903 247.92 77.8903 248.05 77.9903C248.18 78.0903 248.33 78.1703 248.51 78.2503C248.69 78.3303 248.9 78.4103 249.13 78.5003C249.44 78.6203 249.72 78.7403 249.96 78.8703C250.21 79.0003 250.42 79.1403 250.59 79.2903C250.76 79.4503 250.9 79.6303 250.99 79.8303C251.08 80.0303 251.13 80.2803 251.13 80.5603C251.13 80.9103 251.05 81.2103 250.9 81.4603C250.75 81.7103 250.54 81.9303 250.29 82.1003C250.03 82.2703 249.74 82.3903 249.41 82.4803C249.08 82.5603 248.73 82.6003 248.36 82.6003C247.66 82.6003 247.04 82.4603 246.51 82.1903Z" fill="#535353"/>
<path d="M256.12 82.3701C255.86 82.5201 255.51 82.5901 255.07 82.5901C253.84 82.5901 253.23 81.9101 253.23 80.5401V76.4001H252.03V75.4401H253.23V73.7301L254.35 73.3701V75.4401H256.11V76.4001H254.35V80.3401C254.35 80.8101 254.43 81.1401 254.59 81.3401C254.75 81.5401 255.01 81.6401 255.38 81.6401C255.66 81.6401 255.91 81.5601 256.11 81.4101V82.3701H256.12Z" fill="#535353"/>
<path d="M261.27 76.5703C261.07 76.4203 260.79 76.3403 260.42 76.3403C259.94 76.3403 259.54 76.5703 259.22 77.0203C258.9 77.4703 258.74 78.0903 258.74 78.8703V82.4403H257.62V75.4403H258.74V76.8803H258.77C258.93 76.3903 259.17 76.0003 259.5 75.7303C259.83 75.4503 260.19 75.3203 260.6 75.3203C260.89 75.3203 261.11 75.3503 261.27 75.4203V76.5703Z" fill="#535353"/>
<path d="M268.05 75.4402L264.83 83.5602C264.26 85.0102 263.45 85.7302 262.41 85.7302C262.12 85.7302 261.87 85.7002 261.68 85.6402V84.6402C261.92 84.7202 262.14 84.7602 262.34 84.7602C262.9 84.7602 263.33 84.4202 263.61 83.7502L264.17 82.4202L261.44 75.4302H262.68L264.57 80.8202C264.59 80.8902 264.64 81.0702 264.71 81.3502H264.75C264.77 81.2402 264.82 81.0702 264.89 80.8302L266.88 75.4302H268.05V75.4402Z" fill="#535353"/>
<path d="M0 82.4401V72.6401H2.71C6.16 72.6401 7.89 74.2301 7.89 77.4201C7.89 78.9301 7.41 80.1501 6.45 81.0701C5.49 81.9901 4.21 82.4501 2.6 82.4501H0V82.4401ZM1.15 73.6701V81.3901H2.61C3.9 81.3901 4.9 81.0501 5.61 80.3601C6.33 79.6701 6.68 78.7001 6.68 77.4301C6.68 74.9201 5.34 73.6601 2.67 73.6601H1.15V73.6701Z" fill="#535353"/>
<path d="M14.6799 82.4403H13.5599V81.3503H13.5299C13.0399 82.1903 12.3199 82.6103 11.3799 82.6103C10.6799 82.6103 10.1399 82.4303 9.7399 82.0603C9.3499 81.6903 9.1499 81.2003 9.1499 80.5903C9.1499 79.2803 9.9199 78.5203 11.4599 78.3103L13.5599 78.0203C13.5599 76.8303 13.0799 76.2403 12.1199 76.2403C11.2799 76.2403 10.5199 76.5303 9.8399 77.1003V75.9503C10.5299 75.5103 11.3199 75.2903 12.2199 75.2903C13.8699 75.2903 14.6899 76.1603 14.6899 77.9003V82.4403H14.6799ZM13.5599 78.9003L11.8699 79.1303C11.3499 79.2003 10.9599 79.3303 10.6899 79.5203C10.4199 79.7103 10.2899 80.0303 10.2899 80.5003C10.2899 80.8403 10.4099 81.1203 10.6599 81.3403C10.8999 81.5603 11.2299 81.6703 11.6299 81.6703C12.1899 81.6703 12.6499 81.4703 13.0099 81.0903C13.3699 80.7103 13.5499 80.2103 13.5499 79.6103V78.9003H13.5599Z" fill="#535353"/>
<path d="M20.04 82.3701C19.78 82.5201 19.43 82.5901 18.99 82.5901C17.76 82.5901 17.15 81.9101 17.15 80.5401V76.4001H15.95V75.4401H17.15V73.7301L18.27 73.3701V75.4401H20.03V76.4001H18.27V80.3401C18.27 80.8101 18.35 81.1401 18.51 81.3401C18.67 81.5401 18.93 81.6401 19.3 81.6401C19.58 81.6401 19.83 81.5601 20.03 81.4101V82.3701H20.04Z" fill="#535353"/>
<path d="M26.54 82.4403H25.42V81.3503H25.4C24.91 82.1903 24.19 82.6103 23.25 82.6103C22.55 82.6103 22.01 82.4303 21.61 82.0603C21.22 81.6903 21.02 81.2003 21.02 80.5903C21.02 79.2803 21.79 78.5203 23.33 78.3103L25.43 78.0203C25.43 76.8303 24.95 76.2403 23.99 76.2403C23.15 76.2403 22.39 76.5303 21.71 77.1003V75.9503C22.4 75.5103 23.19 75.2903 24.09 75.2903C25.74 75.2903 26.56 76.1603 26.56 77.9003V82.4403H26.54ZM25.42 78.9003L23.73 79.1303C23.21 79.2003 22.82 79.3303 22.55 79.5203C22.28 79.7103 22.15 80.0303 22.15 80.5003C22.15 80.8403 22.27 81.1203 22.52 81.3403C22.76 81.5603 23.09 81.6703 23.49 81.6703C24.05 81.6703 24.51 81.4703 24.87 81.0903C25.23 80.7103 25.41 80.2103 25.41 79.6103V78.9003H25.42Z" fill="#535353"/>
<path d="M32.0701 82.1903V80.9903C32.6801 81.4403 33.3501 81.6703 34.0901 81.6703C35.0701 81.6703 35.5701 81.3403 35.5701 80.6903C35.5701 80.5003 35.5301 80.3403 35.4401 80.2103C35.3601 80.0803 35.2401 79.9603 35.1001 79.8703C34.9601 79.7703 34.7901 79.6803 34.5901 79.6003C34.4001 79.5203 34.1901 79.4403 33.9601 79.3503C33.6501 79.2303 33.3801 79.1003 33.1401 78.9803C32.9101 78.8503 32.7101 78.7103 32.5501 78.5603C32.3901 78.4103 32.2801 78.2003 32.2001 78.0003C32.1201 77.8003 32.0801 77.5603 32.0801 77.3003C32.0801 76.9703 32.1601 76.6803 32.3101 76.4303C32.4601 76.1803 32.6601 75.9703 32.9101 75.7903C33.1601 75.6103 33.4501 75.4903 33.7701 75.4003C34.0901 75.3103 34.4201 75.2703 34.7601 75.2703C35.3701 75.2703 35.9101 75.3703 36.3901 75.5803V76.7103C35.8701 76.3703 35.2801 76.2003 34.6101 76.2003C34.4001 76.2003 34.2101 76.2203 34.0401 76.2703C33.8701 76.3203 33.7301 76.3903 33.6101 76.4703C33.4901 76.5603 33.4001 76.6603 33.3301 76.7803C33.2601 76.9003 33.2301 77.0303 33.2301 77.1803C33.2301 77.3603 33.2601 77.5103 33.3301 77.6403C33.4001 77.7603 33.4901 77.8703 33.6201 77.9703C33.7501 78.0703 33.9001 78.1503 34.0801 78.2303C34.2601 78.3103 34.4701 78.3903 34.7001 78.4803C35.0101 78.6003 35.2901 78.7203 35.5301 78.8503C35.7801 78.9803 35.9901 79.1203 36.1601 79.2703C36.3301 79.4203 36.4701 79.6103 36.5601 79.8103C36.6501 80.0203 36.7001 80.2603 36.7001 80.5403C36.7001 80.8903 36.6201 81.1903 36.4701 81.4403C36.3201 81.6903 36.1101 81.9103 35.8601 82.0803C35.6001 82.2503 35.3101 82.3703 34.9801 82.4603C34.6501 82.5503 34.3001 82.5803 33.9301 82.5803C33.2201 82.6003 32.6001 82.4603 32.0701 82.1903Z" fill="#535353"/>
<path d="M43.2 82.1203C42.66 82.4403 42.02 82.6103 41.29 82.6103C40.29 82.6103 39.4899 82.2803 38.8699 81.6403C38.2599 80.9903 37.95 80.1503 37.95 79.1103C37.95 77.9603 38.2799 77.0303 38.9399 76.3303C39.5999 75.6303 40.48 75.2803 41.59 75.2803C42.21 75.2803 42.75 75.3903 43.22 75.6203V76.7703C42.7 76.4003 42.1399 76.2203 41.5499 76.2203C40.8299 76.2203 40.25 76.4803 39.79 76.9903C39.33 77.5003 39.0999 78.1803 39.0999 79.0103C39.0999 79.8303 39.32 80.4803 39.75 80.9503C40.18 81.4203 40.7599 81.6603 41.4799 81.6603C42.09 81.6603 42.67 81.4603 43.2 81.0503V82.1203Z" fill="#535353"/>
<path d="M45.47 73.6602C45.27 73.6602 45.1 73.5902 44.96 73.4502C44.82 73.3102 44.75 73.1402 44.75 72.9302C44.75 72.7202 44.82 72.5502 44.96 72.4102C45.1 72.2702 45.27 72.2002 45.47 72.2002C45.68 72.2002 45.85 72.2702 45.99 72.4102C46.13 72.5502 46.21 72.7202 46.21 72.9302C46.21 73.1302 46.14 73.3002 45.99 73.4402C45.85 73.5902 45.68 73.6602 45.47 73.6602ZM46.02 82.4402H44.9V75.4402H46.02V82.4402Z" fill="#535353"/>
<path d="M53.9201 79.2203H48.9801C49.0001 80.0003 49.2101 80.6003 49.6101 81.0203C50.0101 81.4403 50.5601 81.6603 51.2601 81.6603C52.0501 81.6603 52.7701 81.4003 53.4301 80.8803V81.9303C52.8101 82.3803 52.0001 82.6003 50.9901 82.6003C50.0001 82.6003 49.2201 82.2803 48.6601 81.6503C48.1001 81.0203 47.8101 80.1203 47.8101 78.9703C47.8101 77.8803 48.1201 76.9903 48.7401 76.3103C49.3601 75.6203 50.1201 75.2803 51.0401 75.2803C51.9601 75.2803 52.6601 75.5803 53.1701 76.1703C53.6701 76.7603 53.9201 77.5903 53.9201 78.6403V79.2203ZM52.7701 78.2703C52.7701 77.6203 52.6101 77.1203 52.3001 76.7603C51.9901 76.4003 51.5701 76.2203 51.0201 76.2203C50.4901 76.2203 50.0401 76.4103 49.6701 76.7903C49.3001 77.1703 49.0701 77.6603 48.9901 78.2703H52.7701Z" fill="#535353"/>
<path d="M61.4201 82.4403H60.3001V78.4503C60.3001 76.9603 59.7601 76.2203 58.6701 76.2203C58.1101 76.2203 57.6501 76.4303 57.2801 76.8503C56.9101 77.2703 56.7301 77.8003 56.7301 78.4503V82.4403H55.6101V75.4403H56.7301V76.6003H56.7601C57.2901 75.7203 58.0501 75.2703 59.0601 75.2703C59.8301 75.2703 60.4101 75.5203 60.8201 76.0103C61.2301 76.5103 61.4301 77.2203 61.4301 78.1503V82.4403H61.4201Z" fill="#535353"/>
<path d="M66.7799 82.3701C66.5199 82.5201 66.1699 82.5901 65.7299 82.5901C64.4999 82.5901 63.8899 81.9101 63.8899 80.5401V76.4001H62.6899V75.4401H63.8899V73.7301L65.0099 73.3701V75.4401H66.7699V76.4001H65.0099V80.3401C65.0099 80.8101 65.0899 81.1401 65.2499 81.3401C65.4099 81.5401 65.6699 81.6401 66.0399 81.6401C66.3199 81.6401 66.5699 81.5601 66.7699 81.4101V82.3701H66.7799Z" fill="#535353"/>
<path d="M68.8499 73.6602C68.6499 73.6602 68.4799 73.5902 68.3399 73.4502C68.1999 73.3102 68.1299 73.1402 68.1299 72.9302C68.1299 72.7202 68.1999 72.5502 68.3399 72.4102C68.4799 72.2702 68.6499 72.2002 68.8499 72.2002C69.0599 72.2002 69.2299 72.2702 69.3699 72.4102C69.5099 72.5502 69.5899 72.7202 69.5899 72.9302C69.5899 73.1302 69.5199 73.3002 69.3699 73.4402C69.2299 73.5902 69.0599 73.6602 68.8499 73.6602ZM69.3999 82.4402H68.2799V75.4402H69.3999V82.4402Z" fill="#535353"/>
<path d="M71.24 82.1903V80.9903C71.85 81.4403 72.52 81.6703 73.26 81.6703C74.24 81.6703 74.74 81.3403 74.74 80.6903C74.74 80.5003 74.7 80.3403 74.61 80.2103C74.53 80.0803 74.41 79.9603 74.27 79.8703C74.13 79.7703 73.96 79.6803 73.76 79.6003C73.57 79.5203 73.36 79.4403 73.13 79.3503C72.82 79.2303 72.55 79.1003 72.31 78.9803C72.08 78.8503 71.88 78.7103 71.72 78.5603C71.56 78.4103 71.46 78.2003 71.38 78.0003C71.3 77.8003 71.26 77.5603 71.26 77.3003C71.26 76.9703 71.34 76.6803 71.49 76.4303C71.64 76.1803 71.84 75.9703 72.09 75.7903C72.34 75.6103 72.63 75.4903 72.95 75.4003C73.27 75.3103 73.6 75.2703 73.94 75.2703C74.55 75.2703 75.09 75.3703 75.57 75.5803V76.7103C75.05 76.3703 74.46 76.2003 73.79 76.2003C73.58 76.2003 73.39 76.2203 73.22 76.2703C73.05 76.3203 72.91 76.3903 72.79 76.4703C72.67 76.5603 72.58 76.6603 72.51 76.7803C72.44 76.9003 72.41 77.0303 72.41 77.1803C72.41 77.3603 72.44 77.5103 72.51 77.6403C72.58 77.7603 72.67 77.8703 72.8 77.9703C72.93 78.0703 73.08 78.1503 73.26 78.2303C73.44 78.3103 73.65 78.3903 73.88 78.4803C74.19 78.6003 74.47 78.7203 74.71 78.8503C74.96 78.9803 75.17 79.1203 75.34 79.2703C75.51 79.4203 75.65 79.6103 75.74 79.8103C75.83 80.0203 75.88 80.2603 75.88 80.5403C75.88 80.8903 75.8 81.1903 75.65 81.4403C75.5 81.6903 75.29 81.9103 75.04 82.0803C74.78 82.2503 74.49 82.3703 74.16 82.4603C73.83 82.5503 73.48 82.5803 73.11 82.5803C72.4 82.6003 71.77 82.4603 71.24 82.1903Z" fill="#535353"/>
<path d="M80.86 82.3701C80.6 82.5201 80.25 82.5901 79.81 82.5901C78.58 82.5901 77.97 81.9101 77.97 80.5401V76.4001H76.77V75.4401H77.97V73.7301L79.09 73.3701V75.4401H80.85V76.4001H79.09V80.3401C79.09 80.8101 79.17 81.1401 79.33 81.3401C79.49 81.5401 79.75 81.6401 80.12 81.6401C80.4 81.6401 80.65 81.5601 80.85 81.4101V82.3701H80.86Z" fill="#535353"/>
<path d="M342.62 254.91V245.11H345.41C346.26 245.11 346.93 245.32 347.43 245.73C347.93 246.14 348.18 246.68 348.18 247.35C348.18 247.91 348.03 248.39 347.73 248.8C347.43 249.21 347.01 249.5 346.49 249.68V249.71C347.15 249.79 347.68 250.04 348.08 250.46C348.48 250.88 348.67 251.43 348.67 252.1C348.67 252.94 348.37 253.62 347.77 254.14C347.17 254.66 346.41 254.92 345.49 254.92H342.62V254.91ZM343.77 246.15V249.32H344.95C345.58 249.32 346.07 249.17 346.43 248.86C346.79 248.56 346.97 248.13 346.97 247.58C346.97 246.63 346.34 246.15 345.09 246.15H343.77ZM343.77 250.34V253.87H345.33C346 253.87 346.53 253.71 346.9 253.39C347.27 253.07 347.46 252.63 347.46 252.08C347.46 250.92 346.67 250.34 345.09 250.34H343.77Z" fill="#535353"/>
<path d="M351.62 254.91H350.5V244.55H351.62V254.91Z" fill="#535353"/>
<path d="M356.81 255.07C355.77 255.07 354.95 254.74 354.33 254.09C353.71 253.44 353.4 252.57 353.4 251.49C353.4 250.31 353.72 249.4 354.36 248.74C355 248.08 355.87 247.75 356.96 247.75C358 247.75 358.82 248.07 359.4 248.71C359.99 249.35 360.28 250.24 360.28 251.38C360.28 252.5 359.96 253.39 359.33 254.06C358.72 254.74 357.87 255.07 356.81 255.07ZM356.89 248.69C356.17 248.69 355.6 248.94 355.18 249.42C354.76 249.91 354.55 250.59 354.55 251.45C354.55 252.28 354.76 252.93 355.19 253.41C355.62 253.89 356.18 254.13 356.89 254.13C357.61 254.13 358.17 253.89 358.56 253.43C358.95 252.96 359.14 252.29 359.14 251.43C359.14 250.55 358.94 249.88 358.56 249.41C358.18 248.92 357.62 248.69 356.89 248.69Z" fill="#535353"/>
<path d="M363.24 253.9H363.21V254.91H362.09V244.55H363.21V249.14H363.24C363.79 248.21 364.6 247.75 365.66 247.75C366.56 247.75 367.26 248.06 367.77 248.69C368.28 249.32 368.53 250.16 368.53 251.21C368.53 252.38 368.24 253.32 367.68 254.02C367.12 254.72 366.33 255.08 365.34 255.08C364.41 255.07 363.71 254.68 363.24 253.9ZM363.21 251.07V252.05C363.21 252.63 363.4 253.12 363.77 253.52C364.15 253.92 364.62 254.13 365.2 254.13C365.88 254.13 366.41 253.87 366.8 253.35C367.19 252.83 367.38 252.11 367.38 251.18C367.38 250.4 367.2 249.79 366.84 249.35C366.48 248.91 365.99 248.69 365.38 248.69C364.73 248.69 364.2 248.92 363.81 249.37C363.41 249.82 363.21 250.39 363.21 251.07Z" fill="#535353"/>
<path d="M373.85 254.51V253.16C374 253.3 374.19 253.42 374.41 253.53C374.63 253.64 374.86 253.73 375.09 253.81C375.33 253.89 375.57 253.94 375.81 253.98C376.05 254.02 376.27 254.04 376.48 254.04C377.19 254.04 377.71 253.91 378.06 253.65C378.41 253.39 378.58 253.01 378.58 252.52C378.58 252.26 378.52 252.02 378.41 251.83C378.29 251.63 378.13 251.45 377.93 251.29C377.72 251.13 377.48 250.97 377.2 250.83C376.92 250.68 376.62 250.53 376.29 250.36C375.95 250.19 375.63 250.01 375.33 249.83C375.03 249.65 374.78 249.46 374.56 249.24C374.34 249.03 374.17 248.78 374.04 248.51C373.91 248.24 373.85 247.92 373.85 247.56C373.85 247.11 373.95 246.73 374.14 246.39C374.34 246.06 374.59 245.79 374.91 245.57C375.23 245.36 375.59 245.2 376 245.09C376.41 244.98 376.82 244.93 377.25 244.93C378.22 244.93 378.92 245.05 379.36 245.28V246.57C378.78 246.17 378.04 245.97 377.13 245.97C376.88 245.97 376.63 246 376.38 246.05C376.13 246.1 375.91 246.19 375.71 246.31C375.51 246.43 375.35 246.58 375.23 246.77C375.11 246.96 375.05 247.18 375.05 247.45C375.05 247.7 375.1 247.92 375.19 248.1C375.28 248.28 375.42 248.45 375.6 248.6C375.78 248.75 376 248.9 376.27 249.04C376.53 249.18 376.83 249.34 377.18 249.5C377.53 249.67 377.86 249.86 378.18 250.05C378.5 250.24 378.77 250.45 379.01 250.69C379.25 250.92 379.43 251.18 379.57 251.46C379.71 251.74 379.78 252.07 379.78 252.43C379.78 252.91 379.69 253.32 379.5 253.66C379.31 253.99 379.06 254.27 378.73 254.48C378.41 254.69 378.04 254.84 377.62 254.93C377.2 255.02 376.76 255.07 376.29 255.07C376.13 255.07 375.94 255.06 375.72 255.03C375.49 255.01 375.26 254.97 375.02 254.92C374.78 254.87 374.56 254.81 374.35 254.74C374.14 254.68 373.97 254.6 373.85 254.51Z" fill="#535353"/>
<path d="M384.39 254.84C384.13 254.99 383.78 255.06 383.34 255.06C382.11 255.06 381.5 254.38 381.5 253.01V248.87H380.3V247.91H381.5V246.2L382.62 245.84V247.91H384.38V248.87H382.62V252.81C382.62 253.28 382.7 253.61 382.86 253.81C383.02 254.01 383.28 254.11 383.65 254.11C383.93 254.11 384.18 254.03 384.38 253.88V254.84H384.39Z" fill="#535353"/>
<path d="M388.81 255.07C387.78 255.07 386.95 254.74 386.33 254.09C385.71 253.44 385.4 252.57 385.4 251.49C385.4 250.31 385.72 249.4 386.36 248.74C387 248.08 387.87 247.75 388.96 247.75C390 247.75 390.82 248.07 391.4 248.71C391.98 249.35 392.28 250.24 392.28 251.38C392.28 252.5 391.96 253.39 391.33 254.06C390.72 254.74 389.87 255.07 388.81 255.07ZM388.89 248.69C388.17 248.69 387.6 248.94 387.18 249.42C386.76 249.91 386.55 250.59 386.55 251.45C386.55 252.28 386.76 252.93 387.19 253.41C387.62 253.89 388.18 254.13 388.89 254.13C389.61 254.13 390.17 253.89 390.56 253.43C390.95 252.96 391.14 252.29 391.14 251.43C391.14 250.55 390.95 249.88 390.56 249.41C390.18 248.92 389.62 248.69 388.89 248.69Z" fill="#535353"/>
<path d="M397.74 249.04C397.54 248.89 397.26 248.81 396.89 248.81C396.41 248.81 396.01 249.04 395.69 249.49C395.37 249.94 395.21 250.56 395.21 251.34V254.91H394.09V247.91H395.21V249.35H395.24C395.4 248.86 395.64 248.47 395.97 248.2C396.3 247.92 396.67 247.79 397.07 247.79C397.36 247.79 397.58 247.82 397.74 247.89V249.04Z" fill="#535353"/>
<path d="M403.97 254.91H402.85V253.82H402.82C402.33 254.66 401.61 255.08 400.67 255.08C399.97 255.08 399.43 254.9 399.03 254.53C398.64 254.16 398.44 253.67 398.44 253.06C398.44 251.75 399.21 250.99 400.75 250.78L402.85 250.49C402.85 249.3 402.37 248.71 401.41 248.71C400.57 248.71 399.81 249 399.13 249.57V248.42C399.82 247.98 400.61 247.76 401.51 247.76C403.16 247.76 403.98 248.63 403.98 250.37V254.91H403.97ZM402.85 251.37L401.16 251.6C400.64 251.67 400.25 251.8 399.98 251.99C399.71 252.18 399.58 252.5 399.58 252.97C399.58 253.31 399.7 253.59 399.95 253.81C400.19 254.03 400.52 254.14 400.92 254.14C401.48 254.14 401.93 253.94 402.3 253.56C402.66 253.17 402.84 252.68 402.84 252.08V251.37H402.85Z" fill="#535353"/>
<path d="M412.05 254.35C412.05 256.92 410.82 258.21 408.36 258.21C407.49 258.21 406.74 258.05 406.09 257.72V256.6C406.88 257.04 407.63 257.26 408.35 257.26C410.07 257.26 410.93 256.34 410.93 254.51V253.74H410.9C410.37 254.63 409.57 255.08 408.49 255.08C407.62 255.08 406.92 254.77 406.39 254.15C405.86 253.53 405.59 252.69 405.59 251.65C405.59 250.46 405.88 249.51 406.45 248.81C407.02 248.11 407.8 247.76 408.8 247.76C409.74 247.76 410.44 248.14 410.9 248.89H410.93V247.92H412.05V254.35ZM410.93 251.74V250.71C410.93 250.15 410.74 249.68 410.37 249.28C409.99 248.88 409.53 248.69 408.96 248.69C408.27 248.69 407.72 248.94 407.33 249.44C406.94 249.94 406.74 250.65 406.74 251.56C406.74 252.34 406.93 252.96 407.3 253.43C407.68 253.9 408.17 254.13 408.79 254.13C409.42 254.13 409.93 253.91 410.33 253.46C410.73 253.01 410.93 252.44 410.93 251.74Z" fill="#535353"/>
<path d="M419.95 251.69H415.01C415.03 252.47 415.24 253.07 415.64 253.49C416.04 253.91 416.59 254.13 417.29 254.13C418.08 254.13 418.8 253.87 419.46 253.35V254.4C418.84 254.85 418.03 255.07 417.02 255.07C416.03 255.07 415.25 254.75 414.69 254.12C414.13 253.49 413.84 252.59 413.84 251.44C413.84 250.35 414.15 249.46 414.77 248.78C415.39 248.09 416.15 247.75 417.07 247.75C417.99 247.75 418.69 248.05 419.2 248.64C419.7 249.23 419.95 250.06 419.95 251.11V251.69ZM418.8 250.74C418.8 250.09 418.64 249.59 418.33 249.23C418.02 248.87 417.6 248.69 417.05 248.69C416.52 248.69 416.07 248.88 415.7 249.26C415.33 249.64 415.1 250.13 415.02 250.74H418.8Z" fill="#535353"/>
<path d="M563.08 82.4399H561.94V75.8599C561.94 75.3399 561.97 74.6999 562.04 73.9499H562.01C561.9 74.3899 561.8 74.7099 561.72 74.8999L558.37 82.4299H557.81L554.47 74.9499C554.37 74.7299 554.28 74.3999 554.18 73.9499H554.15C554.19 74.3399 554.2 74.9799 554.2 75.8699V82.4299H553.09V72.6299H554.61L557.62 79.4699C557.85 79.9899 558 80.3899 558.07 80.6499H558.11C558.31 80.1099 558.46 79.7099 558.58 79.4499L561.65 72.6399H563.09V82.4399H563.08Z" fill="#535353"/>
<path d="M570.74 82.4399H565.65V72.6399H566.8V81.3999H570.74V82.4399Z" fill="#535353"/>
<path d="M585.87 82.4398H584.75V78.4198C584.75 77.6398 584.63 77.0798 584.39 76.7398C584.15 76.3898 583.75 76.2198 583.18 76.2198C582.7 76.2198 582.3 76.4398 581.96 76.8798C581.63 77.3198 581.46 77.8398 581.46 78.4498V82.4398H580.34V78.2798C580.34 76.8998 579.81 76.2198 578.75 76.2198C578.26 76.2198 577.85 76.4298 577.53 76.8398C577.21 77.2498 577.05 77.7898 577.05 78.4498V82.4398H575.93V75.4398H577.05V76.5498H577.08C577.58 75.6998 578.3 75.2798 579.25 75.2798C579.73 75.2798 580.15 75.4098 580.5 75.6798C580.85 75.9498 581.1 76.2998 581.23 76.7298C581.75 75.7598 582.52 75.2798 583.55 75.2798C585.09 75.2798 585.86 76.2298 585.86 78.1298V82.4398H585.87Z" fill="#535353"/>
<path d="M590.92 82.5998C589.89 82.5998 589.06 82.2698 588.44 81.6198C587.82 80.9698 587.51 80.0998 587.51 79.0198C587.51 77.8398 587.83 76.9298 588.47 76.2698C589.11 75.6098 589.98 75.2798 591.07 75.2798C592.11 75.2798 592.93 75.5998 593.51 76.2398C594.09 76.8798 594.39 77.7698 594.39 78.9098C594.39 80.0298 594.07 80.9198 593.44 81.5898C592.82 82.2698 591.98 82.5998 590.92 82.5998ZM591 76.2198C590.28 76.2198 589.71 76.4698 589.29 76.9498C588.87 77.4398 588.66 78.1198 588.66 78.9798C588.66 79.8098 588.87 80.4598 589.3 80.9398C589.73 81.4198 590.29 81.6598 591 81.6598C591.72 81.6598 592.28 81.4198 592.67 80.9598C593.06 80.4898 593.25 79.8198 593.25 78.9598C593.25 78.0798 593.06 77.4098 592.67 76.9398C592.28 76.4498 591.72 76.2198 591 76.2198Z" fill="#535353"/>
<path d="M602.17 82.4398H601.05V81.2498H601.02C600.5 82.1498 599.7 82.5998 598.61 82.5998C597.73 82.5998 597.03 82.2898 596.5 81.6598C595.97 81.0298 595.71 80.1798 595.71 79.0998C595.71 77.9398 596 77.0198 596.59 76.3198C597.18 75.6198 597.95 75.2698 598.92 75.2698C599.88 75.2698 600.58 75.6498 601.02 76.3998H601.05V72.0698H602.17V82.4398ZM601.05 79.2698V78.2398C601.05 77.6698 600.86 77.1998 600.49 76.7998C600.12 76.4098 599.64 76.2098 599.07 76.2098C598.39 76.2098 597.85 76.4598 597.46 76.9598C597.07 77.4598 596.87 78.1498 596.87 79.0398C596.87 79.8498 597.06 80.4798 597.43 80.9498C597.81 81.4198 598.31 81.6498 598.94 81.6498C599.56 81.6498 600.07 81.4198 600.46 80.9698C600.85 80.5298 601.05 79.9598 601.05 79.2698Z" fill="#535353"/>
<path d="M610.06 79.2198H605.12C605.14 79.9998 605.35 80.5998 605.75 81.0198C606.15 81.4398 606.7 81.6598 607.4 81.6598C608.19 81.6598 608.91 81.3998 609.57 80.8798V81.9298C608.95 82.3798 608.14 82.5998 607.13 82.5998C606.14 82.5998 605.36 82.2798 604.8 81.6498C604.24 81.0198 603.95 80.1198 603.95 78.9698C603.95 77.8798 604.26 76.9898 604.88 76.3098C605.5 75.6198 606.26 75.2798 607.18 75.2798C608.1 75.2798 608.8 75.5798 609.31 76.1698C609.81 76.7598 610.06 77.5898 610.06 78.6398V79.2198ZM608.92 78.2698C608.92 77.6198 608.76 77.1198 608.45 76.7598C608.14 76.3998 607.72 76.2198 607.17 76.2198C606.64 76.2198 606.19 76.4098 605.82 76.7898C605.45 77.1698 605.22 77.6598 605.14 78.2698H608.92Z" fill="#535353"/>
<path d="M612.88 82.4398H611.76V72.0798H612.88V82.4398Z" fill="#535353"/>
<path d="M619.56 73.6597C619.36 73.6597 619.19 73.5897 619.05 73.4497C618.91 73.3097 618.84 73.1397 618.84 72.9297C618.84 72.7197 618.91 72.5497 619.05 72.4097C619.19 72.2697 619.36 72.1997 619.56 72.1997C619.77 72.1997 619.94 72.2697 620.08 72.4097C620.22 72.5497 620.3 72.7197 620.3 72.9297C620.3 73.1297 620.23 73.2997 620.08 73.4397C619.94 73.5897 619.76 73.6597 619.56 73.6597ZM620.11 82.4397H618.99V75.4397H620.11V82.4397Z" fill="#535353"/>
<path d="M628.19 82.4398H627.07V78.4498C627.07 76.9598 626.53 76.2198 625.44 76.2198C624.88 76.2198 624.42 76.4298 624.05 76.8498C623.68 77.2698 623.5 77.7998 623.5 78.4498V82.4398H622.38V75.4398H623.5V76.5998H623.53C624.06 75.7198 624.82 75.2698 625.83 75.2698C626.6 75.2698 627.18 75.5198 627.59 76.0098C628 76.5098 628.2 77.2198 628.2 78.1498V82.4398H628.19Z" fill="#535353"/>
<path d="M638.9 82.1198C638.36 82.4398 637.72 82.6098 636.99 82.6098C635.99 82.6098 635.19 82.2798 634.57 81.6398C633.96 80.9898 633.65 80.1498 633.65 79.1098C633.65 77.9598 633.98 77.0298 634.64 76.3298C635.3 75.6298 636.18 75.2798 637.29 75.2798C637.91 75.2798 638.45 75.3898 638.92 75.6198V76.7698C638.4 76.3998 637.84 76.2198 637.25 76.2198C636.53 76.2198 635.95 76.4798 635.49 76.9898C635.03 77.4998 634.8 78.1798 634.8 79.0098C634.8 79.8298 635.02 80.4798 635.45 80.9498C635.88 81.4198 636.46 81.6598 637.18 81.6598C637.79 81.6598 638.36 81.4598 638.9 81.0498V82.1198Z" fill="#535353"/>
<path d="M643.53 82.5998C642.5 82.5998 641.67 82.2698 641.05 81.6198C640.43 80.9698 640.12 80.0998 640.12 79.0198C640.12 77.8398 640.44 76.9298 641.08 76.2698C641.72 75.6098 642.59 75.2798 643.68 75.2798C644.72 75.2798 645.54 75.5998 646.12 76.2398C646.7 76.8798 647 77.7698 647 78.9098C647 80.0298 646.68 80.9198 646.05 81.5898C645.43 82.2698 644.59 82.5998 643.53 82.5998ZM643.61 76.2198C642.89 76.2198 642.32 76.4698 641.9 76.9498C641.48 77.4398 641.27 78.1198 641.27 78.9798C641.27 79.8098 641.48 80.4598 641.91 80.9398C642.34 81.4198 642.9 81.6598 643.61 81.6598C644.33 81.6598 644.89 81.4198 645.28 80.9598C645.67 80.4898 645.86 79.8198 645.86 78.9598C645.86 78.0798 645.67 77.4098 645.28 76.9398C644.89 76.4498 644.33 76.2198 643.61 76.2198Z" fill="#535353"/>
<path d="M654.61 82.4398H653.49V78.4498C653.49 76.9598 652.95 76.2198 651.86 76.2198C651.3 76.2198 650.84 76.4298 650.47 76.8498C650.1 77.2698 649.92 77.7998 649.92 78.4498V82.4398H648.8V75.4398H649.92V76.5998H649.95C650.48 75.7198 651.24 75.2698 652.25 75.2698C653.02 75.2698 653.6 75.5198 654.01 76.0098C654.42 76.5098 654.62 77.2198 654.62 78.1498V82.4398H654.61Z" fill="#535353"/>
<path d="M659.97 82.3699C659.71 82.5199 659.36 82.5899 658.92 82.5899C657.69 82.5899 657.08 81.9099 657.08 80.5399V76.3999H655.88V75.4399H657.08V73.7299L658.2 73.3699V75.4399H659.96V76.3999H658.2V80.3399C658.2 80.8099 658.28 81.1399 658.44 81.3399C658.6 81.5399 658.86 81.6399 659.23 81.6399C659.51 81.6399 659.76 81.5599 659.96 81.4099V82.3699H659.97Z" fill="#535353"/>
<path d="M666.48 82.4398H665.36V81.3498H665.33C664.84 82.1898 664.12 82.6098 663.18 82.6098C662.48 82.6098 661.94 82.4298 661.54 82.0598C661.15 81.6898 660.95 81.1998 660.95 80.5898C660.95 79.2798 661.72 78.5198 663.26 78.3098L665.36 78.0198C665.36 76.8298 664.88 76.2398 663.92 76.2398C663.08 76.2398 662.32 76.5298 661.64 77.0998V75.9498C662.33 75.5098 663.12 75.2898 664.02 75.2898C665.66 75.2898 666.49 76.1598 666.49 77.8998V82.4398H666.48ZM665.36 78.8998L663.67 79.1298C663.15 79.1998 662.76 79.3298 662.49 79.5198C662.23 79.6998 662.09 80.0298 662.09 80.4998C662.09 80.8398 662.21 81.1198 662.46 81.3398C662.7 81.5598 663.03 81.6698 663.43 81.6698C663.99 81.6698 664.45 81.4698 664.81 81.0898C665.17 80.6998 665.35 80.2098 665.35 79.6098V78.8998H665.36Z" fill="#535353"/>
<path d="M669.17 73.6597C668.97 73.6597 668.8 73.5897 668.66 73.4497C668.52 73.3097 668.45 73.1397 668.45 72.9297C668.45 72.7197 668.52 72.5497 668.66 72.4097C668.8 72.2697 668.97 72.1997 669.17 72.1997C669.38 72.1997 669.55 72.2697 669.69 72.4097C669.83 72.5497 669.9 72.7197 669.9 72.9297C669.9 73.1297 669.83 73.2997 669.69 73.4397C669.55 73.5897 669.37 73.6597 669.17 73.6597ZM669.71 82.4397H668.59V75.4397H669.71V82.4397Z" fill="#535353"/>
<path d="M677.79 82.4398H676.67V78.4498C676.67 76.9598 676.13 76.2198 675.04 76.2198C674.48 76.2198 674.02 76.4298 673.65 76.8498C673.28 77.2698 673.1 77.7998 673.1 78.4498V82.4398H671.98V75.4398H673.1V76.5998H673.13C673.66 75.7198 674.42 75.2698 675.43 75.2698C676.2 75.2698 676.78 75.5198 677.19 76.0098C677.6 76.5098 677.8 77.2198 677.8 78.1498V82.4398H677.79Z" fill="#535353"/>
<path d="M685.53 79.2198H680.59C680.61 79.9998 680.82 80.5998 681.22 81.0198C681.62 81.4398 682.17 81.6598 682.87 81.6598C683.66 81.6598 684.38 81.3998 685.04 80.8798V81.9298C684.42 82.3798 683.61 82.5998 682.6 82.5998C681.61 82.5998 680.83 82.2798 680.27 81.6498C679.71 81.0198 679.42 80.1198 679.42 78.9698C679.42 77.8798 679.73 76.9898 680.35 76.3098C680.97 75.6198 681.73 75.2798 682.65 75.2798C683.57 75.2798 684.27 75.5798 684.78 76.1698C685.28 76.7598 685.53 77.5898 685.53 78.6398V79.2198ZM684.38 78.2698C684.38 77.6198 684.22 77.1198 683.91 76.7598C683.6 76.3998 683.18 76.2198 682.63 76.2198C682.1 76.2198 681.65 76.4098 681.28 76.7898C680.91 77.1698 680.68 77.6598 680.6 78.2698H684.38Z" fill="#535353"/>
<path d="M690.88 76.5698C690.68 76.4198 690.4 76.3398 690.03 76.3398C689.55 76.3398 689.15 76.5698 688.83 77.0198C688.51 77.4698 688.35 78.0898 688.35 78.8698V82.4398H687.23V75.4398H688.35V76.8798H688.38C688.54 76.3898 688.78 75.9998 689.11 75.7298C689.44 75.4498 689.8 75.3198 690.21 75.3198C690.5 75.3198 690.72 75.3498 690.88 75.4198V76.5698Z" fill="#535353"/>
<path fill-rule="evenodd" clip-rule="evenodd" d="M380.1 207.6H377.55L376.03 209.26H380.11V221.24H365.03L361.9 224.65H359.89C358.88 224.65 358.06 223.82 358.06 222.81V223C358.06 223.92 358.79 224.75 359.71 224.75H402.07C402.98 224.75 403.81 224.01 403.81 223V191.42L392.4 191.46L380.12 204.82V207.6H380.1Z" fill="#9EA0A1"/>
<path fill-rule="evenodd" clip-rule="evenodd" d="M403.8 192.39V187.13C403.8 186.21 403.07 185.38 402.06 185.38H397.94L391.51 192.39H403.8Z" fill="#7C7B7B"/>
<path fill-rule="evenodd" clip-rule="evenodd" d="M359.88 185.38H359.7C358.78 185.38 358.05 186.21 358.05 187.13V187.22C358.05 186.21 358.87 185.38 359.88 185.38Z" fill="#7C7B7B"/>
<path fill-rule="evenodd" clip-rule="evenodd" d="M380.1 204.82L377.55 207.6H380.1V204.82Z" fill="#2272B9"/>
<path fill-rule="evenodd" clip-rule="evenodd" d="M380.1 209.26H376.02L365.02 221.24H380.1V209.26Z" fill="#2272B9"/>
<path fill-rule="evenodd" clip-rule="evenodd" d="M358.05 192.39V192.48H391.43L391.51 192.39H358.05Z" fill="white"/>
<path fill-rule="evenodd" clip-rule="evenodd" d="M358.05 193.95V197V222.81C358.05 223.82 358.87 224.65 359.88 224.65H361.89L365.02 221.24H361.43V209.26H376.02L377.54 207.6H361.43V195.62H380.1V204.82L391.43 192.48H358.05V193.95Z" fill="#9EA0A1"/>
<path fill-rule="evenodd" clip-rule="evenodd" d="M358.05 193.96V197V222.81C358.05 223.82 358.87 224.65 359.88 224.65H361.89L365.02 221.24H361.43V209.26H376.02L377.54 207.6H361.43V195.62H380.1V204.82L392.61 191.19L358.05 191.04V193.96Z" fill="#BABBBC"/>
<path fill-rule="evenodd" clip-rule="evenodd" d="M397.94 185.38H359.88C358.87 185.38 358.05 186.21 358.05 187.22V192.38H391.51L397.94 185.38Z" fill="#7C7B7B"/>
<path fill-rule="evenodd" clip-rule="evenodd" d="M397.94 185.38H359.88C358.87 185.38 358.05 186.21 358.05 187.22V192.38H391.51L397.94 185.38Z" fill="#9E9E9E"/>
<path fill-rule="evenodd" clip-rule="evenodd" d="M380.1 195.62H361.43V207.61H377.54L380.09 204.83V195.62H380.1Z" fill="#2272B9"/>
<path fill-rule="evenodd" clip-rule="evenodd" d="M380.1 195.62H361.43V207.61H377.54L380.09 204.83V195.62H380.1Z" fill="#489AD2"/>
<path fill-rule="evenodd" clip-rule="evenodd" d="M361.43 209.26V221.24H365.02L376.02 209.26H361.43Z" fill="#2272B9"/>
<path fill-rule="evenodd" clip-rule="evenodd" d="M361.43 209.26V221.24H365.02L376.02 209.26H361.43Z" fill="#489AD2"/>
<path fill-rule="evenodd" clip-rule="evenodd" d="M381.75 207.6H400.32V195.61H381.75V207.6Z" fill="white"/>
<path fill-rule="evenodd" clip-rule="evenodd" d="M381.75 221.24H400.32V209.26H381.75V221.24Z" fill="#2272B9"/>
<path d="M53.6099 49.1799C54.5899 49.1799 55.5399 48.7899 56.2299 48.0899C56.9299 47.3999 57.3199 46.4499 57.3199 45.4699C57.3499 45.3299 57.3499 45.1799 57.3199 45.0399C55.8399 33.3599 49.2199 23.8499 36.4399 23.8499C23.6599 23.8499 16.8599 31.8999 15.5599 45.0599C15.5099 45.5499 15.5499 46.0499 15.6899 46.5199C15.8299 46.9899 16.0599 47.4299 16.3699 47.8199C16.6799 48.1999 17.0699 48.5199 17.4999 48.7499C17.9299 48.9799 18.4099 49.1299 18.8999 49.1799H53.6099Z" fill="url(#paint0_linear)"/>
<path opacity="0.8" d="M36.4399 26.62C34.1899 26.62 31.9899 25.97 30.0999 24.75L36.4399 41.16L42.6799 24.86C40.7999 26.03 38.6399 26.64 36.4399 26.62Z" fill="white"/>
<path d="M36.46 26.5899C42.92 26.5899 48.16 21.3499 48.16 14.8899C48.16 8.42994 42.92 3.18994 36.46 3.18994C30 3.18994 24.76 8.42994 24.76 14.8899C24.76 21.3499 30 26.5899 36.46 26.5899Z" fill="url(#paint1_linear)"/>
<path opacity="0.2" d="M61.5099 51.1898C64.7999 52.4998 64.7999 54.5698 61.5599 55.8798C58.3099 57.1898 52.9899 57.1898 49.7399 55.8798C46.4499 54.5698 46.4499 52.4498 49.6899 51.1898C52.9399 49.8798 58.2599 49.8798 61.5099 51.1898Z" fill="#201D21"/>
<path d="M53.2598 30.2098L53.3098 36.4298L46.9998 50.8598C46.9998 50.8598 46.6798 54.9598 55.2498 54.9598C63.8198 54.9598 64.4498 51.0398 64.4098 50.6298C64.3198 50.2698 58.0098 36.4198 58.0098 36.4198L58.0998 30.1098C58.0998 30.1098 56.9698 29.0298 55.6198 29.1198C54.2698 29.2098 53.1198 29.6698 53.2598 30.2098Z" fill="url(#paint2_linear)"/>
<path d="M60.4299 43.5698C60.3799 43.4798 60.3399 43.3398 60.2899 43.2998C59.8399 42.3098 57.9399 41.5398 55.6899 41.5398C53.2499 41.5398 51.2699 42.4398 50.9999 43.5698C50.9999 43.6598 48.2899 49.9698 48.1999 50.2498C48.1999 50.3398 48.1499 50.4798 48.1499 50.5698C48.1499 52.5098 51.5299 54.0898 55.6799 54.0898C59.8299 54.0898 63.2099 52.5098 63.2099 50.5298C63.2099 50.4798 63.2099 50.2598 63.1199 49.9898C62.4999 48.4398 60.4299 43.5698 60.4299 43.5698Z" fill="url(#paint3_linear)"/>
<path d="M55.6899 54.0297C59.8499 54.0297 63.2199 52.4497 63.2199 50.5097C63.2199 48.5697 59.8499 46.9897 55.6899 46.9897C51.5299 46.9897 48.1599 48.5697 48.1599 50.5097C48.1599 52.4597 51.5299 54.0297 55.6899 54.0297Z" fill="#2F76BC"/>
<path d="M55.6898 45.9598C58.2798 45.9598 60.3798 44.9698 60.3798 43.7498C60.3798 42.5298 58.2798 41.5398 55.6898 41.5398C53.0998 41.5398 50.9998 42.5298 50.9998 43.7498C50.9998 44.9698 53.0998 45.9598 55.6898 45.9598Z" fill="#2F76BC"/>
<path d="M55.6897 29.1299C53.9797 29.1299 53.2097 29.7199 53.2097 30.2999C53.2097 30.8399 54.5197 31.2899 55.6897 31.2899C56.8597 31.2899 58.1697 30.8399 58.1697 30.2999C58.1697 29.7599 57.7197 29.1299 55.6897 29.1299ZM55.6897 30.8899C54.7897 30.8899 53.7097 30.5699 53.7097 30.1199C53.7097 29.7099 54.7897 29.3499 55.6897 29.3499C56.5897 29.3499 57.6697 29.6699 57.6697 30.1199C57.6797 30.5299 56.5897 30.8899 55.6897 30.8899Z" fill="#75D0EB"/>
<path d="M55.6897 29.0898C53.7097 29.0898 53.2097 29.7698 53.2097 30.3098C53.2097 30.8498 54.5197 31.2998 55.6897 31.2998C56.8597 31.2998 58.1697 30.8498 58.1697 30.3098C58.1697 29.7598 57.7197 29.0898 55.6897 29.0898ZM55.6897 30.8898C54.7897 30.8898 53.7097 30.5698 53.7097 30.1198C53.7097 29.7098 54.7897 29.3498 55.6897 29.3498C56.5897 29.3498 57.6697 29.6698 57.6697 30.1198C57.6797 30.5298 56.5897 30.8898 55.6897 30.8898Z" fill="white"/>
<path d="M58.4399 50.2397H52.9399V50.5597H58.4399V50.2397Z" fill="white"/>
<path d="M56.9999 43.0698H54.3799V43.3898H56.9999V43.0698Z" fill="white"/>
<path d="M57.3598 45.46H54.0198V45.78H57.3598V45.46Z" fill="white"/>
<path d="M57.7199 47.8499H53.6599V48.1699H57.7199V47.8499Z" fill="white"/>
<path opacity="0.6" d="M55.7399 40.3597C56.4599 40.3597 57.0499 39.7697 57.0499 39.0497C57.0499 38.3297 56.4599 37.7397 55.7399 37.7397C55.0199 37.7397 54.4299 38.3297 54.4299 39.0497C54.4299 39.7797 55.0099 40.3597 55.7399 40.3597Z" fill="#75D0EB"/>
<path d="M55.7399 40.3597C56.4599 40.3597 57.0499 39.7697 57.0499 39.0497C57.0499 38.3297 56.4599 37.7397 55.7399 37.7397C55.0199 37.7397 54.4299 38.3297 54.4299 39.0497C54.4299 39.7797 55.0099 40.3597 55.7399 40.3597Z" stroke="#75D0EB" stroke-width="1.1799" stroke-linejoin="round"/>
<path d="M703.6 159.53H539.17V260.19H703.6V159.53Z" fill="#F3F3F3"/>
<path d="M155.54 43.24H90.54" stroke="#959595" stroke-width="1.5" stroke-miterlimit="10"/>
<path d="M154.01 38L163.08 43.24L154.01 48.47V38Z" fill="#959595"/>
<path d="M426.1 209.54H533.1" stroke="#959595" stroke-width="1.5" stroke-miterlimit="10"/>
<path d="M427.63 214.78L418.56 209.54L427.63 204.31V214.78Z" fill="#959595"/>
<path d="M378.07 152.14V52.1099H259.82" stroke="#959595" stroke-width="1.5" stroke-miterlimit="10"/>
<path d="M383.3 150.61L378.07 159.67L372.83 150.61H383.3Z" fill="#959595"/>
<path d="M538.62 43.24H259.82" stroke="#959595" stroke-width="1.5" stroke-miterlimit="10"/>
<path d="M537.08 38L546.15 43.24L537.08 48.47V38Z" fill="#959595"/>
<path d="M621.38 98.8V149.14" stroke="#959595" stroke-width="1.5" stroke-miterlimit="10"/>
<path d="M616.15 100.33L621.38 91.27L626.62 100.33H616.15Z" fill="#959595"/>
<path d="M616.15 147.61L621.38 156.67L626.62 147.61H616.15Z" fill="#959595"/>
<path d="M479.34 60.23C487.348 60.23 493.84 53.7381 493.84 45.73C493.84 37.7219 487.348 31.23 479.34 31.23C471.332 31.23 464.84 37.7219 464.84 45.73C464.84 53.7381 471.332 60.23 479.34 60.23Z" fill="#A3CD3A"/>
<path d="M480.52 50.97H479.4V42.5C479.31 42.59 479.19 42.69 479.02 42.8C478.85 42.91 478.67 43.02 478.46 43.13C478.25 43.24 478.03 43.34 477.8 43.44C477.57 43.54 477.34 43.61 477.13 43.67V42.54C477.38 42.47 477.64 42.38 477.91 42.26C478.19 42.14 478.46 42.01 478.72 41.87C478.99 41.73 479.24 41.58 479.48 41.42C479.72 41.26 479.92 41.11 480.1 40.96H480.52V50.97Z" fill="#010101"/>
<path d="M378.63 136.54C386.638 136.54 393.13 130.048 393.13 122.04C393.13 114.032 386.638 107.54 378.63 107.54C370.622 107.54 364.13 114.032 364.13 122.04C364.13 130.048 370.622 136.54 378.63 136.54Z" fill="#A3CD3A"/>
<path d="M380.13 120.05C380.13 119.75 380.08 119.49 379.99 119.26C379.9 119.04 379.77 118.85 379.61 118.7C379.45 118.55 379.26 118.44 379.04 118.37C378.82 118.3 378.58 118.26 378.33 118.26C378.11 118.26 377.9 118.29 377.69 118.35C377.48 118.41 377.28 118.49 377.08 118.6C376.88 118.7 376.69 118.83 376.51 118.98C376.32 119.13 376.15 119.29 375.99 119.47V118.27C376.3 117.96 376.66 117.73 377.05 117.57C377.44 117.41 377.92 117.33 378.48 117.33C378.88 117.33 379.25 117.39 379.59 117.5C379.93 117.62 380.23 117.79 380.48 118.01C380.73 118.23 380.93 118.51 381.07 118.84C381.21 119.17 381.29 119.54 381.29 119.97C381.29 120.36 381.25 120.71 381.16 121.02C381.07 121.33 380.94 121.63 380.76 121.91C380.58 122.19 380.35 122.45 380.08 122.71C379.81 122.97 379.49 123.22 379.12 123.49C378.66 123.82 378.28 124.1 377.98 124.33C377.68 124.56 377.44 124.78 377.27 124.98C377.1 125.18 376.97 125.39 376.9 125.59C376.83 125.79 376.79 126.03 376.79 126.29H381.67V127.29H375.62V126.8C375.62 126.38 375.67 126.01 375.76 125.69C375.85 125.37 376 125.07 376.21 124.78C376.42 124.49 376.69 124.21 377.03 123.92C377.37 123.63 377.79 123.31 378.28 122.95C378.64 122.7 378.93 122.45 379.17 122.22C379.41 121.99 379.6 121.76 379.75 121.52C379.9 121.28 380 121.05 380.06 120.81C380.1 120.57 380.13 120.32 380.13 120.05Z" fill="#010101"/>
<path d="M621.13 136.54C629.138 136.54 635.63 130.048 635.63 122.04C635.63 114.032 629.138 107.54 621.13 107.54C613.122 107.54 606.63 114.032 606.63 122.04C606.63 130.048 613.122 136.54 621.13 136.54Z" fill="#A3CD3A"/>
<path d="M623.87 124.51C623.87 124.95 623.79 125.35 623.62 125.72C623.45 126.08 623.22 126.39 622.91 126.65C622.61 126.91 622.24 127.11 621.82 127.25C621.4 127.39 620.93 127.46 620.42 127.46C619.49 127.46 618.74 127.28 618.19 126.93V125.73C618.85 126.25 619.61 126.51 620.46 126.51C620.8 126.51 621.11 126.47 621.39 126.38C621.67 126.29 621.9 126.17 622.1 126C622.3 125.84 622.45 125.64 622.56 125.41C622.67 125.18 622.72 124.92 622.72 124.62C622.72 123.34 621.81 122.7 619.99 122.7H619.18V121.75H619.95C621.56 121.75 622.37 121.15 622.37 119.95C622.37 118.84 621.75 118.28 620.52 118.28C619.83 118.28 619.18 118.51 618.57 118.98V117.89C619.19 117.52 619.94 117.33 620.8 117.33C621.21 117.33 621.58 117.39 621.91 117.5C622.24 117.61 622.53 117.77 622.76 117.98C622.99 118.19 623.18 118.43 623.31 118.72C623.44 119.01 623.5 119.32 623.5 119.67C623.5 120.96 622.85 121.79 621.54 122.16V122.19C621.87 122.23 622.18 122.31 622.46 122.43C622.74 122.56 622.99 122.72 623.19 122.92C623.39 123.12 623.56 123.36 623.67 123.63C623.81 123.88 623.87 124.18 623.87 124.51Z" fill="#010101"/>
<path d="M479.34 222.55C487.348 222.55 493.84 216.058 493.84 208.05C493.84 200.042 487.348 193.55 479.34 193.55C471.332 193.55 464.84 200.042 464.84 208.05C464.84 216.058 471.332 222.55 479.34 222.55Z" fill="#A3CD3A"/>
<path d="M480.95 203.49V209.96H482.21V210.99H480.95V213.29H479.84V210.99H475.23V210.02C475.66 209.54 476.09 209.02 476.53 208.47C476.97 207.92 477.39 207.36 477.78 206.8C478.18 206.23 478.55 205.67 478.89 205.11C479.23 204.55 479.52 204.01 479.75 203.49H480.95ZM476.5 209.96H479.84V205.16C479.5 205.76 479.17 206.29 478.87 206.76C478.57 207.23 478.27 207.66 478 208.04C477.72 208.42 477.46 208.77 477.21 209.08C476.96 209.39 476.72 209.68 476.5 209.96Z" fill="#010101"/>
<path d="M125.8 60.23C133.808 60.23 140.3 53.7381 140.3 45.73C140.3 37.7219 133.808 31.23 125.8 31.23C117.792 31.23 111.3 37.7219 111.3 45.73C111.3 53.7381 117.792 60.23 125.8 60.23Z" fill="#A3CD3A"/>
<path d="M126.97 50.97H125.85V42.5C125.76 42.59 125.64 42.69 125.47 42.8C125.3 42.91 125.12 43.02 124.91 43.13C124.7 43.24 124.48 43.34 124.25 43.44C124.02 43.54 123.79 43.61 123.58 43.67V42.54C123.83 42.47 124.09 42.38 124.36 42.26C124.64 42.14 124.91 42.01 125.17 41.87C125.44 41.73 125.69 41.58 125.93 41.42C126.17 41.26 126.37 41.11 126.55 40.96H126.97V50.97Z" fill="#010101"/>
<path d="M232.53 29.9001C230.76 28.1901 228.5 27.0601 226.07 26.6601C225.91 22.9001 224.26 19.3501 221.48 16.8001C218.7 14.2501 215.01 12.9001 211.23 13.0501C208.18 12.9901 205.19 13.8801 202.67 15.5901C200.15 17.3001 198.22 19.7401 197.15 22.5801C193.94 22.9701 190.98 24.4901 188.81 26.8801C186.64 29.2601 185.4 32.3401 185.33 35.5601C185.47 39.1801 187.05 42.5901 189.72 45.0601C192.39 47.5201 195.93 48.8401 199.56 48.7101H200.81H223.86H224.47C227.42 48.6501 230.25 47.4801 232.36 45.4301C234.48 43.3801 235.74 40.6101 235.87 37.6701C235.86 36.2401 235.56 34.8301 234.99 33.5301C234.42 32.2201 233.59 31.0401 232.55 30.0601" fill="url(#paint4_linear)"/>
<path d="M214.63 26.3601L214.66 38.7601L237.68 43.6301V35.0001L214.63 26.3601Z" fill="#777777"/>
<path d="M214.63 26.3601L208.4 30.1301V41.6601L214.66 38.7601" fill="#989898"/>
<path d="M225.14 38.94L227.24 39.5201V32.7701L225.14 32.05V38.94Z" fill="#A3A3A2"/>
<path d="M223.04 31.3801L220.94 30.6301V37.8401L223.04 38.4201V31.3801Z" fill="#A3A3A2"/>
<path d="M229.33 40.07L231.37 40.62L231.43 34.19L229.33 33.49V40.07Z" fill="#A3A3A2"/>
<path d="M216.78 36.76L218.88 37.28V29.95L216.78 29.25V36.76Z" fill="#A3A3A2"/>
<path d="M235.58 35.6101L233.48 34.8901V41.1801L235.58 41.7601V35.6101Z" fill="#A3A3A2"/>
<path d="M210.52 38.56L209.47 39.17V30.97L210.52 30.42V38.56ZM212.59 29.24L211.51 29.94V37.91L212.59 37.33V29.24Z" fill="#B4B4B4"/>
<path d="M237.68 43.63L231.39 45.77L208.4 41.66L214.66 38.76L237.68 43.63Z" fill="url(#paint5_linear)"/>
<path d="M237.68 52.4601L214.54 56.8301L214.66 40.6401L237.68 44.9001V52.4601Z" fill="#777777"/>
<path d="M216.78 54.1701V43.8901L218.88 44.1501V53.8201L216.78 54.1701Z" fill="#A3A3A2"/>
<path d="M223.04 53.1302L220.94 53.5102V44.4102L223.04 44.7302V53.1302Z" fill="#A3A3A2"/>
<path d="M225.14 52.8102V44.9302L227.24 45.1902V52.4302L225.14 52.8102Z" fill="#A3A3A2"/>
<path d="M231.4 51.7102L229.33 52.0902V45.4602L231.4 45.7802V51.7102Z" fill="#A3A3A2"/>
<path d="M235.64 51.0402L233.49 51.4202V45.9702L235.5 46.2302L235.64 51.0402Z" fill="#A3A3A2"/>
<path d="M208.4 53.13V43.69L214.69 40.79V57.01L208.4 53.13Z" fill="#989898"/>
<path d="M210.38 53.1001L209.45 52.6401V44.6501L210.38 44.2201V53.1001ZM212.62 43.1101L211.51 43.6601V53.7401L212.59 54.2901V43.1101H212.62Z" fill="#B4B4B4"/>
<path opacity="0.2" d="M591.84 202.48L580.63 209.14L569.11 202.48L580.32 195.82L591.84 202.48Z" fill="#201D21"/>
<path d="M580.59 193.91L580.55 207.15L569.03 200.49L569.07 187.25L580.59 193.91Z" fill="#65CCEF"/>
<path d="M580.59 193.91L591.84 187.25L591.8 200.49L580.55 207.15L580.59 193.91Z" fill="#4CC8EF"/>
<path d="M569.07 187.25L580.28 180.59L591.84 187.25L580.59 193.91L569.07 187.25Z" fill="#B4E2F0"/>
<path opacity="0.2" d="M591.84 235.33L580.63 241.99L569.11 235.33L580.32 228.67L591.84 235.33Z" fill="#201D21"/>
<path d="M580.59 226.76L580.55 240L569.03 233.34L569.07 220.1L580.59 226.76Z" fill="#3EBDEA"/>
<path d="M580.59 226.76L591.84 220.1L591.8 233.34L580.55 240L580.59 226.76Z" fill="#37AFE4"/>
<path d="M569.07 220.1L580.28 213.44L591.84 220.1L580.59 226.76L569.07 220.1Z" fill="#4CC8EF"/>
<path opacity="0.2" d="M619.58 202.48L608.37 209.14L596.85 202.48L608.06 195.82L619.58 202.48Z" fill="#201D21"/>
<path d="M608.33 193.91L608.29 207.15L596.77 200.49L596.81 187.25L608.33 193.91Z" fill="#32A2DC"/>
<path d="M608.33 193.91L619.58 187.25L619.54 200.49L608.29 207.15L608.33 193.91Z" fill="#3194D1"/>
<path d="M596.81 187.25L608.02 180.59L619.58 187.25L608.33 193.91L596.81 187.25Z" fill="#37AFE4"/>
<path opacity="0.2" d="M619.58 235.33L608.37 241.99L596.85 235.33L608.06 228.67L619.58 235.33Z" fill="#201D21"/>
<path d="M608.33 226.76L608.29 240L596.77 233.34L596.81 220.1L608.33 226.76Z" fill="#2F76BC"/>
<path d="M608.33 226.76L619.58 220.1L619.54 233.34L608.29 240L608.33 226.76Z" fill="#176BB4"/>
<path d="M596.81 220.1L608.02 213.44L619.58 220.1L608.33 226.76L596.81 220.1Z" fill="#3194D1"/>
<path opacity="0.2" d="M646.66 202.48L635.45 209.14L623.93 202.48L635.14 195.82L646.66 202.48Z" fill="#201D21"/>
<path d="M635.41 193.91L635.37 207.15L623.85 200.49L623.89 187.25L635.41 193.91Z" fill="#176BB4"/>
<path d="M635.41 193.91L646.66 187.25L646.62 200.49L635.37 207.15L635.41 193.91Z" fill="#195A98"/>
<path d="M623.89 187.25L635.1 180.59L646.66 187.25L635.41 193.91L623.89 187.25Z" fill="#2F76BC"/>
<path opacity="0.2" d="M646.66 235.33L635.45 241.99L623.93 235.33L635.14 228.67L646.66 235.33Z" fill="#201D21"/>
<path d="M635.41 226.76L635.37 240L623.85 233.34L623.89 220.1L635.41 226.76Z" fill="#205280"/>
<path d="M635.41 226.76L646.66 220.1L646.62 233.34L635.37 240L635.41 226.76Z" fill="#1D4B7A"/>
<path d="M623.89 220.1L635.1 213.44L646.66 220.1L635.41 226.76L623.89 220.1Z" fill="#195A98"/>
<path opacity="0.2" d="M673.73 202.48L662.52 209.14L651 202.48L662.21 195.82L673.73 202.48Z" fill="#201D21"/>
<path d="M662.48 193.91L662.44 207.15L650.92 200.49L650.96 187.25L662.48 193.91Z" fill="#243B5F"/>
<path d="M662.48 193.91L673.73 187.25L673.69 200.49L662.44 207.15L662.48 193.91Z" fill="#1B2C45"/>
<path d="M650.96 187.25L662.17 180.59L673.73 187.25L662.48 193.91L650.96 187.25Z" fill="#1D4B7A"/>
<path opacity="0.2" d="M673.73 235.33L662.52 241.99L651 235.33L662.21 228.67L673.73 235.33Z" fill="#201D21"/>
<path d="M662.48 226.76L662.44 240L650.92 233.34L650.96 220.1L662.48 226.76Z" fill="#1B2C45"/>
<path d="M662.48 226.76L673.73 220.1L673.69 233.34L662.44 240L662.48 226.76Z" fill="#141E2F"/>
<path d="M650.96 220.1L662.17 213.44L673.73 220.1L662.48 226.76L650.96 220.1Z" fill="#243B5F"/>
<path opacity="0.2" d="M645.37 46.04L621.79 60.04L597.56 46.04L621.14 32.04L645.37 46.04Z" fill="#201D21"/>
<path d="M621.7 28.01L621.62 55.86L597.39 41.86L597.48 14L621.7 28.01Z" fill="#176BB4"/>
<path d="M621.7 28.01L645.36 14.01L645.28 41.86L621.62 55.86L621.7 28.01Z" fill="#195A98"/>
<path d="M597.48 14L621.06 0L645.37 14L621.71 28L597.48 14Z" fill="#2F76BC"/>
<path d="M606.84 38.5898C606.83 38.5898 606.82 38.5899 606.81 38.5799L606.76 38.5498C606.73 38.5298 606.72 38.4898 606.74 38.4598C606.76 38.4298 606.8 38.4198 606.83 38.4398L606.88 38.4699C606.91 38.4899 606.92 38.5299 606.9 38.5599C606.89 38.5799 606.86 38.5898 606.84 38.5898Z" fill="#B7E4F0"/>
<path d="M606.59 23.2599C607.31 23.6699 607.92 24.4799 608.25 25.3299L608.31 25.4699C608.44 25.8099 608.51 26.1499 608.51 26.4699L608.48 39.4299L608.47 43.3699C608.47 43.7499 608.27 43.9699 607.97 43.9399C607.62 43.9199 607.25 43.7999 606.85 43.5599C606.67 43.4499 606.49 43.3299 606.3 43.1799C605.21 42.3199 604.35 40.8199 604.15 39.4499C604.14 39.4099 604.14 39.3699 604.13 39.3299C601.76 36.9299 600.06 33.3199 600.08 30.2199C600.09 28.3499 600.71 27.0099 601.73 26.3099C601.67 26.0199 601.64 25.7499 601.64 25.4799C601.65 23.7299 602.88 23.0399 604.4 23.9099C604.5 23.9599 604.58 24.0199 604.67 24.0699C604.8 23.0799 605.62 22.6999 606.59 23.2599Z" fill="#D9F0F6"/>
<path d="M607 41.6399C607.05 41.6699 607.11 41.7499 607.11 41.8299C607.11 41.9099 607.07 41.9399 607 41.8899C606.95 41.8599 606.89 41.7799 606.89 41.6999C606.89 41.6199 606.93 41.5999 607 41.6399Z" fill="white"/>
<path d="M607.01 40.2099C607.06 40.2399 607.12 40.3199 607.12 40.3999C607.12 40.4599 607.08 40.5099 607.01 40.4599C606.96 40.4299 606.9 40.3499 606.9 40.2699C606.89 40.2099 606.94 40.1599 607.01 40.2099Z" fill="white"/>
<path d="M607.01 38.75C607.06 38.78 607.12 38.86 607.12 38.94C607.12 39.02 607.07 39.05 607 39C606.95 38.97 606.89 38.89 606.89 38.81C606.9 38.75 606.94 38.71 607.01 38.75Z" fill="white"/>
<path d="M607.01 37.31C607.06 37.34 607.12 37.42 607.12 37.5C607.12 37.58 607.08 37.61 607.01 37.56C606.96 37.53 606.9 37.45 606.9 37.37C606.9 37.31 606.94 37.27 607.01 37.31Z" fill="#97D9EC"/>
<path d="M607.03 31.52C607.08 31.55 607.14 31.63 607.14 31.7C607.14 31.78 607.1 31.81 607.03 31.76C606.98 31.73 606.92 31.65 606.92 31.57C606.92 31.52 606.95 31.49 607.03 31.52Z" fill="#97D9EC"/>
<path d="M607.03 30.0899C607.08 30.1199 607.14 30.1999 607.14 30.2799C607.14 30.3399 607.1 30.3799 607.03 30.3399C606.98 30.3099 606.92 30.2299 606.92 30.1599C606.92 30.0799 606.96 30.0499 607.03 30.0899Z" fill="white"/>
<path d="M607.04 28.6499C607.09 28.6799 607.15 28.7599 607.15 28.8399C607.15 28.8999 607.11 28.9399 607.04 28.8999C606.99 28.8699 606.93 28.7899 606.93 28.7199C606.93 28.6499 606.97 28.6099 607.04 28.6499Z" fill="white"/>
<path d="M607.04 27.2C607.09 27.23 607.15 27.31 607.15 27.39C607.15 27.47 607.11 27.49 607.04 27.45C606.99 27.42 606.93 27.34 606.93 27.27C606.93 27.19 606.97 27.17 607.04 27.2Z" fill="white"/>
<path d="M607.04 25.7498C607.09 25.7798 607.15 25.8599 607.15 25.9399C607.15 26.0199 607.11 26.0498 607.04 25.9998C606.99 25.9698 606.93 25.8898 606.93 25.8098C606.93 25.7398 606.97 25.7098 607.04 25.7498Z" fill="white"/>
<path d="M605.86 40.99C605.91 41.02 605.97 41.1 605.97 41.18C605.97 41.26 605.91 41.28 605.86 41.24C605.8 41.21 605.75 41.13 605.75 41.05C605.75 40.97 605.79 40.94 605.86 40.99Z" fill="white"/>
<path d="M605.86 39.55C605.91 39.58 605.97 39.66 605.97 39.74C605.97 39.8 605.91 39.84 605.86 39.8C605.8 39.77 605.75 39.69 605.75 39.61C605.75 39.55 605.79 39.5 605.86 39.55Z" fill="white"/>
<path d="M605.87 38.0898C605.92 38.1198 605.98 38.1998 605.98 38.2798C605.98 38.3598 605.92 38.3798 605.87 38.3398C605.81 38.3098 605.76 38.2298 605.76 38.1498C605.76 38.0898 605.79 38.0498 605.87 38.0898Z" fill="white"/>
<path d="M605.89 29.43C605.94 29.46 606 29.54 606 29.62C606 29.68 605.94 29.72 605.89 29.68C605.83 29.65 605.78 29.57 605.78 29.5C605.78 29.43 605.82 29.39 605.89 29.43Z" fill="white"/>
<path d="M605.89 27.9998C605.94 28.0298 606 28.1098 606 28.1898C606 28.2498 605.94 28.2898 605.89 28.2498C605.83 28.2198 605.78 28.1398 605.78 28.0698C605.79 27.9898 605.82 27.9498 605.89 27.9998Z" fill="white"/>
<path d="M605.9 26.5499C605.95 26.5799 606.01 26.6599 606.01 26.7399C606.01 26.8199 605.95 26.8399 605.9 26.7999C605.84 26.7699 605.79 26.6899 605.79 26.6199C605.79 26.5399 605.83 26.5099 605.9 26.5499Z" fill="white"/>
<path d="M604.68 37.62C604.72 37.59 604.72 37.51 604.68 37.44C604.64 37.36 604.57 37.33 604.52 37.35C604.48 37.38 604.48 37.46 604.52 37.53C604.56 37.6 604.63 37.65 604.68 37.62Z" fill="white"/>
<path d="M604.68 36.1801C604.72 36.1501 604.72 36.0701 604.68 36.0001C604.64 35.9201 604.57 35.8901 604.52 35.9101C604.48 35.9401 604.48 36.0201 604.52 36.0901C604.57 36.1701 604.64 36.2101 604.68 36.1801Z" fill="white"/>
<path d="M604.62 30.1399C604.67 30.1699 604.73 30.2499 604.73 30.3199C604.73 30.3999 604.69 30.4299 604.62 30.3799C604.57 30.3499 604.51 30.2699 604.51 30.1899C604.51 30.1399 604.55 30.0999 604.62 30.1399Z" fill="white"/>
<path d="M604.62 28.7C604.67 28.73 604.73 28.81 604.73 28.89C604.73 28.95 604.69 28.99 604.62 28.95C604.57 28.92 604.51 28.84 604.51 28.77C604.51 28.7 604.55 28.66 604.62 28.7Z" fill="white"/>
<path d="M604.63 27.2598C604.68 27.2898 604.74 27.3698 604.74 27.4498C604.74 27.5098 604.7 27.5498 604.63 27.5098C604.58 27.4798 604.52 27.3998 604.52 27.3298C604.52 27.2498 604.56 27.2198 604.63 27.2598Z" fill="white"/>
<path d="M604.63 25.82C604.68 25.85 604.74 25.93 604.74 26.01C604.74 26.09 604.7 26.11 604.63 26.07C604.58 26.04 604.52 25.96 604.52 25.88C604.52 25.8 604.57 25.78 604.63 25.82Z" fill="white"/>
<path d="M603.35 36.6399C603.4 36.6699 603.46 36.7499 603.46 36.8299C603.46 36.9099 603.42 36.9399 603.35 36.8899C603.3 36.8599 603.24 36.7799 603.24 36.6999C603.24 36.6399 603.28 36.5999 603.35 36.6399Z" fill="white"/>
<path d="M603.37 27.98C603.42 28.01 603.48 28.09 603.48 28.17C603.48 28.23 603.44 28.27 603.37 28.23C603.32 28.2 603.26 28.12 603.26 28.05C603.26 27.97 603.3 27.94 603.37 27.98Z" fill="white"/>
<path d="M603.38 26.5299C603.43 26.5599 603.49 26.6399 603.49 26.7199C603.49 26.7799 603.45 26.8199 603.38 26.7799C603.33 26.7499 603.27 26.6699 603.27 26.5999C603.27 26.5299 603.31 26.4999 603.38 26.5299Z" fill="white"/>
<path d="M602.31 34.5899C602.36 34.6199 602.42 34.6999 602.42 34.7799C602.42 34.8599 602.38 34.8899 602.31 34.8399C602.25 34.8099 602.2 34.7299 602.2 34.6499C602.19 34.5899 602.24 34.5599 602.31 34.5899Z" fill="white"/>
<path d="M602.32 28.8001C602.37 28.8301 602.43 28.9101 602.43 28.9801C602.43 29.0601 602.39 29.0901 602.32 29.0401C602.26 29.0101 602.21 28.9301 602.21 28.8501C602.21 28.8001 602.26 28.7701 602.32 28.8001Z" fill="white"/>
<path d="M611.11 26.2899C612.09 26.8599 612.9 28.1599 613.02 29.3199C613.11 29.3599 613.19 29.4099 613.29 29.4599C614.8 30.3299 616.03 32.4599 616.02 34.1999C616.02 34.4699 615.99 34.7099 615.93 34.9199C616.94 36.7899 617.56 38.8499 617.55 40.7199C617.54 43.8099 615.84 45.4599 613.46 45.1299C613.45 45.1699 613.45 45.2099 613.44 45.2399C613.22 46.3599 612.35 46.8599 611.27 46.4699C611.09 46.3999 610.9 46.3199 610.72 46.2099C610.32 45.9799 609.94 45.6599 609.6 45.2899C609.31 44.9699 609.1 44.5299 609.11 44.1499L609.12 40.2199L609.16 27.2799C609.16 26.9599 609.24 26.7099 609.37 26.5199L609.42 26.4399C609.77 25.9699 610.4 25.8899 611.11 26.2899Z" fill="#D9F0F6"/>
<path d="M615.34 42.3299C615.4 42.3699 615.45 42.4499 615.45 42.5199C615.45 42.5899 615.41 42.6199 615.34 42.5899C615.28 42.5499 615.23 42.4699 615.23 42.3999C615.24 42.3199 615.27 42.2899 615.34 42.3299Z" fill="white"/>
<path d="M615.36 36.5398C615.42 36.5798 615.47 36.6598 615.47 36.7198C615.47 36.7998 615.43 36.8198 615.36 36.7898C615.3 36.7498 615.25 36.6698 615.25 36.5998C615.25 36.5398 615.3 36.5098 615.36 36.5398Z" fill="white"/>
<path d="M614.07 43.02C614.12 43.05 614.18 43.13 614.18 43.21C614.18 43.29 614.14 43.32 614.07 43.27C614.01 43.24 613.96 43.16 613.96 43.08C613.97 43.02 614 42.98 614.07 43.02Z" fill="white"/>
<path d="M614.09 34.3598C614.14 34.3898 614.2 34.4698 614.2 34.5498C614.2 34.6098 614.16 34.6498 614.09 34.6098C614.03 34.5798 613.98 34.4998 613.98 34.4298C613.99 34.3598 614.03 34.3098 614.09 34.3598Z" fill="white"/>
<path d="M614.1 32.91C614.15 32.94 614.21 33.02 614.21 33.1C614.21 33.16 614.17 33.2 614.1 33.16C614.04 33.13 613.99 33.05 613.99 32.98C613.99 32.91 614.03 32.88 614.1 32.91Z" fill="white"/>
<path d="M612.82 42.2898C612.89 42.3298 612.93 42.3998 612.93 42.4798C612.93 42.5598 612.87 42.5798 612.82 42.5398C612.76 42.5098 612.71 42.4298 612.71 42.3498C612.71 42.2898 612.75 42.2598 612.82 42.2898Z" fill="white"/>
<path d="M612.82 40.8599C612.89 40.8999 612.93 40.9699 612.93 41.0499C612.93 41.1299 612.87 41.1499 612.82 41.1099C612.76 41.0799 612.71 40.9998 612.71 40.9198C612.71 40.8598 612.76 40.8199 612.82 40.8599Z" fill="white"/>
<path d="M612.84 35.0698C612.91 35.1098 612.95 35.1798 612.95 35.2498C612.95 35.3298 612.89 35.3498 612.84 35.3098C612.78 35.2798 612.73 35.1998 612.73 35.1198C612.73 35.0698 612.78 35.0398 612.84 35.0698Z" fill="white"/>
<path d="M612.84 33.64C612.91 33.68 612.95 33.75 612.95 33.83C612.95 33.89 612.89 33.93 612.84 33.89C612.78 33.86 612.73 33.78 612.73 33.71C612.73 33.63 612.78 33.59 612.84 33.64Z" fill="white"/>
<path d="M612.85 32.2C612.92 32.24 612.96 32.31 612.96 32.39C612.96 32.45 612.9 32.49 612.85 32.45C612.79 32.42 612.74 32.34 612.74 32.27C612.74 32.2 612.79 32.16 612.85 32.2Z" fill="white"/>
<path d="M612.85 30.7598C612.91 30.7998 612.96 30.8798 612.96 30.9498C612.96 31.0198 612.91 31.0498 612.85 31.0098C612.79 30.9698 612.74 30.8898 612.74 30.8298C612.75 30.7498 612.79 30.7198 612.85 30.7598Z" fill="white"/>
<path d="M611.85 44.85C611.89 44.82 611.89 44.74 611.85 44.67C611.81 44.59 611.74 44.56 611.69 44.58C611.65 44.61 611.65 44.69 611.69 44.76C611.73 44.83 611.8 44.87 611.85 44.85Z" fill="white"/>
<path d="M611.85 43.4C611.89 43.37 611.89 43.29 611.85 43.22C611.81 43.14 611.74 43.11 611.69 43.13C611.65 43.16 611.65 43.24 611.69 43.31C611.74 43.39 611.8 43.43 611.85 43.4Z" fill="white"/>
<path d="M611.86 41.9498C611.9 41.9198 611.91 41.8398 611.86 41.7698C611.82 41.6898 611.75 41.6598 611.7 41.6798C611.66 41.7098 611.66 41.7898 611.7 41.8598C611.74 41.9398 611.81 41.9798 611.86 41.9498Z" fill="white"/>
<path d="M611.8 33.0301C611.85 33.0601 611.91 33.1401 611.91 33.2201C611.91 33.2801 611.87 33.3201 611.8 33.2801C611.74 33.2501 611.69 33.1701 611.69 33.1001C611.69 33.0301 611.74 32.9901 611.8 33.0301Z" fill="white"/>
<path d="M611.81 31.5899C611.86 31.6199 611.92 31.6999 611.92 31.7799C611.92 31.8399 611.88 31.8799 611.81 31.8399C611.75 31.8099 611.7 31.7299 611.7 31.6599C611.69 31.5899 611.74 31.5499 611.81 31.5899Z" fill="white"/>
<path d="M611.81 30.15C611.87 30.19 611.92 30.27 611.92 30.34C611.92 30.41 611.87 30.44 611.81 30.4C611.75 30.36 611.7 30.28 611.7 30.22C611.7 30.14 611.74 30.11 611.81 30.15Z" fill="white"/>
<path d="M610.68 44.17C610.72 44.14 610.72 44.06 610.68 43.99C610.64 43.91 610.57 43.88 610.52 43.9C610.48 43.92 610.48 44.01 610.52 44.08C610.56 44.16 610.63 44.19 610.68 44.17Z" fill="white"/>
<path d="M610.68 42.7299C610.72 42.6999 610.72 42.6199 610.68 42.5499C610.64 42.4699 610.57 42.4399 610.52 42.4599C610.48 42.4899 610.48 42.5699 610.52 42.6399C610.57 42.7199 610.64 42.7599 610.68 42.7299Z" fill="white"/>
<path d="M610.68 41.2799C610.72 41.2499 610.72 41.1699 610.68 41.0999C610.64 41.0199 610.57 40.9899 610.52 41.0099C610.48 41.0399 610.48 41.1199 610.52 41.1899C610.57 41.2699 610.64 41.2999 610.68 41.2799Z" fill="white"/>
<path d="M610.41 39.7198C610.45 39.6898 610.45 39.6098 610.41 39.5398C610.37 39.4598 610.3 39.4298 610.25 39.4498C610.21 39.4798 610.21 39.5598 610.25 39.6298C610.3 39.6998 610.37 39.7398 610.41 39.7198Z" fill="#97D9EC"/>
<path d="M610.35 33.6699C610.4 33.6999 610.46 33.7799 610.46 33.8499C610.46 33.9299 610.42 33.9599 610.35 33.9099C610.3 33.8799 610.24 33.7999 610.24 33.7199C610.24 33.6699 610.28 33.6399 610.35 33.6699Z" fill="#97D9EC"/>
<path d="M610.63 32.3598C610.68 32.3898 610.74 32.4698 610.74 32.5498C610.74 32.6098 610.7 32.6498 610.63 32.6098C610.58 32.5798 610.52 32.4998 610.52 32.4298C610.52 32.3598 610.56 32.3098 610.63 32.3598Z" fill="white"/>
<path d="M610.64 30.91C610.69 30.94 610.75 31.02 610.75 31.1C610.75 31.16 610.71 31.2 610.64 31.16C610.59 31.13 610.53 31.05 610.53 30.98C610.52 30.91 610.57 30.88 610.64 30.91Z" fill="white"/>
<path d="M610.64 29.48C610.7 29.52 610.75 29.6 610.75 29.67C610.75 29.74 610.7 29.77 610.64 29.73C610.58 29.69 610.53 29.61 610.53 29.55C610.52 29.47 610.58 29.44 610.64 29.48Z" fill="white"/>
<path d="M610.64 28.0198C610.7 28.0598 610.75 28.1398 610.75 28.2098C610.75 28.2798 610.7 28.3098 610.64 28.2698C610.58 28.2298 610.53 28.1498 610.53 28.0798C610.53 28.0098 610.58 27.9898 610.64 28.0198Z" fill="white"/>
<path d="M609.86 34.87L609.85 38.03L607.06 36.42L607.07 33.26L609.86 34.87Z" fill="url(#paint6_linear)"/>
<path d="M607.05 37.7498L607.42 37.5898V38.1898L607.07 38.3798L607.05 37.7498Z" fill="#185A98"/>
<path d="M605.46 35.5499L605.8 35.3599L606.31 35.6499L605.97 35.8399L605.46 35.5499Z" fill="#1D4B7A"/>
<path d="M608.18 38.4L608.54 38.22V38.82L608.19 39L608.18 38.4Z" fill="#185A98"/>
<path d="M605.46 34.2698L605.8 34.0798L606.31 34.3698L605.97 34.5698L605.46 34.2698Z" fill="#1D4B7A"/>
<path d="M609.29 39.0299L609.64 38.8599V39.4599L609.29 39.6499V39.0299Z" fill="#185A98"/>
<path d="M605.45 33.0001L605.8 32.8101L606.31 33.1101L605.97 33.2901L605.45 33.0001Z" fill="#1D4B7A"/>
<path d="M610.4 39.67L610.76 39.5V40.09L610.41 40.28L610.4 39.67Z" fill="#185A98"/>
<path d="M605.46 31.73L605.8 31.55L606.31 31.84L605.97 32.0201L605.46 31.73Z" fill="#1D4B7A"/>
<path d="M606.54 32.33L606.67 32.25L606.66 36.68L606.53 36.76L606.54 32.33Z" fill="#3078BC"/>
<path d="M609.86 34.87L609.99 34.79L609.98 37.95L609.85 38.03L609.86 34.87Z" fill="#3078BC"/>
<path d="M610.95 39.3299L611.29 39.1499L611.28 39.8199L610.97 39.9999L610.95 39.3299Z" fill="#185A98"/>
<path d="M605.96 31.4L606.3 31.22L606.87 31.54L606.53 31.75L605.96 31.4Z" fill="#1D4B7A"/>
<path d="M610.96 38.0499L611.31 37.8899V38.5299L610.97 38.7099L610.96 38.0499Z" fill="#185A98"/>
<path d="M607.06 32.0499L607.41 31.8699L607.96 32.1899L607.62 32.3799L607.06 32.0499Z" fill="#1D4B7A"/>
<path d="M610.97 36.8499L611.31 36.6599V37.2799L610.96 37.4799L610.97 36.8499Z" fill="#185A98"/>
<path d="M608.17 32.7L608.53 32.5L609.1 32.83L608.76 33.01L608.17 32.7Z" fill="#1D4B7A"/>
<path d="M610.97 35.5298L611.31 35.3398V35.9998L610.97 36.1998V35.5298Z" fill="#185A98"/>
<path d="M609.3 33.3199L609.66 33.1299L610.23 33.4499L609.89 33.6399L609.3 33.3199Z" fill="#1D4B7A"/>
<path d="M606.65 36.6899L606.52 36.7599L610.36 38.9799V38.8299L606.65 36.6899Z" fill="#3078BC"/>
<path d="M611.51 39.0399L611.86 38.8599L611.85 39.4799L611.52 39.6499L611.51 39.0399Z" fill="#185A98"/>
<path d="M610.96 38.71L611.31 38.53L611.87 38.85L611.52 39.03L610.96 38.71Z" fill="#1D4B7A"/>
<path d="M606.53 31.0699L606.87 30.8699L607.42 31.1899L607.07 31.3699L606.53 31.0699Z" fill="#1D4B7A"/>
<path d="M607.07 31.3699L607.42 31.1899L607.41 31.8599L607.06 32.0399L607.07 31.3699Z" fill="#185A98"/>
<path d="M611.31 37.27L610.96 37.47L611.47 37.76L611.53 37.8L611.87 37.62L611.31 37.27Z" fill="#1D4B7A"/>
<path d="M611.54 37.7899L611.88 37.6099V38.2299L611.54 38.4099V37.7899Z" fill="#185A98"/>
<path d="M608.18 32.0299L608.53 31.8499L608.52 32.4999L608.16 32.6899L608.18 32.0299Z" fill="#185A98"/>
<path d="M607.62 31.71L607.96 31.52L608.53 31.85L608.18 32.03L607.62 31.71Z" fill="#1D4B7A"/>
<path d="M610.96 36.19L611.3 35.99L611.87 36.31L611.53 36.5L610.96 36.19Z" fill="#1D4B7A"/>
<path d="M611.53 36.5098L611.87 36.3198V36.9898L611.53 37.1798V36.5098Z" fill="#185A98"/>
<path d="M608.75 32.3599L609.09 32.1799L609.66 32.4999L609.32 32.6799L608.75 32.3599Z" fill="#1D4B7A"/>
<path d="M609.32 32.68L609.66 32.5V33.14L609.3 33.33L609.32 32.68Z" fill="#185A98"/>
<path d="M611.53 35.2601L611.89 35.0601L611.88 35.6701L611.54 35.8501L611.53 35.2601Z" fill="#185A98"/>
<path d="M610.96 34.95L611.32 34.74L611.89 35.06L611.52 35.27L610.96 34.95Z" fill="#1D4B7A"/>
<path d="M610.42 33.96L610.76 33.77L611.32 34.09L610.96 34.29L610.42 33.96Z" fill="#1D4B7A"/>
<path d="M610.96 34.2798L611.32 34.0898V34.7498L610.96 34.9698V34.2798Z" fill="#185A98"/>
<path d="M610.41 33.2999L610.77 33.1099V33.7599L610.42 33.9599L610.41 33.2999Z" fill="#185A98"/>
<path d="M609.9 33.0098L610.24 32.8198L610.77 33.1198L610.42 33.3098L609.9 33.0098Z" fill="#1D4B7A"/>
<path d="M606.54 32.3398L606.53 36.7698L610.37 38.9798L610.38 34.5498L606.54 32.3398ZM609.86 38.0298L607.07 36.4298V33.3098H607.08L609.87 34.8798V34.8698L609.86 38.0298Z" fill="#D9F0F6"/>
<path d="M611.54 38.4201V37.7901L610.97 37.4601V36.8401L611.54 37.1601V36.5001L610.97 36.1801V35.5301L611.54 35.8501V35.2501L610.97 34.9301V34.2701L610.42 33.9501V33.3001L609.9 33.0001L609.89 33.6301L609.32 33.3101V32.6701L608.75 32.3501V33.0001L608.18 32.6801V32.0301L607.61 31.7101V32.3601L607.06 32.0401V31.3601L606.52 31.0601V31.7101L605.95 31.3901V32.0101L605.44 31.7201V32.3501L605.95 32.6401V33.2801L605.45 33.0001V33.6401L605.96 33.9301V34.5601L605.45 34.2701V34.9101L605.96 35.2001V35.8401L605.45 35.5501V36.1701L605.96 36.4601V37.1301L606.54 37.4601V38.0601L607.08 38.3801V37.7801L607.63 38.1001V38.7001L608.19 39.0201V38.4201L608.74 38.7401V39.3401L609.29 39.6601V39.0601L609.85 39.3801V39.9701L610.4 40.2901V39.7001L610.96 40.0201V39.3501L611.53 39.6701V39.0501L610.96 38.7301V38.0901L611.54 38.4201ZM610.37 38.9801L606.53 36.7701L606.54 32.3401L610.38 34.5501L610.37 38.9801Z" fill="#243B5F"/>
<defs>
<linearGradient id="paint0_linear" x1="36.4344" y1="20.7632" x2="36.4344" y2="55.4426" gradientUnits="userSpaceOnUse">
<stop offset="0.22" stop-color="#51C8E9"/>
<stop offset="0.47" stop-color="#4CC7E9"/>
<stop offset="0.63" stop-color="#3DC5E7"/>
<stop offset="0.77" stop-color="#2DBBDF"/>
<stop offset="0.89" stop-color="#24A5CB"/>
<stop offset="1" stop-color="#1B8AB3"/>
</linearGradient>
<linearGradient id="paint1_linear" x1="35.9969" y1="9.11084" x2="59.1718" y2="297.514" gradientUnits="userSpaceOnUse">
<stop offset="0.22" stop-color="#51C8E9"/>
<stop offset="0.47" stop-color="#4CC7E9"/>
<stop offset="0.63" stop-color="#3DC5E7"/>
<stop offset="0.77" stop-color="#2DBBDF"/>
<stop offset="0.89" stop-color="#24A5CB"/>
<stop offset="1" stop-color="#1B8AB3"/>
</linearGradient>
<linearGradient id="paint2_linear" x1="55.8341" y1="31.3586" x2="55.645" y2="57.0883" gradientUnits="userSpaceOnUse">
<stop offset="0.0185" stop-color="#2F76BC"/>
<stop offset="0.5806" stop-color="#75D0EB"/>
</linearGradient>
<linearGradient id="paint3_linear" x1="60.6651" y1="43.0952" x2="50.4869" y2="55.0693" gradientUnits="userSpaceOnUse">
<stop offset="0.0185" stop-color="#2F76BC"/>
<stop offset="0.8607" stop-color="#34B1E6"/>
<stop offset="1" stop-color="#4EC8EF"/>
</linearGradient>
<linearGradient id="paint4_linear" x1="210.598" y1="59.1579" x2="210.598" y2="4.90491" gradientUnits="userSpaceOnUse">
<stop stop-color="#2F76BC"/>
<stop offset="0.16" stop-color="#357DC0"/>
<stop offset="0.53" stop-color="#4D8DCB"/>
<stop offset="0.82" stop-color="#6199D1"/>
<stop offset="1" stop-color="#6A9DD3"/>
</linearGradient>
<linearGradient id="paint5_linear" x1="223.039" y1="38.7623" x2="223.039" y2="45.772" gradientUnits="userSpaceOnUse">
<stop stop-color="#333232"/>
<stop offset="1" stop-color="#5C5B5D"/>
</linearGradient>
<linearGradient id="paint6_linear" x1="608.921" y1="32.2895" x2="607.918" y2="39.5953" gradientUnits="userSpaceOnUse">
<stop stop-color="#52C1EA"/>
<stop offset="0.0286" stop-color="#4EBDE8"/>
<stop offset="0.2926" stop-color="#369ED8"/>
<stop offset="0.5481" stop-color="#2D87C8"/>
<stop offset="0.789" stop-color="#2F7ABD"/>
<stop offset="1" stop-color="#3078BC"/>
</linearGradient>
</defs>
</svg>
