<svg width="625" height="389" viewBox="0 0 625 389" fill="none" xmlns="http://www.w3.org/2000/svg">
<path d="M616.592 278.611H9.41235V327.935H616.592V278.611Z" fill="#166BB3"/>
<path d="M616.592 332.139H9.41235V381.462H616.592V332.139Z" fill="#35AFE4"/>
<path d="M237.678 306.858H236.045V302.607H231.432V306.858H229.804V297.056H231.432V301.18H236.045V297.056H237.678V306.858Z" fill="#F4F4F5"/>
<path d="M243.022 307.022C241.943 307.022 241.079 306.694 240.437 306.041C239.789 305.389 239.47 304.521 239.47 303.442C239.47 302.264 239.808 301.349 240.479 300.688C241.15 300.026 242.055 299.698 243.195 299.698C244.289 299.698 245.143 300.017 245.753 300.66C246.363 301.302 246.668 302.194 246.668 303.334C246.668 304.451 246.339 305.347 245.678 306.018C245.021 306.684 244.139 307.022 243.022 307.022ZM243.097 300.955C242.478 300.955 241.99 301.171 241.628 301.603C241.267 302.034 241.089 302.635 241.089 303.395C241.089 304.127 241.272 304.709 241.638 305.126C242.004 305.549 242.492 305.76 243.102 305.76C243.726 305.76 244.204 305.553 244.542 305.136C244.875 304.723 245.044 304.132 245.044 303.367C245.044 302.597 244.875 302.002 244.542 301.584C244.204 301.166 243.721 300.955 243.097 300.955Z" fill="#F4F4F5"/>
<path d="M247.845 306.637V305.169C248.437 305.619 249.093 305.844 249.807 305.844C250.764 305.844 251.242 305.563 251.242 304.995C251.242 304.836 251.2 304.699 251.12 304.587C251.041 304.474 250.928 304.376 250.787 304.291C250.647 304.202 250.482 304.127 250.295 304.057C250.107 303.986 249.896 303.911 249.661 303.822C249.375 303.709 249.117 303.587 248.887 303.461C248.657 303.334 248.465 303.189 248.315 303.029C248.164 302.865 248.047 302.682 247.972 302.48C247.897 302.274 247.855 302.034 247.855 301.762C247.855 301.424 247.935 301.129 248.094 300.871C248.254 300.613 248.469 300.397 248.737 300.219C249.004 300.045 249.309 299.914 249.652 299.824C249.994 299.735 250.346 299.693 250.712 299.693C251.36 299.693 251.937 299.792 252.448 299.989V301.377C251.956 301.04 251.393 300.871 250.754 300.871C250.553 300.871 250.374 300.889 250.21 300.932C250.046 300.974 249.91 301.03 249.797 301.101C249.685 301.176 249.595 301.26 249.53 301.363C249.464 301.467 249.436 301.579 249.436 301.701C249.436 301.851 249.469 301.978 249.53 302.086C249.595 302.189 249.689 302.283 249.816 302.363C249.943 302.443 250.093 302.513 250.266 302.583C250.44 302.649 250.642 302.719 250.872 302.799C251.172 302.921 251.444 303.048 251.683 303.175C251.923 303.301 252.125 303.447 252.293 303.611C252.462 303.77 252.594 303.958 252.683 304.169C252.772 304.38 252.819 304.634 252.819 304.925C252.819 305.281 252.739 305.591 252.575 305.854C252.411 306.116 252.19 306.337 251.918 306.511C251.646 306.684 251.327 306.811 250.97 306.895C250.614 306.98 250.234 307.022 249.839 307.022C249.065 307.022 248.404 306.891 247.845 306.637Z" fill="#F4F4F5"/>
<path d="M258.008 306.783C257.699 306.938 257.291 307.017 256.784 307.017C255.423 307.017 254.747 306.365 254.747 305.061V301.101H253.579V299.857H254.747V298.239L256.333 297.788V299.857H258.008V301.101H256.333V304.601C256.333 305.014 256.408 305.314 256.559 305.488C256.709 305.666 256.962 305.755 257.309 305.755C257.577 305.755 257.811 305.68 258.008 305.521V306.783Z" fill="#F4F4F5"/>
<path d="M267.444 307.022C266.032 307.022 264.901 306.562 264.052 305.647C263.203 304.732 262.776 303.54 262.776 302.072C262.776 300.495 263.207 299.238 264.075 298.299C264.943 297.361 266.116 296.892 267.604 296.892C268.979 296.892 270.091 297.347 270.93 298.257C271.77 299.167 272.193 300.359 272.193 301.833C272.193 303.433 271.761 304.695 270.902 305.628C270.034 306.553 268.885 307.022 267.444 307.022ZM267.519 298.318C266.623 298.318 265.891 298.651 265.328 299.322C264.765 299.993 264.484 300.875 264.484 301.969C264.484 303.057 264.756 303.935 265.305 304.601C265.854 305.267 266.567 305.6 267.449 305.6C268.387 305.6 269.129 305.286 269.668 304.648C270.213 304.014 270.48 303.128 270.48 301.987C270.48 300.814 270.217 299.913 269.692 299.275C269.166 298.637 268.444 298.318 267.519 298.318Z" fill="#F4F4F5"/>
<path d="M273.535 306.468V304.793C273.685 304.929 273.863 305.051 274.069 305.164C274.276 305.272 274.496 305.366 274.731 305.441C274.966 305.516 275.196 305.572 275.43 305.615C275.665 305.657 275.876 305.676 276.073 305.676C276.758 305.676 277.265 305.563 277.603 305.333C277.94 305.108 278.105 304.775 278.105 304.343C278.105 304.108 278.048 303.911 277.936 303.738C277.823 303.569 277.668 303.409 277.467 303.268C277.265 303.128 277.03 302.992 276.758 302.86C276.486 302.734 276.195 302.597 275.885 302.452C275.552 302.274 275.243 302.095 274.956 301.912C274.67 301.729 274.421 301.528 274.206 301.307C273.994 301.087 273.826 300.838 273.708 300.556C273.586 300.28 273.525 299.951 273.525 299.58C273.525 299.121 273.628 298.722 273.835 298.379C274.041 298.041 274.318 297.76 274.656 297.539C274.994 297.319 275.383 297.155 275.815 297.047C276.247 296.939 276.688 296.887 277.143 296.887C278.17 296.887 278.916 297.005 279.386 297.234V298.839C278.832 298.436 278.114 298.239 277.241 298.239C277.002 298.239 276.758 298.262 276.519 298.309C276.279 298.356 276.064 298.431 275.876 298.534C275.688 298.637 275.533 298.773 275.416 298.938C275.299 299.102 275.238 299.299 275.238 299.534C275.238 299.754 275.285 299.942 275.374 300.101C275.463 300.261 275.599 300.406 275.773 300.538C275.946 300.669 276.162 300.8 276.416 300.922C276.669 301.049 276.96 301.185 277.293 301.331C277.635 301.509 277.959 301.697 278.26 301.889C278.564 302.086 278.827 302.302 279.057 302.536C279.287 302.776 279.47 303.039 279.606 303.325C279.742 303.616 279.808 303.944 279.808 304.31C279.808 304.807 279.709 305.225 279.508 305.568C279.306 305.91 279.038 306.187 278.696 306.403C278.358 306.619 277.964 306.773 277.523 306.867C277.082 306.961 276.613 307.013 276.12 307.013C275.956 307.013 275.754 306.999 275.515 306.975C275.275 306.952 275.031 306.914 274.778 306.867C274.529 306.82 274.29 306.759 274.065 306.694C273.84 306.628 273.671 306.553 273.535 306.468Z" fill="#F4F4F5"/>
<path d="M290.745 298.436H287.081V301.382H290.459V302.757H287.081V306.858H285.452V297.056H290.745V298.436Z" fill="#F4F4F5"/>
<path d="M293.11 298.384C292.852 298.384 292.627 298.299 292.444 298.131C292.256 297.962 292.167 297.746 292.167 297.488C292.167 297.23 292.261 297.009 292.444 296.84C292.627 296.667 292.852 296.582 293.11 296.582C293.377 296.582 293.607 296.671 293.795 296.84C293.983 297.014 294.076 297.23 294.076 297.488C294.076 297.732 293.983 297.943 293.795 298.121C293.607 298.299 293.377 298.384 293.11 298.384ZM293.898 306.858H292.312V299.857H293.898V306.858Z" fill="#F4F4F5"/>
<path d="M297.563 306.858H295.972V296.493H297.563V306.858Z" fill="#F4F4F5"/>
<path d="M305.553 303.785H300.782C300.8 304.432 300.997 304.929 301.377 305.281C301.757 305.633 302.283 305.807 302.945 305.807C303.691 305.807 304.38 305.582 305.004 305.136V306.412C304.366 306.816 303.522 307.013 302.475 307.013C301.443 307.013 300.636 306.694 300.05 306.06C299.463 305.422 299.172 304.531 299.172 303.376C299.172 302.288 299.496 301.401 300.139 300.716C300.782 300.031 301.584 299.688 302.541 299.688C303.498 299.688 304.24 299.998 304.76 300.613C305.286 301.227 305.549 302.081 305.549 303.175V303.785H305.553ZM304.019 302.663C304.014 302.095 303.878 301.65 303.616 301.335C303.353 301.016 302.987 300.861 302.522 300.861C302.067 300.861 301.682 301.026 301.363 301.359C301.049 301.692 300.852 302.128 300.782 302.663H304.019Z" fill="#F4F4F5"/>
<path d="M306.623 306.637V305.169C307.214 305.619 307.871 305.844 308.584 305.844C309.542 305.844 310.02 305.563 310.02 304.995C310.02 304.836 309.978 304.699 309.898 304.587C309.818 304.474 309.706 304.376 309.565 304.291C309.424 304.202 309.26 304.127 309.072 304.057C308.885 303.986 308.674 303.911 308.439 303.822C308.153 303.709 307.895 303.587 307.665 303.461C307.435 303.334 307.243 303.189 307.092 303.029C306.942 302.865 306.825 302.682 306.75 302.48C306.675 302.278 306.633 302.034 306.633 301.762C306.633 301.424 306.712 301.129 306.872 300.871C307.031 300.613 307.247 300.397 307.515 300.219C307.782 300.045 308.087 299.914 308.43 299.824C308.772 299.735 309.124 299.693 309.49 299.693C310.138 299.693 310.715 299.792 311.226 299.989V301.377C310.733 301.04 310.17 300.871 309.532 300.871C309.331 300.871 309.152 300.889 308.988 300.932C308.824 300.974 308.688 301.03 308.575 301.101C308.462 301.176 308.373 301.26 308.308 301.363C308.242 301.467 308.214 301.579 308.214 301.701C308.214 301.851 308.247 301.978 308.308 302.086C308.373 302.189 308.467 302.283 308.594 302.363C308.721 302.443 308.871 302.513 309.044 302.583C309.218 302.649 309.42 302.719 309.65 302.799C309.95 302.921 310.222 303.048 310.461 303.175C310.701 303.301 310.902 303.447 311.071 303.611C311.24 303.77 311.372 303.958 311.461 304.169C311.55 304.38 311.597 304.634 311.597 304.925C311.597 305.281 311.517 305.591 311.353 305.854C311.189 306.116 310.968 306.337 310.696 306.511C310.424 306.684 310.105 306.811 309.748 306.895C309.392 306.98 309.011 307.022 308.617 307.022C307.848 307.022 307.186 306.891 306.623 306.637Z" fill="#F4F4F5"/>
<path d="M322.323 306.858H320.784V305.765H320.756C320.272 306.605 319.564 307.022 318.63 307.022C317.94 307.022 317.401 306.834 317.016 306.464C316.627 306.088 316.43 305.596 316.43 304.981C316.43 303.658 317.19 302.888 318.715 302.673L320.793 302.377C320.793 301.378 320.319 300.88 319.372 300.88C318.536 300.88 317.786 301.166 317.115 301.743V300.355C317.851 299.918 318.705 299.698 319.672 299.698C321.441 299.698 322.323 300.566 322.323 302.311V306.858ZM320.789 303.419L319.32 303.625C318.865 303.686 318.522 303.794 318.292 303.958C318.062 304.122 317.95 304.404 317.95 304.807C317.95 305.103 318.058 305.347 318.269 305.535C318.48 305.722 318.766 305.816 319.118 305.816C319.601 305.816 320 305.647 320.319 305.305C320.638 304.967 320.793 304.54 320.793 304.024V303.419H320.789Z" fill="#F4F4F5"/>
<path d="M330.492 306.858H328.906V302.912C328.906 301.603 328.441 300.95 327.517 300.95C327.034 300.95 326.635 301.133 326.321 301.495C326.006 301.856 325.847 302.316 325.847 302.865V306.858H324.256V299.857H325.847V301.021H325.875C326.4 300.139 327.156 299.693 328.146 299.693C328.906 299.693 329.488 299.942 329.891 300.434C330.295 300.927 330.492 301.64 330.492 302.579V306.858Z" fill="#F4F4F5"/>
<path d="M338.787 306.858H337.201V305.666H337.173C336.662 306.567 335.878 307.017 334.813 307.017C333.95 307.017 333.26 306.703 332.744 306.079C332.228 305.45 331.97 304.596 331.97 303.517C331.97 302.358 332.256 301.434 332.828 300.735C333.401 300.035 334.161 299.688 335.113 299.688C336.057 299.688 336.742 300.068 337.173 300.824H337.201V296.488H338.787V306.858ZM337.225 303.658V302.743C337.225 302.245 337.061 301.823 336.742 301.476C336.418 301.129 336.005 300.955 335.503 300.955C334.912 300.955 334.443 301.176 334.105 301.617C333.767 302.058 333.593 302.672 333.593 303.456C333.593 304.169 333.757 304.728 334.081 305.14C334.41 305.553 334.846 305.76 335.4 305.76C335.944 305.76 336.38 305.563 336.718 305.164C337.056 304.765 337.225 304.263 337.225 303.658Z" fill="#F4F4F5"/>
<path d="M350.316 306.858H344.887V297.056H346.515V305.483H350.316V306.858Z" fill="#F4F4F5"/>
<path d="M352.352 298.384C352.094 298.384 351.869 298.299 351.686 298.131C351.498 297.962 351.409 297.746 351.409 297.488C351.409 297.23 351.503 297.009 351.686 296.84C351.869 296.667 352.094 296.582 352.352 296.582C352.62 296.582 352.85 296.671 353.037 296.84C353.225 297.014 353.319 297.23 353.319 297.488C353.319 297.732 353.225 297.943 353.037 298.121C352.85 298.299 352.62 298.384 352.352 298.384ZM353.136 306.858H351.55V299.857H353.136V306.858Z" fill="#F4F4F5"/>
<path d="M356.824 305.844H356.796V306.858H355.21V296.493H356.796V301.087H356.824C357.368 300.158 358.161 299.693 359.203 299.693C360.085 299.693 360.779 300.007 361.277 300.631C361.774 301.26 362.023 302.1 362.023 303.151C362.023 304.324 361.741 305.263 361.183 305.962C360.624 306.665 359.855 307.017 358.884 307.017C357.973 307.022 357.288 306.628 356.824 305.844ZM356.782 303.062V303.93C356.782 304.441 356.946 304.873 357.27 305.23C357.593 305.586 358.011 305.765 358.508 305.765C359.095 305.765 359.559 305.535 359.892 305.075C360.226 304.62 360.394 303.977 360.394 303.156C360.394 302.466 360.24 301.926 359.925 301.542C359.616 301.152 359.189 300.955 358.658 300.955C358.091 300.955 357.64 301.157 357.293 301.556C356.95 301.959 356.782 302.461 356.782 303.062Z" fill="#F4F4F5"/>
<path d="M367.705 301.368C367.512 301.218 367.24 301.143 366.879 301.143C366.41 301.143 366.016 301.354 365.701 301.776C365.387 302.199 365.227 302.776 365.227 303.508V306.858H363.641V299.857H365.227V301.298H365.255C365.41 300.805 365.65 300.42 365.969 300.148C366.292 299.871 366.649 299.735 367.048 299.735C367.334 299.735 367.555 299.777 367.705 299.867V301.368Z" fill="#F4F4F5"/>
<path d="M374.199 306.858H372.66V305.765H372.631C372.148 306.605 371.44 307.022 370.506 307.022C369.816 307.022 369.277 306.834 368.892 306.464C368.502 306.088 368.305 305.596 368.305 304.981C368.305 303.658 369.065 302.888 370.59 302.673L372.669 302.377C372.669 301.378 372.195 300.88 371.247 300.88C370.412 300.88 369.661 301.166 368.99 301.743V300.355C369.727 299.918 370.581 299.698 371.548 299.698C373.316 299.698 374.199 300.566 374.199 302.311V306.858ZM372.669 303.419L371.2 303.625C370.745 303.686 370.403 303.794 370.173 303.958C369.943 304.122 369.83 304.404 369.83 304.807C369.83 305.103 369.938 305.347 370.149 305.535C370.36 305.722 370.647 305.816 370.999 305.816C371.482 305.816 371.881 305.647 372.2 305.305C372.519 304.967 372.674 304.54 372.674 304.024V303.419H372.669Z" fill="#F4F4F5"/>
<path d="M380.195 301.368C380.003 301.218 379.731 301.143 379.369 301.143C378.9 301.143 378.506 301.354 378.192 301.776C377.877 302.199 377.718 302.776 377.718 303.508V306.858H376.132V299.857H377.718V301.298H377.746C377.901 300.805 378.14 300.42 378.459 300.148C378.783 299.871 379.139 299.735 379.538 299.735C379.824 299.735 380.045 299.777 380.195 299.867V301.368Z" fill="#F4F4F5"/>
<path d="M382.114 298.384C381.856 298.384 381.631 298.299 381.448 298.131C381.26 297.962 381.171 297.746 381.171 297.488C381.171 297.23 381.265 297.009 381.448 296.84C381.631 296.667 381.856 296.582 382.114 296.582C382.382 296.582 382.612 296.671 382.799 296.84C382.987 297.014 383.081 297.23 383.081 297.488C383.081 297.732 382.987 297.943 382.799 298.121C382.612 298.299 382.382 298.384 382.114 298.384ZM382.902 306.858H381.316V299.857H382.902V306.858Z" fill="#F4F4F5"/>
<path d="M390.898 303.785H386.126C386.145 304.432 386.342 304.929 386.722 305.281C387.102 305.633 387.627 305.807 388.289 305.807C389.035 305.807 389.725 305.582 390.349 305.136V306.412C389.711 306.816 388.866 307.013 387.82 307.013C386.787 307.013 385.98 306.694 385.394 306.06C384.807 305.422 384.516 304.531 384.516 303.376C384.516 302.288 384.84 301.401 385.483 300.716C386.126 300.031 386.928 299.688 387.885 299.688C388.843 299.688 389.584 299.998 390.105 300.613C390.63 301.227 390.893 302.081 390.893 303.175V303.785H390.898ZM389.368 302.663C389.363 302.095 389.227 301.65 388.965 301.335C388.702 301.016 388.336 300.861 387.871 300.861C387.416 300.861 387.031 301.026 386.712 301.359C386.398 301.692 386.201 302.128 386.131 302.663H389.368Z" fill="#F4F4F5"/>
<path d="M391.972 306.637V305.169C392.563 305.619 393.22 305.844 393.934 305.844C394.891 305.844 395.369 305.563 395.369 304.995C395.369 304.836 395.327 304.699 395.247 304.587C395.168 304.474 395.055 304.376 394.914 304.291C394.773 304.202 394.609 304.127 394.421 304.057C394.234 303.986 394.023 303.911 393.788 303.822C393.502 303.709 393.244 303.587 393.014 303.461C392.784 303.334 392.592 303.189 392.441 303.029C392.291 302.865 392.174 302.682 392.099 302.48C392.024 302.278 391.982 302.034 391.982 301.762C391.982 301.424 392.061 301.129 392.221 300.871C392.38 300.613 392.596 300.397 392.864 300.219C393.131 300.045 393.436 299.914 393.779 299.824C394.121 299.735 394.473 299.693 394.839 299.693C395.487 299.693 396.064 299.792 396.575 299.989V301.377C396.082 301.04 395.519 300.871 394.881 300.871C394.68 300.871 394.501 300.889 394.337 300.932C394.173 300.974 394.037 301.03 393.924 301.101C393.812 301.176 393.722 301.26 393.657 301.363C393.591 301.467 393.563 301.579 393.563 301.701C393.563 301.851 393.596 301.978 393.657 302.086C393.722 302.189 393.816 302.283 393.943 302.363C394.07 302.443 394.22 302.513 394.393 302.583C394.567 302.649 394.769 302.719 394.999 302.799C395.299 302.921 395.571 303.048 395.81 303.175C396.05 303.301 396.251 303.447 396.42 303.611C396.589 303.77 396.721 303.958 396.81 304.169C396.899 304.38 396.946 304.634 396.946 304.925C396.946 305.281 396.866 305.591 396.702 305.854C396.538 306.116 396.317 306.337 396.045 306.511C395.773 306.684 395.454 306.811 395.097 306.895C394.741 306.98 394.361 307.022 393.966 307.022C393.197 307.022 392.531 306.891 391.972 306.637Z" fill="#F4F4F5"/>
<path d="M307.214 361.699H305.582V357.448H300.969V361.699H299.341V351.897H300.969V356.021H305.582V351.897H307.214V361.699Z" fill="black"/>
<path d="M312.559 361.863C311.48 361.863 310.616 361.535 309.973 360.882C309.326 360.23 309.007 359.362 309.007 358.283C309.007 357.105 309.345 356.19 310.016 355.529C310.687 354.867 311.592 354.539 312.732 354.539C313.826 354.539 314.68 354.858 315.289 355.501C315.899 356.144 316.204 357.035 316.204 358.175C316.204 359.292 315.876 360.188 315.214 360.859C314.558 361.525 313.671 361.863 312.559 361.863ZM312.634 355.801C312.014 355.801 311.526 356.017 311.165 356.448C310.804 356.88 310.626 357.481 310.626 358.241C310.626 358.973 310.809 359.555 311.175 359.972C311.54 360.395 312.028 360.606 312.638 360.606C313.262 360.606 313.741 360.399 314.079 359.982C314.412 359.569 314.581 358.978 314.581 358.213C314.581 357.443 314.412 356.847 314.079 356.43C313.736 356.007 313.258 355.801 312.634 355.801Z" fill="black"/>
<path d="M317.377 361.478V360.01C317.969 360.46 318.626 360.685 319.339 360.685C320.296 360.685 320.775 360.404 320.775 359.836C320.775 359.677 320.732 359.541 320.653 359.428C320.573 359.315 320.46 359.217 320.319 359.132C320.179 359.043 320.014 358.968 319.827 358.898C319.639 358.827 319.428 358.752 319.193 358.663C318.907 358.551 318.649 358.429 318.419 358.302C318.189 358.175 317.997 358.03 317.847 357.87C317.697 357.706 317.579 357.523 317.504 357.321C317.429 357.119 317.387 356.875 317.387 356.603C317.387 356.265 317.467 355.97 317.626 355.712C317.786 355.454 318.002 355.238 318.269 355.06C318.536 354.886 318.841 354.755 319.184 354.661C319.526 354.572 319.878 354.529 320.244 354.529C320.892 354.529 321.469 354.628 321.98 354.825V356.214C321.488 355.876 320.925 355.707 320.287 355.707C320.085 355.707 319.906 355.726 319.742 355.768C319.578 355.81 319.442 355.867 319.329 355.937C319.217 356.012 319.128 356.097 319.062 356.2C318.996 356.303 318.968 356.416 318.968 356.538C318.968 356.688 319.001 356.814 319.062 356.922C319.128 357.026 319.221 357.119 319.348 357.199C319.475 357.279 319.625 357.349 319.799 357.42C319.972 357.485 320.174 357.556 320.404 357.636C320.704 357.758 320.976 357.884 321.216 358.011C321.455 358.138 321.657 358.283 321.826 358.447C321.994 358.607 322.126 358.795 322.215 359.006C322.304 359.217 322.351 359.47 322.351 359.761C322.351 360.118 322.271 360.427 322.107 360.69C321.943 360.953 321.722 361.173 321.45 361.347C321.178 361.521 320.859 361.647 320.502 361.732C320.146 361.816 319.766 361.858 319.372 361.858C318.602 361.863 317.94 361.736 317.377 361.478Z" fill="black"/>
<path d="M327.545 361.624C327.235 361.779 326.827 361.858 326.321 361.858C324.96 361.858 324.284 361.206 324.284 359.902V355.942H323.116V354.698H324.284V353.08L325.87 352.629V354.698H327.545V355.942H325.87V359.442C325.87 359.855 325.945 360.155 326.095 360.329C326.245 360.507 326.499 360.596 326.846 360.596C327.114 360.596 327.348 360.521 327.545 360.362V361.624Z" fill="black"/>
<path d="M156.261 8.54895H8.40356V274.107H156.261V8.54895Z" fill="#0E1219"/>
<path d="M309.223 8.54895H161.365V274.107H309.223V8.54895Z" fill="#141D2F"/>
<path d="M461.485 8.54895H313.628V274.107H461.485V8.54895Z" fill="#1A2C45"/>
<path d="M615.583 8.54895H466.046V274.107H615.583V8.54895Z" fill="#243A5E"/>
<path d="M411.895 204.979L406.307 220.533H403.421L397.931 204.979H400.751L404.589 216.779C404.711 217.155 404.805 217.596 404.871 218.093H404.913C404.965 217.68 405.068 217.234 405.227 216.756L409.155 204.974H411.895V204.979Z" fill="#D2D3D4"/>
<path d="M430.663 220.533H428.101V210.464C428.101 209.638 428.153 208.629 428.251 207.437H428.209C428.05 208.118 427.909 208.606 427.787 208.901L423.142 220.533H421.363L416.709 208.99C416.577 208.652 416.441 208.132 416.296 207.437H416.254C416.31 208.061 416.343 209.075 416.343 210.487V220.533H413.955V204.979H417.591L421.682 215.339C421.992 216.136 422.194 216.728 422.288 217.117H422.339C422.607 216.301 422.823 215.691 422.992 215.292L427.158 204.974H430.663V220.533Z" fill="#D2D3D4"/>
<path d="M440.01 219.96V217.596C441.023 218.398 442.163 218.801 443.44 218.801C444.472 218.801 445.298 218.567 445.917 218.098C446.536 217.628 446.846 216.99 446.846 216.188C446.846 214.424 445.499 213.542 442.802 213.542H441.596V211.524H442.745C445.138 211.524 446.335 210.693 446.335 209.028C446.335 207.493 445.401 206.729 443.538 206.729C442.497 206.729 441.516 207.099 440.596 207.845V205.612C441.652 205.021 442.9 204.725 444.341 204.725C445.72 204.725 446.827 205.072 447.658 205.767C448.488 206.461 448.906 207.353 448.906 208.437C448.906 210.482 447.864 211.801 445.781 212.383V212.425C446.902 212.533 447.789 212.927 448.441 213.603C449.094 214.278 449.417 215.123 449.417 216.136C449.417 217.53 448.892 218.661 447.846 219.515C446.794 220.373 445.415 220.8 443.702 220.8C442.159 220.795 440.929 220.514 440.01 219.96Z" fill="#D2D3D4"/>
<path d="M368.789 231.691L365.27 241.492H363.449L359.991 231.691H361.769L364.19 239.128C364.265 239.367 364.326 239.639 364.369 239.953H364.397C364.43 239.695 364.495 239.414 364.594 239.114L367.067 231.691H368.789Z" fill="#D2D3D4"/>
<path d="M380.617 241.492H379.003V235.149C379.003 234.628 379.036 233.994 379.097 233.244H379.069C378.971 233.671 378.881 233.98 378.802 234.168L375.874 241.497H374.752L371.82 234.224C371.74 234.009 371.651 233.685 371.562 233.248H371.534C371.571 233.638 371.59 234.281 371.59 235.168V241.497H370.084V231.695H372.373L374.949 238.222C375.146 238.724 375.273 239.095 375.334 239.343H375.367C375.536 238.827 375.672 238.447 375.775 238.194L378.398 231.691H380.608V241.492H380.617Z" fill="#D2D3D4"/>
<path d="M386.511 241.131V239.639C387.149 240.146 387.871 240.399 388.669 240.399C389.321 240.399 389.842 240.249 390.231 239.954C390.621 239.658 390.818 239.254 390.818 238.752C390.818 237.64 389.969 237.087 388.27 237.087H387.51V235.815H388.233C389.743 235.815 390.494 235.29 390.494 234.243C390.494 233.277 389.908 232.793 388.73 232.793C388.073 232.793 387.458 233.028 386.877 233.497V232.09C387.543 231.714 388.326 231.531 389.237 231.531C390.105 231.531 390.804 231.752 391.329 232.188C391.855 232.625 392.118 233.188 392.118 233.868C392.118 235.158 391.461 235.989 390.147 236.355V236.383C390.851 236.453 391.414 236.697 391.822 237.124C392.23 237.551 392.437 238.081 392.437 238.72C392.437 239.602 392.108 240.31 391.447 240.85C390.785 241.389 389.917 241.661 388.833 241.661C387.862 241.657 387.088 241.483 386.511 241.131Z" fill="#D2D3D4"/>
<path d="M402.539 241.657C401.126 241.657 399.996 241.197 399.146 240.282C398.297 239.367 397.87 238.175 397.87 236.706C397.87 235.13 398.302 233.872 399.17 232.934C400.038 231.996 401.211 231.526 402.698 231.526C404.073 231.526 405.185 231.982 406.025 232.892C406.865 233.802 407.287 234.994 407.287 236.467C407.287 238.067 406.856 239.329 405.997 240.263C405.129 241.192 403.979 241.657 402.539 241.657ZM402.614 232.957C401.718 232.957 400.986 233.291 400.423 233.962C399.86 234.633 399.578 235.515 399.578 236.608C399.578 237.696 399.85 238.574 400.399 239.24C400.948 239.906 401.661 240.24 402.543 240.24C403.482 240.24 404.223 239.925 404.763 239.287C405.307 238.654 405.575 237.767 405.575 236.627C405.575 235.454 405.312 234.553 404.786 233.915C404.265 233.277 403.538 232.957 402.614 232.957Z" fill="#D2D3D4"/>
<path d="M408.629 241.103V239.428C408.779 239.564 408.958 239.686 409.164 239.799C409.371 239.907 409.591 240 409.826 240.076C410.06 240.151 410.29 240.207 410.525 240.249C410.759 240.291 410.97 240.31 411.168 240.31C411.853 240.31 412.359 240.198 412.697 239.968C413.035 239.742 413.199 239.409 413.199 238.978C413.199 238.743 413.143 238.546 413.03 238.372C412.918 238.203 412.763 238.044 412.561 237.903C412.359 237.762 412.125 237.626 411.853 237.495C411.58 237.368 411.29 237.232 410.98 237.087C410.647 236.908 410.337 236.73 410.051 236.547C409.765 236.364 409.516 236.162 409.3 235.942C409.089 235.721 408.92 235.473 408.803 235.191C408.681 234.914 408.62 234.586 408.62 234.215C408.62 233.755 408.723 233.356 408.929 233.014C409.136 232.676 409.413 232.395 409.751 232.174C410.088 231.954 410.478 231.789 410.909 231.681C411.341 231.573 411.782 231.522 412.237 231.522C413.265 231.522 414.011 231.639 414.48 231.869V233.474C413.926 233.07 413.209 232.873 412.336 232.873C412.097 232.873 411.853 232.897 411.613 232.944C411.374 232.99 411.158 233.066 410.97 233.169C410.783 233.272 410.628 233.408 410.511 233.572C410.393 233.737 410.332 233.934 410.332 234.168C410.332 234.389 410.379 234.576 410.468 234.736C410.558 234.895 410.694 235.041 410.867 235.172C411.041 235.304 411.257 235.435 411.51 235.557C411.763 235.684 412.054 235.82 412.388 235.965C412.73 236.144 413.054 236.331 413.354 236.524C413.659 236.721 413.922 236.937 414.152 237.171C414.382 237.41 414.565 237.673 414.701 237.959C414.837 238.25 414.902 238.579 414.902 238.945C414.902 239.442 414.804 239.86 414.602 240.202C414.4 240.545 414.133 240.822 413.79 241.037C413.453 241.253 413.058 241.408 412.617 241.502C412.176 241.596 411.707 241.647 411.214 241.647C411.05 241.647 410.848 241.633 410.609 241.61C410.37 241.586 410.126 241.549 409.873 241.502C409.624 241.455 409.385 241.394 409.159 241.328C408.948 241.267 408.765 241.192 408.629 241.103Z" fill="#D2D3D4"/>
<path d="M425.844 233.07H422.18V236.017H425.558V237.392H422.18V241.492H420.552V231.691H425.844V233.07Z" fill="#D2D3D4"/>
<path d="M428.209 233.023C427.951 233.023 427.726 232.939 427.543 232.77C427.355 232.601 427.266 232.385 427.266 232.127C427.266 231.869 427.36 231.648 427.543 231.48C427.726 231.306 427.951 231.221 428.209 231.221C428.477 231.221 428.707 231.311 428.894 231.48C429.082 231.653 429.176 231.869 429.176 232.127C429.176 232.371 429.082 232.582 428.894 232.76C428.707 232.934 428.477 233.023 428.209 233.023ZM428.993 241.492H427.407V234.492H428.993V241.492Z" fill="#D2D3D4"/>
<path d="M432.657 241.492H431.067V231.128H432.657V241.492Z" fill="#D2D3D4"/>
<path d="M440.648 238.424H435.876C435.895 239.071 436.092 239.569 436.472 239.921C436.852 240.273 437.378 240.446 438.039 240.446C438.785 240.446 439.475 240.221 440.099 239.775V241.051C439.461 241.455 438.616 241.652 437.57 241.652C436.538 241.652 435.731 241.333 435.144 240.699C434.558 240.061 434.267 239.17 434.267 238.016C434.267 236.927 434.59 236.04 435.233 235.355C435.876 234.67 436.678 234.328 437.636 234.328C438.593 234.328 439.334 234.637 439.855 235.252C440.38 235.867 440.643 236.721 440.643 237.814V238.424H440.648ZM439.118 237.302C439.114 236.735 438.978 236.289 438.715 235.975C438.452 235.656 438.086 235.501 437.622 235.501C437.166 235.501 436.782 235.665 436.463 235.998C436.148 236.331 435.951 236.768 435.881 237.302H439.118Z" fill="#D2D3D4"/>
<path d="M441.722 241.277V239.808C442.314 240.258 442.971 240.484 443.684 240.484C444.641 240.484 445.119 240.202 445.119 239.634C445.119 239.475 445.077 239.339 444.998 239.226C444.918 239.114 444.805 239.015 444.664 238.931C444.524 238.841 444.359 238.766 444.172 238.696C443.984 238.626 443.773 238.551 443.538 238.461C443.252 238.349 442.994 238.227 442.764 238.1C442.534 237.973 442.342 237.828 442.192 237.668C442.041 237.504 441.924 237.321 441.849 237.119C441.774 236.918 441.732 236.674 441.732 236.402C441.732 236.064 441.812 235.768 441.971 235.51C442.131 235.252 442.346 235.036 442.614 234.858C442.881 234.684 443.186 234.553 443.529 234.459C443.871 234.37 444.223 234.328 444.589 234.328C445.237 234.328 445.814 234.426 446.325 234.623V236.012C445.833 235.674 445.27 235.505 444.632 235.505C444.43 235.505 444.251 235.524 444.087 235.566C443.923 235.609 443.787 235.665 443.674 235.735C443.562 235.81 443.473 235.895 443.407 235.998C443.341 236.101 443.313 236.214 443.313 236.336C443.313 236.486 443.346 236.613 443.407 236.721C443.473 236.824 443.566 236.918 443.693 236.997C443.82 237.077 443.97 237.148 444.144 237.218C444.317 237.284 444.519 237.354 444.749 237.434C445.049 237.556 445.321 237.682 445.561 237.809C445.8 237.936 446.002 238.081 446.171 238.246C446.339 238.405 446.471 238.593 446.56 238.804C446.649 239.015 446.696 239.268 446.696 239.559C446.696 239.916 446.616 240.226 446.452 240.488C446.288 240.751 446.067 240.972 445.795 241.145C445.523 241.319 445.204 241.446 444.847 241.53C444.491 241.614 444.111 241.657 443.717 241.657C442.947 241.657 442.285 241.53 441.722 241.277Z" fill="#D2D3D4"/>
<path d="M372.702 258.295H371.163V257.202H371.135C370.651 258.041 369.943 258.459 369.009 258.459C368.319 258.459 367.78 258.271 367.395 257.901C367.006 257.525 366.809 257.033 366.809 256.418C366.809 255.095 367.569 254.325 369.094 254.109L371.172 253.814C371.172 252.814 370.698 252.317 369.751 252.317C368.915 252.317 368.165 252.603 367.494 253.18V251.792C368.23 251.355 369.084 251.135 370.051 251.135C371.82 251.135 372.702 252.003 372.702 253.748V258.295ZM371.172 254.855L369.704 255.062C369.248 255.123 368.906 255.231 368.676 255.395C368.446 255.559 368.334 255.841 368.334 256.244C368.334 256.54 368.441 256.784 368.653 256.972C368.864 257.159 369.15 257.253 369.502 257.253C369.985 257.253 370.384 257.084 370.703 256.742C371.022 256.404 371.177 255.977 371.177 255.461V254.855H371.172Z" fill="#D2D3D4"/>
<path d="M380.871 258.295H379.285V254.349C379.285 253.04 378.82 252.388 377.896 252.388C377.413 252.388 377.014 252.571 376.7 252.932C376.385 253.293 376.226 253.753 376.226 254.302V258.295H374.635V251.294H376.226V252.458H376.254C376.779 251.576 377.535 251.13 378.525 251.13C379.285 251.13 379.867 251.379 380.27 251.871C380.674 252.364 380.871 253.077 380.871 254.016V258.295Z" fill="#D2D3D4"/>
<path d="M389.171 258.295H387.585V257.103H387.557C387.046 258.004 386.262 258.454 385.197 258.454C384.334 258.454 383.644 258.14 383.128 257.516C382.612 256.887 382.353 256.033 382.353 254.954C382.353 253.795 382.64 252.871 383.212 252.172C383.785 251.473 384.545 251.125 385.497 251.125C386.44 251.125 387.125 251.505 387.557 252.261H387.585V247.925H389.171V258.295ZM387.604 255.095V254.18C387.604 253.682 387.44 253.26 387.121 252.913C386.797 252.566 386.384 252.392 385.882 252.392C385.291 252.392 384.821 252.613 384.484 253.054C384.146 253.495 383.972 254.109 383.972 254.893C383.972 255.606 384.136 256.165 384.46 256.578C384.789 256.99 385.225 257.197 385.779 257.197C386.323 257.197 386.759 257 387.097 256.601C387.435 256.202 387.604 255.7 387.604 255.095Z" fill="#D2D3D4"/>
<path d="M396.683 258.295H395.092V247.93H396.683V258.295Z" fill="#D2D3D4"/>
<path d="M399.55 249.826C399.292 249.826 399.067 249.741 398.884 249.572C398.696 249.403 398.607 249.187 398.607 248.929C398.607 248.671 398.701 248.451 398.884 248.282C399.067 248.108 399.292 248.024 399.55 248.024C399.817 248.024 400.047 248.113 400.235 248.282C400.423 248.455 400.517 248.671 400.517 248.929C400.517 249.173 400.423 249.384 400.235 249.563C400.047 249.736 399.817 249.826 399.55 249.826ZM400.334 258.295H398.748V251.294H400.334V258.295Z" fill="#D2D3D4"/>
<path d="M404.017 257.281H403.989V258.295H402.403V247.93H403.989V252.524H404.017C404.561 251.595 405.354 251.13 406.396 251.13C407.278 251.13 407.972 251.444 408.47 252.068C408.967 252.697 409.216 253.537 409.216 254.588C409.216 255.761 408.934 256.7 408.376 257.399C407.817 258.102 407.048 258.454 406.077 258.454C405.171 258.459 404.481 258.065 404.017 257.281ZM403.979 254.499V255.367C403.979 255.878 404.144 256.31 404.467 256.667C404.791 257.023 405.209 257.202 405.706 257.202C406.293 257.202 406.757 256.972 407.09 256.512C407.423 256.057 407.592 255.414 407.592 254.593C407.592 253.903 407.437 253.363 407.123 252.979C406.813 252.589 406.386 252.392 405.856 252.392C405.288 252.392 404.838 252.594 404.491 252.993C404.148 253.396 403.979 253.898 403.979 254.499Z" fill="#D2D3D4"/>
<path d="M414.902 252.805C414.71 252.655 414.438 252.58 414.077 252.58C413.607 252.58 413.213 252.791 412.899 253.213C412.585 253.636 412.425 254.213 412.425 254.945V258.295H410.839V251.294H412.425V252.735H412.453C412.608 252.242 412.847 251.857 413.166 251.585C413.49 251.308 413.847 251.172 414.246 251.172C414.532 251.172 414.752 251.214 414.902 251.304V252.805Z" fill="#D2D3D4"/>
<path d="M421.396 258.295H419.857V257.202H419.829C419.346 258.041 418.637 258.459 417.704 258.459C417.014 258.459 416.474 258.271 416.09 257.901C415.7 257.525 415.503 257.033 415.503 256.418C415.503 255.095 416.263 254.325 417.788 254.109L419.867 253.814C419.867 252.814 419.393 252.317 418.445 252.317C417.61 252.317 416.859 252.603 416.188 253.18V251.792C416.925 251.355 417.779 251.135 418.745 251.135C420.514 251.135 421.396 252.003 421.396 253.748V258.295ZM419.867 254.855L418.398 255.062C417.943 255.123 417.6 255.231 417.371 255.395C417.141 255.559 417.028 255.841 417.028 256.244C417.028 256.54 417.136 256.784 417.347 256.972C417.558 257.159 417.844 257.253 418.196 257.253C418.68 257.253 419.078 257.084 419.398 256.742C419.717 256.404 419.871 255.977 419.871 255.461V254.855H419.867Z" fill="#D2D3D4"/>
<path d="M427.393 252.805C427.2 252.655 426.928 252.58 426.567 252.58C426.098 252.58 425.704 252.791 425.389 253.213C425.075 253.636 424.915 254.213 424.915 254.945V258.295H423.329V251.294H424.915V252.735H424.944C425.098 252.242 425.338 251.857 425.657 251.585C425.981 251.308 426.337 251.172 426.736 251.172C427.022 251.172 427.243 251.214 427.393 251.304V252.805Z" fill="#D2D3D4"/>
<path d="M429.312 249.826C429.054 249.826 428.829 249.741 428.646 249.572C428.458 249.403 428.369 249.187 428.369 248.929C428.369 248.671 428.463 248.451 428.646 248.282C428.829 248.108 429.054 248.024 429.312 248.024C429.579 248.024 429.809 248.113 429.997 248.282C430.185 248.455 430.278 248.671 430.278 248.929C430.278 249.173 430.185 249.384 429.997 249.563C429.809 249.736 429.579 249.826 429.312 249.826ZM430.1 258.295H428.514V251.294H430.1V258.295Z" fill="#D2D3D4"/>
<path d="M438.095 255.226H433.324C433.342 255.874 433.539 256.371 433.919 256.723C434.3 257.075 434.825 257.249 435.487 257.249C436.233 257.249 436.922 257.023 437.546 256.578V257.854C436.908 258.257 436.064 258.454 435.017 258.454C433.985 258.454 433.178 258.135 432.592 257.502C432.005 256.864 431.714 255.972 431.714 254.818C431.714 253.73 432.038 252.843 432.681 252.158C433.324 251.473 434.126 251.13 435.083 251.13C436.04 251.13 436.782 251.44 437.302 252.054C437.828 252.669 438.091 253.523 438.091 254.616V255.226H438.095ZM436.566 254.105C436.561 253.537 436.425 253.091 436.162 252.777C435.9 252.458 435.534 252.303 435.069 252.303C434.614 252.303 434.229 252.467 433.91 252.801C433.596 253.134 433.399 253.57 433.328 254.105H436.566Z" fill="#D2D3D4"/>
<path d="M439.17 258.074V256.606C439.761 257.056 440.418 257.281 441.131 257.281C442.088 257.281 442.567 257 442.567 256.432C442.567 256.273 442.525 256.137 442.445 256.024C442.365 255.911 442.253 255.813 442.112 255.728C441.971 255.639 441.807 255.564 441.619 255.494C441.432 255.423 441.22 255.348 440.986 255.259C440.7 255.147 440.441 255.025 440.212 254.898C439.982 254.771 439.789 254.626 439.639 254.466C439.489 254.302 439.372 254.119 439.297 253.917C439.222 253.711 439.179 253.471 439.179 253.199C439.179 252.861 439.259 252.566 439.419 252.308C439.578 252.05 439.794 251.834 440.061 251.656C440.329 251.482 440.634 251.351 440.976 251.261C441.319 251.172 441.671 251.13 442.037 251.13C442.684 251.13 443.261 251.229 443.773 251.426V252.815C443.28 252.477 442.717 252.308 442.079 252.308C441.877 252.308 441.699 252.327 441.535 252.369C441.371 252.411 441.234 252.467 441.122 252.538C441.009 252.613 440.92 252.697 440.854 252.801C440.789 252.904 440.761 253.016 440.761 253.138C440.761 253.288 440.793 253.415 440.854 253.523C440.92 253.626 441.014 253.72 441.141 253.8C441.267 253.88 441.417 253.95 441.591 254.02C441.765 254.086 441.966 254.157 442.196 254.236C442.497 254.358 442.769 254.485 443.008 254.612C443.247 254.738 443.449 254.884 443.618 255.048C443.787 255.208 443.918 255.395 444.007 255.606C444.097 255.818 444.144 256.071 444.144 256.362C444.144 256.718 444.064 257.028 443.9 257.291C443.735 257.554 443.515 257.774 443.243 257.948C442.971 258.121 442.651 258.248 442.295 258.332C441.938 258.417 441.558 258.459 441.164 258.459C440.395 258.459 439.728 258.328 439.17 258.074Z" fill="#D2D3D4"/>
<path d="M261.345 204.979L255.756 220.533H252.871L247.381 204.979H250.201L254.039 216.779C254.161 217.155 254.255 217.596 254.32 218.093H254.363C254.414 217.68 254.518 217.234 254.677 216.756L258.604 204.974H261.345V204.979Z" fill="#D2D3D4"/>
<path d="M280.113 220.533H277.551V210.464C277.551 209.638 277.603 208.629 277.701 207.437H277.659C277.499 208.118 277.359 208.606 277.237 208.901L272.591 220.533H270.813L266.159 208.99C266.027 208.652 265.891 208.132 265.746 207.437H265.703C265.76 208.061 265.793 209.075 265.793 210.487V220.533H263.404V204.979H267.041L271.132 215.339C271.442 216.136 271.644 216.728 271.738 217.117H271.789C272.057 216.301 272.272 215.691 272.441 215.292L276.608 204.974H280.113V220.533Z" fill="#D2D3D4"/>
<path d="M298.952 220.533H289.187V219.327C289.187 218.834 289.258 218.374 289.394 217.943C289.53 217.511 289.713 217.108 289.947 216.727C290.177 216.347 290.45 215.991 290.759 215.653C291.069 215.315 291.402 214.991 291.759 214.677C292.115 214.363 292.477 214.058 292.843 213.767C293.213 213.476 293.574 213.18 293.926 212.88C294.26 212.598 294.564 212.322 294.837 212.049C295.113 211.777 295.348 211.496 295.54 211.21C295.733 210.923 295.888 210.614 295.996 210.295C296.104 209.976 296.16 209.624 296.16 209.248C296.16 208.835 296.094 208.474 295.967 208.169C295.841 207.859 295.662 207.606 295.437 207.4C295.212 207.193 294.94 207.038 294.63 206.935C294.321 206.832 293.978 206.776 293.612 206.776C292.974 206.776 292.326 206.926 291.669 207.221C291.013 207.517 290.379 207.963 289.769 208.554V206.137C290.088 205.898 290.407 205.692 290.736 205.513C291.06 205.335 291.397 205.19 291.745 205.068C292.092 204.946 292.458 204.861 292.843 204.8C293.227 204.744 293.635 204.716 294.067 204.716C294.766 204.716 295.404 204.81 295.977 204.993C296.549 205.176 297.037 205.448 297.441 205.804C297.844 206.161 298.159 206.607 298.379 207.146C298.6 207.681 298.712 208.296 298.712 208.99C298.712 209.619 298.633 210.187 298.478 210.689C298.323 211.191 298.102 211.66 297.816 212.092C297.53 212.528 297.183 212.936 296.779 213.33C296.376 213.72 295.921 214.123 295.423 214.536C295.006 214.874 294.588 215.207 294.17 215.526C293.753 215.85 293.382 216.164 293.049 216.469C292.716 216.779 292.448 217.084 292.242 217.389C292.035 217.694 291.932 218.004 291.932 218.318V218.37H298.952V220.533Z" fill="#D2D3D4"/>
<path d="M223.259 231.691L219.74 241.492H217.919L214.461 231.691H216.239L218.661 239.128C218.736 239.367 218.797 239.639 218.839 239.953H218.867C218.9 239.695 218.966 239.414 219.064 239.114L221.537 231.691H223.259Z" fill="#D2D3D4"/>
<path d="M235.088 241.492H233.473V235.149C233.473 234.628 233.506 233.994 233.567 233.244H233.539C233.441 233.671 233.352 233.98 233.272 234.168L230.344 241.497H229.222L226.29 234.224C226.21 234.009 226.121 233.685 226.032 233.248H226.004C226.041 233.638 226.06 234.281 226.06 235.168V241.497H224.554V231.695H226.844L229.42 238.222C229.617 238.724 229.743 239.095 229.804 239.343H229.837C230.006 238.827 230.142 238.447 230.245 238.194L232.868 231.691H235.078V241.492H235.088Z" fill="#D2D3D4"/>
<path d="M246.959 241.493H240.807V240.732C240.807 240.423 240.849 240.132 240.939 239.86C241.028 239.588 241.14 239.334 241.286 239.095C241.431 238.856 241.6 238.63 241.797 238.419C241.994 238.208 242.201 238.002 242.426 237.805C242.651 237.607 242.876 237.415 243.111 237.232C243.346 237.044 243.571 236.861 243.796 236.674C244.007 236.495 244.2 236.322 244.369 236.153C244.542 235.979 244.688 235.806 244.814 235.623C244.936 235.44 245.035 235.247 245.101 235.046C245.171 234.844 245.204 234.623 245.204 234.384C245.204 234.126 245.162 233.896 245.082 233.704C245.002 233.511 244.889 233.347 244.749 233.216C244.603 233.089 244.434 232.99 244.237 232.925C244.04 232.859 243.829 232.826 243.594 232.826C243.191 232.826 242.787 232.92 242.37 233.108C241.957 233.295 241.558 233.572 241.173 233.948V232.423C241.375 232.273 241.577 232.141 241.783 232.029C241.99 231.916 242.201 231.822 242.417 231.747C242.637 231.672 242.867 231.616 243.106 231.578C243.346 231.541 243.604 231.522 243.881 231.522C244.322 231.522 244.725 231.578 245.082 231.695C245.443 231.813 245.748 231.982 246.006 232.207C246.259 232.432 246.457 232.714 246.597 233.051C246.738 233.389 246.808 233.774 246.808 234.215C246.808 234.614 246.762 234.966 246.663 235.285C246.564 235.599 246.424 235.895 246.245 236.172C246.067 236.444 245.847 236.707 245.593 236.951C245.34 237.195 245.054 237.448 244.739 237.711C244.476 237.927 244.214 238.133 243.951 238.335C243.688 238.537 243.454 238.734 243.242 238.931C243.031 239.123 242.862 239.32 242.731 239.512C242.604 239.705 242.539 239.902 242.539 240.094V240.127H246.963V241.493H246.959Z" fill="#D2D3D4"/>
<path d="M257.009 241.657C255.597 241.657 254.466 241.197 253.617 240.282C252.767 239.367 252.34 238.175 252.34 236.706C252.34 235.13 252.772 233.872 253.64 232.934C254.508 231.996 255.681 231.526 257.169 231.526C258.543 231.526 259.655 231.982 260.495 232.892C261.335 233.802 261.757 234.994 261.757 236.467C261.757 238.067 261.326 239.329 260.467 240.263C259.599 241.192 258.45 241.657 257.009 241.657ZM257.084 232.957C256.188 232.957 255.456 233.291 254.893 233.962C254.33 234.633 254.048 235.515 254.048 236.608C254.048 237.696 254.321 238.574 254.869 239.24C255.418 239.906 256.132 240.24 257.014 240.24C257.952 240.24 258.694 239.925 259.233 239.287C259.777 238.654 260.045 237.767 260.045 236.627C260.045 235.454 259.782 234.553 259.257 233.915C258.736 233.277 258.008 232.957 257.084 232.957Z" fill="#D2D3D4"/>
<path d="M263.099 241.103V239.428C263.249 239.564 263.428 239.686 263.634 239.799C263.841 239.907 264.061 240 264.296 240.076C264.53 240.151 264.76 240.207 264.995 240.249C265.23 240.291 265.441 240.31 265.638 240.31C266.323 240.31 266.83 240.198 267.167 239.968C267.505 239.742 267.669 239.409 267.669 238.978C267.669 238.743 267.613 238.546 267.501 238.372C267.388 238.203 267.233 238.044 267.031 237.903C266.83 237.762 266.595 237.626 266.323 237.495C266.051 237.368 265.76 237.232 265.45 237.087C265.117 236.908 264.807 236.73 264.521 236.547C264.235 236.364 263.986 236.162 263.77 235.942C263.559 235.721 263.39 235.473 263.273 235.191C263.151 234.914 263.09 234.586 263.09 234.215C263.09 233.755 263.193 233.356 263.4 233.014C263.606 232.676 263.883 232.395 264.221 232.174C264.559 231.954 264.948 231.789 265.38 231.681C265.811 231.573 266.252 231.522 266.708 231.522C267.735 231.522 268.481 231.639 268.95 231.869V233.474C268.397 233.07 267.679 232.873 266.806 232.873C266.567 232.873 266.323 232.897 266.084 232.944C265.844 232.99 265.628 233.066 265.441 233.169C265.253 233.272 265.098 233.408 264.981 233.572C264.864 233.737 264.803 233.934 264.803 234.168C264.803 234.389 264.849 234.576 264.939 234.736C265.028 234.895 265.164 235.041 265.337 235.172C265.511 235.304 265.727 235.435 265.98 235.557C266.234 235.684 266.525 235.82 266.858 235.965C267.2 236.144 267.524 236.331 267.824 236.524C268.129 236.721 268.392 236.937 268.622 237.171C268.852 237.41 269.035 237.673 269.171 237.959C269.307 238.25 269.373 238.579 269.373 238.945C269.373 239.442 269.274 239.86 269.072 240.202C268.871 240.545 268.603 240.822 268.261 241.037C267.923 241.253 267.529 241.408 267.088 241.502C266.647 241.596 266.177 241.647 265.685 241.647C265.52 241.647 265.319 241.633 265.079 241.61C264.84 241.586 264.596 241.549 264.343 241.502C264.094 241.455 263.855 241.394 263.63 241.328C263.418 241.267 263.235 241.192 263.099 241.103Z" fill="#D2D3D4"/>
<path d="M280.315 233.07H276.65V236.017H280.028V237.392H276.65V241.492H275.022V231.691H280.315V233.07Z" fill="#D2D3D4"/>
<path d="M282.679 233.023C282.421 233.023 282.196 232.939 282.013 232.77C281.825 232.601 281.736 232.385 281.736 232.127C281.736 231.869 281.83 231.648 282.013 231.48C282.196 231.306 282.421 231.221 282.679 231.221C282.947 231.221 283.177 231.311 283.364 231.48C283.552 231.653 283.646 231.869 283.646 232.127C283.646 232.371 283.552 232.582 283.364 232.76C283.177 232.934 282.947 233.023 282.679 233.023ZM283.463 241.492H281.877V234.492H283.463V241.492Z" fill="#D2D3D4"/>
<path d="M287.128 241.492H285.537V231.128H287.128V241.492Z" fill="#D2D3D4"/>
<path d="M295.118 238.424H290.346C290.365 239.071 290.562 239.569 290.942 239.921C291.322 240.273 291.848 240.446 292.509 240.446C293.255 240.446 293.945 240.221 294.569 239.775V241.051C293.931 241.455 293.086 241.652 292.04 241.652C291.008 241.652 290.201 241.333 289.614 240.699C289.028 240.061 288.737 239.17 288.737 238.016C288.737 236.927 289.061 236.04 289.704 235.355C290.346 234.67 291.149 234.328 292.106 234.328C293.063 234.328 293.804 234.637 294.325 235.252C294.851 235.867 295.113 236.721 295.113 237.814V238.424H295.118ZM293.589 237.302C293.584 236.735 293.448 236.289 293.185 235.975C292.922 235.656 292.556 235.501 292.092 235.501C291.637 235.501 291.252 235.665 290.933 235.998C290.618 236.331 290.421 236.768 290.351 237.302H293.589Z" fill="#D2D3D4"/>
<path d="M296.193 241.277V239.808C296.784 240.258 297.441 240.484 298.154 240.484C299.111 240.484 299.59 240.202 299.59 239.634C299.59 239.475 299.547 239.339 299.468 239.226C299.388 239.114 299.275 239.015 299.135 238.931C298.994 238.841 298.83 238.766 298.642 238.696C298.454 238.626 298.243 238.551 298.008 238.461C297.722 238.349 297.464 238.227 297.234 238.1C297.004 237.973 296.812 237.828 296.662 237.668C296.512 237.504 296.394 237.321 296.319 237.119C296.244 236.918 296.202 236.674 296.202 236.402C296.202 236.064 296.282 235.768 296.441 235.51C296.601 235.252 296.817 235.036 297.084 234.858C297.352 234.684 297.657 234.553 297.999 234.459C298.342 234.37 298.694 234.328 299.059 234.328C299.707 234.328 300.284 234.426 300.796 234.623V236.012C300.303 235.674 299.74 235.505 299.102 235.505C298.9 235.505 298.722 235.524 298.557 235.566C298.393 235.609 298.257 235.665 298.145 235.735C298.032 235.81 297.943 235.895 297.877 235.998C297.811 236.101 297.783 236.214 297.783 236.336C297.783 236.486 297.816 236.613 297.877 236.721C297.943 236.824 298.037 236.918 298.163 236.997C298.29 237.077 298.44 237.148 298.614 237.218C298.787 237.284 298.989 237.354 299.219 237.434C299.519 237.556 299.791 237.682 300.031 237.809C300.27 237.936 300.472 238.081 300.641 238.246C300.81 238.405 300.941 238.593 301.03 238.804C301.119 239.015 301.166 239.268 301.166 239.559C301.166 239.916 301.086 240.226 300.922 240.488C300.758 240.751 300.537 240.972 300.265 241.145C299.993 241.319 299.674 241.446 299.318 241.53C298.961 241.614 298.581 241.657 298.187 241.657C297.417 241.657 296.756 241.53 296.193 241.277Z" fill="#D2D3D4"/>
<path d="M225.248 258.295H223.709V257.202H223.681C223.198 258.041 222.489 258.459 221.556 258.459C220.866 258.459 220.326 258.271 219.941 257.901C219.552 257.525 219.355 257.033 219.355 256.418C219.355 255.095 220.115 254.325 221.64 254.109L223.719 253.814C223.719 252.814 223.245 252.317 222.297 252.317C221.462 252.317 220.711 252.603 220.04 253.18V251.792C220.777 251.355 221.631 251.135 222.597 251.135C224.366 251.135 225.248 252.003 225.248 253.748V258.295ZM223.719 254.855L222.25 255.062C221.795 255.123 221.452 255.231 221.222 255.395C220.993 255.559 220.88 255.841 220.88 256.244C220.88 256.54 220.988 256.784 221.199 256.972C221.41 257.159 221.696 257.253 222.048 257.253C222.532 257.253 222.93 257.084 223.249 256.742C223.568 256.404 223.723 255.977 223.723 255.461V254.855H223.719Z" fill="#D2D3D4"/>
<path d="M233.417 258.295H231.831V254.349C231.831 253.04 231.367 252.388 230.442 252.388C229.959 252.388 229.56 252.571 229.246 252.932C228.932 253.293 228.772 253.753 228.772 254.302V258.295H227.181V251.294H228.772V252.458H228.8C229.326 251.576 230.081 251.13 231.071 251.13C231.831 251.13 232.413 251.379 232.817 251.871C233.22 252.364 233.417 253.077 233.417 254.016V258.295Z" fill="#D2D3D4"/>
<path d="M241.717 258.295H240.132V257.103H240.103C239.592 258.004 238.808 258.454 237.743 258.454C236.88 258.454 236.19 258.14 235.674 257.516C235.158 256.887 234.9 256.033 234.9 254.954C234.9 253.795 235.186 252.871 235.759 252.172C236.331 251.473 237.091 251.125 238.044 251.125C238.987 251.125 239.672 251.505 240.103 252.261H240.132V247.925H241.717V258.295ZM240.15 255.095V254.18C240.15 253.682 239.986 253.26 239.667 252.913C239.343 252.566 238.93 252.392 238.428 252.392C237.837 252.392 237.368 252.613 237.03 253.054C236.692 253.495 236.519 254.109 236.519 254.893C236.519 255.606 236.683 256.165 237.007 256.578C237.335 256.99 237.771 257.197 238.325 257.197C238.869 257.197 239.306 257 239.644 256.601C239.981 256.202 240.15 255.7 240.15 255.095Z" fill="#D2D3D4"/>
<path d="M249.23 258.295H247.639V247.93H249.23V258.295Z" fill="#D2D3D4"/>
<path d="M252.096 249.826C251.838 249.826 251.613 249.741 251.43 249.572C251.242 249.403 251.153 249.187 251.153 248.929C251.153 248.671 251.247 248.451 251.43 248.282C251.613 248.108 251.838 248.024 252.096 248.024C252.364 248.024 252.594 248.113 252.781 248.282C252.969 248.455 253.063 248.671 253.063 248.929C253.063 249.173 252.969 249.384 252.781 249.563C252.594 249.736 252.364 249.826 252.096 249.826ZM252.88 258.295H251.294V251.294H252.88V258.295Z" fill="#D2D3D4"/>
<path d="M256.563 257.281H256.535V258.295H254.949V247.93H256.535V252.524H256.563C257.108 251.595 257.901 251.13 258.942 251.13C259.824 251.13 260.519 251.444 261.016 252.068C261.513 252.697 261.762 253.537 261.762 254.588C261.762 255.761 261.481 256.7 260.922 257.399C260.364 258.102 259.594 258.454 258.623 258.454C257.718 258.459 257.028 258.065 256.563 257.281ZM256.526 254.499V255.367C256.526 255.878 256.69 256.31 257.014 256.667C257.338 257.023 257.755 257.202 258.252 257.202C258.839 257.202 259.303 256.972 259.637 256.512C259.97 256.057 260.139 255.414 260.139 254.593C260.139 253.903 259.984 253.363 259.669 252.979C259.36 252.589 258.933 252.392 258.403 252.392C257.835 252.392 257.384 252.594 257.037 252.993C256.695 253.396 256.526 253.898 256.526 254.499Z" fill="#D2D3D4"/>
<path d="M267.449 252.805C267.257 252.655 266.984 252.58 266.623 252.58C266.154 252.58 265.76 252.791 265.445 253.213C265.131 253.636 264.972 254.213 264.972 254.945V258.295H263.386V251.294H264.972V252.735H265C265.155 252.242 265.394 251.857 265.713 251.585C266.037 251.308 266.393 251.172 266.792 251.172C267.078 251.172 267.299 251.214 267.449 251.304V252.805Z" fill="#D2D3D4"/>
<path d="M273.943 258.295H272.404V257.202H272.376C271.892 258.041 271.184 258.459 270.25 258.459C269.56 258.459 269.021 258.271 268.636 257.901C268.247 257.525 268.049 257.033 268.049 256.418C268.049 255.095 268.81 254.325 270.335 254.109L272.413 253.814C272.413 252.814 271.939 252.317 270.991 252.317C270.156 252.317 269.405 252.603 268.735 253.18V251.792C269.471 251.355 270.325 251.135 271.292 251.135C273.061 251.135 273.943 252.003 273.943 253.748V258.295ZM272.408 254.855L270.94 255.062C270.485 255.123 270.142 255.231 269.912 255.395C269.682 255.559 269.57 255.841 269.57 256.244C269.57 256.54 269.678 256.784 269.889 256.972C270.1 257.159 270.386 257.253 270.738 257.253C271.221 257.253 271.62 257.084 271.939 256.742C272.258 256.404 272.413 255.977 272.413 255.461V254.855H272.408Z" fill="#D2D3D4"/>
<path d="M279.939 252.805C279.747 252.655 279.475 252.58 279.113 252.58C278.644 252.58 278.25 252.791 277.936 253.213C277.621 253.636 277.462 254.213 277.462 254.945V258.295H275.876V251.294H277.462V252.735H277.49C277.645 252.242 277.884 251.857 278.203 251.585C278.527 251.308 278.884 251.172 279.282 251.172C279.569 251.172 279.789 251.214 279.939 251.304V252.805Z" fill="#D2D3D4"/>
<path d="M281.858 249.826C281.6 249.826 281.375 249.741 281.192 249.572C281.004 249.403 280.915 249.187 280.915 248.929C280.915 248.671 281.009 248.451 281.192 248.282C281.375 248.108 281.6 248.024 281.858 248.024C282.126 248.024 282.356 248.113 282.543 248.282C282.731 248.455 282.825 248.671 282.825 248.929C282.825 249.173 282.731 249.384 282.543 249.563C282.356 249.736 282.126 249.826 281.858 249.826ZM282.642 258.295H281.056V251.294H282.642V258.295Z" fill="#D2D3D4"/>
<path d="M290.642 255.226H285.87C285.889 255.874 286.086 256.371 286.466 256.723C286.846 257.075 287.372 257.249 288.033 257.249C288.779 257.249 289.469 257.023 290.093 256.578V257.854C289.455 258.257 288.61 258.454 287.564 258.454C286.532 258.454 285.725 258.135 285.138 257.502C284.552 256.864 284.261 255.972 284.261 254.818C284.261 253.73 284.584 252.843 285.227 252.158C285.87 251.473 286.672 251.13 287.63 251.13C288.587 251.13 289.328 251.44 289.849 252.054C290.374 252.669 290.637 253.523 290.637 254.616V255.226H290.642ZM289.112 254.105C289.108 253.537 288.972 253.091 288.709 252.777C288.446 252.458 288.08 252.303 287.616 252.303C287.16 252.303 286.776 252.467 286.457 252.801C286.142 253.134 285.945 253.57 285.875 254.105H289.112Z" fill="#D2D3D4"/>
<path d="M291.716 258.074V256.606C292.308 257.056 292.964 257.281 293.678 257.281C294.635 257.281 295.113 257 295.113 256.432C295.113 256.273 295.071 256.137 294.991 256.024C294.912 255.911 294.799 255.813 294.658 255.728C294.518 255.639 294.353 255.564 294.166 255.494C293.978 255.423 293.767 255.348 293.532 255.259C293.246 255.147 292.988 255.025 292.758 254.898C292.528 254.771 292.336 254.626 292.186 254.466C292.035 254.302 291.918 254.119 291.843 253.917C291.768 253.715 291.726 253.471 291.726 253.199C291.726 252.861 291.806 252.566 291.965 252.308C292.125 252.05 292.34 251.834 292.608 251.656C292.875 251.482 293.18 251.351 293.523 251.261C293.865 251.172 294.217 251.13 294.583 251.13C295.231 251.13 295.808 251.229 296.319 251.426V252.815C295.827 252.477 295.264 252.308 294.625 252.308C294.424 252.308 294.245 252.327 294.081 252.369C293.917 252.411 293.781 252.467 293.668 252.538C293.556 252.613 293.467 252.697 293.401 252.801C293.335 252.904 293.307 253.016 293.307 253.138C293.307 253.288 293.34 253.415 293.401 253.523C293.467 253.626 293.56 253.72 293.687 253.8C293.814 253.88 293.964 253.95 294.138 254.02C294.311 254.086 294.513 254.157 294.743 254.236C295.043 254.358 295.315 254.485 295.555 254.612C295.794 254.738 295.996 254.884 296.164 255.048C296.333 255.208 296.465 255.395 296.554 255.606C296.643 255.818 296.69 256.071 296.69 256.362C296.69 256.718 296.61 257.028 296.446 257.291C296.282 257.554 296.061 257.774 295.789 257.948C295.517 258.121 295.198 258.248 294.841 258.332C294.485 258.417 294.105 258.459 293.711 258.459C292.941 258.459 292.275 258.328 291.716 258.074Z" fill="#D2D3D4"/>
<path d="M109.565 204.974L103.977 220.528H101.091L95.6013 204.974H98.4213L102.259 216.774C102.381 217.15 102.475 217.591 102.541 218.088H102.583C102.635 217.675 102.738 217.229 102.898 216.751L106.825 204.969H109.565V204.974Z" fill="#D2D3D4"/>
<path d="M128.333 220.533H125.771V210.464C125.771 209.638 125.823 208.629 125.922 207.437H125.879C125.72 208.117 125.579 208.605 125.457 208.901L120.812 220.533H119.034L114.379 208.99C114.248 208.652 114.112 208.132 113.966 207.437H113.924C113.98 208.061 114.013 209.075 114.013 210.487V220.533H111.625V204.978H115.261L119.353 215.339C119.662 216.136 119.864 216.727 119.958 217.117H120.01C120.277 216.3 120.493 215.69 120.662 215.292L124.828 204.974H128.333V220.533Z" fill="#D2D3D4"/>
<path d="M143.02 204.631V220.533H140.505V207.709C140.049 208.033 139.557 208.31 139.036 208.54C138.51 208.77 137.915 208.967 137.239 209.14V206.991C137.656 206.855 138.065 206.71 138.454 206.56C138.844 206.409 139.228 206.241 139.608 206.048C139.988 205.86 140.373 205.649 140.758 205.419C141.143 205.19 141.546 204.922 141.954 204.626H143.02V204.631Z" fill="#D2D3D4"/>
<path d="M67.2236 231.691L63.7045 241.492H61.884L58.4259 231.691H60.2042L62.6253 239.128C62.7004 239.367 62.7614 239.639 62.8036 239.953H62.8318C62.8646 239.695 62.9303 239.414 63.0288 239.114L65.5016 231.691H67.2236Z" fill="#D2D3D4"/>
<path d="M79.0523 241.492H77.4382V235.149C77.4382 234.628 77.4711 233.994 77.5321 233.244H77.5039C77.4054 233.671 77.3162 233.98 77.2365 234.168L74.3086 241.497H73.1872L70.2546 234.224C70.1749 234.009 70.0857 233.685 69.9966 233.248H69.9684C70.0059 233.638 70.0247 234.281 70.0247 235.168V241.497H68.5186V231.695H70.8083L73.3842 238.222C73.5813 238.724 73.708 239.095 73.769 239.343H73.8018C73.9708 238.827 74.1068 238.447 74.2101 238.194L76.8329 231.691H79.0429V241.492H79.0523Z" fill="#D2D3D4"/>
<path d="M88.3098 231.47V241.493H86.7239V233.413C86.4377 233.619 86.128 233.793 85.7949 233.938C85.4664 234.079 85.0864 234.206 84.6641 234.318V232.967C84.9268 232.878 85.1849 232.789 85.4289 232.695C85.6729 232.601 85.9168 232.493 86.1561 232.376C86.3954 232.258 86.6347 232.127 86.8787 231.977C87.1227 231.832 87.3761 231.663 87.6342 231.48H88.3098V231.47Z" fill="#D2D3D4"/>
<path d="M98.8342 241.657C97.4218 241.657 96.291 241.197 95.4418 240.282C94.5925 239.367 94.1655 238.175 94.1655 236.706C94.1655 235.13 94.5972 233.872 95.4652 232.934C96.3333 231.996 97.5063 231.526 98.9937 231.526C100.368 231.526 101.48 231.982 102.32 232.892C103.16 233.802 103.583 234.994 103.583 236.467C103.583 238.067 103.151 239.329 102.292 240.263C101.424 241.192 100.275 241.657 98.8342 241.657ZM98.9092 232.957C98.013 232.957 97.2811 233.291 96.718 233.962C96.155 234.633 95.8734 235.515 95.8734 236.608C95.8734 237.696 96.1456 238.574 96.6946 239.24C97.2435 239.906 97.9567 240.24 98.8388 240.24C99.7773 240.24 100.519 239.925 101.058 239.287C101.598 238.649 101.87 237.767 101.87 236.627C101.87 235.454 101.607 234.553 101.082 233.915C100.561 233.277 99.8336 232.957 98.9092 232.957Z" fill="#D2D3D4"/>
<path d="M104.925 241.103V239.428C105.075 239.564 105.253 239.686 105.459 239.799C105.666 239.907 105.886 240 106.121 240.076C106.356 240.151 106.586 240.207 106.82 240.249C107.055 240.291 107.266 240.31 107.463 240.31C108.148 240.31 108.655 240.198 108.993 239.968C109.33 239.742 109.495 239.409 109.495 238.978C109.495 238.743 109.438 238.546 109.326 238.372C109.213 238.203 109.058 238.044 108.857 237.903C108.655 237.762 108.42 237.626 108.148 237.495C107.876 237.368 107.585 237.232 107.275 237.087C106.942 236.908 106.632 236.73 106.346 236.547C106.06 236.364 105.811 236.162 105.596 235.942C105.384 235.721 105.215 235.473 105.098 235.191C104.976 234.914 104.915 234.586 104.915 234.215C104.915 233.755 105.018 233.356 105.225 233.014C105.431 232.676 105.708 232.395 106.046 232.174C106.384 231.954 106.773 231.789 107.205 231.681C107.637 231.573 108.078 231.522 108.533 231.522C109.56 231.522 110.306 231.639 110.776 231.869V233.474C110.222 233.07 109.504 232.873 108.631 232.873C108.392 232.873 108.148 232.897 107.909 232.944C107.669 232.99 107.454 233.066 107.266 233.169C107.078 233.272 106.923 233.408 106.806 233.572C106.689 233.737 106.628 233.934 106.628 234.168C106.628 234.389 106.675 234.576 106.764 234.736C106.853 234.895 106.989 235.041 107.163 235.172C107.336 235.304 107.552 235.435 107.805 235.557C108.059 235.684 108.35 235.82 108.683 235.965C109.025 236.144 109.349 236.331 109.649 236.524C109.954 236.721 110.217 236.937 110.447 237.171C110.677 237.41 110.86 237.673 110.996 237.959C111.132 238.25 111.198 238.579 111.198 238.945C111.198 239.442 111.099 239.86 110.898 240.202C110.696 240.545 110.428 240.822 110.086 241.037C109.748 241.253 109.354 241.408 108.913 241.502C108.472 241.596 108.003 241.647 107.51 241.647C107.346 241.647 107.144 241.633 106.905 241.61C106.665 241.586 106.421 241.549 106.168 241.502C105.919 241.455 105.68 241.394 105.455 241.328C105.244 241.267 105.061 241.192 104.925 241.103Z" fill="#D2D3D4"/>
<path d="M122.14 233.07H118.475V236.017H121.854V237.392H118.475V241.492H116.847V231.691H122.14V233.07Z" fill="#D2D3D4"/>
<path d="M124.505 233.023C124.247 233.023 124.021 232.939 123.838 232.77C123.651 232.601 123.562 232.385 123.562 232.127C123.562 231.869 123.655 231.648 123.838 231.48C124.021 231.306 124.247 231.221 124.505 231.221C124.772 231.221 125.002 231.311 125.19 231.48C125.377 231.653 125.471 231.869 125.471 232.127C125.471 232.371 125.377 232.582 125.19 232.76C125.002 232.934 124.772 233.023 124.505 233.023ZM125.288 241.492H123.702V234.492H125.288V241.492Z" fill="#D2D3D4"/>
<path d="M128.953 241.492H127.362V231.128H128.953V241.492Z" fill="#D2D3D4"/>
<path d="M136.943 238.424H132.176C132.195 239.071 132.392 239.569 132.772 239.921C133.152 240.273 133.678 240.446 134.339 240.446C135.085 240.446 135.775 240.221 136.399 239.775V241.051C135.761 241.455 134.916 241.652 133.87 241.652C132.838 241.652 132.031 241.333 131.444 240.699C130.858 240.061 130.567 239.17 130.567 238.016C130.567 236.927 130.891 236.04 131.533 235.355C132.176 234.67 132.979 234.328 133.936 234.328C134.893 234.328 135.634 234.637 136.155 235.252C136.681 235.867 136.943 236.721 136.943 237.814V238.424ZM135.414 237.302C135.409 236.735 135.273 236.289 135.01 235.975C134.747 235.656 134.381 235.501 133.917 235.501C133.462 235.501 133.077 235.665 132.758 235.998C132.444 236.331 132.247 236.768 132.176 237.302H135.414Z" fill="#D2D3D4"/>
<path d="M138.018 241.277V239.808C138.609 240.258 139.266 240.484 139.979 240.484C140.936 240.484 141.415 240.202 141.415 239.634C141.415 239.475 141.373 239.339 141.293 239.226C141.213 239.114 141.101 239.015 140.96 238.931C140.819 238.841 140.655 238.766 140.467 238.696C140.279 238.626 140.068 238.551 139.834 238.461C139.547 238.349 139.289 238.227 139.059 238.1C138.83 237.973 138.637 237.828 138.487 237.668C138.337 237.504 138.22 237.321 138.145 237.119C138.069 236.918 138.027 236.674 138.027 236.402C138.027 236.064 138.107 235.768 138.267 235.51C138.426 235.252 138.642 235.036 138.909 234.858C139.177 234.684 139.482 234.553 139.824 234.459C140.167 234.37 140.519 234.328 140.885 234.328C141.532 234.328 142.109 234.426 142.621 234.623V236.012C142.128 235.674 141.565 235.505 140.927 235.505C140.725 235.505 140.547 235.524 140.383 235.566C140.218 235.609 140.082 235.665 139.97 235.735C139.857 235.81 139.768 235.895 139.702 235.998C139.637 236.101 139.608 236.214 139.608 236.336C139.608 236.486 139.641 236.613 139.702 236.721C139.768 236.824 139.862 236.918 139.989 236.997C140.115 237.077 140.265 237.148 140.439 237.218C140.613 237.284 140.814 237.354 141.044 237.434C141.345 237.556 141.617 237.682 141.856 237.809C142.095 237.936 142.297 238.081 142.466 238.246C142.635 238.405 142.766 238.593 142.855 238.804C142.945 239.015 142.991 239.268 142.991 239.559C142.991 239.916 142.912 240.226 142.747 240.488C142.583 240.751 142.363 240.972 142.091 241.145C141.818 241.319 141.499 241.446 141.143 241.53C140.786 241.614 140.406 241.657 140.012 241.657C139.242 241.657 138.581 241.53 138.018 241.277Z" fill="#D2D3D4"/>
<path d="M70.0717 258.295H68.5327V257.202H68.5046C68.0213 258.041 67.3128 258.459 66.3791 258.459C65.6893 258.459 65.1497 258.271 64.765 257.901C64.3755 257.525 64.1785 257.033 64.1785 256.418C64.1785 255.095 64.9386 254.325 66.4635 254.109L68.5421 253.814C68.5421 252.814 68.0682 252.317 67.1204 252.317C66.2852 252.317 65.5345 252.603 64.8635 253.18V251.792C65.6002 251.355 66.4541 251.135 67.4207 251.135C69.1896 251.135 70.0717 252.003 70.0717 253.748V258.295ZM68.5374 254.855L67.0688 255.062C66.6137 255.123 66.2711 255.231 66.0412 255.395C65.8113 255.559 65.6987 255.841 65.6987 256.244C65.6987 256.54 65.8066 256.784 66.0178 256.972C66.2289 257.159 66.5151 257.253 66.867 257.253C67.3503 257.253 67.7491 257.084 68.0682 256.742C68.3873 256.404 68.5421 255.977 68.5421 255.461V254.855H68.5374Z" fill="#D2D3D4"/>
<path d="M78.2405 258.295H76.6546V254.349C76.6546 253.04 76.1901 252.388 75.2658 252.388C74.7825 252.388 74.3836 252.571 74.0693 252.932C73.7549 253.293 73.5954 253.753 73.5954 254.302V258.295H72.0048V251.294H73.5954V252.458H73.6235C74.149 251.576 74.9045 251.13 75.8945 251.13C76.6546 251.13 77.2364 251.379 77.64 251.871C78.0435 252.364 78.2405 253.077 78.2405 254.016V258.295Z" fill="#D2D3D4"/>
<path d="M86.5362 258.295H84.9503V257.103H84.9222C84.4107 258.004 83.6271 258.454 82.562 258.454C81.6987 258.454 81.009 258.14 80.4928 257.516C79.9767 256.887 79.7186 256.033 79.7186 254.954C79.7186 253.795 80.0048 252.871 80.5773 252.172C81.1497 251.473 81.9098 251.125 82.8623 251.125C83.8054 251.125 84.4905 251.505 84.9222 252.261H84.9503V247.925H86.5362V258.295ZM84.9738 255.095V254.18C84.9738 253.682 84.8095 253.26 84.4905 252.913C84.1667 252.566 83.7538 252.392 83.2518 252.392C82.6606 252.392 82.1914 252.613 81.8535 253.054C81.5157 253.495 81.3421 254.109 81.3421 254.893C81.3421 255.606 81.5063 256.165 81.8301 256.578C82.1585 256.99 82.5949 257.197 83.1485 257.197C83.6928 257.197 84.1292 257 84.467 256.601C84.8049 256.202 84.9738 255.7 84.9738 255.095Z" fill="#D2D3D4"/>
<path d="M94.0483 258.295H92.4576V247.93H94.0483V258.295Z" fill="#D2D3D4"/>
<path d="M96.915 249.826C96.657 249.826 96.4318 249.741 96.2488 249.572C96.0611 249.403 95.9719 249.187 95.9719 248.929C95.9719 248.671 96.0658 248.451 96.2488 248.282C96.4318 248.108 96.657 248.024 96.915 248.024C97.1825 248.024 97.4124 248.113 97.6001 248.282C97.7878 248.455 97.8816 248.671 97.8816 248.929C97.8816 249.173 97.7878 249.384 97.6001 249.563C97.4124 249.736 97.1825 249.826 96.915 249.826ZM97.6986 258.295H96.1127V251.294H97.6986V258.295Z" fill="#D2D3D4"/>
<path d="M101.387 257.281H101.359V258.295H99.7726V247.93H101.359V252.524H101.387C101.931 251.595 102.724 251.13 103.766 251.13C104.648 251.13 105.342 251.444 105.839 252.068C106.337 252.697 106.585 253.537 106.585 254.588C106.585 255.761 106.304 256.7 105.746 257.399C105.187 258.102 104.418 258.454 103.446 258.454C102.536 258.459 101.851 258.065 101.387 257.281ZM101.344 254.499V255.367C101.344 255.878 101.509 256.31 101.832 256.667C102.156 257.023 102.574 257.202 103.071 257.202C103.658 257.202 104.122 256.972 104.455 256.512C104.788 256.057 104.957 255.414 104.957 254.593C104.957 253.903 104.803 253.363 104.488 252.979C104.178 252.589 103.751 252.392 103.221 252.392C102.654 252.392 102.203 252.594 101.856 252.993C101.518 253.396 101.344 253.898 101.344 254.499Z" fill="#D2D3D4"/>
<path d="M112.268 252.805C112.075 252.655 111.803 252.58 111.442 252.58C110.973 252.58 110.578 252.791 110.264 253.213C109.95 253.636 109.79 254.213 109.79 254.945V258.295H108.204V251.294H109.795V252.735H109.823C109.978 252.242 110.217 251.857 110.536 251.585C110.86 251.308 111.217 251.172 111.615 251.172C111.902 251.172 112.122 251.214 112.272 251.304V252.805H112.268Z" fill="#D2D3D4"/>
<path d="M118.761 258.295H117.222V257.202H117.194C116.711 258.041 116.002 258.459 115.069 258.459C114.379 258.459 113.839 258.271 113.455 257.901C113.065 257.525 112.868 257.033 112.868 256.418C112.868 255.095 113.628 254.325 115.153 254.109L117.232 253.814C117.232 252.814 116.758 252.317 115.81 252.317C114.975 252.317 114.224 252.603 113.553 253.18V251.792C114.29 251.355 115.144 251.135 116.11 251.135C117.879 251.135 118.761 252.003 118.761 253.748V258.295ZM117.232 254.855L115.763 255.062C115.308 255.123 114.966 255.231 114.736 255.395C114.506 255.559 114.393 255.841 114.393 256.244C114.393 256.54 114.501 256.784 114.712 256.972C114.923 257.159 115.21 257.253 115.561 257.253C116.045 257.253 116.444 257.084 116.763 256.742C117.082 256.404 117.236 255.977 117.236 255.461V254.855H117.232Z" fill="#D2D3D4"/>
<path d="M124.758 252.805C124.566 252.655 124.293 252.58 123.932 252.58C123.463 252.58 123.069 252.791 122.754 253.213C122.44 253.636 122.28 254.213 122.28 254.945V258.295H120.695V251.294H122.28V252.735H122.309C122.463 252.242 122.703 251.857 123.022 251.585C123.346 251.308 123.702 251.172 124.101 251.172C124.387 251.172 124.608 251.214 124.758 251.304V252.805Z" fill="#D2D3D4"/>
<path d="M126.677 249.826C126.419 249.826 126.194 249.741 126.011 249.572C125.823 249.403 125.734 249.187 125.734 248.929C125.734 248.671 125.828 248.451 126.011 248.282C126.194 248.108 126.419 248.024 126.677 248.024C126.944 248.024 127.174 248.113 127.362 248.282C127.55 248.455 127.644 248.671 127.644 248.929C127.644 249.173 127.55 249.384 127.362 249.563C127.174 249.736 126.944 249.826 126.677 249.826ZM127.465 258.295H125.879V251.294H127.465V258.295Z" fill="#D2D3D4"/>
<path d="M135.461 255.226H130.689C130.707 255.874 130.905 256.371 131.285 256.723C131.665 257.075 132.19 257.249 132.852 257.249C133.598 257.249 134.288 257.023 134.912 256.578V257.854C134.273 258.257 133.429 258.454 132.383 258.454C131.35 258.454 130.543 258.135 129.957 257.502C129.37 256.864 129.079 255.972 129.079 254.818C129.079 253.73 129.403 252.843 130.046 252.158C130.689 251.473 131.491 251.13 132.448 251.13C133.405 251.13 134.147 251.44 134.668 252.054C135.193 252.669 135.456 253.523 135.456 254.616V255.226H135.461ZM133.931 254.105C133.926 253.537 133.79 253.091 133.527 252.777C133.265 252.458 132.899 252.303 132.434 252.303C131.979 252.303 131.594 252.467 131.275 252.801C130.961 253.134 130.764 253.57 130.693 254.105H133.931Z" fill="#D2D3D4"/>
<path d="M136.535 258.074V256.606C137.126 257.056 137.783 257.281 138.496 257.281C139.454 257.281 139.932 257 139.932 256.432C139.932 256.273 139.89 256.137 139.81 256.024C139.73 255.911 139.618 255.813 139.477 255.728C139.336 255.639 139.172 255.564 138.984 255.494C138.797 255.423 138.585 255.348 138.351 255.259C138.065 255.147 137.807 255.025 137.577 254.898C137.347 254.771 137.154 254.626 137.004 254.466C136.854 254.302 136.737 254.119 136.662 253.917C136.587 253.711 136.544 253.471 136.544 253.199C136.544 252.861 136.624 252.566 136.784 252.308C136.943 252.05 137.159 251.834 137.427 251.656C137.694 251.482 137.999 251.351 138.341 251.261C138.684 251.172 139.036 251.13 139.402 251.13C140.049 251.13 140.627 251.229 141.138 251.426V252.815C140.645 252.477 140.082 252.308 139.444 252.308C139.242 252.308 139.064 252.327 138.9 252.369C138.736 252.411 138.6 252.467 138.487 252.538C138.374 252.613 138.285 252.697 138.219 252.801C138.154 252.904 138.126 253.016 138.126 253.138C138.126 253.288 138.158 253.415 138.219 253.523C138.28 253.631 138.379 253.72 138.506 253.8C138.632 253.88 138.783 253.95 138.956 254.02C139.13 254.086 139.332 254.157 139.561 254.236C139.862 254.358 140.134 254.485 140.373 254.612C140.612 254.738 140.814 254.884 140.983 255.048C141.152 255.208 141.283 255.395 141.373 255.606C141.462 255.818 141.509 256.071 141.509 256.362C141.509 256.718 141.429 257.028 141.265 257.291C141.1 257.554 140.88 257.774 140.608 257.948C140.336 258.121 140.017 258.248 139.66 258.332C139.303 258.417 138.923 258.459 138.529 258.459C137.76 258.459 137.093 258.328 136.535 258.074Z" fill="#D2D3D4"/>
<path d="M535.264 235.59C535.264 238.344 533.959 239.719 531.355 239.719C528.859 239.719 527.611 238.396 527.611 235.749V229.753H529.239V235.411C529.239 237.335 529.985 238.297 531.482 238.297C532.922 238.297 533.64 237.368 533.64 235.515V229.753H535.269V235.59H535.264Z" fill="#D2D3D4"/>
<path d="M543.625 239.554H542.039V235.608C542.039 234.299 541.575 233.647 540.65 233.647C540.167 233.647 539.768 233.83 539.454 234.191C539.14 234.553 538.98 235.013 538.98 235.561V239.554H537.389V232.554H538.98V233.718H539.008C539.534 232.831 540.289 232.39 541.279 232.39C542.039 232.39 542.621 232.638 543.025 233.131C543.423 233.628 543.625 234.342 543.625 235.275V239.554Z" fill="#D2D3D4"/>
<path d="M550.931 239.555H549.392V238.461H549.364C548.88 239.301 548.172 239.719 547.238 239.719C546.548 239.719 546.013 239.531 545.624 239.16C545.234 238.785 545.037 238.292 545.037 237.678C545.037 236.355 545.798 235.585 547.322 235.369L549.401 235.074C549.401 234.074 548.927 233.577 547.979 233.577C547.144 233.577 546.393 233.863 545.722 234.44V233.051C546.459 232.615 547.313 232.394 548.28 232.394C550.049 232.394 550.931 233.262 550.931 235.008V239.555ZM549.401 236.12L547.932 236.326C547.477 236.383 547.135 236.495 546.905 236.66C546.675 236.824 546.558 237.105 546.558 237.509C546.558 237.804 546.666 238.048 546.877 238.236C547.088 238.424 547.374 238.522 547.726 238.522C548.209 238.522 548.608 238.353 548.927 238.011C549.242 237.673 549.401 237.246 549.401 236.73V236.12Z" fill="#D2D3D4"/>
<path d="M552.427 239.339V237.87C553.019 238.32 553.676 238.546 554.389 238.546C555.346 238.546 555.825 238.264 555.825 237.696C555.825 237.537 555.782 237.401 555.703 237.288C555.623 237.176 555.51 237.077 555.369 236.993C555.229 236.903 555.064 236.828 554.877 236.758C554.689 236.688 554.478 236.613 554.243 236.523C553.957 236.411 553.694 236.289 553.469 236.162C553.239 236.035 553.047 235.89 552.897 235.726C552.742 235.566 552.629 235.383 552.554 235.177C552.474 234.97 552.437 234.731 552.437 234.459C552.437 234.121 552.517 233.825 552.676 233.567C552.836 233.309 553.052 233.093 553.319 232.92C553.586 232.746 553.891 232.61 554.234 232.521C554.576 232.432 554.928 232.39 555.294 232.39C555.942 232.39 556.519 232.488 557.03 232.685V234.074C556.538 233.736 555.975 233.567 555.337 233.567C555.135 233.567 554.957 233.586 554.792 233.628C554.628 233.671 554.492 233.727 554.379 233.797C554.267 233.868 554.178 233.957 554.112 234.06C554.046 234.163 554.018 234.276 554.018 234.398C554.018 234.548 554.051 234.675 554.112 234.783C554.178 234.886 554.272 234.98 554.394 235.059C554.52 235.139 554.67 235.214 554.844 235.28C555.018 235.346 555.219 235.416 555.449 235.496C555.75 235.618 556.022 235.744 556.261 235.871C556.5 235.998 556.702 236.143 556.871 236.303C557.04 236.467 557.167 236.65 557.26 236.861C557.354 237.072 557.396 237.326 557.396 237.617C557.396 237.973 557.317 238.283 557.152 238.546C556.988 238.808 556.768 239.029 556.496 239.203C556.223 239.376 555.904 239.503 555.548 239.587C555.191 239.672 554.811 239.714 554.417 239.714C553.652 239.719 552.991 239.592 552.427 239.339Z" fill="#D2D3D4"/>
<path d="M558.461 239.339V237.87C559.053 238.32 559.71 238.546 560.423 238.546C561.38 238.546 561.859 238.264 561.859 237.696C561.859 237.537 561.816 237.401 561.737 237.288C561.657 237.176 561.544 237.077 561.403 236.993C561.263 236.903 561.098 236.828 560.911 236.758C560.723 236.688 560.512 236.613 560.277 236.523C559.991 236.411 559.733 236.289 559.503 236.162C559.273 236.035 559.081 235.89 558.931 235.726C558.781 235.566 558.663 235.383 558.583 235.177C558.508 234.97 558.466 234.731 558.466 234.459C558.466 234.121 558.546 233.825 558.705 233.567C558.865 233.309 559.081 233.093 559.348 232.92C559.616 232.746 559.921 232.61 560.263 232.521C560.606 232.432 560.958 232.39 561.324 232.39C561.971 232.39 562.548 232.488 563.06 232.685V234.074C562.567 233.736 562.004 233.567 561.366 233.567C561.164 233.567 560.981 233.586 560.822 233.628C560.657 233.671 560.521 233.727 560.409 233.797C560.296 233.868 560.207 233.957 560.141 234.06C560.076 234.163 560.047 234.276 560.047 234.398C560.047 234.548 560.08 234.675 560.141 234.783C560.207 234.886 560.301 234.98 560.428 235.059C560.554 235.139 560.704 235.214 560.878 235.28C561.052 235.346 561.253 235.416 561.483 235.496C561.784 235.618 562.056 235.744 562.295 235.871C562.534 235.998 562.736 236.143 562.905 236.303C563.074 236.467 563.205 236.65 563.294 236.861C563.384 237.072 563.43 237.326 563.43 237.617C563.43 237.973 563.351 238.283 563.186 238.546C563.022 238.808 562.802 239.029 562.53 239.203C562.257 239.376 561.938 239.503 561.582 239.587C561.225 239.672 560.845 239.714 560.451 239.714C559.686 239.719 559.025 239.592 558.461 239.339Z" fill="#D2D3D4"/>
<path d="M565.739 231.085C565.481 231.085 565.256 231.001 565.073 230.832C564.89 230.663 564.796 230.447 564.796 230.189C564.796 229.931 564.89 229.71 565.073 229.542C565.256 229.368 565.481 229.283 565.739 229.283C566.006 229.283 566.236 229.368 566.424 229.542C566.612 229.715 566.706 229.931 566.706 230.189C566.706 230.433 566.612 230.644 566.424 230.822C566.236 231.001 566.006 231.085 565.739 231.085ZM566.523 239.554H564.937V232.554H566.523V239.554Z" fill="#D2D3D4"/>
<path d="M574.964 238.996C574.964 241.567 573.673 242.853 571.088 242.853C570.178 242.853 569.38 242.698 568.7 242.393V240.943C569.464 241.38 570.192 241.6 570.881 241.6C572.542 241.6 573.378 240.784 573.378 239.146V238.382H573.35C572.824 239.273 572.036 239.723 570.985 239.723C570.135 239.723 569.446 239.414 568.925 238.79C568.404 238.166 568.141 237.33 568.141 236.284C568.141 235.092 568.423 234.149 568.981 233.445C569.54 232.742 570.309 232.394 571.29 232.394C572.214 232.394 572.899 232.774 573.345 233.53H573.373V232.559H574.959V238.996H574.964ZM573.392 236.35V235.44C573.392 234.947 573.228 234.525 572.904 234.177C572.58 233.83 572.172 233.657 571.684 233.657C571.083 233.657 570.609 233.877 570.272 234.323C569.934 234.769 569.765 235.388 569.765 236.186C569.765 236.875 569.929 237.424 570.253 237.837C570.581 238.25 571.013 238.457 571.548 238.457C572.097 238.457 572.538 238.26 572.88 237.865C573.223 237.471 573.392 236.965 573.392 236.35Z" fill="#D2D3D4"/>
<path d="M583.264 239.554H581.678V235.608C581.678 234.299 581.218 233.647 580.289 233.647C579.806 233.647 579.407 233.83 579.093 234.191C578.778 234.553 578.623 235.013 578.623 235.561V239.554H577.028V232.554H578.623V233.718H578.652C579.177 232.831 579.933 232.39 580.923 232.39C581.683 232.39 582.265 232.638 582.663 233.131C583.067 233.628 583.264 234.342 583.264 235.275V239.554Z" fill="#D2D3D4"/>
<path d="M591.128 236.486H586.356C586.375 237.133 586.572 237.631 586.957 237.983C587.337 238.335 587.862 238.508 588.524 238.508C589.27 238.508 589.955 238.283 590.579 237.837V239.113C589.941 239.512 589.096 239.714 588.05 239.714C587.022 239.714 586.211 239.395 585.629 238.762C585.042 238.128 584.751 237.232 584.751 236.078C584.751 234.989 585.075 234.102 585.718 233.413C586.361 232.728 587.163 232.385 588.12 232.385C589.077 232.385 589.819 232.695 590.344 233.309C590.87 233.924 591.128 234.778 591.128 235.871V236.486ZM589.593 235.364C589.589 234.792 589.453 234.351 589.19 234.037C588.927 233.722 588.561 233.563 588.097 233.563C587.642 233.563 587.252 233.727 586.938 234.06C586.619 234.393 586.426 234.83 586.351 235.364H589.593Z" fill="#D2D3D4"/>
<path d="M599.001 239.554H597.415V238.367H597.387C596.876 239.268 596.092 239.719 595.032 239.719C594.168 239.719 593.479 239.404 592.962 238.78C592.446 238.156 592.188 237.302 592.188 236.218C592.188 235.059 592.474 234.135 593.047 233.436C593.619 232.737 594.379 232.39 595.332 232.39C596.275 232.39 596.96 232.77 597.387 233.525H597.415V229.19H599.001V239.554ZM597.434 236.359V235.444C597.434 234.947 597.27 234.524 596.946 234.177C596.622 233.83 596.209 233.656 595.707 233.656C595.116 233.656 594.647 233.877 594.309 234.318C593.971 234.759 593.798 235.374 593.798 236.157C593.798 236.871 593.962 237.429 594.286 237.842C594.609 238.255 595.05 238.461 595.599 238.461C596.144 238.461 596.58 238.264 596.918 237.861C597.265 237.466 597.434 236.964 597.434 236.359Z" fill="#D2D3D4"/>
<path d="M423.067 99.3078L433.23 96.15L433.07 154.032L427.121 157.508L423.067 99.3078Z" fill="#243A5E"/>
<path d="M424.488 94.8316L430.438 91.3547C432.019 92.2509 433.281 94.4093 433.23 96.2017L427.28 99.6785C427.28 97.8861 426.07 95.6761 424.488 94.8316Z" fill="#243A5E"/>
<path opacity="0.3" d="M369.347 147.603L412.059 171.988L406.161 175.305L363.449 150.921L369.347 147.603Z" fill="#1F1D20"/>
<path d="M379.618 142.968L373.668 146.444C372.406 147.181 370.562 147.129 367.982 146.074L373.931 142.597C376.507 143.601 378.351 143.653 379.618 142.968Z" fill="#243A5E"/>
<path d="M401.788 165.565L407.738 162.088C408.897 162.932 409.948 164.143 410.741 165.565C411.477 166.986 411.899 168.516 411.899 169.83L405.95 173.307C405.95 171.988 405.528 170.463 404.791 169.042C404.003 167.615 402.947 166.405 401.788 165.565Z" fill="#243A5E"/>
<path d="M393.206 141.124C393.155 152.183 393.469 159.24 401.793 165.56C402.952 166.405 404.003 167.615 404.796 169.037C405.532 170.459 405.955 171.988 405.955 173.302L363.768 148.969C363.768 147.65 364.19 146.599 364.927 146.074C365.715 145.548 366.771 145.548 367.93 146.022C376.249 149.339 376.568 142.653 376.62 131.538L393.206 141.124Z" fill="url(#paint0_linear)"/>
<path d="M393.206 141.124L399.156 137.647C399.104 148.706 399.419 155.763 407.742 162.083L401.793 165.56C393.469 159.245 393.15 152.188 393.206 141.124Z" fill="#243A5E"/>
<path d="M376.667 131.594L382.616 128.117L399.151 137.652L393.202 141.128L376.667 131.594Z" fill="#243A5E"/>
<path d="M343.541 49.3278L349.227 45.9025C350.016 45.4286 351.02 45.4286 351.808 45.9025L430.438 91.2985L424.488 94.7753L343.541 49.3278Z" fill="#243A5E"/>
<path d="M424.488 94.8316C426.07 95.7278 427.332 97.8862 427.28 99.6785L427.121 157.56C427.121 159.352 425.858 160.038 424.277 159.141L393.206 141.18L376.671 131.646L345.6 113.741C344.071 112.741 342.809 110.578 342.809 108.791L342.968 50.9653C342.968 49.1729 344.23 48.4879 345.811 49.3324L424.488 94.8316Z" fill="url(#paint1_linear)"/>
<path d="M403.609 95.8358V113.9L388.073 123.012V104.948L403.609 95.8358Z" fill="#75CFEB"/>
<path d="M403.609 95.8359L388.021 104.948L372.434 95.8359L388.021 86.7755L403.609 95.8359Z" fill="#C6E9F7"/>
<path d="M388.068 104.943V123.008L372.481 113.896V95.8312L388.068 104.943Z" fill="#A6DEF3"/>
<path d="M372.481 113.844L388.068 104.84V122.904L372.481 113.844Z" fill="#C6E9F7"/>
<path d="M403.609 113.844L388.021 104.84V122.904L403.609 113.844Z" fill="#A6DEF3"/>
<path d="M269.429 99.3078L279.592 96.15L279.433 154.032L273.483 157.508L269.429 99.3078Z" fill="#243A5E"/>
<path d="M270.851 94.8316L276.8 91.3547C278.382 92.2509 279.644 94.4093 279.592 96.2017L273.643 99.6785C273.643 97.8861 272.432 95.6761 270.851 94.8316Z" fill="#243A5E"/>
<path opacity="0.3" d="M215.709 147.603L258.421 171.988L252.523 175.305L209.811 150.921L215.709 147.603Z" fill="#1F1D20"/>
<path d="M225.98 142.968L220.031 146.444C218.769 147.181 216.925 147.129 214.344 146.074L220.294 142.597C222.874 143.601 224.714 143.653 225.98 142.968Z" fill="#243A5E"/>
<path d="M248.15 165.565L254.1 162.088C255.259 162.932 256.31 164.143 257.103 165.565C257.84 166.986 258.262 168.516 258.262 169.83L252.312 173.307C252.312 171.988 251.89 170.463 251.153 169.042C250.365 167.615 249.309 166.405 248.15 165.565Z" fill="#243A5E"/>
<path d="M239.569 141.124C239.517 152.183 239.831 159.24 248.155 165.56C249.314 166.405 250.365 167.615 251.158 169.037C251.895 170.459 252.317 171.988 252.317 173.302L210.13 148.969C210.13 147.65 210.553 146.599 211.289 146.074C212.078 145.548 213.133 145.548 214.292 146.022C222.611 149.339 222.931 142.653 222.982 131.538L239.569 141.124Z" fill="url(#paint2_linear)"/>
<path d="M239.569 141.124L245.518 137.647C245.467 148.706 245.781 155.763 254.105 162.083L248.155 165.56C239.831 159.245 239.512 152.188 239.569 141.124Z" fill="#243A5E"/>
<path d="M223.029 131.594L228.979 128.117L245.514 137.652L239.564 141.128L223.029 131.594Z" fill="#243A5E"/>
<path d="M189.903 49.3278L195.59 45.9025C196.378 45.4286 197.382 45.4286 198.17 45.9025L276.8 91.2985L270.851 94.7753L189.903 49.3278Z" fill="#243A5E"/>
<path d="M270.851 94.8316C272.432 95.7278 273.694 97.8862 273.643 99.6785L273.483 157.56C273.483 159.352 272.221 160.038 270.64 159.141L239.569 141.18L223.034 131.646L191.963 113.741C190.433 112.741 189.171 110.578 189.171 108.791L189.33 50.9653C189.33 49.1729 190.593 48.4879 192.174 49.3324L270.851 94.8316Z" fill="url(#paint3_linear)"/>
<path d="M249.971 95.8358V113.9L234.435 123.012V104.948L249.971 95.8358Z" fill="#75CFEB"/>
<path d="M249.971 95.8359L234.384 104.948L218.797 95.8359L234.384 86.7755L249.971 95.8359Z" fill="#C6E9F7"/>
<path d="M234.431 104.943V123.008L218.844 113.896V95.8312L234.431 104.943Z" fill="#A6DEF3"/>
<path d="M218.844 113.844L234.431 104.84V122.904L218.844 113.844Z" fill="#C6E9F7"/>
<path d="M249.971 113.844L234.384 104.84V122.904L249.971 113.844Z" fill="#A6DEF3"/>
<path d="M116.927 99.3078L127.09 96.15L126.93 154.032L120.981 157.508L116.927 99.3078Z" fill="#243A5E"/>
<path d="M118.349 94.8316L124.298 91.3547C125.879 92.2509 127.141 94.4093 127.09 96.2017L121.14 99.6785C121.14 97.8861 119.925 95.6761 118.349 94.8316Z" fill="#243A5E"/>
<path opacity="0.3" d="M63.2072 147.603L105.919 171.988L100.021 175.305L57.3092 150.921L63.2072 147.603Z" fill="#1F1D20"/>
<path d="M73.4734 142.968L67.5238 146.444C66.2617 147.181 64.4177 147.129 61.837 146.074L67.7866 142.597C70.3673 143.601 72.2112 143.653 73.4734 142.968Z" fill="#243A5E"/>
<path d="M95.6482 165.565L101.598 162.088C102.757 162.932 103.808 164.143 104.601 165.565C105.337 166.986 105.76 168.516 105.76 169.83L99.8101 173.307C99.8101 171.988 99.3878 170.463 98.6511 169.042C97.8582 167.615 96.8071 166.405 95.6482 165.565Z" fill="#243A5E"/>
<path d="M87.0617 141.124C87.0101 152.183 87.3244 159.24 95.6482 165.56C96.8072 166.405 97.8582 167.615 98.6511 169.037C99.3878 170.459 99.8101 171.988 99.8101 173.302L57.6235 148.969C57.6235 147.65 58.0458 146.599 58.7825 146.074C59.5708 145.548 60.6265 145.548 61.7854 146.022C70.1045 149.339 70.4235 142.653 70.4752 131.538L87.0617 141.124Z" fill="url(#paint4_linear)"/>
<path d="M87.0618 141.124L93.0113 137.647C92.9597 148.706 93.2741 155.763 101.598 162.083L95.6483 165.56C87.3292 159.245 87.0102 152.188 87.0618 141.124Z" fill="#243A5E"/>
<path d="M70.5269 131.594L76.4764 128.117L93.0113 137.652L87.0618 141.128L70.5269 131.594Z" fill="#243A5E"/>
<path d="M37.4006 49.3278L43.0874 45.9025C43.8757 45.4286 44.8798 45.4286 45.6681 45.9025L124.298 91.2985L118.349 94.7753L37.4006 49.3278Z" fill="#243A5E"/>
<path d="M118.349 94.8316C119.93 95.7278 121.192 97.8862 121.14 99.6785L120.981 157.56C120.981 159.352 119.719 160.038 118.137 159.141L87.0664 141.18L70.5315 131.646L39.4605 113.741C37.9309 112.741 36.6687 110.578 36.6687 108.791L36.8282 50.9653C36.8282 49.1729 38.0904 48.4879 39.6716 49.3324L118.349 94.8316Z" fill="url(#paint5_linear)"/>
<path d="M97.464 95.8358V113.9L81.9285 123.012V104.948L97.464 95.8358Z" fill="#75CFEB"/>
<path d="M97.464 95.8359L81.8769 104.948L66.2898 95.8359L81.8769 86.7755L97.464 95.8359Z" fill="#C6E9F7"/>
<path d="M81.9285 104.943V123.008L66.3414 113.896V95.8312L81.9285 104.943Z" fill="#A6DEF3"/>
<path d="M66.3414 113.844L81.9285 104.84V122.904L66.3414 113.844Z" fill="#C6E9F7"/>
<path d="M97.4641 113.844L81.877 104.84V122.904L97.4641 113.844Z" fill="#A6DEF3"/>
<path d="M384.498 117.452L375.297 112.164L375.353 101.584L384.554 106.872L384.498 117.452ZM377.019 104.46V111.188L382.884 114.581V107.852L377.019 104.46Z" fill="white"/>
<path d="M83.6833 118.63V116.749L91.688 112.117V113.999L83.6833 118.63Z" fill="white"/>
<path d="M83.6833 111.249V109.415L91.688 104.784V106.618L83.6833 111.249Z" fill="white"/>
<path d="M83.6833 114.919V113.084L91.688 108.453V110.335L83.6833 114.919Z" fill="white"/>
<path d="M227.369 111.109C227.332 111.109 227.289 111.146 227.252 111.146C227.289 111.146 227.332 111.109 227.369 111.109ZM225.347 108.659C225.347 108.622 225.347 108.622 225.347 108.622C225.347 108.659 225.347 108.659 225.347 108.659Z" fill="#F4F4F5"/>
<path d="M226.553 103.174C223.442 101.387 220.913 102.822 220.875 106.402C220.875 109.982 223.362 114.337 226.515 116.167C229.626 117.954 232.155 116.519 232.193 112.938C232.193 109.321 229.664 104.962 226.553 103.174ZM226.515 114.843C224.028 113.403 221.964 109.903 221.964 107.026C221.964 104.108 224.024 102.982 226.515 104.422C229.002 105.863 231.066 109.363 231.066 112.277C231.062 115.153 229.039 116.321 226.515 114.843Z" fill="#F4F4F5"/>
<path d="M226.515 108.27C225.854 107.88 225.309 108.19 225.309 108.969C225.309 109.748 225.854 110.681 226.515 111.071C227.177 111.46 227.721 111.151 227.721 110.372C227.721 109.551 227.177 108.617 226.515 108.27Z" fill="#F4F4F5"/>
<defs>
<linearGradient id="paint0_linear" x1="382.941" y1="169.239" x2="398.248" y2="102.058" gradientUnits="userSpaceOnUse">
<stop offset="0.1111" stop-color="#2E77BC"/>
<stop offset="1" stop-color="#1A2C45"/>
</linearGradient>
<linearGradient id="paint1_linear" x1="415.148" y1="27.9286" x2="330.959" y2="241.377" gradientUnits="userSpaceOnUse">
<stop offset="0.1111" stop-color="#2E77BC"/>
<stop offset="1" stop-color="#1A2C45"/>
</linearGradient>
<linearGradient id="paint2_linear" x1="229.303" y1="169.239" x2="244.61" y2="102.058" gradientUnits="userSpaceOnUse">
<stop offset="0.1111" stop-color="#2E77BC"/>
<stop offset="1" stop-color="#1A2C45"/>
</linearGradient>
<linearGradient id="paint3_linear" x1="261.511" y1="27.9286" x2="177.322" y2="241.377" gradientUnits="userSpaceOnUse">
<stop offset="0.1111" stop-color="#2E77BC"/>
<stop offset="1" stop-color="#1A2C45"/>
</linearGradient>
<linearGradient id="paint4_linear" x1="76.7998" y1="169.239" x2="92.1068" y2="102.058" gradientUnits="userSpaceOnUse">
<stop offset="0.1111" stop-color="#2E77BC"/>
<stop offset="1" stop-color="#1A2C45"/>
</linearGradient>
<linearGradient id="paint5_linear" x1="109.007" y1="27.9286" x2="24.8185" y2="241.377" gradientUnits="userSpaceOnUse">
<stop offset="0.1111" stop-color="#2E77BC"/>
<stop offset="1" stop-color="#1A2C45"/>
</linearGradient>
</defs>
</svg>
