<svg width="625" height="394" viewBox="0 0 625 394" fill="none" xmlns="http://www.w3.org/2000/svg">
<path d="M618.063 282.705H6.94214V332.349H618.063V282.705Z" fill="#166BB3"/>
<path d="M618.063 336.58H6.94214V386.223H618.063V336.58Z" fill="#35AFE4"/>
<path d="M211.244 311.131H209.601V306.852H204.958V311.131H203.32V301.265H204.958V305.416H209.601V301.265H211.244V311.131Z" fill="#F4F4F5"/>
<path d="M216.623 311.296C215.537 311.296 214.668 310.965 214.021 310.309C213.369 309.652 213.048 308.779 213.048 307.692C213.048 306.507 213.388 305.586 214.063 304.92C214.739 304.254 215.65 303.924 216.798 303.924C217.898 303.924 218.758 304.245 219.371 304.892C219.985 305.539 220.292 306.436 220.292 307.584C220.292 308.708 219.962 309.61 219.296 310.285C218.635 310.96 217.742 311.296 216.623 311.296ZM216.698 305.194C216.075 305.194 215.584 305.411 215.22 305.846C214.857 306.28 214.677 306.885 214.677 307.65C214.677 308.387 214.861 308.972 215.23 309.393C215.598 309.818 216.089 310.03 216.703 310.03C217.331 310.03 217.813 309.822 218.153 309.402C218.488 308.986 218.658 308.391 218.658 307.622C218.658 306.847 218.488 306.247 218.153 305.827C217.808 305.407 217.327 305.194 216.698 305.194Z" fill="#F4F4F5"/>
<path d="M221.473 310.913V309.435C222.068 309.888 222.729 310.115 223.447 310.115C224.41 310.115 224.892 309.832 224.892 309.26C224.892 309.1 224.85 308.963 224.769 308.849C224.689 308.736 224.576 308.637 224.434 308.552C224.292 308.462 224.127 308.387 223.938 308.316C223.749 308.245 223.537 308.169 223.301 308.08C223.013 307.966 222.753 307.844 222.521 307.716C222.29 307.589 222.096 307.442 221.945 307.282C221.794 307.116 221.676 306.932 221.601 306.729C221.525 306.521 221.482 306.28 221.482 306.006C221.482 305.666 221.563 305.369 221.723 305.109C221.884 304.849 222.101 304.632 222.37 304.453C222.64 304.278 222.946 304.146 223.291 304.056C223.636 303.966 223.99 303.924 224.358 303.924C225.01 303.924 225.591 304.023 226.106 304.221V305.619C225.61 305.279 225.043 305.109 224.401 305.109C224.198 305.109 224.018 305.128 223.853 305.171C223.688 305.213 223.551 305.27 223.438 305.341C223.324 305.416 223.235 305.501 223.168 305.605C223.102 305.709 223.074 305.822 223.074 305.945C223.074 306.096 223.107 306.224 223.168 306.332C223.235 306.436 223.329 306.531 223.457 306.611C223.584 306.691 223.735 306.762 223.91 306.833C224.085 306.899 224.288 306.97 224.519 307.05C224.821 307.173 225.095 307.3 225.336 307.428C225.577 307.555 225.78 307.702 225.95 307.867C226.12 308.028 226.252 308.217 226.342 308.429C226.432 308.642 226.479 308.897 226.479 309.189C226.479 309.548 226.399 309.86 226.233 310.125C226.068 310.389 225.846 310.611 225.572 310.786C225.298 310.96 224.977 311.088 224.618 311.173C224.259 311.258 223.877 311.3 223.48 311.3C222.706 311.296 222.04 311.168 221.473 310.913Z" fill="#F4F4F5"/>
<path d="M231.707 311.055C231.395 311.211 230.984 311.291 230.474 311.291C229.105 311.291 228.425 310.635 228.425 309.322V305.336H227.249V304.084H228.425V302.455L230.021 302.002V304.084H231.707V305.336H230.021V308.859C230.021 309.274 230.096 309.577 230.248 309.751C230.399 309.931 230.654 310.021 231.003 310.021C231.272 310.021 231.508 309.945 231.707 309.784V311.055Z" fill="#F4F4F5"/>
<path d="M242.366 311.13H240.817V310.03H240.788C240.302 310.875 239.589 311.296 238.649 311.296C237.955 311.296 237.412 311.107 237.024 310.734C236.632 310.356 236.434 309.86 236.434 309.241C236.434 307.91 237.199 307.135 238.734 306.918L240.826 306.62C240.826 305.615 240.349 305.114 239.395 305.114C238.555 305.114 237.799 305.402 237.124 305.983V304.585C237.865 304.146 238.725 303.924 239.697 303.924C241.478 303.924 242.366 304.798 242.366 306.554V311.13ZM240.821 307.669L239.343 307.877C238.885 307.938 238.54 308.047 238.309 308.212C238.078 308.377 237.964 308.661 237.964 309.067C237.964 309.364 238.073 309.61 238.285 309.799C238.498 309.988 238.786 310.082 239.14 310.082C239.627 310.082 240.028 309.912 240.349 309.567C240.67 309.227 240.826 308.798 240.826 308.278V307.669H240.821Z" fill="#F4F4F5"/>
<path d="M250.587 311.131H248.991V307.159C248.991 305.841 248.524 305.185 247.593 305.185C247.107 305.185 246.706 305.369 246.389 305.733C246.073 306.096 245.912 306.559 245.912 307.112V311.131H244.311V304.084H245.912V305.256H245.94C246.469 304.368 247.23 303.919 248.226 303.919C248.991 303.919 249.577 304.169 249.983 304.665C250.389 305.161 250.587 305.879 250.587 306.824V311.131Z" fill="#F4F4F5"/>
<path d="M258.937 311.13H257.341V309.931H257.312C256.798 310.838 256.009 311.291 254.937 311.291C254.068 311.291 253.374 310.975 252.854 310.346C252.335 309.714 252.075 308.854 252.075 307.768C252.075 306.602 252.363 305.671 252.939 304.968C253.515 304.264 254.281 303.914 255.239 303.914C256.188 303.914 256.878 304.297 257.312 305.057H257.341V300.694H258.937V311.13ZM257.364 307.91V306.989C257.364 306.488 257.199 306.063 256.878 305.714C256.552 305.364 256.136 305.189 255.631 305.189C255.036 305.189 254.564 305.411 254.224 305.855C253.884 306.299 253.709 306.918 253.709 307.707C253.709 308.424 253.874 308.986 254.2 309.402C254.531 309.818 254.97 310.025 255.527 310.025C256.075 310.025 256.514 309.827 256.854 309.426C257.194 309.029 257.364 308.524 257.364 307.91Z" fill="#F4F4F5"/>
<path d="M272.807 301.265L269.265 311.131H267.433L263.952 301.265H265.742L268.179 308.75C268.254 308.991 268.316 309.265 268.358 309.582H268.387C268.42 309.322 268.486 309.038 268.585 308.736L271.074 301.265H272.807Z" fill="#F4F4F5"/>
<path d="M284.713 311.131H283.088V304.746C283.088 304.221 283.121 303.584 283.182 302.828H283.154C283.055 303.258 282.965 303.57 282.885 303.759L279.938 311.135H278.809L275.858 303.815C275.778 303.598 275.688 303.272 275.598 302.833H275.57C275.607 303.225 275.626 303.872 275.626 304.765V311.135H274.11V301.27H276.415L279.008 307.839C279.206 308.344 279.334 308.717 279.395 308.968H279.428C279.598 308.448 279.735 308.066 279.839 307.811L282.479 301.265H284.703V311.131H284.713Z" fill="#F4F4F5"/>
<path d="M296.901 304.084L294.177 311.13H292.448L289.855 304.084H291.589L293.152 309.01C293.27 309.374 293.345 309.69 293.374 309.959H293.393C293.435 309.619 293.496 309.312 293.586 309.038L295.225 304.084H296.901Z" fill="#F4F4F5"/>
<path d="M302.229 311.296C300.807 311.296 299.669 310.833 298.814 309.912C297.959 308.991 297.529 307.792 297.529 306.314C297.529 304.727 297.964 303.461 298.838 302.517C299.711 301.572 300.892 301.1 302.389 301.1C303.773 301.1 304.892 301.558 305.737 302.474C306.583 303.39 307.008 304.59 307.008 306.073C307.008 307.683 306.573 308.953 305.709 309.893C304.845 310.833 303.678 311.296 302.229 311.296ZM302.304 302.54C301.402 302.54 300.665 302.876 300.099 303.551C299.532 304.226 299.249 305.114 299.249 306.214C299.249 307.31 299.522 308.193 300.075 308.864C300.628 309.534 301.345 309.87 302.233 309.87C303.178 309.87 303.924 309.553 304.467 308.911C305.01 308.269 305.284 307.381 305.284 306.233C305.284 305.053 305.019 304.146 304.491 303.504C303.966 302.861 303.234 302.54 302.304 302.54Z" fill="#F4F4F5"/>
<path d="M308.358 310.738V309.052C308.509 309.189 308.689 309.312 308.897 309.426C309.104 309.534 309.326 309.629 309.563 309.704C309.799 309.78 310.03 309.836 310.266 309.879C310.502 309.921 310.715 309.94 310.913 309.94C311.603 309.94 312.113 309.827 312.453 309.596C312.793 309.369 312.958 309.034 312.958 308.599C312.958 308.363 312.901 308.165 312.788 307.99C312.675 307.82 312.519 307.659 312.316 307.518C312.113 307.376 311.877 307.239 311.603 307.107C311.329 306.979 311.036 306.842 310.724 306.696C310.389 306.516 310.077 306.337 309.789 306.153C309.501 305.969 309.251 305.766 309.034 305.544C308.821 305.322 308.651 305.071 308.533 304.788C308.41 304.509 308.349 304.179 308.349 303.806C308.349 303.343 308.453 302.941 308.661 302.597C308.868 302.257 309.147 301.973 309.487 301.751C309.827 301.529 310.219 301.364 310.653 301.256C311.088 301.147 311.532 301.095 311.99 301.095C313.024 301.095 313.775 301.213 314.247 301.444V303.06C313.69 302.653 312.967 302.455 312.089 302.455C311.848 302.455 311.603 302.479 311.362 302.526C311.121 302.573 310.904 302.649 310.715 302.753C310.526 302.856 310.37 302.993 310.252 303.159C310.134 303.324 310.073 303.522 310.073 303.758C310.073 303.98 310.12 304.169 310.21 304.33C310.299 304.49 310.436 304.637 310.611 304.769C310.786 304.901 311.003 305.034 311.258 305.156C311.513 305.284 311.806 305.421 312.141 305.567C312.486 305.747 312.812 305.936 313.114 306.129C313.421 306.328 313.685 306.545 313.917 306.781C314.148 307.022 314.332 307.286 314.469 307.574C314.606 307.867 314.672 308.198 314.672 308.566C314.672 309.067 314.573 309.487 314.37 309.832C314.167 310.176 313.898 310.455 313.553 310.672C313.213 310.89 312.816 311.045 312.372 311.14C311.929 311.234 311.456 311.286 310.96 311.286C310.795 311.286 310.592 311.272 310.351 311.248C310.11 311.225 309.865 311.187 309.614 311.14C309.364 311.093 309.123 311.031 308.897 310.965C308.679 310.904 308.495 310.828 308.358 310.738Z" fill="#F4F4F5"/>
<path d="M325.685 302.654H321.997V305.619H325.397V307.003H321.997V311.131H320.358V301.265H325.685V302.654Z" fill="#F4F4F5"/>
<path d="M328.066 302.606C327.806 302.606 327.579 302.521 327.395 302.351C327.206 302.181 327.116 301.964 327.116 301.704C327.116 301.444 327.211 301.222 327.395 301.052C327.579 300.878 327.806 300.793 328.066 300.793C328.335 300.793 328.566 300.882 328.755 301.052C328.944 301.227 329.038 301.444 329.038 301.704C329.038 301.95 328.944 302.162 328.755 302.342C328.566 302.516 328.335 302.606 328.066 302.606ZM328.854 311.13H327.258V304.084H328.854V311.13Z" fill="#F4F4F5"/>
<path d="M332.542 311.13H330.941V300.698H332.542V311.13Z" fill="#F4F4F5"/>
<path d="M340.585 308.042H335.782C335.801 308.694 335.999 309.194 336.382 309.548C336.764 309.903 337.293 310.077 337.959 310.077C338.71 310.077 339.404 309.851 340.032 309.402V310.687C339.39 311.093 338.54 311.291 337.487 311.291C336.448 311.291 335.636 310.97 335.045 310.332C334.455 309.69 334.162 308.793 334.162 307.631C334.162 306.535 334.488 305.643 335.135 304.953C335.782 304.264 336.59 303.919 337.553 303.919C338.516 303.919 339.263 304.231 339.787 304.85C340.311 305.468 340.58 306.328 340.58 307.428V308.042H340.585ZM339.045 306.913C339.041 306.342 338.904 305.893 338.639 305.577C338.375 305.256 338.006 305.1 337.539 305.1C337.081 305.1 336.693 305.265 336.372 305.6C336.056 305.936 335.858 306.375 335.787 306.913H339.045Z" fill="#F4F4F5"/>
<path d="M341.666 310.913V309.435C342.261 309.888 342.923 310.115 343.64 310.115C344.604 310.115 345.086 309.832 345.086 309.26C345.086 309.1 345.043 308.963 344.963 308.849C344.882 308.736 344.769 308.637 344.627 308.552C344.486 308.462 344.32 308.387 344.132 308.316C343.943 308.245 343.73 308.169 343.494 308.08C343.206 307.966 342.946 307.844 342.715 307.716C342.483 307.589 342.29 307.442 342.139 307.282C341.988 307.116 341.87 306.932 341.794 306.729C341.718 306.521 341.676 306.28 341.676 306.006C341.676 305.666 341.756 305.369 341.917 305.109C342.077 304.849 342.294 304.632 342.564 304.453C342.833 304.278 343.14 304.146 343.485 304.056C343.829 303.966 344.183 303.924 344.552 303.924C345.204 303.924 345.784 304.023 346.299 304.221V305.619C345.803 305.279 345.237 305.109 344.594 305.109C344.391 305.109 344.212 305.128 344.047 305.171C343.881 305.213 343.744 305.27 343.631 305.341C343.518 305.416 343.428 305.501 343.362 305.605C343.296 305.709 343.267 305.822 343.267 305.945C343.267 306.096 343.3 306.224 343.362 306.332C343.423 306.441 343.522 306.531 343.65 306.611C343.777 306.691 343.928 306.762 344.103 306.833C344.278 306.899 344.481 306.97 344.712 307.05C345.015 307.173 345.289 307.3 345.529 307.428C345.77 307.555 345.978 307.702 346.143 307.867C346.313 308.028 346.446 308.217 346.535 308.429C346.625 308.642 346.672 308.897 346.672 309.189C346.672 309.548 346.592 309.86 346.427 310.125C346.261 310.389 346.039 310.611 345.766 310.786C345.492 310.96 345.175 311.088 344.812 311.173C344.453 311.258 344.07 311.3 343.674 311.3C342.899 311.296 342.233 311.168 341.666 310.913Z" fill="#F4F4F5"/>
<path d="M357.463 311.13H355.914V310.03H355.886C355.4 310.875 354.686 311.296 353.747 311.296C353.052 311.296 352.509 311.107 352.122 310.734C351.73 310.356 351.532 309.86 351.532 309.241C351.532 307.91 352.297 307.135 353.832 306.918L355.924 306.62C355.924 305.615 355.447 305.114 354.493 305.114C353.652 305.114 352.897 305.402 352.221 305.983V304.585C352.963 304.146 353.822 303.924 354.795 303.924C356.575 303.924 357.463 304.798 357.463 306.554V311.13ZM355.924 307.669L354.446 307.877C353.987 307.938 353.643 308.047 353.411 308.212C353.18 308.377 353.067 308.661 353.067 309.067C353.067 309.364 353.175 309.61 353.388 309.799C353.6 309.988 353.888 310.082 354.243 310.082C354.729 310.082 355.13 309.912 355.452 309.567C355.773 309.227 355.929 308.798 355.929 308.278V307.669H355.924Z" fill="#F4F4F5"/>
<path d="M365.685 311.131H364.089V307.159C364.089 305.841 363.622 305.185 362.691 305.185C362.205 305.185 361.803 305.369 361.487 305.733C361.171 306.096 361.01 306.559 361.01 307.112V311.131H359.409V304.084H361.01V305.256H361.038C361.567 304.368 362.327 303.919 363.324 303.919C364.089 303.919 364.675 304.169 365.081 304.665C365.487 305.161 365.685 305.879 365.685 306.824V311.131Z" fill="#F4F4F5"/>
<path d="M374.039 311.13H372.443V309.931H372.415C371.9 310.838 371.111 311.291 370.039 311.291C369.17 311.291 368.476 310.975 367.957 310.346C367.437 309.714 367.178 308.854 367.178 307.768C367.178 306.602 367.466 305.671 368.042 304.968C368.618 304.264 369.383 303.914 370.342 303.914C371.291 303.914 371.98 304.297 372.415 305.057H372.443V300.694H374.039V311.13ZM372.462 307.91V306.989C372.462 306.488 372.297 306.063 371.976 305.714C371.65 305.364 371.234 305.189 370.729 305.189C370.134 305.189 369.662 305.411 369.322 305.855C368.982 306.299 368.807 306.918 368.807 307.707C368.807 308.424 368.972 308.986 369.298 309.402C369.629 309.818 370.068 310.025 370.625 310.025C371.173 310.025 371.612 309.827 371.952 309.426C372.292 309.029 372.462 308.524 372.462 307.91Z" fill="#F4F4F5"/>
<path d="M385.638 311.131H380.174V301.265H381.813V309.747H385.638V311.131Z" fill="#F4F4F5"/>
<path d="M387.688 302.606C387.428 302.606 387.201 302.521 387.017 302.351C386.828 302.181 386.738 301.964 386.738 301.704C386.738 301.444 386.833 301.222 387.017 301.052C387.201 300.878 387.428 300.793 387.688 300.793C387.957 300.793 388.188 300.882 388.377 301.052C388.566 301.227 388.66 301.444 388.66 301.704C388.66 301.95 388.566 302.162 388.377 302.342C388.188 302.516 387.961 302.606 387.688 302.606ZM388.481 311.13H386.885V304.084H388.481V311.13Z" fill="#F4F4F5"/>
<path d="M392.188 310.115H392.16V311.135H390.564V300.703H392.16V305.327H392.188C392.736 304.391 393.534 303.924 394.582 303.924C395.47 303.924 396.169 304.24 396.67 304.868C397.17 305.501 397.421 306.347 397.421 307.404C397.421 308.585 397.137 309.53 396.575 310.233C396.013 310.942 395.239 311.296 394.261 311.296C393.35 311.296 392.656 310.904 392.188 310.115ZM392.146 307.315V308.188C392.146 308.703 392.311 309.138 392.637 309.496C392.963 309.855 393.383 310.035 393.883 310.035C394.474 310.035 394.941 309.803 395.277 309.341C395.612 308.883 395.782 308.236 395.782 307.409C395.782 306.715 395.626 306.172 395.31 305.785C394.998 305.393 394.568 305.194 394.035 305.194C393.463 305.194 393.01 305.397 392.66 305.799C392.32 306.205 392.146 306.705 392.146 307.315Z" fill="#F4F4F5"/>
<path d="M403.14 305.605C402.946 305.454 402.672 305.378 402.309 305.378C401.836 305.378 401.44 305.591 401.123 306.016C400.807 306.441 400.646 307.022 400.646 307.759V311.13H399.05V304.084H400.646V305.534H400.675C400.83 305.038 401.071 304.651 401.392 304.377C401.718 304.099 402.077 303.962 402.479 303.962C402.767 303.962 402.989 304.004 403.14 304.094V305.605Z" fill="#F4F4F5"/>
<path d="M409.681 311.13H408.131V310.03H408.103C407.617 310.875 406.904 311.296 405.964 311.296C405.27 311.296 404.727 311.107 404.339 310.734C403.947 310.356 403.749 309.86 403.749 309.241C403.749 307.91 404.514 307.135 406.049 306.918L408.141 306.62C408.141 305.615 407.664 305.114 406.71 305.114C405.869 305.114 405.114 305.402 404.438 305.983V304.585C405.18 304.146 406.039 303.924 407.012 303.924C408.793 303.924 409.681 304.798 409.681 306.554V311.13ZM408.136 307.669L406.658 307.877C406.2 307.938 405.855 308.047 405.624 308.212C405.392 308.377 405.279 308.661 405.279 309.067C405.279 309.364 405.388 309.61 405.6 309.799C405.813 309.988 406.101 310.082 406.455 310.082C406.941 310.082 407.343 309.912 407.664 309.567C407.985 309.227 408.141 308.798 408.141 308.278V307.669H408.136Z" fill="#F4F4F5"/>
<path d="M415.711 305.605C415.517 305.454 415.244 305.378 414.88 305.378C414.408 305.378 414.011 305.591 413.695 306.016C413.378 306.441 413.218 307.022 413.218 307.759V311.13H411.621V304.084H413.218V305.534H413.246C413.402 305.038 413.643 304.651 413.964 304.377C414.29 304.099 414.649 303.962 415.05 303.962C415.338 303.962 415.56 304.004 415.711 304.094V305.605Z" fill="#F4F4F5"/>
<path d="M417.647 302.606C417.388 302.606 417.161 302.521 416.977 302.351C416.788 302.181 416.698 301.964 416.698 301.704C416.698 301.444 416.793 301.222 416.977 301.052C417.161 300.878 417.388 300.793 417.647 300.793C417.917 300.793 418.148 300.882 418.337 301.052C418.526 301.227 418.62 301.444 418.62 301.704C418.62 301.95 418.526 302.162 418.337 302.342C418.148 302.516 417.917 302.606 417.647 302.606ZM418.436 311.13H416.84V304.084H418.436V311.13Z" fill="#F4F4F5"/>
<path d="M426.488 308.042H421.685C421.704 308.694 421.902 309.194 422.285 309.548C422.667 309.903 423.196 310.077 423.862 310.077C424.613 310.077 425.307 309.851 425.935 309.402V310.687C425.293 311.093 424.443 311.291 423.39 311.291C422.351 311.291 421.539 310.97 420.948 310.332C420.358 309.69 420.065 308.793 420.065 307.631C420.065 306.535 420.391 305.643 421.038 304.953C421.685 304.264 422.493 303.919 423.456 303.919C424.42 303.919 425.166 304.231 425.69 304.85C426.214 305.468 426.483 306.328 426.483 307.428V308.042H426.488ZM424.944 306.913C424.939 306.342 424.802 305.893 424.538 305.577C424.273 305.256 423.905 305.1 423.437 305.1C422.979 305.1 422.592 305.265 422.271 305.6C421.954 305.936 421.756 306.375 421.685 306.913H424.944Z" fill="#F4F4F5"/>
<path d="M427.569 310.913V309.435C428.164 309.888 428.826 310.115 429.543 310.115C430.507 310.115 430.989 309.832 430.989 309.26C430.989 309.1 430.946 308.963 430.866 308.849C430.785 308.736 430.672 308.637 430.531 308.552C430.389 308.462 430.224 308.387 430.035 308.316C429.846 308.245 429.633 308.169 429.397 308.08C429.109 307.966 428.849 307.844 428.618 307.716C428.386 307.589 428.193 307.442 428.042 307.282C427.891 307.116 427.773 306.932 427.697 306.729C427.621 306.521 427.579 306.28 427.579 306.006C427.579 305.666 427.659 305.369 427.82 305.109C427.98 304.849 428.198 304.632 428.467 304.453C428.736 304.278 429.043 304.146 429.388 304.056C429.732 303.966 430.087 303.924 430.455 303.924C431.107 303.924 431.688 304.023 432.202 304.221V305.619C431.706 305.279 431.14 305.109 430.497 305.109C430.294 305.109 430.115 305.128 429.95 305.171C429.784 305.213 429.647 305.27 429.534 305.341C429.421 305.416 429.331 305.501 429.265 305.605C429.199 305.709 429.17 305.822 429.17 305.945C429.17 306.096 429.203 306.224 429.265 306.332C429.326 306.441 429.425 306.531 429.553 306.611C429.68 306.691 429.832 306.762 430.006 306.833C430.181 306.899 430.384 306.97 430.615 307.05C430.918 307.173 431.192 307.3 431.432 307.428C431.673 307.555 431.881 307.702 432.046 307.867C432.216 308.028 432.349 308.217 432.438 308.429C432.528 308.642 432.575 308.897 432.575 309.189C432.575 309.548 432.495 309.86 432.33 310.125C432.165 310.389 431.942 310.611 431.669 310.786C431.395 310.96 431.078 311.088 430.715 311.173C430.356 311.258 429.973 311.3 429.577 311.3C428.797 311.296 428.131 311.168 427.569 310.913Z" fill="#F4F4F5"/>
<path d="M311.744 366.332H310.101V362.054H305.459V366.332H303.82V356.467H305.459V360.618H310.101V356.467H311.744V366.332Z" fill="black"/>
<path d="M317.123 366.498C316.037 366.498 315.168 366.167 314.521 365.511C313.87 364.854 313.548 363.98 313.548 362.894C313.548 361.709 313.888 360.788 314.564 360.122C315.239 359.456 316.15 359.126 317.298 359.126C318.398 359.126 319.258 359.447 319.872 360.094C320.486 360.741 320.793 361.638 320.793 362.786C320.793 363.91 320.462 364.812 319.796 365.487C319.135 366.158 318.243 366.498 317.123 366.498ZM317.199 360.391C316.576 360.391 316.084 360.609 315.721 361.043C315.357 361.478 315.178 362.082 315.178 362.847C315.178 363.584 315.362 364.169 315.73 364.59C316.099 365.015 316.59 365.227 317.204 365.227C317.832 365.227 318.313 365.019 318.653 364.599C318.989 364.184 319.159 363.589 319.159 362.819C319.159 362.044 318.989 361.444 318.653 361.024C318.309 360.604 317.827 360.391 317.199 360.391Z" fill="black"/>
<path d="M321.973 366.11V364.632C322.568 365.085 323.23 365.312 323.947 365.312C324.911 365.312 325.393 365.029 325.393 364.457C325.393 364.297 325.35 364.16 325.27 364.047C325.189 363.933 325.076 363.834 324.934 363.749C324.793 363.659 324.628 363.584 324.439 363.513C324.25 363.442 324.037 363.366 323.801 363.277C323.513 363.163 323.253 363.041 323.022 362.913C322.79 362.786 322.597 362.639 322.446 362.479C322.295 362.313 322.176 362.129 322.101 361.926C322.025 361.718 321.983 361.477 321.983 361.204C321.983 360.864 322.063 360.566 322.224 360.306C322.384 360.047 322.602 359.829 322.871 359.65C323.14 359.475 323.447 359.343 323.792 359.248C324.136 359.159 324.491 359.116 324.859 359.116C325.511 359.116 326.091 359.215 326.606 359.414V360.812C326.11 360.472 325.544 360.302 324.901 360.302C324.698 360.302 324.519 360.32 324.354 360.363C324.188 360.405 324.051 360.462 323.938 360.533C323.825 360.609 323.735 360.694 323.669 360.797C323.603 360.901 323.574 361.015 323.574 361.137C323.574 361.289 323.607 361.416 323.669 361.525C323.735 361.629 323.829 361.723 323.957 361.803C324.084 361.884 324.236 361.954 324.41 362.025C324.585 362.091 324.788 362.162 325.02 362.243C325.322 362.365 325.596 362.493 325.837 362.62C326.077 362.748 326.28 362.894 326.45 363.06C326.62 363.22 326.753 363.409 326.842 363.622C326.932 363.834 326.979 364.089 326.979 364.382C326.979 364.741 326.899 365.052 326.734 365.317C326.568 365.581 326.347 365.803 326.073 365.978C325.799 366.153 325.478 366.28 325.119 366.365C324.76 366.45 324.382 366.493 323.98 366.493C323.206 366.498 322.54 366.365 321.973 366.11Z" fill="black"/>
<path d="M332.207 366.257C331.896 366.413 331.485 366.493 330.975 366.493C329.605 366.493 328.925 365.836 328.925 364.524V360.538H327.749V359.286H328.925V357.657L330.521 357.204V359.286H332.207V360.538H330.521V364.061C330.521 364.476 330.597 364.779 330.748 364.953C330.899 365.133 331.154 365.222 331.504 365.222C331.773 365.222 332.009 365.147 332.207 364.986V366.257Z" fill="black"/>
<path d="M100.283 8.89258H6.94214V276.174H100.283V8.89258Z" fill="#141D2F"/>
<path d="M195.537 8.89258H105.185V276.174H195.537V8.89258Z" fill="#1A2C45"/>
<path d="M290.791 8.89258H200.439V276.174H290.791V8.89258Z" fill="#243A5E"/>
<path d="M618.063 8.89258H295.929V276.174H618.063V8.89258Z" fill="#1D4A79"/>
<path d="M26.7579 186.592C26.0165 186.979 25.0909 187.168 23.9858 187.168C22.5548 187.168 21.4073 186.715 20.5478 185.813C19.6883 184.911 19.2538 183.726 19.2538 182.257C19.2538 180.68 19.7402 179.405 20.7083 178.432C21.6811 177.459 22.9043 176.972 24.3872 176.972C25.3411 176.972 26.1345 177.109 26.7626 177.379V179.003C26.0968 178.611 25.3647 178.413 24.5619 178.413C23.4946 178.413 22.6257 178.753 21.9645 179.438C21.3034 180.122 20.9728 181.034 20.9728 182.177C20.9728 183.263 21.2797 184.132 21.8984 184.774C22.517 185.421 23.3293 185.742 24.34 185.742C25.2703 185.742 26.0779 185.52 26.7626 185.081V186.592H26.7579Z" fill="#D2D3D4"/>
<path d="M31.5701 187.169C30.484 187.169 29.615 186.838 28.9633 186.182C28.3163 185.525 27.9905 184.651 27.9905 183.565C27.9905 182.38 28.3305 181.459 29.0058 180.793C29.6812 180.127 30.5926 179.797 31.7401 179.797C32.8405 179.797 33.7 180.118 34.314 180.765C34.9279 181.412 35.2348 182.309 35.2348 183.457C35.2348 184.581 34.9043 185.483 34.2384 186.158C33.582 186.833 32.6894 187.169 31.5701 187.169ZM31.6457 181.067C31.0223 181.067 30.5312 181.284 30.1676 181.719C29.8039 182.153 29.6245 182.758 29.6245 183.523C29.6245 184.259 29.8087 184.845 30.177 185.265C30.5454 185.69 31.0365 185.903 31.6504 185.903C32.2785 185.903 32.7602 185.695 33.1002 185.275C33.4355 184.859 33.6056 184.264 33.6056 183.494C33.6056 182.72 33.4355 182.12 33.1002 181.7C32.7555 181.28 32.2738 181.067 31.6457 181.067Z" fill="#D2D3D4"/>
<path d="M43.1357 187.003H41.5395V183.031C41.5395 181.714 41.072 181.057 40.1416 181.057C39.6552 181.057 39.2538 181.242 38.9374 181.605C38.621 181.969 38.4651 182.432 38.4651 182.984V187.003H36.8595V179.957H38.4651V181.128H38.4935C39.0224 180.24 39.7827 179.792 40.7792 179.792C41.5442 179.792 42.1299 180.042 42.5313 180.538C42.9374 181.034 43.1357 181.752 43.1357 182.696V187.003Z" fill="#D2D3D4"/>
<path d="M48.798 186.928C48.4863 187.083 48.0755 187.164 47.5654 187.164C46.2006 187.164 45.5159 186.507 45.5159 185.194V181.209H44.34V179.957H45.5159V178.328L47.1121 177.875V179.957H48.798V181.209H47.1121V184.732C47.1121 185.147 47.1876 185.449 47.3388 185.624C47.4899 185.804 47.7402 185.893 48.0944 185.893C48.3635 185.893 48.5997 185.818 48.798 185.657V186.928Z" fill="#D2D3D4"/>
<path d="M55.5843 187.003H54.0354V185.903H54.007C53.5206 186.748 52.8075 187.169 51.8677 187.169C51.1735 187.169 50.6304 186.98 50.2384 186.607C49.8465 186.229 49.6528 185.733 49.6528 185.114C49.6528 183.782 50.4179 183.008 51.9527 182.791L54.0448 182.493C54.0448 181.487 53.5678 180.987 52.6139 180.987C51.7733 180.987 51.0176 181.275 50.3423 181.856V180.458C51.0837 180.019 51.9433 179.797 52.9161 179.797C54.6965 179.797 55.5843 180.67 55.5843 182.427V187.003ZM54.0448 183.542L52.5667 183.749C52.1086 183.811 51.7638 183.919 51.5324 184.085C51.301 184.25 51.1877 184.533 51.1877 184.939C51.1877 185.237 51.2916 185.483 51.5041 185.671C51.7166 185.86 52.0046 185.955 52.3588 185.955C52.8453 185.955 53.2467 185.785 53.5678 185.44C53.889 185.1 54.0495 184.67 54.0495 184.151V183.542H54.0448Z" fill="#D2D3D4"/>
<path d="M58.3375 178.479C58.0778 178.479 57.8511 178.394 57.6669 178.224C57.478 178.054 57.3883 177.837 57.3883 177.577C57.3883 177.317 57.4827 177.095 57.6669 176.925C57.8511 176.751 58.0778 176.666 58.3375 176.666C58.6067 176.666 58.8381 176.755 59.027 176.925C59.2159 177.1 59.3104 177.317 59.3104 177.577C59.3104 177.823 59.2159 178.035 59.027 178.215C58.8334 178.389 58.6067 178.479 58.3375 178.479ZM59.1262 187.003H57.5299V179.957H59.1262V187.003Z" fill="#D2D3D4"/>
<path d="M67.4851 187.003H65.8889V183.031C65.8889 181.714 65.4214 181.057 64.4911 181.057C64.0046 181.057 63.6032 181.242 63.2868 181.605C62.9704 181.969 62.8098 182.432 62.8098 182.984V187.003H61.2089V179.957H62.8098V181.128H62.8382C63.3671 180.24 64.1274 179.792 65.1239 179.792C65.8889 179.792 66.4745 180.042 66.8806 180.538C67.2821 181.034 67.4851 181.752 67.4851 182.696V187.003Z" fill="#D2D3D4"/>
<path d="M75.4001 183.915H70.5972C70.6161 184.566 70.8145 185.067 71.197 185.421C71.5795 185.775 72.1084 185.95 72.7743 185.95C73.5252 185.95 74.2194 185.723 74.8475 185.275V186.559C74.2052 186.965 73.3552 187.164 72.302 187.164C71.2631 187.164 70.4508 186.843 69.8605 186.205C69.2702 185.563 68.9774 184.665 68.9774 183.504C68.9774 182.408 69.3032 181.515 69.9502 180.826C70.5972 180.136 71.4048 179.792 72.3682 179.792C73.3316 179.792 74.0777 180.103 74.6019 180.722C75.1308 181.341 75.3953 182.2 75.3953 183.301V183.915H75.4001ZM73.8605 182.786C73.8558 182.214 73.7188 181.766 73.4544 181.449C73.1899 181.128 72.8215 180.972 72.354 180.972C71.8959 180.972 71.5087 181.138 71.1875 181.473C70.8711 181.808 70.6728 182.247 70.6019 182.786H73.8605Z" fill="#D2D3D4"/>
<path d="M81.0058 181.478C80.8121 181.327 80.5382 181.251 80.1746 181.251C79.7023 181.251 79.3056 181.464 78.9892 181.889C78.6728 182.314 78.5122 182.895 78.5122 183.631V187.003H76.916V179.957H78.5122V181.407H78.5406C78.6964 180.911 78.9372 180.524 79.2584 180.25C79.5842 179.971 79.9432 179.834 80.3399 179.834C80.6279 179.834 80.8499 179.877 81.001 179.967V181.478H81.0058Z" fill="#D2D3D4"/>
<path d="M89.1993 176.916V187.003H87.6031V178.871C87.315 179.079 87.0034 179.253 86.6681 179.4C86.3375 179.542 85.9549 179.669 85.5299 179.782V178.422C85.7991 178.333 86.0541 178.243 86.2997 178.148C86.5453 178.054 86.7909 177.945 87.0317 177.827C87.2726 177.709 87.5134 177.577 87.7589 177.426C88.0045 177.279 88.2596 177.109 88.5193 176.925H89.1993V176.916Z" fill="#D2D3D4"/>
<path d="M122.328 186.592C121.587 186.979 120.661 187.168 119.556 187.168C118.125 187.168 116.977 186.715 116.118 185.813C115.258 184.911 114.824 183.726 114.824 182.257C114.824 180.68 115.31 179.405 116.278 178.432C117.251 177.459 118.474 176.972 119.957 176.972C120.911 176.972 121.705 177.109 122.333 177.379V179.003C121.667 178.611 120.935 178.413 120.132 178.413C119.065 178.413 118.196 178.753 117.535 179.438C116.873 180.122 116.543 181.034 116.543 182.177C116.543 183.263 116.855 184.132 117.473 184.774C118.092 185.421 118.904 185.742 119.915 185.742C120.845 185.742 121.653 185.52 122.337 185.081V186.592H122.328Z" fill="#D2D3D4"/>
<path d="M127.14 187.169C126.054 187.169 125.185 186.838 124.538 186.182C123.886 185.525 123.565 184.651 123.565 183.565C123.565 182.38 123.905 181.459 124.581 180.793C125.256 180.127 126.167 179.797 127.315 179.797C128.415 179.797 129.275 180.118 129.889 180.765C130.503 181.412 130.81 182.309 130.81 183.457C130.81 184.581 130.479 185.483 129.813 186.158C129.152 186.833 128.259 187.169 127.14 187.169ZM127.216 181.067C126.592 181.067 126.101 181.284 125.738 181.719C125.374 182.153 125.195 182.758 125.195 183.523C125.195 184.259 125.379 184.845 125.747 185.265C126.115 185.69 126.607 185.903 127.221 185.903C127.849 185.903 128.33 185.695 128.67 185.275C129.006 184.859 129.176 184.264 129.176 183.494C129.176 182.72 129.006 182.12 128.67 181.7C128.33 181.28 127.844 181.067 127.216 181.067Z" fill="#D2D3D4"/>
<path d="M138.706 187.003H137.11V183.031C137.11 181.714 136.642 181.057 135.712 181.057C135.225 181.057 134.824 181.242 134.507 181.605C134.191 181.969 134.031 182.432 134.031 182.984V187.003H132.43V179.957H134.031V181.128H134.059C134.588 180.24 135.348 179.792 136.345 179.792C137.11 179.792 137.695 180.042 138.101 180.538C138.507 181.034 138.706 181.752 138.706 182.696V187.003Z" fill="#D2D3D4"/>
<path d="M144.368 186.928C144.056 187.083 143.646 187.164 143.136 187.164C141.766 187.164 141.086 186.507 141.086 185.194V181.209H139.91V179.957H141.086V178.328L142.682 177.875V179.957H144.368V181.209H142.682V184.732C142.682 185.147 142.758 185.449 142.909 185.624C143.06 185.804 143.315 185.893 143.664 185.893C143.934 185.893 144.17 185.818 144.368 185.657V186.928Z" fill="#D2D3D4"/>
<path d="M151.154 187.003H149.605V185.903H149.577C149.091 186.748 148.378 187.169 147.438 187.169C146.744 187.169 146.2 186.98 145.813 186.607C145.421 186.229 145.223 185.733 145.223 185.114C145.223 183.782 145.988 183.008 147.523 182.791L149.615 182.493C149.615 181.487 149.138 180.987 148.184 180.987C147.343 180.987 146.588 181.275 145.912 181.856V180.458C146.654 180.019 147.513 179.797 148.486 179.797C150.267 179.797 151.154 180.67 151.154 182.427V187.003ZM149.615 183.542L148.137 183.749C147.679 183.811 147.334 183.919 147.102 184.085C146.871 184.25 146.758 184.533 146.758 184.939C146.758 185.237 146.866 185.483 147.079 185.671C147.291 185.86 147.579 185.955 147.934 185.955C148.42 185.955 148.821 185.785 149.143 185.44C149.464 185.1 149.62 184.67 149.62 184.151V183.542H149.615Z" fill="#D2D3D4"/>
<path d="M153.908 178.479C153.648 178.479 153.421 178.394 153.237 178.224C153.048 178.054 152.958 177.837 152.958 177.577C152.958 177.317 153.053 177.095 153.237 176.925C153.421 176.751 153.648 176.666 153.908 176.666C154.177 176.666 154.408 176.755 154.597 176.925C154.786 177.1 154.88 177.317 154.88 177.577C154.88 177.823 154.786 178.035 154.597 178.215C154.408 178.389 154.177 178.479 153.908 178.479ZM154.696 187.003H153.1V179.957H154.696V187.003Z" fill="#D2D3D4"/>
<path d="M163.055 187.003H161.459V183.031C161.459 181.714 160.991 181.057 160.061 181.057C159.575 181.057 159.173 181.242 158.857 181.605C158.54 181.969 158.38 182.432 158.38 182.984V187.003H156.779V179.957H158.38V181.128H158.408C158.937 180.24 159.697 179.792 160.694 179.792C161.459 179.792 162.045 180.042 162.451 180.538C162.857 181.034 163.055 181.752 163.055 182.696V187.003Z" fill="#D2D3D4"/>
<path d="M170.97 183.915H166.167C166.186 184.566 166.385 185.067 166.767 185.421C167.15 185.775 167.678 185.95 168.344 185.95C169.095 185.95 169.789 185.723 170.418 185.275V186.559C169.775 186.965 168.925 187.164 167.872 187.164C166.833 187.164 166.021 186.843 165.431 186.205C164.84 185.563 164.547 184.665 164.547 183.504C164.547 182.408 164.873 181.515 165.52 180.826C166.167 180.136 166.975 179.792 167.938 179.792C168.902 179.792 169.648 180.103 170.172 180.722C170.696 181.341 170.965 182.2 170.965 183.301V183.915H170.97ZM169.431 182.786C169.426 182.214 169.289 181.766 169.024 181.449C168.76 181.128 168.392 180.972 167.924 180.972C167.466 180.972 167.079 181.138 166.758 181.473C166.441 181.808 166.243 182.247 166.172 182.786H169.431Z" fill="#D2D3D4"/>
<path d="M176.576 181.478C176.382 181.327 176.108 181.251 175.745 181.251C175.272 181.251 174.876 181.464 174.559 181.889C174.243 182.314 174.082 182.895 174.082 183.631V187.003H172.486V179.957H174.082V181.407H174.111C174.267 180.911 174.507 180.524 174.828 180.25C175.154 179.971 175.513 179.834 175.915 179.834C176.203 179.834 176.425 179.877 176.576 179.967V181.478Z" fill="#D2D3D4"/>
<path d="M184.769 176.916V187.003H183.173V178.871C182.885 179.079 182.573 179.253 182.238 179.4C181.908 179.542 181.525 179.669 181.1 179.782V178.422C181.364 178.333 181.624 178.243 181.87 178.148C182.115 178.054 182.361 177.945 182.602 177.827C182.843 177.709 183.083 177.577 183.329 177.426C183.575 177.279 183.83 177.109 184.089 176.925H184.769V176.916Z" fill="#D2D3D4"/>
<path d="M216.014 186.592C215.272 186.979 214.347 187.168 213.242 187.168C211.811 187.168 210.663 186.715 209.804 185.813C208.939 184.911 208.51 183.726 208.51 182.257C208.51 180.68 208.996 179.405 209.964 178.432C210.937 177.459 212.16 176.972 213.643 176.972C214.597 176.972 215.39 177.109 216.018 177.379V179.003C215.353 178.611 214.621 178.413 213.818 178.413C212.75 178.413 211.882 178.753 211.22 179.438C210.559 180.122 210.229 181.034 210.229 182.177C210.229 183.263 210.54 184.132 211.159 184.774C211.778 185.421 212.59 185.742 213.601 185.742C214.531 185.742 215.338 185.52 216.023 185.081V186.592H216.014Z" fill="#D2D3D4"/>
<path d="M220.826 187.169C219.74 187.169 218.871 186.838 218.224 186.182C217.572 185.525 217.251 184.651 217.251 183.565C217.251 182.38 217.591 181.459 218.266 180.793C218.942 180.127 219.853 179.797 221.001 179.797C222.101 179.797 222.961 180.118 223.575 180.765C224.189 181.412 224.495 182.309 224.495 183.457C224.495 184.581 224.165 185.483 223.499 186.158C222.838 186.833 221.95 187.169 220.826 187.169ZM220.902 181.067C220.278 181.067 219.787 181.284 219.423 181.719C219.06 182.153 218.88 182.758 218.88 183.523C218.88 184.259 219.065 184.845 219.433 185.265C219.801 185.69 220.292 185.903 220.906 185.903C221.534 185.903 222.016 185.695 222.356 185.275C222.691 184.859 222.861 184.264 222.861 183.494C222.861 182.72 222.691 182.12 222.356 181.7C222.016 181.28 221.53 181.067 220.902 181.067Z" fill="#D2D3D4"/>
<path d="M232.391 187.003H230.795V183.031C230.795 181.714 230.328 181.057 229.397 181.057C228.911 181.057 228.51 181.242 228.193 181.605C227.877 181.969 227.716 182.432 227.716 182.984V187.003H226.115V179.957H227.716V181.128H227.744C228.273 180.24 229.034 179.792 230.03 179.792C230.795 179.792 231.381 180.042 231.787 180.538C232.193 181.034 232.391 181.752 232.391 182.696V187.003Z" fill="#D2D3D4"/>
<path d="M238.059 186.928C237.747 187.083 237.336 187.164 236.826 187.164C235.456 187.164 234.776 186.507 234.776 185.194V181.209H233.6V179.957H234.776V178.328L236.373 177.875V179.957H238.059V181.209H236.373V184.732C236.373 185.147 236.448 185.449 236.599 185.624C236.75 185.804 237.005 185.893 237.355 185.893C237.624 185.893 237.86 185.818 238.059 185.657V186.928Z" fill="#D2D3D4"/>
<path d="M244.84 187.003H243.291V185.903H243.263C242.776 186.748 242.063 187.169 241.124 187.169C240.429 187.169 239.886 186.98 239.499 186.607C239.107 186.229 238.909 185.733 238.909 185.114C238.909 183.782 239.674 183.008 241.209 182.791L243.301 182.493C243.301 181.487 242.824 180.987 241.87 180.987C241.029 180.987 240.273 181.275 239.598 181.856V180.458C240.34 180.019 241.199 179.797 242.172 179.797C243.952 179.797 244.84 180.67 244.84 182.427V187.003ZM243.301 183.542L241.822 183.749C241.364 183.811 241.02 183.919 240.788 184.085C240.557 184.25 240.444 184.533 240.444 184.939C240.444 185.237 240.552 185.483 240.765 185.671C240.977 185.86 241.265 185.955 241.619 185.955C242.106 185.955 242.507 185.785 242.828 185.44C243.15 185.1 243.305 184.67 243.305 184.151V183.542H243.301Z" fill="#D2D3D4"/>
<path d="M247.593 178.479C247.334 178.479 247.107 178.394 246.923 178.224C246.734 178.054 246.644 177.837 246.644 177.577C246.644 177.317 246.739 177.095 246.923 176.925C247.107 176.751 247.334 176.666 247.593 176.666C247.862 176.666 248.094 176.755 248.283 176.925C248.472 177.1 248.566 177.317 248.566 177.577C248.566 177.823 248.472 178.035 248.283 178.215C248.094 178.389 247.862 178.479 247.593 178.479ZM248.382 187.003H246.786V179.957H248.382V187.003Z" fill="#D2D3D4"/>
<path d="M256.741 187.003H255.145V183.031C255.145 181.714 254.677 181.057 253.747 181.057C253.26 181.057 252.859 181.242 252.543 181.605C252.226 181.969 252.066 182.432 252.066 182.984V187.003H250.465V179.957H252.066V181.128H252.094C252.623 180.24 253.383 179.792 254.38 179.792C255.145 179.792 255.73 180.042 256.136 180.538C256.543 181.034 256.741 181.752 256.741 182.696V187.003Z" fill="#D2D3D4"/>
<path d="M264.656 183.915H259.853C259.872 184.566 260.07 185.067 260.453 185.421C260.835 185.775 261.364 185.95 262.03 185.95C262.781 185.95 263.475 185.723 264.103 185.275V186.559C263.461 186.965 262.611 187.164 261.558 187.164C260.519 187.164 259.707 186.843 259.116 186.205C258.526 185.563 258.233 184.665 258.233 183.504C258.233 182.408 258.559 181.515 259.206 180.826C259.853 180.136 260.661 179.792 261.624 179.792C262.588 179.792 263.334 180.103 263.858 180.722C264.382 181.341 264.651 182.2 264.651 183.301V183.915H264.656ZM263.116 182.786C263.112 182.214 262.975 181.766 262.71 181.449C262.446 181.128 262.077 180.972 261.61 180.972C261.152 180.972 260.765 181.138 260.444 181.473C260.127 181.808 259.929 182.247 259.858 182.786H263.116Z" fill="#D2D3D4"/>
<path d="M270.262 181.478C270.068 181.327 269.794 181.251 269.43 181.251C268.958 181.251 268.561 181.464 268.245 181.889C267.929 182.314 267.768 182.895 267.768 183.631V187.003H266.177V179.957H267.773V181.407H267.801C267.957 180.911 268.198 180.524 268.519 180.25C268.845 179.971 269.204 179.834 269.605 179.834C269.893 179.834 270.115 179.877 270.266 179.967V181.478H270.262Z" fill="#D2D3D4"/>
<path d="M275.074 186.64V185.138C275.716 185.648 276.443 185.903 277.246 185.903C277.903 185.903 278.427 185.752 278.819 185.454C279.211 185.157 279.409 184.751 279.409 184.245C279.409 183.126 278.554 182.569 276.845 182.569H276.08V181.289H276.807C278.328 181.289 279.083 180.76 279.083 179.707C279.083 178.734 278.493 178.248 277.308 178.248C276.647 178.248 276.028 178.484 275.442 178.956V177.539C276.113 177.161 276.901 176.977 277.818 176.977C278.691 176.977 279.395 177.199 279.924 177.638C280.453 178.078 280.717 178.644 280.717 179.329C280.717 180.628 280.056 181.464 278.734 181.832V181.86C279.442 181.931 280.009 182.177 280.42 182.607C280.831 183.036 281.038 183.57 281.038 184.212C281.038 185.1 280.708 185.813 280.042 186.356C279.376 186.899 278.502 187.173 277.412 187.173C276.434 187.169 275.655 186.994 275.074 186.64Z" fill="#D2D3D4"/>
<path opacity="0.3" d="M260.835 155.806L245.119 146.72L229.298 155.806L245.171 165.043L260.835 155.806Z" fill="#1F1D20"/>
<path opacity="0.3" d="M166.115 155.806L150.399 146.72L134.578 155.806L150.451 165.043L166.115 155.806Z" fill="#1F1D20"/>
<path opacity="0.3" d="M70.6823 155.806L54.9657 146.72L39.1451 155.806L55.0176 165.043L70.6823 155.806Z" fill="#1F1D20"/>
<path d="M260.67 133.445V151.627L245.034 160.798V142.616L260.67 133.445Z" fill="#75CFEB"/>
<path d="M260.67 133.445L244.982 142.616L229.294 133.445L244.982 124.326L260.67 133.445Z" fill="#C6E9F7"/>
<path d="M245.034 142.616V160.798L229.345 151.627V133.445L245.034 142.616Z" fill="#A6DEF3"/>
<path d="M229.345 151.575L245.034 142.512V160.694L229.345 151.575Z" fill="#C6E9F7"/>
<path d="M260.67 151.575L244.982 142.512V160.694L260.67 151.575Z" fill="#A6DEF3"/>
<path d="M241.435 155.206L232.174 149.879L232.231 139.23L241.492 144.552L241.435 155.206ZM233.912 142.125V148.897L239.815 152.311V145.539L233.912 142.125Z" fill="white"/>
<path d="M70.3376 133.445V151.627L54.7012 160.798V142.616L70.3376 133.445Z" fill="#75CFEB"/>
<path d="M70.3375 133.445L54.6492 142.616L38.9609 133.445L54.6492 124.326L70.3375 133.445Z" fill="#C6E9F7"/>
<path d="M54.7012 142.616V160.798L39.0129 151.627V133.445L54.7012 142.616Z" fill="#A6DEF3"/>
<path d="M39.0082 151.575L54.6964 142.512V160.694L39.0082 151.575Z" fill="#C6E9F7"/>
<path d="M70.3375 151.575L54.6492 142.512V160.694L70.3375 151.575Z" fill="#A6DEF3"/>
<path d="M56.4628 156.387V154.493L64.5194 149.832V151.726L56.4628 156.387Z" fill="white"/>
<path d="M56.4628 148.963V147.116L64.5194 142.455V144.302L56.4628 148.963Z" fill="white"/>
<path d="M56.4628 152.651V150.805L64.5194 146.144V148.038L56.4628 152.651Z" fill="white"/>
<path d="M165.908 133.445V151.627L150.271 160.798V142.616L165.908 133.445Z" fill="#75CFEB"/>
<path d="M165.908 133.445L150.219 142.616L134.531 133.445L150.219 124.326L165.908 133.445Z" fill="#C6E9F7"/>
<path d="M150.271 142.616V160.798L134.583 151.627V133.445L150.271 142.616Z" fill="#A6DEF3"/>
<path d="M134.583 151.575L150.271 142.512V160.694L134.583 151.575Z" fill="#C6E9F7"/>
<path d="M165.908 151.575L150.219 142.512V160.694L165.908 151.575Z" fill="#A6DEF3"/>
<path d="M143.159 148.817C143.121 148.817 143.079 148.854 143.041 148.854C143.084 148.854 143.121 148.817 143.159 148.817ZM141.124 146.351C141.124 146.314 141.124 146.314 141.124 146.314C141.124 146.352 141.124 146.351 141.124 146.351Z" fill="#F4F4F5"/>
<path d="M142.337 140.831C139.206 139.032 136.661 140.477 136.623 144.08C136.623 147.683 139.126 152.066 142.3 153.908C145.431 155.707 147.976 154.262 148.014 150.659C148.014 147.017 145.468 142.63 142.337 140.831ZM142.3 152.576C139.797 151.126 137.719 147.603 137.719 144.708C137.719 141.771 139.792 140.637 142.3 142.087C144.803 143.537 146.881 147.06 146.881 149.993C146.881 152.888 144.845 154.064 142.3 152.576Z" fill="#F4F4F5"/>
<path d="M142.3 145.96C141.634 145.568 141.086 145.879 141.086 146.663C141.086 147.447 141.634 148.387 142.3 148.779C142.965 149.171 143.513 148.859 143.513 148.075C143.513 147.249 142.965 146.314 142.3 145.96Z" fill="#F4F4F5"/>
<path d="M535.569 183.013C535.569 185.785 534.256 187.168 531.635 187.168C529.123 187.168 527.867 185.837 527.867 183.168V177.138H529.506V182.833C529.506 184.769 530.256 185.737 531.763 185.737C533.213 185.737 533.935 184.802 533.935 182.937V177.138H535.574V183.013H535.569Z" fill="#D2D3D4"/>
<path d="M543.985 187.003H542.388V183.031C542.388 181.714 541.921 181.057 540.991 181.057C540.504 181.057 540.103 181.242 539.786 181.605C539.47 181.969 539.31 182.432 539.31 182.984V187.003H537.708V179.957H539.31V181.128H539.338C539.867 180.236 540.627 179.792 541.624 179.792C542.389 179.792 542.974 180.037 543.38 180.538C543.782 181.039 543.985 181.756 543.985 182.696V187.003Z" fill="#D2D3D4"/>
<path d="M551.338 187.003H549.789V185.903H549.76C549.274 186.748 548.561 187.168 547.621 187.168C546.927 187.168 546.389 186.98 545.997 186.606C545.605 186.229 545.406 185.733 545.406 185.114C545.406 183.782 546.171 183.008 547.706 182.791L549.798 182.498C549.798 181.492 549.321 180.991 548.367 180.991C547.527 180.991 546.771 181.279 546.096 181.86V180.462C546.837 180.023 547.697 179.801 548.669 179.801C550.45 179.801 551.338 180.675 551.338 182.432V187.003ZM549.798 183.542L548.32 183.749C547.862 183.811 547.517 183.919 547.286 184.085C547.054 184.25 546.936 184.533 546.936 184.939C546.936 185.237 547.045 185.482 547.257 185.671C547.47 185.86 547.758 185.959 548.112 185.959C548.599 185.959 549 185.789 549.321 185.445C549.638 185.105 549.798 184.675 549.798 184.155V183.542Z" fill="#D2D3D4"/>
<path d="M552.844 186.786V185.308C553.439 185.761 554.1 185.988 554.818 185.988C555.782 185.988 556.263 185.704 556.263 185.133C556.263 184.972 556.221 184.835 556.141 184.722C556.06 184.609 555.947 184.51 555.805 184.425C555.664 184.34 555.498 184.259 555.309 184.188C555.121 184.118 554.908 184.042 554.672 183.952C554.384 183.839 554.119 183.716 553.893 183.589C553.661 183.461 553.468 183.315 553.317 183.149C553.161 182.989 553.047 182.805 552.972 182.597C552.892 182.389 552.854 182.148 552.854 181.874C552.854 181.534 552.934 181.237 553.095 180.977C553.255 180.717 553.472 180.5 553.742 180.325C554.011 180.151 554.318 180.014 554.663 179.924C555.007 179.834 555.361 179.792 555.73 179.792C556.381 179.792 556.962 179.891 557.477 180.085V181.482C556.981 181.142 556.415 180.972 555.772 180.972C555.569 180.972 555.39 180.991 555.224 181.034C555.059 181.076 554.922 181.133 554.809 181.209C554.695 181.279 554.606 181.369 554.54 181.473C554.474 181.577 554.445 181.69 554.445 181.813C554.445 181.964 554.478 182.092 554.54 182.2C554.606 182.304 554.7 182.399 554.823 182.479C554.951 182.559 555.102 182.635 555.276 182.701C555.451 182.767 555.654 182.838 555.886 182.918C556.188 183.041 556.462 183.168 556.703 183.296C556.943 183.423 557.151 183.57 557.321 183.735C557.491 183.896 557.619 184.085 557.713 184.297C557.808 184.51 557.85 184.765 557.85 185.057C557.85 185.416 557.77 185.728 557.605 185.992C557.439 186.257 557.217 186.479 556.943 186.654C556.67 186.828 556.348 186.961 555.989 187.041C555.631 187.126 555.248 187.168 554.851 187.168C554.077 187.168 553.411 187.041 552.844 186.786Z" fill="#D2D3D4"/>
<path d="M558.922 186.786V185.308C559.517 185.761 560.178 185.988 560.896 185.988C561.86 185.988 562.341 185.704 562.341 185.133C562.341 184.972 562.299 184.835 562.219 184.722C562.138 184.609 562.025 184.51 561.883 184.425C561.741 184.34 561.576 184.259 561.387 184.188C561.198 184.118 560.986 184.042 560.75 183.952C560.462 183.839 560.202 183.716 559.971 183.589C559.739 183.461 559.545 183.315 559.394 183.149C559.243 182.984 559.125 182.805 559.045 182.597C558.969 182.389 558.927 182.148 558.927 181.874C558.927 181.534 559.007 181.237 559.168 180.977C559.328 180.717 559.546 180.5 559.815 180.325C560.084 180.151 560.391 180.014 560.736 179.924C561.08 179.834 561.435 179.792 561.803 179.792C562.455 179.792 563.035 179.891 563.55 180.085V181.482C563.054 181.142 562.488 180.972 561.845 180.972C561.642 180.972 561.458 180.991 561.298 181.034C561.132 181.076 560.995 181.133 560.882 181.209C560.769 181.279 560.679 181.369 560.613 181.473C560.547 181.577 560.518 181.69 560.518 181.813C560.518 181.964 560.551 182.092 560.613 182.2C560.679 182.304 560.773 182.399 560.901 182.479C561.028 182.559 561.18 182.635 561.354 182.701C561.529 182.767 561.732 182.838 561.964 182.918C562.266 183.041 562.54 183.168 562.781 183.296C563.021 183.423 563.229 183.57 563.394 183.735C563.564 183.896 563.697 184.085 563.786 184.297C563.876 184.51 563.923 184.765 563.923 185.057C563.923 185.416 563.843 185.728 563.678 185.992C563.512 186.257 563.291 186.479 563.017 186.654C562.743 186.828 562.422 186.961 562.063 187.041C561.704 187.126 561.321 187.168 560.924 187.168C560.155 187.168 559.484 187.041 558.922 186.786Z" fill="#D2D3D4"/>
<path d="M566.242 178.479C565.982 178.479 565.756 178.394 565.572 178.224C565.387 178.054 565.293 177.837 565.293 177.577C565.293 177.317 565.387 177.095 565.572 176.92C565.756 176.746 565.982 176.661 566.242 176.661C566.511 176.661 566.743 176.75 566.932 176.92C567.121 177.095 567.215 177.312 567.215 177.577C567.215 177.822 567.121 178.035 566.932 178.214C566.743 178.389 566.511 178.479 566.242 178.479ZM567.036 187.003H565.439V179.957H567.036V187.003Z" fill="#D2D3D4"/>
<path d="M575.531 186.441C575.531 189.029 574.233 190.323 571.631 190.323C570.714 190.323 569.912 190.167 569.227 189.86V188.401C569.997 188.84 570.729 189.062 571.423 189.062C573.095 189.062 573.935 188.24 573.935 186.592V185.823H573.907C573.378 186.72 572.585 187.173 571.527 187.173C570.672 187.173 569.978 186.861 569.453 186.233C568.929 185.605 568.665 184.765 568.665 183.712C568.665 182.512 568.948 181.563 569.51 180.859C570.072 180.151 570.847 179.801 571.834 179.801C572.764 179.801 573.453 180.184 573.902 180.944H573.93V179.967H575.527V186.441H575.531ZM573.949 183.778V182.861C573.949 182.366 573.784 181.941 573.458 181.591C573.128 181.242 572.721 181.062 572.23 181.062C571.626 181.062 571.149 181.284 570.809 181.733C570.469 182.181 570.299 182.805 570.299 183.608C570.299 184.302 570.464 184.854 570.79 185.27C571.121 185.686 571.55 185.893 572.093 185.893C572.646 185.893 573.09 185.695 573.435 185.298C573.775 184.906 573.949 184.396 573.949 183.778Z" fill="#D2D3D4"/>
<path d="M583.881 187.003H582.285V183.031C582.285 181.714 581.822 181.057 580.887 181.057C580.4 181.057 579.999 181.242 579.683 181.605C579.366 181.969 579.21 182.432 579.21 182.984V187.003H577.605V179.957H579.21V181.128H579.239C579.767 180.236 580.528 179.792 581.524 179.792C582.289 179.792 582.875 180.037 583.276 180.538C583.682 181.039 583.881 181.756 583.881 182.696V187.003Z" fill="#D2D3D4"/>
<path d="M591.796 183.915H586.993C587.012 184.566 587.21 185.067 587.597 185.421C587.98 185.775 588.509 185.95 589.175 185.95C589.926 185.95 590.615 185.728 591.243 185.275V186.564C590.601 186.965 589.751 187.168 588.698 187.168C587.664 187.168 586.847 186.847 586.261 186.21C585.671 185.572 585.378 184.67 585.378 183.508C585.378 182.413 585.704 181.52 586.351 180.826C586.998 180.136 587.805 179.792 588.769 179.792C589.732 179.792 590.478 180.099 591.007 180.717C591.536 181.336 591.796 182.196 591.796 183.301V183.915ZM590.252 182.786C590.247 182.214 590.11 181.766 589.845 181.449C589.581 181.128 589.213 180.972 588.745 180.972C588.287 180.972 587.895 181.142 587.579 181.478C587.257 181.813 587.064 182.252 586.988 182.791H590.252V182.786Z" fill="#D2D3D4"/>
<path d="M599.72 187.003H598.124V185.804H598.096C597.581 186.71 596.792 187.164 595.725 187.164C594.856 187.164 594.166 186.847 593.642 186.219C593.123 185.591 592.863 184.732 592.863 183.641C592.863 182.474 593.151 181.539 593.727 180.84C594.304 180.137 595.069 179.787 596.027 179.787C596.976 179.787 597.666 180.17 598.096 180.93H598.124V176.566H599.72V187.003ZM598.148 183.787V182.866C598.148 182.366 597.982 181.941 597.656 181.591C597.331 181.242 596.915 181.067 596.414 181.067C595.819 181.067 595.347 181.289 595.007 181.738C594.667 182.181 594.492 182.8 594.492 183.589C594.492 184.307 594.658 184.869 594.984 185.284C595.309 185.7 595.753 185.908 596.306 185.908C596.854 185.908 597.293 185.709 597.633 185.303C597.978 184.902 598.148 184.396 598.148 183.787Z" fill="#D2D3D4"/>
</svg>
