<?xml version="1.0" encoding="UTF-8"?>
<svg width="52px" height="45px" viewBox="0 0 52 45" version="1.1" xmlns="http://www.w3.org/2000/svg" xmlns:xlink="http://www.w3.org/1999/xlink">
    <!-- Generator: Sketch 59.1 (86144) - https://sketch.com -->
    <title>Fill-1</title>
    <desc>Created with Sketch.</desc>
    <g id="Page-1" stroke="none" stroke-width="1" fill="none" fill-rule="evenodd">
        <g id="datExchange_sketch" fill="#FFFFFF" fill-rule="nonzero">
            <path d="M23.638,39.941 L52.003,39.941 L52.003,37.941 L23.638,37.941 L23.638,39.941 Z M30.73,35.212 L42.548,35.212 L42.548,33.212 L30.73,33.212 L30.73,35.212 Z M15.905,26.884 L11.47,31.32 C11.079,31.71 11.079,32.343 11.47,32.734 L15.905,37.17 L17.319,35.756 L13.591,32.027 L17.319,28.298 L15.905,26.884 Z M26.183,42.668 L5.728,42.668 L5.728,22.212 L26.183,22.212 L26.183,35.395 L28.183,35.395 L28.183,21.212 C28.183,20.66 27.736,20.212 27.183,20.212 L4.728,20.212 C4.175,20.212 3.728,20.66 3.728,21.212 L3.728,43.668 C3.728,44.22 4.175,44.668 4.728,44.668 L27.183,44.668 C27.736,44.668 28.183,44.22 28.183,43.668 L28.183,42.486 L26.183,42.486 L26.183,42.668 Z M3.546,13.939 L16.547,13.939 L16.547,11.939 L3.546,11.939 L3.546,13.939 Z M20.837,8.74 C20.125,10.459 19.764,12.281 19.764,14.158 C19.764,15.41 19.928,16.652 20.25,17.851 L22.181,17.33 C21.904,16.301 21.763,15.234 21.763,14.158 C21.763,12.545 22.074,10.98 22.685,9.505 L20.837,8.74 Z M33.416,18.598 L37.851,14.162 C38.242,13.771 38.242,13.138 37.851,12.748 L33.416,8.312 L32.001,9.726 L35.73,13.455 L32.001,17.184 L33.416,18.598 Z M33.921,2 C40.626,2 46.08,7.453 46.08,14.158 C46.08,20.861 40.626,26.316 33.921,26.316 C32.81,26.316 31.71,26.167 30.652,25.871 L30.115,27.798 C31.349,28.142 32.628,28.316 33.921,28.316 C41.728,28.316 48.08,21.964 48.08,14.158 C48.08,6.351 41.728,0 33.921,0 C31.517,0 29.14,0.613 27.05,1.775 L28.023,3.523 C29.816,2.527 31.855,2 33.921,2 L33.921,2 Z M0,6.848 L28.365,6.848 L28.365,4.848 L0,4.848 L0,6.848 Z" id="Fill-1"></path>
        </g>
    </g>
</svg>