<?xml version="1.0" encoding="utf-8"?>
<!-- Generator: Adobe Illustrator 23.0.4, SVG Export Plug-In . SVG Version: 6.00 Build 0)  -->
<svg version="1.1" id="Ebene_1" xmlns="http://www.w3.org/2000/svg" xmlns:xlink="http://www.w3.org/1999/xlink" x="0px" y="0px"
	 viewBox="0 0 95.7 95.7" style="enable-background:new 0 0 95.7 95.7;" xml:space="preserve">
<style type="text/css">
	.st0{display:none;}
	.st1{display:inline;}
	.st2{fill:none;}
	.st3{fill:#4D4D4D;}
	.st4{fill:#FFFFFF;}
	.st5{fill:none;stroke:#FFFFFF;stroke-width:3;}
	.st6{fill:#1FA22E;}
	.st7{font-family:'AktivGrotesk-Bold';}
	.st8{font-size:44px;}
	.st9{fill:#19191E;}
	.st10{fill:#C00222;}
	.st11{fill:#0074B1;}
	.st12{fill:#7E6D58;}
	.st13{fill:#004191;}
	.st14{fill:#D95017;}
	.st15{fill:none;stroke:#FFFFFF;stroke-width:2.4499;}
	.st16{fill:none;stroke:#FFFFFF;stroke-width:2.8;}
</style>
<g id="Ebene_3" class="st0">
</g>
<g id="STO" class="st0">
	<g id="Ebene_5_Kopie_Kopie_Kopie_Kopie_Kopie_Kopie_Kopie_Kopie" class="st1">
		<g>
			<path class="st2" d="M51.1,45.1c-2.6-0.2-4.8,1.7-5.1,4.3c-0.2,2.6,1.7,4.8,4.3,5.1c2.6,0.2,4.8-1.7,5.1-4.3
				C55.6,47.6,53.7,45.3,51.1,45.1z"/>
			<path class="st3" d="M47.7,83.9c-18.9-1.7-32.8-18.3-31.1-37.1C18.2,27.9,34.9,14,53.7,15.7c4.9,0.4,9.6,1.9,13.6,4.2v-9.6
				c-4-1.7-8.3-2.8-12.9-3.2C30.9,5,10.1,22.4,8,46s15.3,44.4,38.9,46.5c7.2,0.6,14.2-0.6,20.4-3.2v-9.6
				C61.5,82.9,54.8,84.5,47.7,83.9z"/>
			<path class="st4" d="M16.6,46.8c-1.7,18.8,12.2,35.4,31.1,37.1c7.1,0.6,13.9-1,19.7-4.2v-8.2c-5.3,4-12,6.2-19.1,5.6
				c-15.1-1.3-26.2-14.7-24.9-29.7c1.3-15.1,14.7-26.2,29.7-24.9c5.4,0.5,10.2,2.5,14.2,5.6v-8.2c-4.1-2.3-8.7-3.8-13.6-4.2
				C34.9,14,18.2,27.9,16.6,46.8z"/>
			<path class="st3" d="M23.4,47.4c-1.3,15,9.8,28.4,24.9,29.7c7.1,0.6,13.8-1.5,19.1-5.6V57.3C64.3,64.2,57.1,68.7,49.2,68
				c-10-0.9-17.5-9.8-16.6-19.8c0.9-10.1,9.8-17.5,19.9-16.7c6.8,0.6,12.4,4.9,15,10.7V28c-4-3.1-8.9-5.1-14.2-5.6
				C38,21.1,24.7,32.3,23.4,47.4z"/>
			<path class="st4" d="M52.3,31.6c-10-0.9-19,6.6-19.9,16.7C31.5,58.3,39,67.2,49,68.1c8,0.7,15.1-3.8,18.2-10.7v-15
				C64.7,36.4,59.1,32.2,52.3,31.6z M62.1,50.8c-0.6,6.3-6.1,10.9-12.4,10.4c-6.3-0.6-10.9-6.1-10.4-12.4
				c0.6-6.3,6.1-10.9,12.4-10.4C57.9,38.9,62.6,44.5,62.1,50.8z"/>
			<path class="st3" d="M51.7,38.4c-6.3-0.6-11.8,4.1-12.4,10.4c-0.6,6.3,4.1,11.8,10.4,12.4c6.2,0.6,11.8-4.1,12.4-10.4
				C62.6,44.5,57.9,38.9,51.7,38.4z M50.3,54.4c-2.6-0.2-4.5-2.5-4.3-5.1s2.5-4.5,5.1-4.3s4.5,2.5,4.3,5.1
				C55.1,52.8,52.8,54.7,50.3,54.4z"/>
		</g>
		<line class="st5" x1="0.2" y1="49.5" x2="71.9" y2="49.9"/>
		<line class="st5" x1="50.7" y1="100.5" x2="51.1" y2="-3.4"/>
		<rect x="71.9" y="14.6" class="st2" width="474.5" height="32.5"/>
		<text transform="matrix(1 0 0 1 71.897 46.0458)" class="st6 st7 st8">Storage</text>
		<text transform="matrix(1 0 0 1 71.898 85.4384)" class="st9 st7 st8">Insider</text>
	</g>
</g>
<g id="SEI" class="st0">
	<g id="Ebene_5_Kopie_Kopie_Kopie_Kopie_Kopie_Kopie_Kopie" class="st1">
		<g>
			<path class="st2" d="M51.1,45.1c-2.6-0.2-4.8,1.7-5.1,4.3c-0.2,2.6,1.7,4.8,4.3,5.1c2.6,0.2,4.8-1.7,5.1-4.3
				C55.6,47.6,53.7,45.3,51.1,45.1z"/>
			<path class="st3" d="M47.7,83.9c-18.9-1.7-32.8-18.3-31.1-37.1C18.2,27.9,34.9,14,53.7,15.7c4.9,0.4,9.6,1.9,13.6,4.2v-9.6
				c-4-1.7-8.3-2.8-12.9-3.2C30.9,5,10.1,22.4,8,46s15.3,44.4,38.9,46.5c7.2,0.6,14.2-0.6,20.4-3.2v-9.6
				C61.5,82.9,54.8,84.5,47.7,83.9z"/>
			<path class="st4" d="M16.6,46.8c-1.7,18.8,12.2,35.4,31.1,37.1c7.1,0.6,13.9-1,19.7-4.2v-8.2c-5.3,4-12,6.2-19.1,5.6
				c-15.1-1.3-26.2-14.7-24.9-29.7c1.3-15.1,14.7-26.2,29.7-24.9c5.4,0.5,10.2,2.5,14.2,5.6v-8.2c-4.1-2.3-8.7-3.8-13.6-4.2
				C34.9,14,18.2,27.9,16.6,46.8z"/>
			<path class="st3" d="M23.4,47.4c-1.3,15,9.8,28.4,24.9,29.7c7.1,0.6,13.8-1.5,19.1-5.6V57.3C64.3,64.2,57.1,68.7,49.2,68
				c-10-0.9-17.5-9.8-16.6-19.8c0.9-10.1,9.8-17.5,19.9-16.7c6.8,0.6,12.4,4.9,15,10.7V28c-4-3.1-8.9-5.1-14.2-5.6
				C38,21.1,24.7,32.3,23.4,47.4z"/>
			<path class="st4" d="M52.3,31.6c-10-0.9-19,6.6-19.9,16.7C31.5,58.3,39,67.2,49,68.1c8,0.7,15.1-3.8,18.2-10.7v-15
				C64.7,36.4,59.1,32.2,52.3,31.6z M62.1,50.8c-0.6,6.3-6.1,10.9-12.4,10.4c-6.3-0.6-10.9-6.1-10.4-12.4
				c0.6-6.3,6.1-10.9,12.4-10.4C57.9,38.9,62.6,44.5,62.1,50.8z"/>
			<path class="st3" d="M51.7,38.4c-6.3-0.6-11.8,4.1-12.4,10.4c-0.6,6.3,4.1,11.8,10.4,12.4c6.2,0.6,11.8-4.1,12.4-10.4
				C62.6,44.5,57.9,38.9,51.7,38.4z M50.3,54.4c-2.6-0.2-4.5-2.5-4.3-5.1s2.5-4.5,5.1-4.3s4.5,2.5,4.3,5.1
				C55.1,52.8,52.8,54.7,50.3,54.4z"/>
		</g>
		<line class="st5" x1="0.2" y1="49.5" x2="71.9" y2="49.9"/>
		<line class="st5" x1="50.7" y1="100.5" x2="51.1" y2="-3.4"/>
		<rect x="71.9" y="14.6" class="st2" width="474.5" height="32.5"/>
		<text transform="matrix(1 0 0 1 71.897 46.0458)" class="st10 st7 st8">Security</text>
		<text transform="matrix(1 0 0 1 71.898 85.4384)" class="st9 st7 st8">Insider</text>
	</g>
</g>
<g id="IPI" class="st0">
	<g id="Ebene_5_Kopie_Kopie_Kopie_Kopie_Kopie_Kopie" class="st1">
		<g>
			<path class="st2" d="M51.1,45.1c-2.6-0.2-4.8,1.7-5.1,4.3c-0.2,2.6,1.7,4.8,4.3,5.1c2.6,0.2,4.8-1.7,5.1-4.3
				C55.6,47.6,53.7,45.3,51.1,45.1z"/>
			<path class="st3" d="M47.7,83.9c-18.9-1.7-32.8-18.3-31.1-37.1C18.2,27.9,34.9,14,53.7,15.7c4.9,0.4,9.6,1.9,13.6,4.2v-9.6
				c-4-1.7-8.3-2.8-12.9-3.2C30.9,5,10.1,22.4,8,46s15.3,44.4,38.9,46.5c7.2,0.6,14.2-0.6,20.4-3.2v-9.6
				C61.5,82.9,54.8,84.5,47.7,83.9z"/>
			<path class="st4" d="M16.6,46.8c-1.7,18.8,12.2,35.4,31.1,37.1c7.1,0.6,13.9-1,19.7-4.2v-8.2c-5.3,4-12,6.2-19.1,5.6
				c-15.1-1.3-26.2-14.7-24.9-29.7c1.3-15.1,14.7-26.2,29.7-24.9c5.4,0.5,10.2,2.5,14.2,5.6v-8.2c-4.1-2.3-8.7-3.8-13.6-4.2
				C34.9,14,18.2,27.9,16.6,46.8z"/>
			<path class="st3" d="M23.4,47.4c-1.3,15,9.8,28.4,24.9,29.7c7.1,0.6,13.8-1.5,19.1-5.6V57.3C64.3,64.2,57.1,68.7,49.2,68
				c-10-0.9-17.5-9.8-16.6-19.8c0.9-10.1,9.8-17.5,19.9-16.7c6.8,0.6,12.4,4.9,15,10.7V28c-4-3.1-8.9-5.1-14.2-5.6
				C38,21.1,24.7,32.3,23.4,47.4z"/>
			<path class="st4" d="M52.3,31.6c-10-0.9-19,6.6-19.9,16.7C31.5,58.3,39,67.2,49,68.1c8,0.7,15.1-3.8,18.2-10.7v-15
				C64.7,36.4,59.1,32.2,52.3,31.6z M62.1,50.8c-0.6,6.3-6.1,10.9-12.4,10.4c-6.3-0.6-10.9-6.1-10.4-12.4
				c0.6-6.3,6.1-10.9,12.4-10.4C57.9,38.9,62.6,44.5,62.1,50.8z"/>
			<path class="st3" d="M51.7,38.4c-6.3-0.6-11.8,4.1-12.4,10.4c-0.6,6.3,4.1,11.8,10.4,12.4c6.2,0.6,11.8-4.1,12.4-10.4
				C62.6,44.5,57.9,38.9,51.7,38.4z M50.3,54.4c-2.6-0.2-4.5-2.5-4.3-5.1s2.5-4.5,5.1-4.3s4.5,2.5,4.3,5.1
				C55.1,52.8,52.8,54.7,50.3,54.4z"/>
		</g>
		<line class="st5" x1="0.2" y1="49.5" x2="71.9" y2="49.9"/>
		<line class="st5" x1="50.7" y1="100.5" x2="51.1" y2="-3.4"/>
		<rect x="71.9" y="14.6" class="st2" width="474.5" height="32.5"/>
		<text transform="matrix(1 0 0 1 71.897 46.0458)" class="st11 st7 st8">IP</text>
		<text transform="matrix(1 0 0 1 71.898 85.4384)" class="st9 st7 st8">Insider</text>
	</g>
</g>
<g id="DEV" class="st0">
	<g id="Ebene_5_Kopie_Kopie_Kopie_Kopie_Kopie" class="st1">
		<g>
			<path class="st2" d="M51.1,45.1c-2.6-0.2-4.8,1.7-5.1,4.3c-0.2,2.6,1.7,4.8,4.3,5.1c2.6,0.2,4.8-1.7,5.1-4.3
				C55.6,47.6,53.7,45.3,51.1,45.1z"/>
			<path class="st3" d="M47.7,83.9c-18.9-1.7-32.8-18.3-31.1-37.1C18.2,27.9,34.9,14,53.7,15.7c4.9,0.4,9.6,1.9,13.6,4.2v-9.6
				c-4-1.7-8.3-2.8-12.9-3.2C30.9,5,10.1,22.4,8,46s15.3,44.4,38.9,46.5c7.2,0.6,14.2-0.6,20.4-3.2v-9.6
				C61.5,82.9,54.8,84.5,47.7,83.9z"/>
			<path class="st4" d="M16.6,46.8c-1.7,18.8,12.2,35.4,31.1,37.1c7.1,0.6,13.9-1,19.7-4.2v-8.2c-5.3,4-12,6.2-19.1,5.6
				c-15.1-1.3-26.2-14.7-24.9-29.7c1.3-15.1,14.7-26.2,29.7-24.9c5.4,0.5,10.2,2.5,14.2,5.6v-8.2c-4.1-2.3-8.7-3.8-13.6-4.2
				C34.9,14,18.2,27.9,16.6,46.8z"/>
			<path class="st3" d="M23.4,47.4c-1.3,15,9.8,28.4,24.9,29.7c7.1,0.6,13.8-1.5,19.1-5.6V57.3C64.3,64.2,57.1,68.7,49.2,68
				c-10-0.9-17.5-9.8-16.6-19.8c0.9-10.1,9.8-17.5,19.9-16.7c6.8,0.6,12.4,4.9,15,10.7V28c-4-3.1-8.9-5.1-14.2-5.6
				C38,21.1,24.7,32.3,23.4,47.4z"/>
			<path class="st4" d="M52.3,31.6c-10-0.9-19,6.6-19.9,16.7C31.5,58.3,39,67.2,49,68.1c8,0.7,15.1-3.8,18.2-10.7v-15
				C64.7,36.4,59.1,32.2,52.3,31.6z M62.1,50.8c-0.6,6.3-6.1,10.9-12.4,10.4c-6.3-0.6-10.9-6.1-10.4-12.4
				c0.6-6.3,6.1-10.9,12.4-10.4C57.9,38.9,62.6,44.5,62.1,50.8z"/>
			<path class="st3" d="M51.7,38.4c-6.3-0.6-11.8,4.1-12.4,10.4c-0.6,6.3,4.1,11.8,10.4,12.4c6.2,0.6,11.8-4.1,12.4-10.4
				C62.6,44.5,57.9,38.9,51.7,38.4z M50.3,54.4c-2.6-0.2-4.5-2.5-4.3-5.1s2.5-4.5,5.1-4.3s4.5,2.5,4.3,5.1
				C55.1,52.8,52.8,54.7,50.3,54.4z"/>
		</g>
		<line class="st5" x1="0.2" y1="49.5" x2="71.9" y2="49.9"/>
		<line class="st5" x1="50.7" y1="100.5" x2="51.1" y2="-3.4"/>
		<rect x="71.9" y="14.6" class="st2" width="474.5" height="32.5"/>
		<text transform="matrix(1 0 0 1 71.897 46.0458)" class="st12 st7 st8">DEV</text>
		<text transform="matrix(1 0 0 1 71.898 85.4384)" class="st9 st7 st8">Insider</text>
	</g>
</g>
<g id="DCI" class="st0">
	<g id="Ebene_5_Kopie_Kopie_Kopie_Kopie" class="st1">
		<g>
			<path class="st2" d="M51.1,45.1c-2.6-0.2-4.8,1.7-5.1,4.3c-0.2,2.6,1.7,4.8,4.3,5.1c2.6,0.2,4.8-1.7,5.1-4.3
				C55.6,47.6,53.7,45.3,51.1,45.1z"/>
			<path class="st3" d="M47.7,83.9c-18.9-1.7-32.8-18.3-31.1-37.1C18.2,27.9,34.9,14,53.7,15.7c4.9,0.4,9.6,1.9,13.6,4.2v-9.6
				c-4-1.7-8.3-2.8-12.9-3.2C30.9,5,10.1,22.4,8,46s15.3,44.4,38.9,46.5c7.2,0.6,14.2-0.6,20.4-3.2v-9.6
				C61.5,82.9,54.8,84.5,47.7,83.9z"/>
			<path class="st4" d="M16.6,46.8c-1.7,18.8,12.2,35.4,31.1,37.1c7.1,0.6,13.9-1,19.7-4.2v-8.2c-5.3,4-12,6.2-19.1,5.6
				c-15.1-1.3-26.2-14.7-24.9-29.7c1.3-15.1,14.7-26.2,29.7-24.9c5.4,0.5,10.2,2.5,14.2,5.6v-8.2c-4.1-2.3-8.7-3.8-13.6-4.2
				C34.9,14,18.2,27.9,16.6,46.8z"/>
			<path class="st3" d="M23.4,47.4c-1.3,15,9.8,28.4,24.9,29.7c7.1,0.6,13.8-1.5,19.1-5.6V57.3C64.3,64.2,57.1,68.7,49.2,68
				c-10-0.9-17.5-9.8-16.6-19.8c0.9-10.1,9.8-17.5,19.9-16.7c6.8,0.6,12.4,4.9,15,10.7V28c-4-3.1-8.9-5.1-14.2-5.6
				C38,21.1,24.7,32.3,23.4,47.4z"/>
			<path class="st4" d="M52.3,31.6c-10-0.9-19,6.6-19.9,16.7C31.5,58.3,39,67.2,49,68.1c8,0.7,15.1-3.8,18.2-10.7v-15
				C64.7,36.4,59.1,32.2,52.3,31.6z M62.1,50.8c-0.6,6.3-6.1,10.9-12.4,10.4c-6.3-0.6-10.9-6.1-10.4-12.4
				c0.6-6.3,6.1-10.9,12.4-10.4C57.9,38.9,62.6,44.5,62.1,50.8z"/>
			<path class="st3" d="M51.7,38.4c-6.3-0.6-11.8,4.1-12.4,10.4c-0.6,6.3,4.1,11.8,10.4,12.4c6.2,0.6,11.8-4.1,12.4-10.4
				C62.6,44.5,57.9,38.9,51.7,38.4z M50.3,54.4c-2.6-0.2-4.5-2.5-4.3-5.1s2.5-4.5,5.1-4.3s4.5,2.5,4.3,5.1
				C55.1,52.8,52.8,54.7,50.3,54.4z"/>
		</g>
		<line class="st5" x1="0.2" y1="49.5" x2="71.9" y2="49.9"/>
		<line class="st5" x1="50.7" y1="100.5" x2="51.1" y2="-3.4"/>
		<rect x="71.9" y="14.6" class="st2" width="474.5" height="32.5"/>
		<text transform="matrix(1 0 0 1 71.897 46.0458)" class="st13 st7 st8">DataCenter</text>
		<text transform="matrix(1 0 0 1 71.898 85.4384)" class="st9 st7 st8">Insider</text>
	</g>
</g>
<g id="CCI" class="st0">
	<g id="Ebene_5_Kopie_Kopie" class="st1">
		<g>
			<path class="st2" d="M51.1,45.1c-2.6-0.2-4.8,1.7-5.1,4.3c-0.2,2.6,1.7,4.8,4.3,5.1c2.6,0.2,4.8-1.7,5.1-4.3
				C55.6,47.6,53.7,45.3,51.1,45.1z"/>
			<path class="st3" d="M47.7,83.9c-18.9-1.7-32.8-18.3-31.1-37.1C18.2,27.9,34.9,14,53.7,15.7c4.9,0.4,9.6,1.9,13.6,4.2v-9.6
				c-4-1.7-8.3-2.8-12.9-3.2C30.9,5,10.1,22.4,8,46s15.3,44.4,38.9,46.5c7.2,0.6,14.2-0.6,20.4-3.2v-9.6
				C61.5,82.9,54.8,84.5,47.7,83.9z"/>
			<path class="st4" d="M16.6,46.8c-1.7,18.8,12.2,35.4,31.1,37.1c7.1,0.6,13.9-1,19.7-4.2v-8.2c-5.3,4-12,6.2-19.1,5.6
				c-15.1-1.3-26.2-14.7-24.9-29.7c1.3-15.1,14.7-26.2,29.7-24.9c5.4,0.5,10.2,2.5,14.2,5.6v-8.2c-4.1-2.3-8.7-3.8-13.6-4.2
				C34.9,14,18.2,27.9,16.6,46.8z"/>
			<path class="st3" d="M23.4,47.4c-1.3,15,9.8,28.4,24.9,29.7c7.1,0.6,13.8-1.5,19.1-5.6V57.3C64.3,64.2,57.1,68.7,49.2,68
				c-10-0.9-17.5-9.8-16.6-19.8c0.9-10.1,9.8-17.5,19.9-16.7c6.8,0.6,12.4,4.9,15,10.7V28c-4-3.1-8.9-5.1-14.2-5.6
				C38,21.1,24.7,32.3,23.4,47.4z"/>
			<path class="st4" d="M52.3,31.6c-10-0.9-19,6.6-19.9,16.7C31.5,58.3,39,67.2,49,68.1c8,0.7,15.1-3.8,18.2-10.7v-15
				C64.7,36.4,59.1,32.2,52.3,31.6z M62.1,50.8c-0.6,6.3-6.1,10.9-12.4,10.4c-6.3-0.6-10.9-6.1-10.4-12.4
				c0.6-6.3,6.1-10.9,12.4-10.4C57.9,38.9,62.6,44.5,62.1,50.8z"/>
			<path class="st3" d="M51.7,38.4c-6.3-0.6-11.8,4.1-12.4,10.4c-0.6,6.3,4.1,11.8,10.4,12.4c6.2,0.6,11.8-4.1,12.4-10.4
				C62.6,44.5,57.9,38.9,51.7,38.4z M50.3,54.4c-2.6-0.2-4.5-2.5-4.3-5.1s2.5-4.5,5.1-4.3s4.5,2.5,4.3,5.1
				C55.1,52.8,52.8,54.7,50.3,54.4z"/>
		</g>
		<line class="st5" x1="0.2" y1="49.5" x2="71.9" y2="49.9"/>
		<line class="st5" x1="50.7" y1="100.5" x2="51.1" y2="-3.4"/>
		<rect x="71.9" y="14.6" class="st2" width="474.5" height="32.5"/>
		<text transform="matrix(1 0 0 1 71.897 46.0458)" class="st14 st7 st8">CloudComputing</text>
		<text transform="matrix(1 0 0 1 71.898 85.4384)" class="st9 st7 st8">Insider</text>
	</g>
</g>
<g>
	<g>
		<path class="st3" d="M46.4,65.3C46.4,65.3,46.4,65.3,46.4,65.3c-9.5-0.9-16.6-9.4-15.7-19.1c0.8-8.6,7.6-15.2,15.7-16v-8.8
			C33.5,22.2,23,32.3,21.9,45.5c-1.2,14.4,9.3,27.3,23.6,28.6c0.3,0,0.6,0,0.9,0.1V65.3z"/>
	</g>
	<path class="st3" d="M46.4,80.7c-0.5,0-1,0-1.5-0.1C27,79,13.9,63,15.5,44.9c1.4-16.8,14.9-29.5,30.9-30V6.6
		C26.3,7.2,9.3,23.1,7.4,44.1c-2,22.7,14.5,42.7,36.8,44.8c0.8,0.1,1.5,0.1,2.2,0.1V80.7z"/>
	<path class="st4" d="M21.9,45.5c1.1-13.3,11.8-23.4,24.5-24v-6.6c-16,0.5-29.6,13.2-30.9,30C13.9,63,27,79,44.9,80.6
		c0.5,0,1,0.1,1.5,0.1v-6.5c-0.3,0-0.7,0-1-0.1C31.2,72.8,20.7,59.9,21.9,45.5z"/>
	<path class="st4" d="M46.4,58.8c-5.8-0.8-9.9-6-9.4-11.8c0.5-5.3,4.5-9.3,9.4-10v-6.7c-8.3,0.6-15.2,7.4-15.9,16.1
		c-0.9,9.6,6.2,18.2,15.7,19.1c0.1,0,0.2,0,0.2,0V58.8z"/>
	<path class="st3" d="M46.4,52c-2-0.6-3.3-2.5-3.1-4.7c0.2-1.9,1.5-3.4,3.1-3.9v-6.6c-5,0.6-9,4.7-9.4,10c-0.6,6,3.7,11.2,9.4,11.9
		V52z"/>
	<g>
		<path class="st3" d="M49.3,30.3C49.3,30.3,49.3,30.3,49.3,30.3c9.5,0.9,16.6,9.4,15.7,19.1c-0.8,8.6-7.6,15.2-15.7,16v8.8
			c12.9-0.8,23.5-10.9,24.5-24.1c1.2-14.4-9.3-27.3-23.6-28.6c-0.3,0-0.6,0-0.9-0.1V30.3z"/>
	</g>
	<path class="st3" d="M49.3,14.9c0.5,0,1,0,1.5,0.1c17.9,1.6,31,17.6,29.4,35.7c-1.4,16.8-14.9,29.5-30.9,30v8.3
		c20.1-0.6,37.2-16.5,39-37.5c2-22.7-14.5-42.7-36.8-44.8c-0.8-0.1-1.5-0.1-2.2-0.1V14.9z"/>
	<path class="st4" d="M73.8,50.1c-1.1,13.3-11.8,23.4-24.5,24v6.6c16-0.5,29.6-13.2,30.9-30C81.8,32.6,68.7,16.6,50.8,15
		c-0.5,0-1-0.1-1.5-0.1v6.5c0.3,0,0.7,0,1,0.1C64.5,22.8,75,35.7,73.8,50.1z"/>
	<path class="st4" d="M49.3,36.9c5.8,0.8,9.9,6,9.4,11.8c-0.5,5.3-4.5,9.3-9.4,10v6.7c8.3-0.6,15.2-7.4,15.9-16.1
		C66.1,39.6,59,31,49.5,30.1c-0.1,0-0.2,0-0.2,0V36.9z"/>
	<path class="st3" d="M49.3,43.6c2,0.6,3.3,2.5,3.1,4.7c-0.2,1.9-1.5,3.4-3.1,3.9v6.6c5-0.6,9-4.7,9.4-10c0.6-6-3.7-11.2-9.4-11.9
		V43.6z"/>
	<line class="st15" x1="0" y1="47.8" x2="95.7" y2="47.8"/>
	<line class="st16" x1="47.8" y1="0" x2="47.8" y2="95.7"/>
	<circle class="st4" cx="47.8" cy="47.9" r="4.6"/>
</g>
</svg>
