<?xml version="1.0" encoding="utf-8"?>
<!-- Generator: Adobe Illustrator 23.0.4, SVG Export Plug-In . SVG Version: 6.00 Build 0)  -->
<svg version="1.1" xmlns="http://www.w3.org/2000/svg" xmlns:xlink="http://www.w3.org/1999/xlink" x="0px" y="0px"
	 viewBox="0 0 257.1 103.9" style="enable-background:new 0 0 257.1 103.9;" xml:space="preserve">
<style type="text/css">
	.st0{display:none;}
	.st1{display:inline;}
	.st2{fill:none;}
	.st3{fill:#4D4D4D;}
	.st4{fill:#FFFFFF;}
	.st5{fill:none;stroke:#FFFFFF;stroke-width:3;}
	.st6{fill:#1FA22E;}
	.st7{font-family:'AktivGrotesk-Bold';}
	.st8{font-size:44px;}
	.st9{fill:#19191E;}
	.st10{fill:#C00222;}
	.st11{fill:#0074B1;}
	.st12{fill:#7E6D58;}
	.st13{fill:#004191;}
	.st14{fill:#D95017;}
	.st15{fill:#89BA17;}
	.st16{fill:#707173;}
	.st17{display:inline;fill:none;stroke:#FFFFFF;stroke-width:3;}
	.st18{display:inline;fill:#FFFFFF;}
</style>
<g id="Ebene_3" class="st0">
</g>
<g id="STO" class="st0">
	<g id="Ebene_5_Kopie_Kopie_Kopie_Kopie_Kopie_Kopie_Kopie_Kopie" class="st1">
		<g>
			<path class="st2" d="M50.9,48.5c-2.6-0.2-4.8,1.7-5.1,4.3c-0.2,2.6,1.7,4.8,4.3,5.1c2.6,0.2,4.8-1.7,5.1-4.3
				C55.4,51,53.5,48.7,50.9,48.5z"/>
			<path class="st3" d="M47.5,87.3C28.6,85.6,14.7,69,16.4,50.2C18,31.3,34.7,17.4,53.5,19.1c4.9,0.4,9.6,1.9,13.6,4.2v-9.6
				c-4-1.7-8.3-2.8-12.9-3.2C30.7,8.4,9.9,25.8,7.8,49.4C5.7,73,23.1,93.8,46.7,95.9c7.2,0.6,14.2-0.6,20.4-3.2v-9.6
				C61.3,86.3,54.6,87.9,47.5,87.3z"/>
			<path class="st4" d="M16.4,50.2C14.7,69,28.6,85.6,47.5,87.3c7.1,0.6,13.9-1,19.7-4.2v-8.2c-5.3,4-12,6.2-19.1,5.6
				C33,79.2,21.9,65.8,23.2,50.8c1.3-15.1,14.7-26.2,29.7-24.9c5.4,0.5,10.2,2.5,14.2,5.6v-8.2c-4.1-2.3-8.7-3.8-13.6-4.2
				C34.7,17.4,18,31.3,16.4,50.2z"/>
			<path class="st3" d="M23.2,50.8C21.9,65.8,33,79.2,48.1,80.5c7.1,0.6,13.8-1.5,19.1-5.6V60.7c-3.1,6.9-10.3,11.4-18.2,10.7
				c-10-0.9-17.5-9.8-16.6-19.8c0.9-10.1,9.8-17.5,19.9-16.7c6.8,0.6,12.4,4.9,15,10.7V31.4c-4-3.1-8.9-5.1-14.2-5.6
				C37.8,24.5,24.5,35.7,23.2,50.8z"/>
			<path class="st4" d="M52.1,35c-10-0.9-19,6.6-19.9,16.7c-0.9,10,6.6,18.9,16.6,19.8c8,0.7,15.1-3.8,18.2-10.7v-15
				C64.5,39.8,58.9,35.6,52.1,35z M61.9,54.2c-0.6,6.3-6.1,10.9-12.4,10.4c-6.3-0.6-10.9-6.1-10.4-12.4c0.6-6.3,6.1-10.9,12.4-10.4
				C57.7,42.3,62.4,47.9,61.9,54.2z"/>
			<path class="st3" d="M51.5,41.8c-6.3-0.6-11.8,4.1-12.4,10.4c-0.6,6.3,4.1,11.8,10.4,12.4c6.2,0.6,11.8-4.1,12.4-10.4
				C62.4,47.9,57.7,42.3,51.5,41.8z M50.1,57.8c-2.6-0.2-4.5-2.5-4.3-5.1c0.2-2.6,2.5-4.5,5.1-4.3c2.6,0.2,4.5,2.5,4.3,5.1
				C54.9,56.2,52.6,58.1,50.1,57.8z"/>
		</g>
		<line class="st5" x1="0" y1="52.9" x2="71.7" y2="53.3"/>
		<line class="st5" x1="50.5" y1="103.9" x2="50.9" y2="0"/>
		<rect x="71.7" y="18" class="st2" width="474.5" height="32.5"/>
		<text transform="matrix(1 0 0 1 71.7092 49.4161)" class="st6 st7 st8">Storage</text>
		<text transform="matrix(1 0 0 1 71.7102 88.8087)" class="st9 st7 st8">Insider</text>
	</g>
</g>
<g id="SEI" class="st0">
	<g id="Ebene_5_Kopie_Kopie_Kopie_Kopie_Kopie_Kopie_Kopie" class="st1">
		<g>
			<path class="st2" d="M50.9,48.5c-2.6-0.2-4.8,1.7-5.1,4.3c-0.2,2.6,1.7,4.8,4.3,5.1c2.6,0.2,4.8-1.7,5.1-4.3
				C55.4,51,53.5,48.7,50.9,48.5z"/>
			<path class="st3" d="M47.5,87.3C28.6,85.6,14.7,69,16.4,50.2C18,31.3,34.7,17.4,53.5,19.1c4.9,0.4,9.6,1.9,13.6,4.2v-9.6
				c-4-1.7-8.3-2.8-12.9-3.2C30.7,8.4,9.9,25.8,7.8,49.4C5.7,73,23.1,93.8,46.7,95.9c7.2,0.6,14.2-0.6,20.4-3.2v-9.6
				C61.3,86.3,54.6,87.9,47.5,87.3z"/>
			<path class="st4" d="M16.4,50.2C14.7,69,28.6,85.6,47.5,87.3c7.1,0.6,13.9-1,19.7-4.2v-8.2c-5.3,4-12,6.2-19.1,5.6
				C33,79.2,21.9,65.8,23.2,50.8c1.3-15.1,14.7-26.2,29.7-24.9c5.4,0.5,10.2,2.5,14.2,5.6v-8.2c-4.1-2.3-8.7-3.8-13.6-4.2
				C34.7,17.4,18,31.3,16.4,50.2z"/>
			<path class="st3" d="M23.2,50.8C21.9,65.8,33,79.2,48.1,80.5c7.1,0.6,13.8-1.5,19.1-5.6V60.7c-3.1,6.9-10.3,11.4-18.2,10.7
				c-10-0.9-17.5-9.8-16.6-19.8c0.9-10.1,9.8-17.5,19.9-16.7c6.8,0.6,12.4,4.9,15,10.7V31.4c-4-3.1-8.9-5.1-14.2-5.6
				C37.8,24.5,24.5,35.7,23.2,50.8z"/>
			<path class="st4" d="M52.1,35c-10-0.9-19,6.6-19.9,16.7c-0.9,10,6.6,18.9,16.6,19.8c8,0.7,15.1-3.8,18.2-10.7v-15
				C64.5,39.8,58.9,35.6,52.1,35z M61.9,54.2c-0.6,6.3-6.1,10.9-12.4,10.4c-6.3-0.6-10.9-6.1-10.4-12.4c0.6-6.3,6.1-10.9,12.4-10.4
				C57.7,42.3,62.4,47.9,61.9,54.2z"/>
			<path class="st3" d="M51.5,41.8c-6.3-0.6-11.8,4.1-12.4,10.4c-0.6,6.3,4.1,11.8,10.4,12.4c6.2,0.6,11.8-4.1,12.4-10.4
				C62.4,47.9,57.7,42.3,51.5,41.8z M50.1,57.8c-2.6-0.2-4.5-2.5-4.3-5.1c0.2-2.6,2.5-4.5,5.1-4.3c2.6,0.2,4.5,2.5,4.3,5.1
				C54.9,56.2,52.6,58.1,50.1,57.8z"/>
		</g>
		<line class="st5" x1="0" y1="52.9" x2="71.7" y2="53.3"/>
		<line class="st5" x1="50.5" y1="103.9" x2="50.9" y2="0"/>
		<rect x="71.7" y="18" class="st2" width="474.5" height="32.5"/>
		<text transform="matrix(1 0 0 1 71.7092 49.4161)" class="st10 st7 st8">Security</text>
		<text transform="matrix(1 0 0 1 71.7102 88.8087)" class="st9 st7 st8">Insider</text>
	</g>
</g>
<g id="IPI" class="st0">
	<g id="Ebene_5_Kopie_Kopie_Kopie_Kopie_Kopie_Kopie" class="st1">
		<g>
			<path class="st2" d="M50.9,48.5c-2.6-0.2-4.8,1.7-5.1,4.3c-0.2,2.6,1.7,4.8,4.3,5.1c2.6,0.2,4.8-1.7,5.1-4.3
				C55.4,51,53.5,48.7,50.9,48.5z"/>
			<path class="st3" d="M47.5,87.3C28.6,85.6,14.7,69,16.4,50.2C18,31.3,34.7,17.4,53.5,19.1c4.9,0.4,9.6,1.9,13.6,4.2v-9.6
				c-4-1.7-8.3-2.8-12.9-3.2C30.7,8.4,9.9,25.8,7.8,49.4C5.7,73,23.1,93.8,46.7,95.9c7.2,0.6,14.2-0.6,20.4-3.2v-9.6
				C61.3,86.3,54.6,87.9,47.5,87.3z"/>
			<path class="st4" d="M16.4,50.2C14.7,69,28.6,85.6,47.5,87.3c7.1,0.6,13.9-1,19.7-4.2v-8.2c-5.3,4-12,6.2-19.1,5.6
				C33,79.2,21.9,65.8,23.2,50.8c1.3-15.1,14.7-26.2,29.7-24.9c5.4,0.5,10.2,2.5,14.2,5.6v-8.2c-4.1-2.3-8.7-3.8-13.6-4.2
				C34.7,17.4,18,31.3,16.4,50.2z"/>
			<path class="st3" d="M23.2,50.8C21.9,65.8,33,79.2,48.1,80.5c7.1,0.6,13.8-1.5,19.1-5.6V60.7c-3.1,6.9-10.3,11.4-18.2,10.7
				c-10-0.9-17.5-9.8-16.6-19.8c0.9-10.1,9.8-17.5,19.9-16.7c6.8,0.6,12.4,4.9,15,10.7V31.4c-4-3.1-8.9-5.1-14.2-5.6
				C37.8,24.5,24.5,35.7,23.2,50.8z"/>
			<path class="st4" d="M52.1,35c-10-0.9-19,6.6-19.9,16.7c-0.9,10,6.6,18.9,16.6,19.8c8,0.7,15.1-3.8,18.2-10.7v-15
				C64.5,39.8,58.9,35.6,52.1,35z M61.9,54.2c-0.6,6.3-6.1,10.9-12.4,10.4c-6.3-0.6-10.9-6.1-10.4-12.4c0.6-6.3,6.1-10.9,12.4-10.4
				C57.7,42.3,62.4,47.9,61.9,54.2z"/>
			<path class="st3" d="M51.5,41.8c-6.3-0.6-11.8,4.1-12.4,10.4c-0.6,6.3,4.1,11.8,10.4,12.4c6.2,0.6,11.8-4.1,12.4-10.4
				C62.4,47.9,57.7,42.3,51.5,41.8z M50.1,57.8c-2.6-0.2-4.5-2.5-4.3-5.1c0.2-2.6,2.5-4.5,5.1-4.3c2.6,0.2,4.5,2.5,4.3,5.1
				C54.9,56.2,52.6,58.1,50.1,57.8z"/>
		</g>
		<line class="st5" x1="0" y1="52.9" x2="71.7" y2="53.3"/>
		<line class="st5" x1="50.5" y1="103.9" x2="50.9" y2="0"/>
		<rect x="71.7" y="18" class="st2" width="474.5" height="32.5"/>
		<text transform="matrix(1 0 0 1 71.7092 49.4161)" class="st11 st7 st8">IP</text>
		<text transform="matrix(1 0 0 1 71.7102 88.8087)" class="st9 st7 st8">Insider</text>
	</g>
</g>
<g id="DEV" class="st0">
	<g id="Ebene_5_Kopie_Kopie_Kopie_Kopie_Kopie" class="st1">
		<g>
			<path class="st2" d="M50.9,48.5c-2.6-0.2-4.8,1.7-5.1,4.3c-0.2,2.6,1.7,4.8,4.3,5.1c2.6,0.2,4.8-1.7,5.1-4.3
				C55.4,51,53.5,48.7,50.9,48.5z"/>
			<path class="st3" d="M47.5,87.3C28.6,85.6,14.7,69,16.4,50.2C18,31.3,34.7,17.4,53.5,19.1c4.9,0.4,9.6,1.9,13.6,4.2v-9.6
				c-4-1.7-8.3-2.8-12.9-3.2C30.7,8.4,9.9,25.8,7.8,49.4C5.7,73,23.1,93.8,46.7,95.9c7.2,0.6,14.2-0.6,20.4-3.2v-9.6
				C61.3,86.3,54.6,87.9,47.5,87.3z"/>
			<path class="st4" d="M16.4,50.2C14.7,69,28.6,85.6,47.5,87.3c7.1,0.6,13.9-1,19.7-4.2v-8.2c-5.3,4-12,6.2-19.1,5.6
				C33,79.2,21.9,65.8,23.2,50.8c1.3-15.1,14.7-26.2,29.7-24.9c5.4,0.5,10.2,2.5,14.2,5.6v-8.2c-4.1-2.3-8.7-3.8-13.6-4.2
				C34.7,17.4,18,31.3,16.4,50.2z"/>
			<path class="st3" d="M23.2,50.8C21.9,65.8,33,79.2,48.1,80.5c7.1,0.6,13.8-1.5,19.1-5.6V60.7c-3.1,6.9-10.3,11.4-18.2,10.7
				c-10-0.9-17.5-9.8-16.6-19.8c0.9-10.1,9.8-17.5,19.9-16.7c6.8,0.6,12.4,4.9,15,10.7V31.4c-4-3.1-8.9-5.1-14.2-5.6
				C37.8,24.5,24.5,35.7,23.2,50.8z"/>
			<path class="st4" d="M52.1,35c-10-0.9-19,6.6-19.9,16.7c-0.9,10,6.6,18.9,16.6,19.8c8,0.7,15.1-3.8,18.2-10.7v-15
				C64.5,39.8,58.9,35.6,52.1,35z M61.9,54.2c-0.6,6.3-6.1,10.9-12.4,10.4c-6.3-0.6-10.9-6.1-10.4-12.4c0.6-6.3,6.1-10.9,12.4-10.4
				C57.7,42.3,62.4,47.9,61.9,54.2z"/>
			<path class="st3" d="M51.5,41.8c-6.3-0.6-11.8,4.1-12.4,10.4c-0.6,6.3,4.1,11.8,10.4,12.4c6.2,0.6,11.8-4.1,12.4-10.4
				C62.4,47.9,57.7,42.3,51.5,41.8z M50.1,57.8c-2.6-0.2-4.5-2.5-4.3-5.1c0.2-2.6,2.5-4.5,5.1-4.3c2.6,0.2,4.5,2.5,4.3,5.1
				C54.9,56.2,52.6,58.1,50.1,57.8z"/>
		</g>
		<line class="st5" x1="0" y1="52.9" x2="71.7" y2="53.3"/>
		<line class="st5" x1="50.5" y1="103.9" x2="50.9" y2="0"/>
		<rect x="71.7" y="18" class="st2" width="474.5" height="32.5"/>
		<text transform="matrix(1 0 0 1 71.7092 49.4161)" class="st12 st7 st8">DEV</text>
		<text transform="matrix(1 0 0 1 71.7102 88.8087)" class="st9 st7 st8">Insider</text>
	</g>
</g>
<g id="DCI" class="st0">
	<g id="Ebene_5_Kopie_Kopie_Kopie_Kopie" class="st1">
		<g>
			<path class="st2" d="M50.9,48.5c-2.6-0.2-4.8,1.7-5.1,4.3c-0.2,2.6,1.7,4.8,4.3,5.1c2.6,0.2,4.8-1.7,5.1-4.3
				C55.4,51,53.5,48.7,50.9,48.5z"/>
			<path class="st3" d="M47.5,87.3C28.6,85.6,14.7,69,16.4,50.2C18,31.3,34.7,17.4,53.5,19.1c4.9,0.4,9.6,1.9,13.6,4.2v-9.6
				c-4-1.7-8.3-2.8-12.9-3.2C30.7,8.4,9.9,25.8,7.8,49.4C5.7,73,23.1,93.8,46.7,95.9c7.2,0.6,14.2-0.6,20.4-3.2v-9.6
				C61.3,86.3,54.6,87.9,47.5,87.3z"/>
			<path class="st4" d="M16.4,50.2C14.7,69,28.6,85.6,47.5,87.3c7.1,0.6,13.9-1,19.7-4.2v-8.2c-5.3,4-12,6.2-19.1,5.6
				C33,79.2,21.9,65.8,23.2,50.8c1.3-15.1,14.7-26.2,29.7-24.9c5.4,0.5,10.2,2.5,14.2,5.6v-8.2c-4.1-2.3-8.7-3.8-13.6-4.2
				C34.7,17.4,18,31.3,16.4,50.2z"/>
			<path class="st3" d="M23.2,50.8C21.9,65.8,33,79.2,48.1,80.5c7.1,0.6,13.8-1.5,19.1-5.6V60.7c-3.1,6.9-10.3,11.4-18.2,10.7
				c-10-0.9-17.5-9.8-16.6-19.8c0.9-10.1,9.8-17.5,19.9-16.7c6.8,0.6,12.4,4.9,15,10.7V31.4c-4-3.1-8.9-5.1-14.2-5.6
				C37.8,24.5,24.5,35.7,23.2,50.8z"/>
			<path class="st4" d="M52.1,35c-10-0.9-19,6.6-19.9,16.7c-0.9,10,6.6,18.9,16.6,19.8c8,0.7,15.1-3.8,18.2-10.7v-15
				C64.5,39.8,58.9,35.6,52.1,35z M61.9,54.2c-0.6,6.3-6.1,10.9-12.4,10.4c-6.3-0.6-10.9-6.1-10.4-12.4c0.6-6.3,6.1-10.9,12.4-10.4
				C57.7,42.3,62.4,47.9,61.9,54.2z"/>
			<path class="st3" d="M51.5,41.8c-6.3-0.6-11.8,4.1-12.4,10.4c-0.6,6.3,4.1,11.8,10.4,12.4c6.2,0.6,11.8-4.1,12.4-10.4
				C62.4,47.9,57.7,42.3,51.5,41.8z M50.1,57.8c-2.6-0.2-4.5-2.5-4.3-5.1c0.2-2.6,2.5-4.5,5.1-4.3c2.6,0.2,4.5,2.5,4.3,5.1
				C54.9,56.2,52.6,58.1,50.1,57.8z"/>
		</g>
		<line class="st5" x1="0" y1="52.9" x2="71.7" y2="53.3"/>
		<line class="st5" x1="50.5" y1="103.9" x2="50.9" y2="0"/>
		<rect x="71.7" y="18" class="st2" width="474.5" height="32.5"/>
		<text transform="matrix(1 0 0 1 71.7092 49.4161)" class="st13 st7 st8">DataCenter</text>
		<text transform="matrix(1 0 0 1 71.7102 88.8087)" class="st9 st7 st8">Insider</text>
	</g>
</g>
<g id="CCI" class="st0">
	<g id="Ebene_5_Kopie_Kopie" class="st1">
		<g>
			<path class="st2" d="M50.9,48.5c-2.6-0.2-4.8,1.7-5.1,4.3c-0.2,2.6,1.7,4.8,4.3,5.1c2.6,0.2,4.8-1.7,5.1-4.3
				C55.4,51,53.5,48.7,50.9,48.5z"/>
			<path class="st3" d="M47.5,87.3C28.6,85.6,14.7,69,16.4,50.2C18,31.3,34.7,17.4,53.5,19.1c4.9,0.4,9.6,1.9,13.6,4.2v-9.6
				c-4-1.7-8.3-2.8-12.9-3.2C30.7,8.4,9.9,25.8,7.8,49.4C5.7,73,23.1,93.8,46.7,95.9c7.2,0.6,14.2-0.6,20.4-3.2v-9.6
				C61.3,86.3,54.6,87.9,47.5,87.3z"/>
			<path class="st4" d="M16.4,50.2C14.7,69,28.6,85.6,47.5,87.3c7.1,0.6,13.9-1,19.7-4.2v-8.2c-5.3,4-12,6.2-19.1,5.6
				C33,79.2,21.9,65.8,23.2,50.8c1.3-15.1,14.7-26.2,29.7-24.9c5.4,0.5,10.2,2.5,14.2,5.6v-8.2c-4.1-2.3-8.7-3.8-13.6-4.2
				C34.7,17.4,18,31.3,16.4,50.2z"/>
			<path class="st3" d="M23.2,50.8C21.9,65.8,33,79.2,48.1,80.5c7.1,0.6,13.8-1.5,19.1-5.6V60.7c-3.1,6.9-10.3,11.4-18.2,10.7
				c-10-0.9-17.5-9.8-16.6-19.8c0.9-10.1,9.8-17.5,19.9-16.7c6.8,0.6,12.4,4.9,15,10.7V31.4c-4-3.1-8.9-5.1-14.2-5.6
				C37.8,24.5,24.5,35.7,23.2,50.8z"/>
			<path class="st4" d="M52.1,35c-10-0.9-19,6.6-19.9,16.7c-0.9,10,6.6,18.9,16.6,19.8c8,0.7,15.1-3.8,18.2-10.7v-15
				C64.5,39.8,58.9,35.6,52.1,35z M61.9,54.2c-0.6,6.3-6.1,10.9-12.4,10.4c-6.3-0.6-10.9-6.1-10.4-12.4c0.6-6.3,6.1-10.9,12.4-10.4
				C57.7,42.3,62.4,47.9,61.9,54.2z"/>
			<path class="st3" d="M51.5,41.8c-6.3-0.6-11.8,4.1-12.4,10.4c-0.6,6.3,4.1,11.8,10.4,12.4c6.2,0.6,11.8-4.1,12.4-10.4
				C62.4,47.9,57.7,42.3,51.5,41.8z M50.1,57.8c-2.6-0.2-4.5-2.5-4.3-5.1c0.2-2.6,2.5-4.5,5.1-4.3c2.6,0.2,4.5,2.5,4.3,5.1
				C54.9,56.2,52.6,58.1,50.1,57.8z"/>
		</g>
		<line class="st5" x1="0" y1="52.9" x2="71.7" y2="53.3"/>
		<line class="st5" x1="50.5" y1="103.9" x2="50.9" y2="0"/>
		<rect x="71.7" y="18" class="st2" width="474.5" height="32.5"/>
		<text transform="matrix(1 0 0 1 71.7092 49.4161)" class="st14 st7 st8">CloudComputing</text>
		<text transform="matrix(1 0 0 1 71.7102 88.8087)" class="st9 st7 st8">Insider</text>
	</g>
</g>
<g id="BDI">
	<g id="Ebene_5_Kopie_Kopie_Kopie">
		<g>
			<path class="st2" d="M50.9,48.5c-2.6-0.2-4.8,1.7-5.1,4.3c-0.2,2.6,1.7,4.8,4.3,5.1c2.6,0.2,4.8-1.7,5.1-4.3
				C55.4,51,53.5,48.7,50.9,48.5z"/>
			<path class="st3" d="M47.5,87.3C28.6,85.6,14.7,69,16.4,50.2C18,31.3,34.7,17.4,53.5,19.1c4.9,0.4,9.6,1.9,13.6,4.2v-9.6
				c-4-1.7-8.3-2.8-12.9-3.2C30.7,8.4,9.9,25.8,7.8,49.4C5.7,73,23.1,93.8,46.7,95.9c7.2,0.6,14.2-0.6,20.4-3.2v-9.6
				C61.3,86.3,54.6,87.9,47.5,87.3z"/>
			<path class="st4" d="M16.4,50.2C14.7,69,28.6,85.6,47.5,87.3c7.1,0.6,13.9-1,19.7-4.2v-8.2c-5.3,4-12,6.2-19.1,5.6
				C33,79.2,21.9,65.8,23.2,50.8c1.3-15.1,14.7-26.2,29.7-24.9c5.4,0.5,10.2,2.5,14.2,5.6v-8.2c-4.1-2.3-8.7-3.8-13.6-4.2
				C34.7,17.4,18,31.3,16.4,50.2z"/>
			<path class="st3" d="M23.2,50.8C21.9,65.8,33,79.2,48.1,80.5c7.1,0.6,13.8-1.5,19.1-5.6V60.7c-3.1,6.9-10.3,11.4-18.2,10.7
				c-10-0.9-17.5-9.8-16.6-19.8c0.9-10.1,9.8-17.5,19.9-16.7c6.8,0.6,12.4,4.9,15,10.7V31.4c-4-3.1-8.9-5.1-14.2-5.6
				C37.8,24.5,24.5,35.7,23.2,50.8z"/>
			<path class="st4" d="M52.1,35c-10-0.9-19,6.6-19.9,16.7c-0.9,10,6.6,18.9,16.6,19.8c8,0.7,15.1-3.8,18.2-10.7v-15
				C64.5,39.8,58.9,35.6,52.1,35z M61.9,54.2c-0.6,6.3-6.1,10.9-12.4,10.4c-6.3-0.6-10.9-6.1-10.4-12.4c0.6-6.3,6.1-10.9,12.4-10.4
				C57.7,42.3,62.4,47.9,61.9,54.2z"/>
			<path class="st3" d="M51.5,41.8c-6.3-0.6-11.8,4.1-12.4,10.4c-0.6,6.3,4.1,11.8,10.4,12.4c6.2,0.6,11.8-4.1,12.4-10.4
				C62.4,47.9,57.7,42.3,51.5,41.8z M50.1,57.8c-2.6-0.2-4.5-2.5-4.3-5.1c0.2-2.6,2.5-4.5,5.1-4.3c2.6,0.2,4.5,2.5,4.3,5.1
				C54.9,56.2,52.6,58.1,50.1,57.8z"/>
		</g>
		<line class="st5" x1="0" y1="52.9" x2="71.7" y2="53.3"/>
		<line class="st5" x1="50.5" y1="103.9" x2="50.9" y2="0"/>
		<g>
			<path class="st15" d="M74.9,18h11.3c2.3,0,4.2,0.2,5.7,0.7c1.5,0.4,2.7,1,3.6,1.8c0.9,0.8,1.5,1.7,1.8,2.7c0.3,1,0.5,2.1,0.5,3.3
				c0,1.2-0.3,2.4-0.8,3.5c-0.5,1.1-1.5,2-3,2.8c0.9,0.5,1.7,1,2.3,1.6c0.6,0.5,1.1,1.1,1.4,1.7c0.3,0.6,0.6,1.2,0.7,1.9
				c0.1,0.6,0.2,1.3,0.2,1.9c0,1.3-0.2,2.6-0.6,3.7c-0.4,1.2-1.1,2.2-2,3c-0.9,0.9-2.1,1.5-3.6,2c-1.5,0.5-3.3,0.7-5.5,0.7H74.9V18z
				 M87,30.5c1.7,0,2.9-0.3,3.6-1c0.6-0.6,1-1.6,1-2.8c0-1.3-0.4-2.2-1.3-2.8c-0.8-0.5-2.3-0.8-4.2-0.8h-4.8v7.3H87z M86.8,44.3
				c1.1,0,2-0.1,2.7-0.3c0.7-0.2,1.3-0.5,1.7-0.9c0.4-0.4,0.7-0.9,0.9-1.4c0.2-0.5,0.3-1.1,0.3-1.8c0-1.3-0.4-2.4-1.1-3.1
				c-0.7-0.7-2-1.1-3.9-1.1h-6.2v8.5H86.8z"/>
			<path class="st15" d="M103.4,18h6.6v31.4h-6.6V18z"/>
			<path class="st15" d="M130.8,32.2h12.1v13.3c-1.6,1.5-3.5,2.7-5.8,3.5c-2.2,0.8-4.5,1.2-6.9,1.2c-2.5,0-4.7-0.4-6.5-1.2
				c-1.9-0.8-3.4-1.9-4.6-3.3c-1.2-1.4-2.2-3.2-2.8-5.2c-0.6-2-0.9-4.3-0.9-6.8c0-2.6,0.3-4.8,1-6.9c0.7-2,1.6-3.8,2.9-5.2
				c1.2-1.4,2.8-2.5,4.6-3.3c1.8-0.8,3.8-1.1,6-1.1c2,0,3.8,0.2,5.2,0.7c1.5,0.5,2.7,1.2,3.7,2.1s1.8,1.9,2.4,3.1
				c0.6,1.2,1,2.4,1.3,3.8l-6.5,0.8c-0.2-0.8-0.4-1.5-0.6-2.1c-0.2-0.6-0.6-1.1-1.1-1.5c-0.5-0.4-1.1-0.7-1.8-1
				c-0.7-0.2-1.6-0.3-2.6-0.3c-2.6,0-4.5,1-5.7,2.9c-1.3,1.9-1.9,4.6-1.9,8.1c0,3.5,0.6,6.2,1.9,8.1c1.3,1.9,3.4,2.8,6.2,2.8
				c1.4,0,2.6-0.1,3.6-0.4c1-0.3,2-0.7,2.9-1.3v-5.2h-6V32.2z"/>
			<path class="st15" d="M148.3,18h11.7c4.8,0,8.6,1.3,11.2,3.9c2.7,2.6,4,6.5,4,11.6c0,2.6-0.4,4.9-1.1,6.9c-0.7,2-1.8,3.6-3.2,5
				c-1.4,1.3-3.1,2.4-5.1,3c-2,0.7-4.3,1-6.9,1h-10.6V18z M159.1,43.8c1.7,0,3.2-0.2,4.4-0.7c1.2-0.5,2.2-1.2,2.9-2.1s1.3-2,1.6-3.2
				c0.4-1.2,0.5-2.6,0.5-4.2c0-1.5-0.2-2.9-0.5-4.2c-0.3-1.2-0.8-2.3-1.5-3.1c-0.7-0.9-1.5-1.5-2.6-2c-1.1-0.5-2.4-0.7-3.9-0.7h-5.2
				v20.2H159.1z"/>
			<path class="st15" d="M188,18h6.2L206,49.4h-7l-2.5-7.3h-11l-2.5,7.3h-6.8L188,18z M194.8,36.7l-3.8-11.3l-3.8,11.3H194.8z"/>
			<path class="st15" d="M212.6,23.7h-9.5V18h25.5v5.7h-9.5v25.7h-6.6V23.7z"/>
			<path class="st15" d="M237.6,18h6.2l11.8,31.4h-7l-2.5-7.3h-11l-2.5,7.3h-6.8L237.6,18z M244.4,36.7l-3.8-11.3l-3.8,11.3H244.4z"
				/>
		</g>
		<g>
			<path class="st9" d="M74.9,57.4h6.6v31.4h-6.6V57.4z"/>
			<path class="st9" d="M87.9,57.4h5.9L106.7,78V57.4h6.4v31.4h-5.9l-13-20.4v20.4h-6.4V57.4z"/>
			<path class="st9" d="M124.2,78.6c0.1,1.9,0.8,3.3,1.9,4.2c1.1,0.9,2.7,1.3,4.9,1.3c1,0,1.9-0.1,2.6-0.3c0.7-0.2,1.3-0.5,1.7-0.9
				c0.4-0.4,0.8-0.8,0.9-1.3c0.2-0.5,0.3-1,0.3-1.6c0-0.8-0.3-1.6-0.9-2.3s-1.7-1.2-3.4-1.6l-4.1-0.7c-1.6-0.3-3-0.7-4.3-1.1
				c-1.2-0.5-2.3-1.1-3.1-1.8s-1.5-1.7-1.9-2.8c-0.4-1.1-0.7-2.4-0.7-3.9c0-1.5,0.3-2.8,0.9-4c0.6-1.1,1.4-2.1,2.5-2.9
				c1.1-0.8,2.4-1.3,3.9-1.7s3.1-0.6,4.9-0.6c2.3,0,4.2,0.3,5.7,0.8c1.5,0.5,2.8,1.2,3.7,2.1c0.9,0.9,1.6,1.9,2.1,3
				c0.5,1.1,0.8,2.3,0.9,3.6l-6.2,0.8c-0.3-1.7-0.9-3-1.9-3.7c-0.9-0.8-2.3-1.1-4.2-1.1c-1.1,0-2,0.1-2.8,0.3
				c-0.7,0.2-1.3,0.4-1.7,0.7c-0.4,0.3-0.7,0.7-0.9,1.1c-0.2,0.4-0.3,0.8-0.3,1.3c0,1.2,0.3,2.1,1,2.6c0.7,0.6,1.8,1,3.4,1.4
				l4.3,0.8c3.4,0.7,5.9,1.8,7.5,3.3c1.6,1.5,2.4,3.7,2.4,6.5c0,1.4-0.3,2.6-0.8,3.8c-0.5,1.2-1.3,2.2-2.3,3c-1,0.9-2.3,1.5-3.8,2
				c-1.5,0.5-3.3,0.7-5.4,0.7c-4.3,0-7.6-0.9-9.8-2.8c-2.3-1.8-3.5-4.6-3.7-8.3H124.2z"/>
			<path class="st9" d="M147.9,57.4h6.6v31.4h-6.6V57.4z"/>
			<path class="st9" d="M160.9,57.4h11.7c4.8,0,8.6,1.3,11.2,3.9c2.7,2.6,4,6.5,4,11.6c0,2.6-0.4,4.9-1.1,6.9c-0.7,2-1.8,3.6-3.2,5
				c-1.4,1.3-3.1,2.4-5.1,3c-2,0.7-4.3,1-6.9,1h-10.6V57.4z M171.7,83.2c1.7,0,3.2-0.2,4.4-0.7c1.2-0.5,2.2-1.2,2.9-2.1
				s1.3-2,1.6-3.2c0.4-1.2,0.5-2.6,0.5-4.2c0-1.5-0.2-2.9-0.5-4.2c-0.3-1.2-0.8-2.3-1.5-3.1c-0.7-0.9-1.5-1.5-2.6-2
				c-1.1-0.5-2.4-0.7-3.9-0.7h-5.2v20.2H171.7z"/>
			<path class="st9" d="M193.3,57.4h21.4V63h-14.9v6.9h14v5.6h-14v7.7h15.8l-0.7,5.6h-21.7V57.4z"/>
			<path class="st9" d="M220.3,57.4h11.1c2.5,0,4.5,0.3,6.1,0.9c1.6,0.6,2.9,1.3,3.8,2.2c0.9,0.9,1.5,2,1.9,3.1
				c0.4,1.1,0.5,2.2,0.5,3.3c0,2-0.4,3.7-1.1,5.1c-0.7,1.4-2,2.5-3.7,3.5l6.4,13.3h-7.1L233,77h-6.2v11.8h-6.5V57.4z M231.9,71.6
				c1,0,1.9-0.1,2.6-0.3c0.7-0.2,1.2-0.5,1.6-0.9c0.4-0.4,0.7-0.9,0.8-1.4c0.1-0.6,0.2-1.2,0.2-1.8c0-0.6-0.1-1.1-0.3-1.6
				c-0.2-0.5-0.5-1-0.9-1.4c-0.4-0.4-1-0.7-1.8-0.9c-0.7-0.2-1.7-0.3-2.8-0.3h-4.5v8.8H231.9z"/>
		</g>
	</g>
</g>
<g id="Ebene_4" class="st0">
	<g class="st1">
		<path class="st16" d="M-475.8,670.3c-1.7,19.3-18.7,33.6-38.1,31.9c-19.3-1.7-33.6-18.7-31.9-38.1c1.7-19.3,18.7-33.6,38.1-31.9
			C-488.4,633.9-474.1,651-475.8,670.3z"/>
		<path class="st4" d="M-482.9,669.6c-1.4,15.4-15,26.8-30.4,25.4c-15.4-1.4-26.8-15-25.4-30.4c1.4-15.4,15-26.8,30.4-25.4
			C-492.9,640.6-481.5,654.2-482.9,669.6z"/>
		<path class="st16" d="M-533.1,665.2c1.1-12.3,12-21.5,24.3-20.4c12.3,1.1,21.4,12,20.4,24.3c-1.1,12.3-12,21.5-24.3,20.4
			C-525.1,688.4-534.2,677.5-533.1,665.2"/>
		<path class="st4" d="M-525.7,665.9c-0.7,8.2,5.4,15.5,13.6,16.2c8.2,0.7,15.4-5.4,16.2-13.6c0.7-8.3-5.3-15.5-13.5-16.3
			C-517.6,651.5-524.9,657.6-525.7,665.9"/>
		<path class="st16" d="M-520.1,666.3c0.5-5.1,5-8.9,10.1-8.5c5.1,0.5,8.9,5,8.5,10.1c-0.5,5.1-5,8.9-10.1,8.5
			C-516.7,676-520.5,671.5-520.1,666.3"/>
		<path class="st4" d="M-507,667.5c-0.2,2.1-2,3.7-4.2,3.5c-2.1-0.2-3.7-2-3.5-4.2c0.2-2.1,2-3.7,4.2-3.5
			C-508.3,663.5-506.8,665.4-507,667.5z"/>
	</g>
	<line class="st17" x1="-552.1" y1="667" x2="-493.4" y2="667.2"/>
	<line class="st17" x1="-510.8" y1="708.6" x2="-510.4" y2="623.7"/>
	<rect x="-497.1" y="630.1" class="st18" width="32.5" height="74.6"/>
	<text transform="matrix(1 0 0 1 -493.3999 696.3228)" class="st7" style="display:inline;fill:#19191E; font-size:36.2496px;">Insider</text>
	<rect x="-493.4" y="637.7" style="display:inline;fill:none;" width="236.7" height="27.7"/>
	<text transform="matrix(1 0 0 1 -493.4009 663.6031)" class="st1"><tspan x="0" y="0" class="st7" style="fill:#77336F; font-size:36.2496px;">Block</tspan><tspan x="123.2" y="0" class="st7" style="fill:#77336F; font-size:36.2496px;">-</tspan></text>
	<g class="st1">
		<path class="st16" d="M-475.8,565.7c-1.7,19.3-18.7,33.6-38.1,31.9c-19.3-1.7-33.6-18.7-31.9-38.1c1.7-19.3,18.7-33.6,38.1-31.9
			C-488.4,529.4-474.1,546.4-475.8,565.7z"/>
		<path class="st4" d="M-482.9,565.1c-1.4,15.4-15,26.8-30.4,25.4c-15.4-1.4-26.8-15-25.4-30.4c1.4-15.4,15-26.8,30.4-25.4
			C-492.9,536.1-481.5,549.7-482.9,565.1z"/>
		<path class="st16" d="M-533.1,560.7c1.1-12.3,12-21.5,24.3-20.4c12.3,1.1,21.4,12,20.4,24.3c-1.1,12.3-12,21.5-24.3,20.4
			C-525.1,583.9-534.2,573-533.1,560.7"/>
		<path class="st4" d="M-525.7,561.4c-0.7,8.2,5.4,15.5,13.6,16.2c8.2,0.7,15.4-5.4,16.2-13.6c0.7-8.3-5.3-15.5-13.5-16.3
			C-517.6,547-524.9,553.1-525.7,561.4"/>
		<path class="st16" d="M-520.1,561.8c0.5-5.1,5-8.9,10.1-8.5c5.1,0.5,8.9,5,8.5,10.1c-0.5,5.1-5,8.9-10.1,8.5
			C-516.7,571.5-520.5,567-520.1,561.8"/>
		<path class="st4" d="M-507,563c-0.2,2.1-2,3.7-4.2,3.5c-2.1-0.2-3.7-2-3.5-4.2c0.2-2.1,2-3.7,4.2-3.5
			C-508.3,559-506.8,560.9-507,563z"/>
	</g>
	<line class="st17" x1="-552.1" y1="562.4" x2="-493.4" y2="562.7"/>
	<line class="st17" x1="-510.8" y1="604.1" x2="-510.4" y2="519.1"/>
	<rect x="-497.1" y="525.6" class="st18" width="32.5" height="74.6"/>
	<text transform="matrix(1 0 0 1 -493.3999 591.8091)" class="st7" style="display:inline;fill:#19191E; font-size:36.2496px;">Insider</text>
	<rect x="-493.4" y="533.2" style="display:inline;fill:none;" width="236.7" height="27.7"/>
	<text transform="matrix(1 0 0 1 -493.4009 559.0894)" class="st7" style="display:inline;fill:#7E6D58; font-size:36.2496px;">Dev</text>
	<g class="st1">
		<path class="st16" d="M-474.6,468.4c-1.7,19.3-18.7,33.6-38.1,31.9c-19.3-1.7-33.6-18.7-31.9-38.1c1.7-19.3,18.7-33.6,38.1-31.9
			C-487.1,432.1-472.9,449.1-474.6,468.4z"/>
		<path class="st4" d="M-481.6,467.8c-1.4,15.4-15,26.8-30.4,25.4c-15.4-1.4-26.8-15-25.4-30.4c1.4-15.4,15-26.8,30.4-25.4
			C-491.7,438.8-480.3,452.4-481.6,467.8z"/>
		<path class="st16" d="M-531.9,463.4c1.1-12.3,12-21.5,24.3-20.4c12.3,1.1,21.4,12,20.4,24.3c-1.1,12.3-12,21.5-24.3,20.4
			C-523.8,486.6-533,475.7-531.9,463.4"/>
		<path class="st4" d="M-524.4,464.1c-0.7,8.2,5.4,15.5,13.6,16.2c8.2,0.7,15.4-5.4,16.2-13.6c0.7-8.3-5.3-15.5-13.5-16.3
			C-516.4,449.7-523.7,455.8-524.4,464.1"/>
		<path class="st16" d="M-518.9,464.5c0.5-5.1,5-8.9,10.1-8.5c5.1,0.5,8.9,5,8.5,10.1c-0.5,5.1-5,8.9-10.1,8.5
			C-515.5,474.2-519.3,469.7-518.9,464.5"/>
		<path class="st4" d="M-505.7,465.7c-0.2,2.1-2,3.7-4.2,3.5c-2.1-0.2-3.7-2-3.5-4.2c0.2-2.1,2-3.7,4.2-3.5
			C-507.1,461.7-505.5,463.6-505.7,465.7z"/>
	</g>
	<line class="st17" x1="-550.9" y1="465.1" x2="-492.2" y2="465.4"/>
	<line class="st17" x1="-509.6" y1="506.8" x2="-509.2" y2="421.8"/>
	<rect x="-495.9" y="428.3" class="st18" width="32.5" height="74.6"/>
	<rect x="-492.2" y="436.6" style="display:inline;fill:none;" width="198.9" height="26.6"/>
	<text transform="matrix(1 0 0 1 -492.1792 462.4517)" class="st7" style="display:inline;fill:#0074B1; font-size:36.2496px;">IP</text>
	<text transform="matrix(1 0 0 1 -492.1792 494.5123)" class="st7" style="display:inline;fill:#19191E; font-size:36.2496px;">Insider</text>
	<g class="st1">
		<path class="st16" d="M-475.8,370.2c-1.7,19.3-18.7,33.6-38.1,31.9c-19.3-1.7-33.6-18.7-31.9-38.1c1.7-19.3,18.7-33.6,38.1-31.9
			C-488.4,333.9-474.1,350.9-475.8,370.2z"/>
		<path class="st4" d="M-482.9,369.6c-1.4,15.4-15,26.8-30.4,25.4c-15.4-1.4-26.8-15-25.4-30.4c1.4-15.4,15-26.8,30.4-25.4
			C-492.9,340.6-481.5,354.2-482.9,369.6z"/>
		<path class="st16" d="M-533.1,365.1c1.1-12.3,12-21.5,24.3-20.4c12.3,1.1,21.4,12,20.4,24.3c-1.1,12.3-12,21.5-24.3,20.4
			C-525.1,388.4-534.2,377.5-533.1,365.1"/>
		<path class="st4" d="M-525.7,365.8c-0.7,8.2,5.4,15.5,13.6,16.2c8.2,0.7,15.4-5.4,16.2-13.6c0.7-8.3-5.3-15.5-13.5-16.3
			C-517.6,351.5-524.9,357.6-525.7,365.8"/>
		<path class="st16" d="M-520.1,366.3c0.5-5.1,5-8.9,10.1-8.5c5.1,0.5,8.9,5,8.5,10.1c-0.5,5.1-5,8.9-10.1,8.5
			C-516.7,376-520.5,371.4-520.1,366.3"/>
		<path class="st4" d="M-507,367.5c-0.2,2.1-2,3.7-4.2,3.5c-2.1-0.2-3.7-2-3.5-4.2c0.2-2.1,2-3.7,4.2-3.5
			C-508.3,363.5-506.8,365.4-507,367.5z"/>
	</g>
	<line class="st17" x1="-552.1" y1="366.9" x2="-493.4" y2="367.2"/>
	<line class="st17" x1="-510.8" y1="408.6" x2="-510.4" y2="323.6"/>
	<rect x="-497.1" y="330" class="st18" width="32.5" height="74.6"/>
	<text transform="matrix(1 0 0 1 -493.3999 396.2857)" class="st7" style="display:inline;fill:#19191E; font-size:36.2496px;">Insider</text>
	<rect x="-493.4" y="337.7" style="display:inline;fill:none;" width="236.7" height="27.7"/>
	<text transform="matrix(1 0 0 1 -493.4009 363.565)" class="st1"><tspan x="0" y="0" class="st13 st7" style="font-size:36.2496px;">Datacen</tspan><tspan x="173.6" y="0" class="st13 st7" style="font-size:36.2496px;">-</tspan></text>
	<g class="st1">
		<path class="st16" d="M-474.6,268.4c-1.7,19.3-18.7,33.6-38.1,31.9c-19.3-1.7-33.6-18.7-31.9-38.1c1.7-19.3,18.7-33.6,38.1-31.9
			C-487.1,232-472.9,249.1-474.6,268.4z"/>
		<path class="st4" d="M-481.6,267.7c-1.4,15.4-15,26.8-30.4,25.4c-15.4-1.4-26.8-15-25.4-30.4s15-26.8,30.4-25.4
			C-491.7,238.7-480.3,252.3-481.6,267.7z"/>
		<path class="st16" d="M-531.9,263.3c1.1-12.3,12-21.5,24.3-20.4c12.3,1.1,21.4,12,20.4,24.3c-1.1,12.3-12,21.5-24.3,20.4
			C-523.8,286.5-533,275.6-531.9,263.3"/>
		<path class="st4" d="M-524.4,264c-0.7,8.2,5.4,15.5,13.6,16.2c8.2,0.7,15.4-5.4,16.2-13.6c0.7-8.3-5.3-15.5-13.5-16.3
			C-516.4,249.6-523.7,255.7-524.4,264"/>
		<path class="st16" d="M-518.9,264.4c0.5-5.1,5-8.9,10.1-8.5c5.1,0.5,8.9,5,8.5,10.1c-0.5,5.1-5,8.9-10.1,8.5
			C-515.5,274.1-519.3,269.6-518.9,264.4"/>
		<path class="st4" d="M-505.7,265.6c-0.2,2.1-2,3.7-4.2,3.5c-2.1-0.2-3.7-2-3.5-4.2c0.2-2.1,2-3.7,4.2-3.5
			C-507.1,261.6-505.5,263.5-505.7,265.6z"/>
	</g>
	<line class="st17" x1="-550.9" y1="265.1" x2="-492.2" y2="265.3"/>
	<line class="st17" x1="-509.6" y1="306.7" x2="-509.2" y2="221.7"/>
	<rect x="-495.9" y="228.2" class="st18" width="32.5" height="74.6"/>
	<rect x="-492.2" y="236.5" style="display:inline;fill:none;" width="198.9" height="26.6"/>
	<text transform="matrix(1 0 0 1 -492.1792 262.3619)" class="st7" style="display:inline;fill:#1FA22E; font-size:36.2496px;">Storage</text>
	<text transform="matrix(1 0 0 1 -492.1792 294.4229)" class="st7" style="display:inline;fill:#19191E; font-size:36.2496px;">Insider</text>
	<g class="st1">
		<path class="st16" d="M-474.6,158.4c-1.7,19.3-18.7,33.6-38.1,31.9c-19.3-1.7-33.6-18.7-31.9-38.1c1.7-19.3,18.7-33.6,38.1-31.9
			C-487.1,122.1-472.9,139.1-474.6,158.4z"/>
		<path class="st4" d="M-481.6,157.8c-1.4,15.4-15,26.8-30.4,25.4c-15.4-1.4-26.8-15-25.4-30.4s15-26.8,30.4-25.4
			C-491.7,128.8-480.3,142.4-481.6,157.8z"/>
		<path class="st16" d="M-531.9,153.4c1.1-12.3,12-21.5,24.3-20.4c12.3,1.1,21.4,12,20.4,24.3c-1.1,12.3-12,21.5-24.3,20.4
			C-523.8,176.6-533,165.7-531.9,153.4"/>
		<path class="st4" d="M-524.4,154.1c-0.7,8.2,5.4,15.5,13.6,16.2c8.2,0.7,15.4-5.4,16.2-13.6c0.7-8.3-5.3-15.5-13.5-16.3
			C-516.4,139.7-523.7,145.8-524.4,154.1"/>
		<path class="st16" d="M-518.9,154.5c0.5-5.1,5-8.9,10.1-8.5c5.1,0.5,8.9,5,8.5,10.1c-0.5,5.1-5,8.9-10.1,8.5
			C-515.5,164.2-519.3,159.6-518.9,154.5"/>
		<path class="st4" d="M-505.7,155.7c-0.2,2.1-2,3.7-4.2,3.5c-2.1-0.2-3.7-2-3.5-4.2c0.2-2.1,2-3.7,4.2-3.5
			C-507.1,151.7-505.5,153.6-505.7,155.7z"/>
	</g>
	<line class="st17" x1="-550.9" y1="155.1" x2="-492.2" y2="155.4"/>
	<line class="st17" x1="-509.6" y1="196.8" x2="-509.2" y2="111.8"/>
	<rect x="-495.9" y="118.2" class="st18" width="32.5" height="74.6"/>
	<rect x="-492.2" y="126.6" style="display:inline;fill:none;" width="198.9" height="26.6"/>
	<text transform="matrix(1 0 0 1 -492.1792 152.4361)" class="st7" style="display:inline;fill:#C00222; font-size:36.2496px;">Security</text>
	<text transform="matrix(1 0 0 1 -492.1792 184.4977)" class="st7" style="display:inline;fill:#19191E; font-size:36.2496px;">Insider</text>
	<g class="st1">
		<path class="st16" d="M-528.4,67.4c-1.7,19.3-18.7,33.6-38.1,31.9c-19.3-1.7-33.6-18.7-31.9-38.1c1.7-19.3,18.7-33.6,38.1-31.9
			C-540.9,31.1-526.7,48.1-528.4,67.4z"/>
		<path class="st4" d="M-535.4,66.8c-1.4,15.4-15,26.8-30.4,25.4c-15.4-1.4-26.8-15-25.4-30.4s15-26.8,30.4-25.4
			C-545.5,37.8-534.1,51.4-535.4,66.8z"/>
		<path class="st16" d="M-585.7,62.3c1.1-12.3,12-21.5,24.3-20.4c12.3,1.1,21.4,12,20.4,24.3c-1.1,12.3-12,21.5-24.3,20.4
			C-577.6,85.6-586.8,74.7-585.7,62.3"/>
		<path class="st4" d="M-578.2,63c-0.7,8.2,5.4,15.5,13.6,16.2c8.2,0.7,15.4-5.4,16.2-13.6c0.7-8.3-5.3-15.5-13.5-16.3
			C-570.2,48.7-577.5,54.8-578.2,63"/>
		<path class="st16" d="M-572.6,63.5c0.5-5.1,5-8.9,10.1-8.5c5.1,0.5,8.9,5,8.5,10.1c-0.5,5.1-5,8.9-10.1,8.5
			C-569.3,73.2-573.1,68.6-572.6,63.5"/>
		<path class="st4" d="M-559.5,64.7c-0.2,2.1-2,3.7-4.2,3.5c-2.1-0.2-3.7-2-3.5-4.2c0.2-2.1,2-3.7,4.2-3.5
			C-560.9,60.7-559.3,62.6-559.5,64.7z"/>
	</g>
	<line class="st17" x1="-604.7" y1="64.1" x2="-546" y2="64.4"/>
	<line class="st17" x1="-563.4" y1="105.8" x2="-563" y2="20.8"/>
	<rect x="-549.7" y="27.2" class="st18" width="32.5" height="74.6"/>
	<text transform="matrix(1 0 0 1 -545.9722 93.4859)" class="st7" style="display:inline;fill:#19191E; font-size:36.2496px;">Insider</text>
	<rect x="-545.3" y="35" style="display:inline;fill:none;" width="340.2" height="29.5"/>
	<text transform="matrix(1 0 0 1 -545.313 60.4469)" class="st7" style="display:inline;fill:#D95017; font-size:35.5905px;">CloudComputing</text>
	<g class="st1">
		<path class="st16" d="M-475.8-22.4c-1.7,19.3-18.7,33.6-38.1,31.9c-19.3-1.7-33.6-18.7-31.9-38.1c1.7-19.3,18.7-33.6,38.1-31.9
			C-488.4-58.8-474.1-41.8-475.8-22.4z"/>
		<path class="st4" d="M-482.9-23.1c-1.4,15.4-15,26.8-30.4,25.4C-528.7,1-540-12.6-538.7-28c1.4-15.4,15-26.8,30.4-25.4
			C-492.9-52.1-481.5-38.5-482.9-23.1z"/>
		<path class="st16" d="M-533.1-27.5c1.1-12.3,12-21.5,24.3-20.4c12.3,1.1,21.4,12,20.4,24.3c-1.1,12.3-12,21.5-24.3,20.4
			C-525.1-4.3-534.2-15.2-533.1-27.5"/>
		<path class="st4" d="M-525.7-26.8c-0.7,8.2,5.4,15.5,13.6,16.2c8.2,0.7,15.4-5.4,16.2-13.6c0.7-8.3-5.3-15.5-13.5-16.3
			C-517.6-41.2-524.9-35.1-525.7-26.8"/>
		<path class="st16" d="M-520.1-26.4c0.5-5.1,5-8.9,10.1-8.5c5.1,0.5,8.9,5,8.5,10.1c-0.5,5.1-5,8.9-10.1,8.5
			C-516.7-16.7-520.5-21.2-520.1-26.4"/>
		<path class="st4" d="M-507-25.2c-0.2,2.1-2,3.7-4.2,3.5c-2.1-0.2-3.7-2-3.5-4.2c0.2-2.1,2-3.7,4.2-3.5
			C-508.3-29.2-506.8-27.3-507-25.2z"/>
	</g>
	<line class="st17" x1="-552.1" y1="-25.8" x2="-493.4" y2="-25.5"/>
	<line class="st17" x1="-510.8" y1="15.9" x2="-510.4" y2="-69.1"/>
	<rect x="-497.1" y="-62.6" class="st18" width="32.5" height="74.6"/>
	<rect x="-493.4" y="-54.3" style="display:inline;fill:none;" width="198.9" height="26.6"/>
	<text transform="matrix(1 0 0 1 -493.4009 -28.4457)" class="st7" style="display:inline;fill:#7FAD18; font-size:36.2496px;">BigData</text>
	<text transform="matrix(1 0 0 1 -493.3999 3.6153)" class="st7" style="display:inline;fill:#19191E; font-size:36.2496px;">Insider</text>
</g>
</svg>
