<?xml version="1.0" encoding="utf-8"?>
<!-- Generator: Adobe Illustrator 22.1.0, SVG Export Plug-In . SVG Version: 6.00 Build 0)  -->
<!DOCTYPE svg PUBLIC "-//W3C//DTD SVG 1.1//EN" "http://www.w3.org/Graphics/SVG/1.1/DTD/svg11.dtd">
<svg version="1.1" id="Ebene_1" xmlns="http://www.w3.org/2000/svg" xmlns:xlink="http://www.w3.org/1999/xlink" x="0px" y="0px"
	 viewBox="0 0 212 46" style="enable-background:new 0 0 212 46;" xml:space="preserve">
<style type="text/css">
	.st0{fill:#676767;}
</style>
<g>
	<path class="st0" d="M209.2,26.5c-0.9-0.2-1.1-0.3-1.1-0.7l0,0c0-0.3,0.2-0.4,0.7-0.4s0.9,0.2,1.4,0.5l0.6-0.9
		c-0.5-0.4-1.2-0.7-1.9-0.7c-1.1,0-1.8,0.6-1.8,1.6l0,0c0,1,0.7,1.3,1.7,1.6c0.9,0.2,1.1,0.4,1.1,0.7l0,0c0,0.3-0.3,0.5-0.8,0.5
		c-0.6,0-1.1-0.3-1.6-0.6l-0.7,0.8c0.6,0.5,1.4,0.8,2.2,0.8c1.1,0,1.9-0.6,1.9-1.6l0,0C210.9,27.1,210.3,26.7,209.2,26.5z"/>
	<path class="st0" d="M51.6,18.3L51.6,18.3c-0.1-0.3-0.3-0.4-0.5-0.5l-1.6,0c-1.2,0-1.8-0.4-2.6-0.8c-0.4-0.2-0.9-0.5-1.5-0.8
		c-0.9-0.4-1.8-0.4-2.8-0.2l-5.9,1.5l-4-13.5l-0.5,0.3C29,6.7,27,10.1,26.7,14L16.5,3.7l-0.1-0.1l-0.3,0.5c-3,5.9-2.1,13.2,2.3,18.2
		L1.3,26.7l-0.2,0l2.6,1.4c4.8,2.6,9.2,5.9,13.1,9.8l0.3,0.3l0.3-0.2c8-6.1,16.8-11.3,26-15.4l7.8-3.5
		C51.5,18.9,51.7,18.6,51.6,18.3z M20,22.8l0.1,0l-0.5-0.5c-4.4-4.5-5.6-11.4-2.9-17.1l14.7,14.7l0,0l11.3-3
		c0.8-0.2,1.5-0.1,2.2,0.1c0.6,0.3,1.1,0.5,1.5,0.7c0.8,0.5,1.5,0.9,3,0.9h0.4l-6.7,3C34,25.8,25.3,31,17.3,37
		c-3.9-3.8-8.3-7-13.1-9.6L3.5,27L20,22.8z M31.7,18.9l-4.1-4.1c0-3.6,1.8-7.1,4.6-9.2l3.6,12.3L31.7,18.9z"/>
	<polygon class="st0" points="60.9,34.3 57.2,24.3 53.7,24.3 59.5,38.6 62.3,38.6 68,24.3 64.6,24.3 	"/>
	<path class="st0" d="M76.3,24c-4.4,0-7.6,3.3-7.6,7.4v0c0,4.1,3.1,7.3,7.6,7.3c4.4,0,7.6-3.3,7.6-7.4v0C83.9,27.3,80.7,24,76.3,24z
		 M80.6,31.4c0,2.4-1.8,4.5-4.3,4.5c-2.5,0-4.3-2-4.3-4.5v0c0-2.4,1.8-4.5,4.3-4.5C78.8,26.9,80.6,28.9,80.6,31.4L80.6,31.4z"/>
	<path class="st0" d="M93.4,33h3.1v2c-0.8,0.6-1.8,0.8-3,0.8c-2.5,0-4.3-1.9-4.3-4.5v0c0-2.4,1.8-4.5,4.1-4.5c1.6,0,2.6,0.5,3.7,1.5
		l2-2.4c-1.5-1.3-3-2-5.6-2c-4.3,0-7.5,3.3-7.5,7.4v0c0,4.2,3.1,7.3,7.5,7.3c2.6,0,4.6-1,6.1-2.3v-6.2h-6.2L93.4,33L93.4,33z"/>
	<polygon class="st0" points="105.8,32.8 112.5,32.8 112.5,30 105.8,30 105.8,27 113.4,27 113.4,24.3 102.6,24.3 102.6,38.6 
		113.5,38.6 113.5,35.7 105.8,35.7 	"/>
	<polygon class="st0" points="119.4,24.3 116.3,24.3 116.3,38.6 126.5,38.6 126.5,35.7 119.4,35.7 	"/>
	<path class="st0" d="M133.2,29.7c1,0,1.6-0.4,2.2-1l-0.7-0.7c-0.4,0.4-0.8,0.6-1.4,0.6c-0.9,0-1.5-0.7-1.5-1.6l0,0
		c0-0.9,0.6-1.6,1.5-1.6c0.5,0,1,0.2,1.4,0.6l0.7-0.8c-0.5-0.5-1.1-0.8-2-0.8c-1.6,0-2.7,1.2-2.7,2.7l0,0
		C130.5,28.5,131.6,29.7,133.2,29.7z"/>
	<path class="st0" d="M139.2,24.3c-1.6,0-2.8,1.2-2.8,2.7l0,0c0,1.5,1.2,2.7,2.8,2.7c1.6,0,2.8-1.2,2.8-2.7l0,0
		C142,25.5,140.8,24.3,139.2,24.3z M140.8,27c0,0.9-0.7,1.6-1.6,1.6s-1.6-0.7-1.6-1.6l0,0c0-0.9,0.7-1.6,1.6-1.6
		C140.1,25.3,140.8,26.1,140.8,27L140.8,27z"/>
	<polygon class="st0" points="146.2,26.6 144.8,24.3 143.6,24.3 143.6,29.6 144.7,29.6 144.7,26.2 146.2,28.4 146.2,28.4 
		147.7,26.2 147.7,29.6 148.8,29.6 148.8,24.3 147.5,24.3 	"/>
	<polygon class="st0" points="153.2,26.6 151.8,24.3 150.6,24.3 150.6,29.6 151.7,29.6 151.7,26.2 153.2,28.4 153.2,28.4 
		154.7,26.2 154.7,29.6 155.8,29.6 155.8,24.3 154.6,24.3 	"/>
	<path class="st0" d="M161,27.3c0,0.8-0.4,1.2-1.1,1.2s-1.1-0.4-1.1-1.3v-3h-1.1v3c0,1.5,0.8,2.3,2.3,2.3s2.3-0.8,2.3-2.4v-3H161
		L161,27.3L161,27.3z"/>
	<polygon class="st0" points="167.4,27.6 164.9,24.3 163.9,24.3 163.9,29.6 165,29.6 165,26.2 167.5,29.6 168.5,29.6 168.5,24.3 
		167.4,24.3 	"/>
	<rect x="170.4" y="24.3" class="st0" width="1.2" height="5.2"/>
	<path class="st0" d="M175.9,28.6c-0.9,0-1.5-0.7-1.5-1.6l0,0c0-0.9,0.6-1.6,1.5-1.6c0.5,0,1,0.2,1.4,0.6l0.7-0.8
		c-0.5-0.5-1.1-0.8-2-0.8c-1.6,0-2.7,1.2-2.7,2.7l0,0c0,1.5,1.1,2.7,2.7,2.7c1,0,1.6-0.4,2.2-1l-0.7-0.7
		C176.8,28.4,176.5,28.6,175.9,28.6z"/>
	<path class="st0" d="M181.3,24.3l-2.2,5.3h1.2l0.5-1.2h2.2l0.5,1.2h1.2l-2.2-5.3H181.3z M181.1,27.4l0.7-1.7l0.7,1.7H181.1z"/>
	<polygon class="st0" points="184.9,25.4 186.4,25.4 186.4,29.6 187.6,29.6 187.6,25.4 189.2,25.4 189.2,24.3 184.9,24.3 	"/>
	<rect x="190.7" y="24.3" class="st0" width="1.1" height="5.2"/>
	<path class="st0" d="M196.3,24.3c-1.6,0-2.8,1.2-2.8,2.7l0,0c0,1.5,1.2,2.7,2.8,2.7c1.6,0,2.8-1.2,2.8-2.7l0,0
		C199.1,25.5,197.9,24.3,196.3,24.3z M197.9,27c0,0.9-0.7,1.6-1.6,1.6c-0.9,0-1.6-0.7-1.6-1.6l0,0c0-0.9,0.7-1.6,1.6-1.6
		C197.2,25.3,197.9,26.1,197.9,27L197.9,27z"/>
	<polygon class="st0" points="204.1,27.6 201.7,24.3 200.6,24.3 200.6,29.6 201.8,29.6 201.8,26.2 204.3,29.6 205.3,29.6 
		205.3,24.3 204.1,24.3 	"/>
	<path class="st0" d="M133.2,36.5h1.2v0.7c-0.3,0.2-0.7,0.3-1.1,0.3c-0.9,0-1.6-0.7-1.6-1.6l0,0c0-0.9,0.7-1.6,1.5-1.6
		c0.6,0,1,0.2,1.4,0.5l0.7-0.9c-0.5-0.5-1.1-0.7-2-0.7c-1.6,0-2.7,1.2-2.7,2.7l0,0c0,1.5,1.1,2.7,2.7,2.7c1,0,1.7-0.4,2.2-0.8v-2.3
		h-2.3L133.2,36.5L133.2,36.5z"/>
	<path class="st0" d="M141.5,35.1L141.5,35.1c0-0.5-0.1-0.9-0.4-1.2c-0.3-0.3-0.9-0.5-1.5-0.5h-2.4v5.2h1.2v-1.7h0.9l0,0l1.1,1.7
		h1.4l-1.3-1.9C141,36.4,141.5,35.9,141.5,35.1z M140.3,35.1c0,0.4-0.3,0.7-0.9,0.7h-1.2v-1.5h1.1C140,34.4,140.3,34.6,140.3,35.1
		L140.3,35.1z"/>
	<path class="st0" d="M145.6,33.2c-1.6,0-2.8,1.2-2.8,2.7l0,0c0,1.5,1.2,2.7,2.8,2.7c1.6,0,2.8-1.2,2.8-2.7l0,0
		C148.4,34.4,147.3,33.2,145.6,33.2z M147.2,35.9c0,0.9-0.7,1.6-1.6,1.6s-1.6-0.7-1.6-1.6l0,0c0-0.9,0.7-1.6,1.6-1.6
		S147.2,35,147.2,35.9L147.2,35.9z"/>
	<path class="st0" d="M153.3,36.3c0,0.8-0.4,1.2-1.1,1.2c-0.7,0-1.1-0.4-1.1-1.3v-3h-1.1v3c0,1.5,0.8,2.3,2.3,2.3
		c1.4,0,2.3-0.8,2.3-2.4v-3h-1.2L153.3,36.3L153.3,36.3z"/>
	<path class="st0" d="M158.4,33.3h-2.1v5.2h1.2V37h0.9c1.2,0,2.1-0.6,2.1-1.8l0,0C160.3,34.1,159.6,33.3,158.4,33.3z M159.2,35.2
		c0,0.4-0.3,0.8-0.9,0.8h-0.9v-1.6h0.9C158.8,34.4,159.2,34.6,159.2,35.2L159.2,35.2z"/>
</g>
</svg>
