<svg xmlns="http://www.w3.org/2000/svg" width="120" height="120" viewBox="0 0 120 120"><title>nav-illo_on-demand-events_120</title><g id="Illustrations"><path d="M83,81.46H97.62V67.19h-.89A10.61,10.61,0,0,1,86.21,56.42,10.49,10.49,0,0,1,96.73,45.79h.89V31.53H1.32V45.79h.9A10.49,10.49,0,0,1,12.73,56.42,10.61,10.61,0,0,1,2.22,67.19h-.9V81.46h32.5" style="fill:none;stroke:#aab7b8;stroke-miterlimit:10;stroke-width:2px"/><polygon points="47.72 53.7 43.41 88.74 53.99 84.03 61.61 100.77 74.76 94.91 67.14 78.18 76.92 73.83 47.72 53.7" style="fill:none;stroke:#aab7b8;stroke-miterlimit:10;stroke-width:2px"/><line x1="41.02" y1="38.47" x2="45.93" y2="49.46" style="fill:none;stroke:#aab7b8;stroke-miterlimit:10;stroke-width:2px"/><line x1="27.94" y1="58.38" x2="39.69" y2="58.01" style="fill:none;stroke:#aab7b8;stroke-miterlimit:10;stroke-width:2px"/><line x1="64.57" y1="42" x2="56.44" y2="50.57" style="fill:none;stroke:#aab7b8;stroke-miterlimit:10;stroke-width:2px"/></g></svg>