<svg xmlns="http://www.w3.org/2000/svg" width="120" height="120" viewBox="0 0 120 120"><title>nav-illo_in-person-events_120</title><g id="Illustrations"><path d="M34.26,29.57a15,15,0,1,1,15,15,15,15,0,0,1-15-15" style="fill:none;stroke:#aab7b8;stroke-miterlimit:10;stroke-width:2px"/><path d="M23.35,71.83H75.07A27.58,27.58,0,0,0,62.46,48.41a24.77,24.77,0,0,0-13.25-3.85C34.93,44.56,23.35,56.77,23.35,71.83Z" style="fill:none;stroke:#aab7b8;stroke-miterlimit:10;stroke-width:2px"/><path d="M25.21,32.47H1.12V46.72H2A10.47,10.47,0,0,1,12.52,57.33,10.6,10.6,0,0,1,2,68.09H1.12V82.34H97.3V68.09h-.89a10.59,10.59,0,0,1-10.5-10.76,10.47,10.47,0,0,1,10.5-10.61h.89V32.47H71.88" style="fill:none;stroke:#aab7b8;stroke-miterlimit:10;stroke-width:2px"/></g></svg>