<svg width="375" height="396" viewBox="0 0 375 396" fill="none" xmlns="http://www.w3.org/2000/svg">
<g filter="url(#filter0_d)">
<path d="M174.235 34.813V357.283M313.868 115.43L34.6016 276.665M313.868 276.665L34.6016 115.43" stroke="#0078D4" stroke-width="1.5"/>
</g>
<circle cx="38.5087" cy="112.26" r="37.7499" fill="url(#paint0_radial)"/>
<circle cx="172.948" cy="46.0366" r="42.0862" fill="url(#paint1_radial)"/>
<circle cx="307.41" cy="121.502" r="40.629" fill="url(#paint2_radial)"/>
<circle cx="326.44" cy="289.246" r="48.5601" fill="url(#paint3_radial)"/>
<circle cx="173.016" cy="352.283" r="42.7668" fill="url(#paint4_radial)"/>
<circle cx="41.9704" cy="268.417" r="37.2248" fill="url(#paint5_radial)"/>
<path d="M143.364 339.37L174.739 321.224L205.881 339.019L174.505 357.283L143.364 339.37Z" fill="#50E6FF"/>
<path d="M174.504 357.283L174.27 393.224L205.646 375.078L205.88 339.136L174.504 357.283Z" fill="#0078D4"/>
<path d="M143.363 339.37V375.312L174.153 393.107L174.388 357.166L143.363 339.37Z" fill="#1E9FE0"/>
<path d="M174.271 357.166V327.663L200.028 342.414L199.91 372.034L174.271 357.166Z" fill="#84ECFD"/>
<path d="M174.273 357.166L149.219 372.034V342.532L174.273 327.663V357.166Z" fill="#ACF3FD"/>
<path d="M199.91 372.034L174.154 386.785L149.218 372.034L174.271 357.166L199.91 372.034Z" fill="#D5F9FD"/>
<g opacity="0.35">
<path opacity="0.35" d="M185.16 365.946C189.726 368.522 189.726 372.853 185.16 375.429C180.594 378.005 173.218 378.005 168.77 375.429C164.204 372.853 164.204 368.522 168.77 365.946C173.218 363.253 180.594 363.253 185.16 365.946Z" fill="url(#paint6_linear)"/>
</g>
<path d="M184.222 368.405V370.161C184.222 371.566 183.285 372.971 181.412 374.141C177.666 376.366 171.578 376.366 167.715 374.141C165.841 373.088 164.905 371.566 164.905 370.161V368.405C164.905 369.81 165.841 371.332 167.715 372.385C171.461 374.61 177.549 374.61 181.412 372.385C183.285 371.332 184.222 369.927 184.222 368.405Z" fill="#E6E6E6"/>
<path d="M184.572 349.79V368.522C184.572 370.044 183.636 371.449 181.645 372.619C177.782 374.844 171.343 374.844 167.48 372.619C165.489 371.449 164.553 369.927 164.553 368.522V349.79C164.553 351.312 165.489 352.834 167.48 353.888C171.46 356.112 177.782 356.112 181.645 353.888C183.636 352.834 184.572 351.312 184.572 349.79Z" fill="url(#paint7_linear)"/>
<path d="M184.572 350.258V352.132C184.572 353.654 183.636 355.058 181.645 356.229C177.782 358.454 171.343 358.454 167.48 356.229C165.489 355.058 164.553 353.536 164.553 352.132V350.258C164.553 351.78 165.489 353.302 167.48 354.356C171.46 356.58 177.782 356.58 181.645 354.356C183.636 353.302 184.572 351.78 184.572 350.258Z" fill="#E6E6E6"/>
<path d="M181.647 346.512C185.628 348.736 185.628 352.483 181.647 354.707C177.784 356.931 171.345 356.931 167.481 354.707C163.501 352.483 163.501 348.736 167.481 346.512C171.345 344.287 177.667 344.287 181.647 346.512Z" fill="white"/>
<path d="M179.891 347.566C182.935 349.322 182.935 352.132 179.891 353.888C176.848 355.644 172.048 355.644 169.004 353.888C165.96 352.132 165.96 349.322 169.004 347.566C172.048 345.81 176.965 345.81 179.891 347.566Z" fill="#E6E6E6"/>
<path opacity="0.75" d="M146.892 20.4347L174.622 4.25903L202.352 20.1915L174.622 36.3672L146.892 20.4347Z" fill="#1E9FE0"/>
<path opacity="0.5" d="M146.648 52.4209L174.621 36.2452L201.986 52.1777L174.257 68.3534L146.648 52.4209Z" fill="#50E6FF"/>
<path opacity="0.5" d="M174.5 36.2454L174.257 68.2319L201.987 52.0562L202.23 20.0697L174.5 36.2454Z" fill="#50E6FF"/>
<path opacity="0.5" d="M146.892 20.4347L146.648 52.4212L174.621 36.2455V4.25903L146.892 20.4347Z" fill="#50E6FF"/>
<path d="M206.366 19.9481C206.366 17.8805 204.663 16.2994 202.717 16.2994C200.65 16.2994 199.069 18.0021 199.069 19.9481C199.069 21.894 200.772 23.5967 202.717 23.5967C204.663 23.5967 206.366 22.0157 206.366 19.9481Z" fill="#50E6FF"/>
<path d="M177.906 3.65085C177.906 1.58328 176.203 0.00219727 174.257 0.00219727C172.311 0.00219727 170.608 1.7049 170.608 3.65085C170.608 5.71841 172.311 7.29949 174.257 7.29949C176.203 7.29949 177.906 5.71841 177.906 3.65085Z" fill="#50E6FF"/>
<path d="M149.568 20.1913C149.568 18.1237 147.866 16.5426 145.92 16.5426C143.852 16.5426 142.271 18.2453 142.271 20.1913C142.271 22.1372 143.974 23.8399 145.92 23.8399C147.987 23.8399 149.568 22.2588 149.568 20.1913Z" fill="#50E6FF"/>
<path d="M177.906 36.2453C177.906 34.1778 176.203 32.5967 174.257 32.5967C172.311 32.5967 170.608 34.2994 170.608 36.2453C170.608 38.3129 172.311 39.894 174.257 39.894C176.203 39.894 177.906 38.3129 177.906 36.2453Z" fill="#50E6FF"/>
<path d="M206.366 52.5427C206.366 50.4751 204.663 48.894 202.717 48.894C200.65 48.894 199.069 50.5967 199.069 52.5427C199.069 54.6103 200.772 56.1913 202.717 56.1913C204.663 56.1913 206.366 54.4886 206.366 52.5427Z" fill="#50E6FF"/>
<path d="M177.664 68.3536C177.664 66.4077 176.083 64.705 174.016 64.705C172.07 64.705 170.367 66.286 170.367 68.3536C170.367 70.2995 171.948 72.0023 174.016 72.0023C175.962 71.8806 177.664 70.2995 177.664 68.3536Z" fill="#50E6FF"/>
<path d="M149.568 52.5427C149.568 50.4751 147.866 48.894 145.92 48.894C143.852 48.894 142.271 50.5967 142.271 52.5427C142.271 54.6103 143.974 56.1913 145.92 56.1913C147.987 56.1913 149.568 54.4886 149.568 52.5427Z" fill="#50E6FF"/>
<path opacity="0.75" d="M1.5625 272.491L1.81088 271.125L19.6934 247.281L48.7526 243.307L49.2493 268.268L1.5625 295.837V272.491Z" fill="#505055" stroke="white" stroke-width="0.773344" stroke-miterlimit="10" stroke-linejoin="round"/>
<path opacity="0.8" d="M10.2549 281.059L24.0394 259.948L38.9415 248.274L55.458 251.131L55.2097 274.602L10.2549 300.68V281.059Z" fill="#0078D4" stroke="#50E6FF" stroke-width="0.773344" stroke-miterlimit="10" stroke-linejoin="round"/>
<path d="M20.4375 284.785L27.516 269.758L39.0652 271.745L52.8496 259.079L66.1374 246.66L66.6341 279.942L20.4375 306.641V284.785Z" fill="#50E6FF" fill-opacity="0.8" stroke="#50E6FF" stroke-width="0.773344" stroke-miterlimit="10" stroke-linejoin="round"/>
<path d="M306.289 229.729L306.442 248.366L287.652 290.987C287.652 290.987 286.736 303.209 312.095 303.209C337.606 303.209 339.439 291.598 339.134 290.376C338.981 289.154 320.191 248.213 320.191 248.213L320.497 229.423C320.497 229.423 317.136 226.215 313.164 226.521C309.345 226.826 305.984 228.201 306.289 229.729Z" fill="url(#paint8_linear)"/>
<path d="M327.525 269.295C327.372 268.989 327.22 268.684 327.22 268.531C325.845 265.629 320.345 263.337 313.623 263.337C306.444 263.337 300.638 266.087 299.722 269.295C299.722 269.448 291.625 288.238 291.473 289.002C291.473 289.307 291.32 289.613 291.32 289.918C291.32 295.723 301.25 300.459 313.623 300.459C325.997 300.459 335.927 295.723 335.927 289.918C335.927 289.765 335.927 289.154 335.622 288.391C333.789 283.655 327.525 269.295 327.525 269.295Z" fill="url(#paint9_linear)"/>
<path d="M313.623 300.459C325.941 300.459 335.927 295.74 335.927 289.918C335.927 284.097 325.941 279.377 313.623 279.377C301.305 279.377 291.32 284.097 291.32 289.918C291.32 295.74 301.305 300.459 313.623 300.459Z" fill="#0078D4"/>
<path d="M313.622 276.475C321.3 276.475 327.524 273.534 327.524 269.906C327.524 266.278 321.3 263.337 313.622 263.337C305.945 263.337 299.721 266.278 299.721 269.906C299.721 273.534 305.945 276.475 313.622 276.475Z" fill="#0078D4"/>
<path d="M313.622 226.521C308.581 226.521 306.29 228.354 306.29 229.881C306.29 231.562 310.109 232.784 313.622 232.784C317.136 232.784 320.955 231.409 320.955 229.881C320.955 228.354 319.58 226.521 313.622 226.521ZM313.622 231.715C310.872 231.715 307.664 230.645 307.664 229.423C307.664 228.201 310.872 227.132 313.622 227.132C316.372 227.132 319.58 228.201 319.58 229.423C319.427 230.645 316.219 231.715 313.622 231.715Z" fill="#50E6FF"/>
<path d="M321.566 289.154H305.373V290.071H321.566V289.154Z" fill="white"/>
<path d="M317.442 267.767H309.651V268.684H317.442V267.767Z" fill="white"/>
<path d="M318.51 274.947H308.58V275.863H318.51V274.947Z" fill="white"/>
<path d="M319.582 281.974H307.514V282.891H319.582V281.974Z" fill="white"/>
<path d="M313.776 259.823C315.885 259.823 317.595 258.113 317.595 256.004C317.595 253.895 315.885 252.185 313.776 252.185C311.667 252.185 309.957 253.895 309.957 256.004C309.957 258.113 311.667 259.823 313.776 259.823Z" fill="#50E6FF" fill-opacity="0.6" stroke="#50E6FF" stroke-width="2.02486" stroke-linejoin="round"/>
<path d="M20.7827 113.748L21.4077 149.123L63.1578 124.373L62.5328 88.8726L20.7827 113.748Z" fill="#185A97"/>
<path d="M20.7837 113.748L12.0337 108.748L12.6587 144.248L21.4087 149.123L20.7837 113.748Z" fill="#0078D4"/>
<path d="M62.5348 88.8726L53.7847 83.8726L12.0347 108.748L20.7847 113.748L62.5348 88.8726Z" fill="#2195DC"/>
<path d="M43.0313 84.6229L41.4063 83.6229L39.5312 87.3729L41.0313 88.3729L43.0313 84.6229Z" fill="#A1F6FF"/>
<path d="M53.7847 78.1228L52.2847 77.1228L41.4097 83.6228L43.0347 84.6228L53.7847 78.1228Z" fill="#CCFDFF"/>
<path d="M43.0342 84.6228L41.0342 88.3728L15.4092 103.498L15.5342 109.123L53.9092 86.2478L53.7842 78.1228L43.0342 84.6228Z" fill="#50E6FF"/>
<path d="M41.0328 88.3729L39.5327 87.3729L13.9077 102.498L15.4077 103.498L41.0328 88.3729Z" fill="#CCFDFF"/>
<path d="M15.4077 103.498L13.9077 102.498V107.998L15.5327 109.123L15.4077 103.498Z" fill="#A1F6FF"/>
<path d="M45.7832 86.2482L44.2832 85.2482L42.2832 88.8732L43.7832 89.8732L45.7832 86.2482Z" fill="#A1F6FF"/>
<path d="M56.6597 79.748L55.1597 78.748L44.2847 85.248L45.7846 86.2481L56.6597 79.748Z" fill="#CCFDFF"/>
<path d="M45.7827 86.2481L43.7828 89.8731L18.2827 104.998V110.623L56.7828 87.7481L56.6578 79.748L45.7827 86.2481Z" fill="#50E6FF"/>
<path d="M43.7828 89.8729L42.2827 88.8729L16.7827 103.998L18.2827 104.998L43.7828 89.8729Z" fill="#CCFDFF"/>
<path d="M18.2827 104.998L16.7827 103.998V109.623L18.2827 110.623V104.998Z" fill="#A1F6FF"/>
<path d="M48.6592 87.7477L47.1592 86.7477L45.1592 90.3727L46.6592 91.3727L48.6592 87.7477Z" fill="#A1F6FF"/>
<path d="M59.5347 81.2476L58.0347 80.2476L47.1597 86.7476L48.6597 87.7476L59.5347 81.2476Z" fill="#CCFDFF"/>
<path d="M48.6607 87.7477L46.6607 91.3727L21.0356 106.498L21.1607 112.123L59.6607 89.2477L59.5357 81.2477L48.6607 87.7477Z" fill="#50E6FF"/>
<path d="M46.6607 91.3724L45.1607 90.3724L19.5356 105.497L21.0357 106.497L46.6607 91.3724Z" fill="#CCFDFF"/>
<path d="M21.0357 106.497L19.5356 105.497L19.6607 111.122L21.1607 112.122L21.0357 106.497Z" fill="#A1F6FF"/>
<path d="M45.0332 109.873C42.9082 111.123 41.2832 114.123 41.2832 116.623V116.748C41.2832 118.373 42.1582 119.373 43.2832 119.373L43.4082 123.748C43.4082 124.998 44.2832 125.373 45.4082 124.748C46.5332 124.123 47.2832 122.623 47.2832 121.373L47.1582 116.998C48.2832 115.498 49.0332 113.623 49.0332 111.998V111.873C49.0332 109.498 47.2832 108.623 45.0332 109.873Z" fill="#50E6FF"/>
<path d="M314.426 118.532L314.306 154.472L283.054 136.442L283.174 100.502L314.426 118.532Z" fill="#243A5E"/>
<path d="M314.427 118.532L344.838 100.502L344.717 136.442L314.307 154.472L314.427 118.532Z" fill="#1D4A79"/>
<path d="M283.174 100.502L313.585 82.4719L344.837 100.502L314.426 118.532L283.174 100.502Z" fill="#156AB3"/>
<path d="M313.586 118.412L313.707 89.8041L338.588 104.108L338.468 132.716L313.586 118.412Z" fill="#84ECFD"/>
<path d="M313.586 118.412L289.306 132.836L289.426 104.108L313.706 89.8042L313.586 118.412Z" fill="#ACF3FD"/>
<path d="M338.467 132.716L314.186 147.14L289.305 132.836L313.585 118.412L338.467 132.716Z" fill="#D5F9FD"/>
<path opacity="0.35" d="M327.288 129.59L310.46 139.447L316.35 142.933L333.178 133.076L327.288 129.59Z" fill="url(#paint10_linear)"/>
<path d="M305.771 106.752L317.791 99.7808L317.912 124.422L300.963 134.158V114.806L305.771 112.041V106.752Z" fill="#45CAF2"/>
<path d="M305.771 106.752L303.487 105.43L303.607 110.719L305.771 111.921V106.752Z" fill="#0078D4"/>
<path d="M317.791 99.7809L315.627 98.5789L303.487 105.43L305.771 106.752L317.791 99.7809Z" fill="#6ED5ED"/>
<path d="M305.772 106.752L303.488 105.43L298.68 113.484L300.964 114.686L305.772 106.752Z" fill="#50E6FF"/>
<path d="M300.964 114.686L298.68 113.484L298.8 132.836L300.964 134.158V114.686Z" fill="#32B0E7"/>
<path d="M305.771 106.752L300.963 114.686L305.771 111.921V106.752Z" fill="#84ECFD"/>
<path d="M311.42 109.878L323.44 102.906L323.561 127.547L306.612 137.283V117.931L311.42 115.167V109.878Z" fill="#0078D4"/>
<path d="M311.42 109.878L309.136 108.556V113.724L311.42 115.046V109.878Z" fill="#0078D4"/>
<path d="M323.44 102.906L321.156 101.584L309.136 108.556L311.42 109.878L323.44 102.906Z" fill="#32B0E7"/>
<path d="M311.421 109.878L309.138 108.556L304.33 116.489L306.613 117.811L311.421 109.878Z" fill="#1E9FE0"/>
<path d="M306.613 117.811L304.33 116.489L304.45 135.961L306.613 137.163V117.811Z" fill="#156AB3"/>
<path d="M311.42 109.878L306.612 117.811L311.42 115.046V109.878Z" fill="#32B0E7"/>
<path d="M316.95 113.123L328.97 106.151L329.09 130.792L312.142 140.529V121.176L316.95 118.412V113.123Z" fill="#243A5E"/>
<path d="M316.111 121.056V122.499L325.967 116.849V115.407L316.111 121.056Z" fill="#0078D4"/>
<path d="M316.111 123.821V125.263L325.967 119.494V118.171L316.111 123.821Z" fill="#0078D4"/>
<path d="M316.111 126.465V127.787L325.967 122.138V120.696L316.111 126.465Z" fill="#0078D4"/>
<path d="M316.95 113.123L314.787 111.921V117.09L316.95 118.412V113.123Z" fill="#0078D4"/>
<path d="M328.97 106.272L326.807 104.949L314.787 111.921L316.95 113.123L328.97 106.272Z" fill="#185A97"/>
<path d="M316.951 113.123L314.787 111.921L309.859 119.854L312.143 121.176L316.951 113.123Z" fill="#156AB3"/>
<path d="M312.143 121.176L309.859 119.854L309.979 139.206L312.143 140.529V121.176Z" fill="#1D4A79"/>
<path d="M316.95 113.123L312.142 121.176L316.95 118.412V113.123Z" fill="#0078D4"/>
<ellipse cx="174.563" cy="190.259" rx="96.7849" ry="69.5639" fill="url(#paint11_radial)"/>
<g filter="url(#filter1_d)">
<path d="M263 210.424C263 228.288 248.519 242.77 230.654 242.77L139.367 242.77C121.503 242.77 107.021 228.288 107.021 210.424C107.021 192.559 121.503 178.078 139.367 178.078L230.654 178.078C248.519 178.078 263 192.559 263 210.424Z" fill="#0078D4"/>
<ellipse cx="134.679" cy="194.388" rx="47.9379" ry="48.5041" transform="rotate(-90 134.679 194.388)" fill="#0078D4"/>
<ellipse cx="222.896" cy="171.814" rx="18.242" ry="18.5316" transform="rotate(-90 222.896 171.814)" fill="#0078D4"/>
<ellipse cx="183.184" cy="158.415" rx="36.5723" ry="35.9728" fill="#0078D4"/>
</g>
<path d="M263 210.424C263 228.288 248.519 242.77 230.654 242.77L139.367 242.77C121.503 242.77 107.021 228.288 107.021 210.424C107.021 192.559 121.503 178.078 139.367 178.078L230.654 178.078C248.519 178.078 263 192.559 263 210.424Z" fill="url(#paint12_linear)"/>
<ellipse cx="134.679" cy="194.388" rx="47.9379" ry="48.5041" transform="rotate(-90 134.679 194.388)" fill="url(#paint13_linear)"/>
<ellipse cx="222.896" cy="171.814" rx="18.242" ry="18.5316" transform="rotate(-90 222.896 171.814)" fill="url(#paint14_linear)"/>
<ellipse cx="183.184" cy="158.415" rx="36.5723" ry="35.9728" fill="url(#paint15_linear)"/>
<defs>
<filter id="filter0_d" x="19.2266" y="19.813" width="310.017" height="352.47" filterUnits="userSpaceOnUse" color-interpolation-filters="sRGB">
<feFlood flood-opacity="0" result="BackgroundImageFix"/>
<feColorMatrix in="SourceAlpha" type="matrix" values="0 0 0 0 0 0 0 0 0 0 0 0 0 0 0 0 0 0 127 0"/>
<feOffset/>
<feGaussianBlur stdDeviation="7.5"/>
<feColorMatrix type="matrix" values="0 0 0 0 0 0 0 0 0 0.470588 0 0 0 0 0.831373 0 0 0 0.38 0"/>
<feBlend mode="normal" in2="BackgroundImageFix" result="effect1_dropShadow"/>
<feBlend mode="normal" in="SourceGraphic" in2="effect1_dropShadow" result="shape"/>
</filter>
<filter id="filter1_d" x="71.3045" y="107.572" width="206.567" height="150.069" filterUnits="userSpaceOnUse" color-interpolation-filters="sRGB">
<feFlood flood-opacity="0" result="BackgroundImageFix"/>
<feColorMatrix in="SourceAlpha" type="matrix" values="0 0 0 0 0 0 0 0 0 0 0 0 0 0 0 0 0 0 127 0"/>
<feOffset/>
<feGaussianBlur stdDeviation="7.43541"/>
<feColorMatrix type="matrix" values="0 0 0 0 0 0 0 0 0 0.470588 0 0 0 0 0.831373 0 0 0 0.3 0"/>
<feBlend mode="normal" in2="BackgroundImageFix" result="effect1_dropShadow"/>
<feBlend mode="normal" in="SourceGraphic" in2="effect1_dropShadow" result="shape"/>
</filter>
<radialGradient id="paint0_radial" cx="0" cy="0" r="1" gradientUnits="userSpaceOnUse" gradientTransform="translate(38.5087 112.26) rotate(90) scale(37.7499)">
<stop offset="0.755208" stop-color="#1A1A1F"/>
<stop offset="1" stop-color="#1A1A1F" stop-opacity="0"/>
</radialGradient>
<radialGradient id="paint1_radial" cx="0" cy="0" r="1" gradientUnits="userSpaceOnUse" gradientTransform="translate(172.948 46.0366) rotate(90) scale(42.0862)">
<stop offset="0.755208" stop-color="#1A1A1F"/>
<stop offset="1" stop-color="#1A1A1F" stop-opacity="0"/>
</radialGradient>
<radialGradient id="paint2_radial" cx="0" cy="0" r="1" gradientUnits="userSpaceOnUse" gradientTransform="translate(307.41 121.502) rotate(90) scale(40.629)">
<stop offset="0.755208" stop-color="#1A1A1F"/>
<stop offset="1" stop-color="#1A1A1F" stop-opacity="0"/>
</radialGradient>
<radialGradient id="paint3_radial" cx="0" cy="0" r="1" gradientUnits="userSpaceOnUse" gradientTransform="translate(326.44 289.246) rotate(90) scale(48.5601)">
<stop offset="0.755208" stop-color="#1A1A1F"/>
<stop offset="1" stop-color="#1A1A1F" stop-opacity="0"/>
</radialGradient>
<radialGradient id="paint4_radial" cx="0" cy="0" r="1" gradientUnits="userSpaceOnUse" gradientTransform="translate(173.016 352.283) rotate(90) scale(42.7668)">
<stop offset="0.755208" stop-color="#1A1A1F"/>
<stop offset="1" stop-color="#1A1A1F" stop-opacity="0"/>
</radialGradient>
<radialGradient id="paint5_radial" cx="0" cy="0" r="1" gradientUnits="userSpaceOnUse" gradientTransform="translate(41.9704 268.417) rotate(90) scale(37.2248)">
<stop offset="0.755208" stop-color="#1A1A1F"/>
<stop offset="1" stop-color="#1A1A1F" stop-opacity="0"/>
</radialGradient>
<linearGradient id="paint6_linear" x1="165.309" y1="370.655" x2="188.565" y2="370.655" gradientUnits="userSpaceOnUse">
<stop/>
<stop offset="0.8221" stop-opacity="0"/>
</linearGradient>
<linearGradient id="paint7_linear" x1="174.516" y1="357.652" x2="174.516" y2="386.38" gradientUnits="userSpaceOnUse">
<stop stop-color="#4DC2EB"/>
<stop offset="0.585" stop-color="#0078D4"/>
</linearGradient>
<linearGradient id="paint8_linear" x1="313.975" y1="233.131" x2="313.414" y2="309.432" gradientUnits="userSpaceOnUse">
<stop offset="0.0185096" stop-color="#0078D4"/>
<stop offset="0.5806" stop-color="#50E6FF"/>
</linearGradient>
<linearGradient id="paint9_linear" x1="328.296" y1="267.911" x2="298.113" y2="303.421" gradientUnits="userSpaceOnUse">
<stop offset="0.0185096" stop-color="#0078D4"/>
<stop offset="0.8607" stop-color="#2BB2EB"/>
<stop offset="1" stop-color="#3FCEF6"/>
</linearGradient>
<linearGradient id="paint10_linear" x1="319.19" y1="132.043" x2="327.015" y2="140.684" gradientUnits="userSpaceOnUse">
<stop/>
<stop offset="0.8221" stop-opacity="0"/>
</linearGradient>
<radialGradient id="paint11_radial" cx="0" cy="0" r="1" gradientUnits="userSpaceOnUse" gradientTransform="translate(174.563 190.259) rotate(90) scale(69.5639 96.7849)">
<stop offset="0.755208" stop-color="#1A1A1F"/>
<stop offset="1" stop-color="#1A1A1F" stop-opacity="0"/>
</radialGradient>
<linearGradient id="paint12_linear" x1="185.011" y1="242.77" x2="185.011" y2="178.078" gradientUnits="userSpaceOnUse">
<stop stop-color="#50E6FF"/>
<stop offset="1" stop-color="#50E6FF" stop-opacity="0"/>
</linearGradient>
<linearGradient id="paint13_linear" x1="134.679" y1="145.884" x2="134.679" y2="242.892" gradientUnits="userSpaceOnUse">
<stop stop-color="#50E6FF"/>
<stop offset="1" stop-color="#50E6FF" stop-opacity="0"/>
</linearGradient>
<linearGradient id="paint14_linear" x1="222.896" y1="153.283" x2="222.896" y2="190.346" gradientUnits="userSpaceOnUse">
<stop stop-color="#50E6FF"/>
<stop offset="1" stop-color="#50E6FF" stop-opacity="0"/>
</linearGradient>
<linearGradient id="paint15_linear" x1="183.184" y1="122.442" x2="183.184" y2="194.388" gradientUnits="userSpaceOnUse">
<stop stop-color="#50E6FF"/>
<stop offset="1" stop-color="#50E6FF" stop-opacity="0"/>
</linearGradient>
</defs>
</svg>
