<svg width="85" height="64" viewBox="0 0 85 64" fill="none" xmlns="http://www.w3.org/2000/svg">
<path fill-rule="evenodd" clip-rule="evenodd" d="M0.664062 63.2695H84.6641V8.14453H0.664062V63.2695Z" fill="#0078D4"/>
<path fill-rule="evenodd" clip-rule="evenodd" d="M0.664062 8.14453H84.6556V0.269531H0.664062V8.14453Z" fill="#50E6FF"/>
<path fill-rule="evenodd" clip-rule="evenodd" d="M5.89844 4.20703C5.89844 4.93153 5.31109 5.51953 4.58594 5.51953C3.86144 5.51953 3.27344 4.93153 3.27344 4.20703C3.27344 3.48253 3.86144 2.89453 4.58594 2.89453C5.31109 2.89453 5.89844 3.48253 5.89844 4.20703Z" fill="#0078D4"/>
<path fill-rule="evenodd" clip-rule="evenodd" d="M9.83594 4.20703C9.83594 4.93153 9.24859 5.51953 8.52344 5.51953C7.79894 5.51953 7.21094 4.93153 7.21094 4.20703C7.21094 3.48253 7.79894 2.89453 8.52344 2.89453C9.24859 2.89453 9.83594 3.48253 9.83594 4.20703Z" fill="#0078D4"/>
<path fill-rule="evenodd" clip-rule="evenodd" d="M13.7734 4.20703C13.7734 4.93153 13.186 5.51953 12.4609 5.51953C11.7364 5.51953 11.1484 4.93153 11.1484 4.20703C11.1484 3.48253 11.7364 2.89453 12.4609 2.89453C13.186 2.89453 13.7734 3.48253 13.7734 4.20703Z" fill="#0078D4"/>
<path fill-rule="evenodd" clip-rule="evenodd" d="M5.89844 44.9556H26.8984V23.9556H5.89844V44.9556Z" fill="white"/>
<path fill-rule="evenodd" clip-rule="evenodd" d="M68.8984 44.9556C63.0998 44.9556 58.3984 40.2549 58.3984 34.4556C58.3984 28.6569 63.0998 23.9556 68.8984 23.9556C74.6977 23.9556 79.3984 28.6569 79.3984 34.4556C79.3984 40.2549 74.6977 44.9556 68.8984 44.9556Z" fill="white"/>
<path fill-rule="evenodd" clip-rule="evenodd" d="M34.7734 23.9556V44.9556H55.7734L34.7734 23.9556Z" fill="white"/>
</svg>
