<svg width="84" height="67" viewBox="0 0 84 67" fill="none" xmlns="http://www.w3.org/2000/svg">
<path fill-rule="evenodd" clip-rule="evenodd" d="M76.5739 51.288H76.4305C77.0499 49.7081 77.399 47.9857 77.399 46.1771C77.399 38.6501 71.4886 32.5484 64.1971 32.5484C62.6516 32.5484 61.1746 32.8366 59.7961 33.34C56.1662 28.7038 50.6188 25.7338 44.3943 25.7338C33.4576 25.7338 24.5914 34.8866 24.5914 46.1771C24.5914 47.9512 24.8333 49.664 25.2452 51.3058C21.2249 51.4023 17.9905 54.7812 17.9905 58.9542C17.9905 63.1879 21.3151 66.6205 25.4165 66.6205H76.5739C80.6754 66.6205 84 63.1879 84 58.9542C84 54.7205 80.6754 51.288 76.5739 51.288" fill="#0078D4"/>
<g style="mix-blend-mode:multiply">
<path fill-rule="evenodd" clip-rule="evenodd" d="M30.1718 10.8621C30.1718 16.8609 25.3087 21.7241 19.3099 21.7241C13.3111 21.7241 8.448 16.8609 8.448 10.8621C8.448 4.86319 13.3111 0 19.3099 0C25.3087 0 30.1718 4.86319 30.1718 10.8621" fill="#50E6FF"/>
<path fill-rule="evenodd" clip-rule="evenodd" d="M19.31 26.5518H19.3106C29.9752 26.5518 38.6207 35.1974 38.6207 45.8621V48.2759H0V45.8621C0 35.1974 8.64547 26.5518 19.31 26.5518" fill="#50E6FF"/>
</g>
<rect x="53.0326" y="41.2711" width="2.4448" height="13.9015" fill="white"/>
<rect x="61.1819" y="46.995" width="2.4532" height="13.8538" transform="rotate(90 61.1819 46.995)" fill="white"/>
</svg>
