<?xml version="1.0" encoding="UTF-8"?>
<svg width="102px" height="72px" viewBox="0 0 102 72" version="1.1" xmlns="http://www.w3.org/2000/svg" xmlns:xlink="http://www.w3.org/1999/xlink">
    <!-- Generator: Sketch 59 (86127) - https://sketch.com -->
    <title>Group 3</title>
    <desc>Created with Sketch.</desc>
    <g id="Page-1" stroke="none" stroke-width="1" fill="none" fill-rule="evenodd">
        <g id="Group-3" fill="#A7B8B8">
            <path d="M93.6133,17.768 C93.6133,15.143 92.5633,12.617 90.7353,10.836 C88.8963,9.046 86.5053,8.17 83.9913,8.37 C81.5923,8.56 79.4183,9.764 77.8673,11.758 C76.2563,13.83 75.5163,16.548 75.8383,19.213 C76.2133,22.314 77.8843,24.836 80.4253,26.141 C80.7693,26.317 81.0003,26.655 81.0003,27.042 L81.0003,30.344 L84.0003,30.344 L84.0003,23.344 L82.0003,23.344 L82.0003,21.344 L87.0003,21.344 L87.0003,23.344 L86.0003,23.344 L86.0003,30.344 L88.0003,30.344 L88.0003,27.042 C88.0003,26.657 88.2283,26.318 88.5723,26.142 C91.6823,24.549 93.6133,21.344 93.6133,17.768 L93.6133,17.768 Z M92.1623,9.37 C94.4183,11.527 95.7123,14.588 95.7123,17.768 C95.7123,21.921 93.5393,25.659 90.0003,27.668 L90.0003,31.344 C90.0003,31.896 89.5523,32.344 89.0003,32.344 L80.0003,32.344 C79.4473,32.344 79.0003,31.896 79.0003,31.344 L79.0003,27.666 C76.1003,25.999 74.2043,23.044 73.7623,19.465 C73.3693,16.258 74.2743,12.989 76.2483,10.494 C78.1653,8.07 80.8603,6.608 83.8373,6.375 C86.9303,6.135 89.8913,7.197 92.1623,9.37 L92.1623,9.37 Z M62.0003,37.158 L62.0003,26.688 L55.0003,30 L55.0003,40.845 L62.0003,37.158 Z M53.0003,54.842 L53.0003,44.158 L45.0003,47.713 L45.0003,58.842 L53.0003,54.842 Z M36.0003,54.857 L43.0003,58.546 L43.0003,47.76 L36.0003,44.449 L36.0003,54.857 Z M26.0003,37.176 L33.0003,40.676 L33.0003,30.065 L26.0003,26.753 L26.0003,37.176 Z M27.2813,25.088 L34.2683,28.394 L41.9353,24.986 L34.4413,21.316 L27.2813,25.088 Z M43.0003,37.344 L43.0003,26.697 L35.0003,30.252 L35.0003,41.648 L43.1673,37.344 L43.0003,37.344 Z M53.0003,30.262 L45.0003,26.67 L45.0003,37.11 L53.0003,41.11 L53.0003,30.262 Z M51.6663,42.617 L44.3873,38.977 L37.2213,42.753 L44.0683,45.994 L51.6663,42.617 Z M46.3753,25.039 L53.8453,28.393 L60.8703,25.07 L53.8563,21.374 L46.3753,25.039 Z M54.2143,19.368 L63.4663,24.243 C63.7953,24.416 64.0003,24.756 64.0003,25.127 L64.0003,37.761 C64.0003,38.132 63.7943,38.473 63.4663,38.646 L55.0003,43.106 L55.0003,55.46 C55.0003,55.839 54.7863,56.186 54.4473,56.355 L44.6983,61.23 C44.5573,61.3 44.4043,61.335 44.2513,61.335 C44.0913,61.335 43.9303,61.297 43.7853,61.22 L34.5343,56.345 C34.2053,56.172 34.0003,55.831 34.0003,55.46 L34.0003,43.413 L24.5523,38.689 C24.2143,38.519 24.0003,38.173 24.0003,37.794 L24.0003,25.094 C24.0003,24.723 24.2053,24.383 24.5343,24.209 L33.8343,19.31 C34.1163,19.161 34.4523,19.156 34.7393,19.296 L44.0843,23.873 L53.3083,19.355 C53.5943,19.213 53.9303,19.219 54.2143,19.368 L54.2143,19.368 Z M82.0003,37.344 L88.0003,37.344 L88.0003,35.344 L82.0003,35.344 L82.0003,37.344 Z M92.7753,0.788 L90.9373,0 L89.1363,4.2 L90.9743,4.988 L92.7753,0.788 Z M96.7703,22.717 L101.0703,24.517 L101.8423,22.672 L97.5423,20.872 L96.7703,22.717 Z M73.2503,10.875 L69.0503,9.075 L68.2623,10.913 L72.4633,12.713 L73.2503,10.875 Z M101.8423,10.916 L101.0703,9.072 L96.7703,10.872 L97.5423,12.717 L101.8423,10.916 Z M73.2503,22.713 L72.4633,20.875 L68.2623,22.675 L69.0503,24.513 L73.2503,22.713 Z M80.8833,4.219 L79.1823,0.019 L77.3293,0.769 L79.0293,4.969 L80.8833,4.219 Z M85.0003,69.344 L52.0003,69.344 L52.0003,71.344 L86.0003,71.344 C86.5523,71.344 87.0003,70.897 87.0003,70.344 L87.0003,42.344 L85.0003,42.344 L85.0003,69.344 Z M52.0643,66.438 L44.7233,70.414 C44.6893,70.433 44.6553,70.45 44.6203,70.463 C44.2543,70.611 43.8773,70.684 43.5003,70.684 C43.1233,70.684 42.7463,70.611 42.3803,70.463 C42.3443,70.45 42.3103,70.433 42.2763,70.414 L34.9053,66.422 C34.7703,66.356 34.7393,66.344 34.6843,66.344 L6.0003,66.344 C5.4473,66.344 5.0003,65.897 5.0003,65.344 L5.0003,19.344 L2.0003,19.344 L2.0003,69.344 L36.0003,69.344 L36.0003,71.344 L1.0003,71.344 C0.4473,71.344 0.0003,70.897 0.0003,70.344 L0.0003,18.344 C0.0003,17.792 0.4473,17.344 1.0003,17.344 L5.0003,17.344 L5.0003,12.344 C5.0003,11.792 5.4473,11.344 6.0003,11.344 L35.0833,11.344 C35.5793,11.344 36.0853,11.578 36.2273,11.649 L43.3353,15.56 C43.3983,15.592 43.5293,15.631 43.5763,15.637 C43.5703,15.631 43.7013,15.592 43.8003,15.542 L50.8363,11.667 C51.1143,11.528 51.4803,11.344 52.0153,11.344 L63.0003,11.344 L63.0003,13.344 L52.0153,13.344 C51.9613,13.344 51.9293,13.355 51.7653,13.438 L44.7293,17.312 C44.5513,17.402 44.0463,17.636 43.5503,17.636 C43.0533,17.636 42.5483,17.402 42.4053,17.331 L35.2983,13.419 C35.2343,13.388 35.1033,13.349 35.0563,13.343 L7.0003,13.344 L7.0003,64.344 L34.6843,64.344 C35.2193,64.344 35.5863,64.528 35.8293,64.649 L43.1723,68.625 C43.3963,68.706 43.6033,68.706 43.8283,68.625 L51.1403,64.664 C51.3123,64.578 51.8183,64.344 52.3143,64.344 L80.0003,64.344 L80.0003,42.344 L82.0003,42.344 L82.0003,65.344 C82.0003,65.897 81.5523,66.344 81.0003,66.344 L52.3143,66.344 C52.2943,66.349 52.1633,66.388 52.0643,66.438 L52.0643,66.438 Z" id="Fill-1"></path>
        </g>
    </g>
</svg>