<svg width="20" height="600" viewBox="0 0 20 600" fill="none" xmlns="http://www.w3.org/2000/svg">
<rect y="400.712" width="200.712" height="20" transform="rotate(-90 0 400.712)" fill="#0078D4"/>
<rect y="600" width="199.288" height="20" transform="rotate(-90 0 600)" fill="#243A5E"/>
<rect y="414.947" width="7.11744" height="20" transform="rotate(-90 0 414.947)" fill="#0078D4"/>
<rect y="426.334" width="4.27046" height="20" transform="rotate(-90 0 426.334)" fill="#0078D4"/>
<rect y="434.875" width="1.42349" height="20" transform="rotate(-90 0 434.875)" fill="#0078D4"/>
<rect y="200" width="200" height="20" transform="rotate(-90 0 200)" fill="#50E6FF"/>
<rect width="7.11744" height="20" transform="matrix(4.37114e-08 1 1 -4.37114e-08 0 185.765)" fill="#0078D4"/>
<rect width="4.27046" height="20" transform="matrix(4.37114e-08 1 1 -4.37114e-08 0 174.377)" fill="#0078D4"/>
<rect width="1.42349" height="20" transform="matrix(4.37114e-08 1 1 -4.37114e-08 0 165.836)" fill="#0078D4"/>
</svg>
