<svg width="536" height="393" viewBox="0 0 536 393" fill="none" xmlns="http://www.w3.org/2000/svg">
  <mask id="mask0" mask-type="alpha" maskUnits="userSpaceOnUse" x="0" y="0" width="536" height="393">
    <rect width="536" height="393" fill="#C4C4C4"/>
  </mask>
  <g mask="url(#mask0)">
    <g opacity="0.75" filter="url(#filter0_d)">
      <path d="M438.462 419.326L162.688 419.326C109.273 419.326 65.9726 376.025 65.9726 322.611C65.9726 269.197 109.273 225.896 162.688 225.896L438.462 225.896C491.876 225.896 535.177 269.197 535.177 322.611C535.177 376.025 491.876 419.326 438.462 419.326Z" stroke="#0078D4" stroke-width="2"/>
      <path d="M148.528 130.352C228.911 130.352 294.055 194.752 294.055 274.169C294.055 353.586 228.911 417.986 148.528 417.986C68.1438 417.986 3 353.586 3 274.169C3 194.752 68.1438 130.352 148.528 130.352Z" stroke="#0078D4" stroke-width="2"/>
      <path d="M386.643 170.788C417.024 170.788 441.626 195.027 441.626 224.896C441.626 254.764 417.024 279.004 386.643 279.004C356.262 279.004 331.661 254.764 331.661 224.896C331.661 195.027 356.262 170.788 386.643 170.788Z" stroke="#0078D4" stroke-width="2"/>
      <path d="M404.539 165.497C404.539 224.947 355.537 273.169 295.056 273.169C234.575 273.169 185.574 224.947 185.574 165.497C185.574 106.048 234.575 57.8262 295.056 57.8262C355.537 57.8262 404.539 106.048 404.539 165.497Z" stroke="#0078D4" stroke-width="2"/>
    </g>
  </g>
  <defs>
    <filter id="filter0_d" x="-12.8708" y="41.9554" width="563.919" height="393.242" filterUnits="userSpaceOnUse" color-interpolation-filters="sRGB">
      <feFlood flood-opacity="0" result="BackgroundImageFix"/>
      <feColorMatrix in="SourceAlpha" type="matrix" values="0 0 0 0 0 0 0 0 0 0 0 0 0 0 0 0 0 0 127 0"/>
      <feOffset/>
      <feGaussianBlur stdDeviation="7.43541"/>
      <feColorMatrix type="matrix" values="0 0 0 0 0 0 0 0 0 0.470588 0 0 0 0 0.831373 0 0 0 0.3 0"/>
      <feBlend mode="normal" in2="BackgroundImageFix" result="effect1_dropShadow"/>
      <feBlend mode="normal" in="SourceGraphic" in2="effect1_dropShadow" result="shape"/>
    </filter>
  </defs>
</svg>
