<svg xmlns="http://www.w3.org/2000/svg" width="120" height="120" viewBox="0 0 120 120"><title>nav-illo_AWS-Events_120</title><g id="Illustrations"><circle cx="13.47" cy="27.68" r="5.16" transform="translate(-1.78 0.94) rotate(-3.75)" style="fill:none;stroke:#aab7b8;stroke-linejoin:round;stroke-width:2px"/><line x1="7.38" y1="39.52" x2="19.54" y2="39.51" style="fill:none;stroke:#aab7b8;stroke-miterlimit:10;stroke-width:2px"/><line x1="7.38" y1="42.26" x2="19.54" y2="42.25" style="fill:none;stroke:#aab7b8;stroke-miterlimit:10;stroke-width:2px"/><path d="M10,12.06H8.55a1.64,1.64,0,1,0,0,3.27h9.82a1.64,1.64,0,0,0,0-3.27H16.9" style="fill:none;stroke:#aab7b8;stroke-miterlimit:10;stroke-width:2px"/><path d="M18.66,12.08h4.51a2.47,2.47,0,0,1,2.43,2.53l0,33a2.49,2.49,0,0,1-2.43,2.54l-19.47,0a2.47,2.47,0,0,1-2.43-2.53l0-12.58" style="fill:none;stroke:#aab7b8;stroke-miterlimit:10;stroke-width:2px"/><line x1="1.29" y1="30.23" x2="1.29" y2="24.7" style="fill:none;stroke:#aab7b8;stroke-miterlimit:10;stroke-width:2px"/><line x1="1.29" y1="33.7" x2="1.29" y2="31.62" style="fill:none;stroke:#aab7b8;stroke-miterlimit:10;stroke-width:2px"/><path d="M1.28,23.31V14.64A2.49,2.49,0,0,1,3.7,12.1H8.32" style="fill:none;stroke:#aab7b8;stroke-miterlimit:10;stroke-width:2px"/><rect x="10.72" y="5.67" width="5.48" height="6.52" style="fill:none;stroke:#aab7b8;stroke-linejoin:round;stroke-width:2px"/><polygon points="77.6 34.25 77.6 24.74 87.11 29.5 77.6 34.25" style="fill:none;stroke:#aab7b8;stroke-linejoin:round;stroke-width:2px"/><polyline points="53.63 30.09 53.63 24.48 53.63 15.13 79.42 15.13 100.33 15.13 111.08 15.13 111.08 47.03 102.97 47.03" style="fill:none;stroke:#aab7b8;stroke-linejoin:round;stroke-width:2px"/><line x1="70.07" y1="54.89" x2="73.76" y2="54.89" style="fill:none;stroke:#aab7b8;stroke-linejoin:round;stroke-width:2px"/><line x1="37.3" y1="54.89" x2="41.83" y2="54.89" style="fill:none;stroke:#aab7b8;stroke-linejoin:round;stroke-width:2px"/><line x1="65.51" y1="64.2" x2="79.6" y2="64.2" style="fill:none;stroke:#aab7b8;stroke-linejoin:round;stroke-width:2px"/><line x1="30.33" y1="64.2" x2="46.38" y2="64.2" style="fill:none;stroke:#aab7b8;stroke-linejoin:round;stroke-width:2px"/><path d="M12.86,53.87v2.27a7.57,7.57,0,1,1,0,15.13V87.92h10" style="fill:none;stroke:#aab7b8;stroke-linejoin:round;stroke-width:2px"/><line x1="39.55" y1="41.01" x2="29.33" y2="41.01" style="fill:none;stroke:#aab7b8;stroke-linejoin:round;stroke-width:2px"/><path d="M66.86,87.92h31V72.79a7.57,7.57,0,1,1,0-15.14V41H71.2" style="fill:none;stroke:#aab7b8;stroke-linejoin:round;stroke-width:2px"/><line x1="43.72" y1="87.92" x2="26.65" y2="87.92" style="fill:none;stroke:#aab7b8;stroke-miterlimit:10;stroke-width:2px"/><circle cx="55.58" cy="81.4" r="7.7" style="fill:none;stroke:#aab7b8;stroke-miterlimit:10;stroke-width:2px"/><path d="M55.58,89.11c-7.24,0-13.1,7.94-13.1,17.75a23.68,23.68,0,0,0,.53,5,33,33,0,0,0,25.15,0,23.68,23.68,0,0,0,.53-5C68.69,97.05,62.82,89.11,55.58,89.11Z" style="fill:none;stroke:#aab7b8;stroke-miterlimit:10;stroke-width:2px"/><path d="M67.26,45.91c0,6.57-11.91,23.23-11.91,23.23s-11.9-16.66-11.9-23.23a11.91,11.91,0,1,1,23.81,0Z" style="fill:none;stroke:#aab7b8;stroke-linejoin:round;stroke-width:2px"/><circle cx="55.35" cy="45.91" r="5.97" style="fill:none;stroke:#aab7b8;stroke-linejoin:round;stroke-width:2px"/></g></svg>